<?xml version="1.0" encoding="utf-8" standalone="no"?>
<!DOCTYPE svg PUBLIC "-//W3C//DTD SVG 1.1//EN"
  "http://www.w3.org/Graphics/SVG/1.1/DTD/svg11.dtd">
<svg height="500.594959pt" version="1.1" viewBox="0 0 525.582676 500.594959" width="525.582676pt" xmlns="http://www.w3.org/2000/svg" xmlns:xlink="http://www.w3.org/1999/xlink">
 <metadata>
  <rdf:RDF xmlns:cc="http://creativecommons.org/ns#" xmlns:dc="http://purl.org/dc/elements/1.1/" xmlns:rdf="http://www.w3.org/1999/02/22-rdf-syntax-ns#">
   <cc:Work>
    <dc:type rdf:resource="http://purl.org/dc/dcmitype/StillImage"/>
    <dc:date>2022-01-12T09:06:55.213318</dc:date>
    <dc:format>image/svg+xml</dc:format>
    <dc:creator>
     <cc:Agent>
      <dc:title>Matplotlib v3.4.3, https://matplotlib.org/</dc:title>
     </cc:Agent>
    </dc:creator>
   </cc:Work>
  </rdf:RDF>
 </metadata>
 <defs>
  <style type="text/css">*{stroke-linecap:butt;stroke-linejoin:round;}</style>
 </defs>
 <g id="figure_1">
  <g id="patch_1">
   <path d="M 0 500.594959 
L 525.582676 500.594959 
L 525.582676 0 
L 0 0 
z
" style="fill:#ffffff;"/>
  </g>
  <g id="axes_1">
   <g id="patch_2">
    <path d="M 61.663138 447.010626 
L 508.063138 447.010626 
L 508.063138 12.130626 
L 61.663138 12.130626 
z
" style="fill:#ffffff;"/>
   </g>
   <g id="matplotlib.axis_1">
    <g id="xtick_1">
     <g id="line2d_1">
      <path clip-path="url(#p0547568913)" d="M 61.663138 447.010626 
L 61.663138 12.130626 
" style="fill:none;stroke:#f2f2f2;stroke-linecap:round;"/>
     </g>
     <g id="line2d_2">
      <defs>
       <path d="M 0 0 
L 0 6 
" id="m9abc3fa9e2" style="stroke:#262626;stroke-width:1.25;"/>
      </defs>
      <g>
       <use style="fill:#262626;stroke:#262626;stroke-width:1.25;" x="61.663138" xlink:href="#m9abc3fa9e2" y="447.010626"/>
      </g>
     </g>
     <g id="text_1">
      <!-- 0.0 -->
      <g style="fill:#262626;" transform="translate(51.3436 466.371878)scale(0.12978 -0.12978)">
       <defs>
        <path d="M 2034 4250 
Q 1547 4250 1301 3770 
Q 1056 3291 1056 2328 
Q 1056 1369 1301 889 
Q 1547 409 2034 409 
Q 2525 409 2770 889 
Q 3016 1369 3016 2328 
Q 3016 3291 2770 3770 
Q 2525 4250 2034 4250 
z
M 2034 4750 
Q 2819 4750 3233 4129 
Q 3647 3509 3647 2328 
Q 3647 1150 3233 529 
Q 2819 -91 2034 -91 
Q 1250 -91 836 529 
Q 422 1150 422 2328 
Q 422 3509 836 4129 
Q 1250 4750 2034 4750 
z
" id="DejaVuSans-30" transform="scale(0.015625)"/>
        <path d="M 684 794 
L 1344 794 
L 1344 0 
L 684 0 
L 684 794 
z
" id="DejaVuSans-2e" transform="scale(0.015625)"/>
       </defs>
       <use xlink:href="#DejaVuSans-30"/>
       <use x="63.623047" xlink:href="#DejaVuSans-2e"/>
       <use x="95.410156" xlink:href="#DejaVuSans-30"/>
      </g>
     </g>
    </g>
    <g id="xtick_2">
     <g id="line2d_3">
      <path clip-path="url(#p0547568913)" d="M 150.943138 447.010626 
L 150.943138 12.130626 
" style="fill:none;stroke:#f2f2f2;stroke-linecap:round;"/>
     </g>
     <g id="line2d_4">
      <g>
       <use style="fill:#262626;stroke:#262626;stroke-width:1.25;" x="150.943138" xlink:href="#m9abc3fa9e2" y="447.010626"/>
      </g>
     </g>
     <g id="text_2">
      <!-- 0.2 -->
      <g style="fill:#262626;" transform="translate(140.6236 466.371878)scale(0.12978 -0.12978)">
       <defs>
        <path d="M 1228 531 
L 3431 531 
L 3431 0 
L 469 0 
L 469 531 
Q 828 903 1448 1529 
Q 2069 2156 2228 2338 
Q 2531 2678 2651 2914 
Q 2772 3150 2772 3378 
Q 2772 3750 2511 3984 
Q 2250 4219 1831 4219 
Q 1534 4219 1204 4116 
Q 875 4013 500 3803 
L 500 4441 
Q 881 4594 1212 4672 
Q 1544 4750 1819 4750 
Q 2544 4750 2975 4387 
Q 3406 4025 3406 3419 
Q 3406 3131 3298 2873 
Q 3191 2616 2906 2266 
Q 2828 2175 2409 1742 
Q 1991 1309 1228 531 
z
" id="DejaVuSans-32" transform="scale(0.015625)"/>
       </defs>
       <use xlink:href="#DejaVuSans-30"/>
       <use x="63.623047" xlink:href="#DejaVuSans-2e"/>
       <use x="95.410156" xlink:href="#DejaVuSans-32"/>
      </g>
     </g>
    </g>
    <g id="xtick_3">
     <g id="line2d_5">
      <path clip-path="url(#p0547568913)" d="M 240.223138 447.010626 
L 240.223138 12.130626 
" style="fill:none;stroke:#f2f2f2;stroke-linecap:round;"/>
     </g>
     <g id="line2d_6">
      <g>
       <use style="fill:#262626;stroke:#262626;stroke-width:1.25;" x="240.223138" xlink:href="#m9abc3fa9e2" y="447.010626"/>
      </g>
     </g>
     <g id="text_3">
      <!-- 0.4 -->
      <g style="fill:#262626;" transform="translate(229.9036 466.371878)scale(0.12978 -0.12978)">
       <defs>
        <path d="M 2419 4116 
L 825 1625 
L 2419 1625 
L 2419 4116 
z
M 2253 4666 
L 3047 4666 
L 3047 1625 
L 3713 1625 
L 3713 1100 
L 3047 1100 
L 3047 0 
L 2419 0 
L 2419 1100 
L 313 1100 
L 313 1709 
L 2253 4666 
z
" id="DejaVuSans-34" transform="scale(0.015625)"/>
       </defs>
       <use xlink:href="#DejaVuSans-30"/>
       <use x="63.623047" xlink:href="#DejaVuSans-2e"/>
       <use x="95.410156" xlink:href="#DejaVuSans-34"/>
      </g>
     </g>
    </g>
    <g id="xtick_4">
     <g id="line2d_7">
      <path clip-path="url(#p0547568913)" d="M 329.503138 447.010626 
L 329.503138 12.130626 
" style="fill:none;stroke:#f2f2f2;stroke-linecap:round;"/>
     </g>
     <g id="line2d_8">
      <g>
       <use style="fill:#262626;stroke:#262626;stroke-width:1.25;" x="329.503138" xlink:href="#m9abc3fa9e2" y="447.010626"/>
      </g>
     </g>
     <g id="text_4">
      <!-- 0.6 -->
      <g style="fill:#262626;" transform="translate(319.1836 466.371878)scale(0.12978 -0.12978)">
       <defs>
        <path d="M 2113 2584 
Q 1688 2584 1439 2293 
Q 1191 2003 1191 1497 
Q 1191 994 1439 701 
Q 1688 409 2113 409 
Q 2538 409 2786 701 
Q 3034 994 3034 1497 
Q 3034 2003 2786 2293 
Q 2538 2584 2113 2584 
z
M 3366 4563 
L 3366 3988 
Q 3128 4100 2886 4159 
Q 2644 4219 2406 4219 
Q 1781 4219 1451 3797 
Q 1122 3375 1075 2522 
Q 1259 2794 1537 2939 
Q 1816 3084 2150 3084 
Q 2853 3084 3261 2657 
Q 3669 2231 3669 1497 
Q 3669 778 3244 343 
Q 2819 -91 2113 -91 
Q 1303 -91 875 529 
Q 447 1150 447 2328 
Q 447 3434 972 4092 
Q 1497 4750 2381 4750 
Q 2619 4750 2861 4703 
Q 3103 4656 3366 4563 
z
" id="DejaVuSans-36" transform="scale(0.015625)"/>
       </defs>
       <use xlink:href="#DejaVuSans-30"/>
       <use x="63.623047" xlink:href="#DejaVuSans-2e"/>
       <use x="95.410156" xlink:href="#DejaVuSans-36"/>
      </g>
     </g>
    </g>
    <g id="xtick_5">
     <g id="line2d_9">
      <path clip-path="url(#p0547568913)" d="M 418.783138 447.010626 
L 418.783138 12.130626 
" style="fill:none;stroke:#f2f2f2;stroke-linecap:round;"/>
     </g>
     <g id="line2d_10">
      <g>
       <use style="fill:#262626;stroke:#262626;stroke-width:1.25;" x="418.783138" xlink:href="#m9abc3fa9e2" y="447.010626"/>
      </g>
     </g>
     <g id="text_5">
      <!-- 0.8 -->
      <g style="fill:#262626;" transform="translate(408.4636 466.371878)scale(0.12978 -0.12978)">
       <defs>
        <path d="M 2034 2216 
Q 1584 2216 1326 1975 
Q 1069 1734 1069 1313 
Q 1069 891 1326 650 
Q 1584 409 2034 409 
Q 2484 409 2743 651 
Q 3003 894 3003 1313 
Q 3003 1734 2745 1975 
Q 2488 2216 2034 2216 
z
M 1403 2484 
Q 997 2584 770 2862 
Q 544 3141 544 3541 
Q 544 4100 942 4425 
Q 1341 4750 2034 4750 
Q 2731 4750 3128 4425 
Q 3525 4100 3525 3541 
Q 3525 3141 3298 2862 
Q 3072 2584 2669 2484 
Q 3125 2378 3379 2068 
Q 3634 1759 3634 1313 
Q 3634 634 3220 271 
Q 2806 -91 2034 -91 
Q 1263 -91 848 271 
Q 434 634 434 1313 
Q 434 1759 690 2068 
Q 947 2378 1403 2484 
z
M 1172 3481 
Q 1172 3119 1398 2916 
Q 1625 2713 2034 2713 
Q 2441 2713 2670 2916 
Q 2900 3119 2900 3481 
Q 2900 3844 2670 4047 
Q 2441 4250 2034 4250 
Q 1625 4250 1398 4047 
Q 1172 3844 1172 3481 
z
" id="DejaVuSans-38" transform="scale(0.015625)"/>
       </defs>
       <use xlink:href="#DejaVuSans-30"/>
       <use x="63.623047" xlink:href="#DejaVuSans-2e"/>
       <use x="95.410156" xlink:href="#DejaVuSans-38"/>
      </g>
     </g>
    </g>
    <g id="xtick_6">
     <g id="line2d_11">
      <path clip-path="url(#p0547568913)" d="M 508.063138 447.010626 
L 508.063138 12.130626 
" style="fill:none;stroke:#f2f2f2;stroke-linecap:round;"/>
     </g>
     <g id="line2d_12">
      <g>
       <use style="fill:#262626;stroke:#262626;stroke-width:1.25;" x="508.063138" xlink:href="#m9abc3fa9e2" y="447.010626"/>
      </g>
     </g>
     <g id="text_6">
      <!-- 1.0 -->
      <g style="fill:#262626;" transform="translate(497.7436 466.371878)scale(0.12978 -0.12978)">
       <defs>
        <path d="M 794 531 
L 1825 531 
L 1825 4091 
L 703 3866 
L 703 4441 
L 1819 4666 
L 2450 4666 
L 2450 531 
L 3481 531 
L 3481 0 
L 794 0 
L 794 531 
z
" id="DejaVuSans-31" transform="scale(0.015625)"/>
       </defs>
       <use xlink:href="#DejaVuSans-31"/>
       <use x="63.623047" xlink:href="#DejaVuSans-2e"/>
       <use x="95.410156" xlink:href="#DejaVuSans-30"/>
      </g>
     </g>
    </g>
    <g id="text_7">
     <!-- False Positive Rate -->
     <g style="fill:#262626;" transform="translate(187.283685 489.027615)scale(0.21 -0.21)">
      <defs>
       <path d="M 628 4666 
L 3309 4666 
L 3309 4134 
L 1259 4134 
L 1259 2759 
L 3109 2759 
L 3109 2228 
L 1259 2228 
L 1259 0 
L 628 0 
L 628 4666 
z
" id="DejaVuSans-46" transform="scale(0.015625)"/>
       <path d="M 2194 1759 
Q 1497 1759 1228 1600 
Q 959 1441 959 1056 
Q 959 750 1161 570 
Q 1363 391 1709 391 
Q 2188 391 2477 730 
Q 2766 1069 2766 1631 
L 2766 1759 
L 2194 1759 
z
M 3341 1997 
L 3341 0 
L 2766 0 
L 2766 531 
Q 2569 213 2275 61 
Q 1981 -91 1556 -91 
Q 1019 -91 701 211 
Q 384 513 384 1019 
Q 384 1609 779 1909 
Q 1175 2209 1959 2209 
L 2766 2209 
L 2766 2266 
Q 2766 2663 2505 2880 
Q 2244 3097 1772 3097 
Q 1472 3097 1187 3025 
Q 903 2953 641 2809 
L 641 3341 
Q 956 3463 1253 3523 
Q 1550 3584 1831 3584 
Q 2591 3584 2966 3190 
Q 3341 2797 3341 1997 
z
" id="DejaVuSans-61" transform="scale(0.015625)"/>
       <path d="M 603 4863 
L 1178 4863 
L 1178 0 
L 603 0 
L 603 4863 
z
" id="DejaVuSans-6c" transform="scale(0.015625)"/>
       <path d="M 2834 3397 
L 2834 2853 
Q 2591 2978 2328 3040 
Q 2066 3103 1784 3103 
Q 1356 3103 1142 2972 
Q 928 2841 928 2578 
Q 928 2378 1081 2264 
Q 1234 2150 1697 2047 
L 1894 2003 
Q 2506 1872 2764 1633 
Q 3022 1394 3022 966 
Q 3022 478 2636 193 
Q 2250 -91 1575 -91 
Q 1294 -91 989 -36 
Q 684 19 347 128 
L 347 722 
Q 666 556 975 473 
Q 1284 391 1588 391 
Q 1994 391 2212 530 
Q 2431 669 2431 922 
Q 2431 1156 2273 1281 
Q 2116 1406 1581 1522 
L 1381 1569 
Q 847 1681 609 1914 
Q 372 2147 372 2553 
Q 372 3047 722 3315 
Q 1072 3584 1716 3584 
Q 2034 3584 2315 3537 
Q 2597 3491 2834 3397 
z
" id="DejaVuSans-73" transform="scale(0.015625)"/>
       <path d="M 3597 1894 
L 3597 1613 
L 953 1613 
Q 991 1019 1311 708 
Q 1631 397 2203 397 
Q 2534 397 2845 478 
Q 3156 559 3463 722 
L 3463 178 
Q 3153 47 2828 -22 
Q 2503 -91 2169 -91 
Q 1331 -91 842 396 
Q 353 884 353 1716 
Q 353 2575 817 3079 
Q 1281 3584 2069 3584 
Q 2775 3584 3186 3129 
Q 3597 2675 3597 1894 
z
M 3022 2063 
Q 3016 2534 2758 2815 
Q 2500 3097 2075 3097 
Q 1594 3097 1305 2825 
Q 1016 2553 972 2059 
L 3022 2063 
z
" id="DejaVuSans-65" transform="scale(0.015625)"/>
       <path id="DejaVuSans-20" transform="scale(0.015625)"/>
       <path d="M 1259 4147 
L 1259 2394 
L 2053 2394 
Q 2494 2394 2734 2622 
Q 2975 2850 2975 3272 
Q 2975 3691 2734 3919 
Q 2494 4147 2053 4147 
L 1259 4147 
z
M 628 4666 
L 2053 4666 
Q 2838 4666 3239 4311 
Q 3641 3956 3641 3272 
Q 3641 2581 3239 2228 
Q 2838 1875 2053 1875 
L 1259 1875 
L 1259 0 
L 628 0 
L 628 4666 
z
" id="DejaVuSans-50" transform="scale(0.015625)"/>
       <path d="M 1959 3097 
Q 1497 3097 1228 2736 
Q 959 2375 959 1747 
Q 959 1119 1226 758 
Q 1494 397 1959 397 
Q 2419 397 2687 759 
Q 2956 1122 2956 1747 
Q 2956 2369 2687 2733 
Q 2419 3097 1959 3097 
z
M 1959 3584 
Q 2709 3584 3137 3096 
Q 3566 2609 3566 1747 
Q 3566 888 3137 398 
Q 2709 -91 1959 -91 
Q 1206 -91 779 398 
Q 353 888 353 1747 
Q 353 2609 779 3096 
Q 1206 3584 1959 3584 
z
" id="DejaVuSans-6f" transform="scale(0.015625)"/>
       <path d="M 603 3500 
L 1178 3500 
L 1178 0 
L 603 0 
L 603 3500 
z
M 603 4863 
L 1178 4863 
L 1178 4134 
L 603 4134 
L 603 4863 
z
" id="DejaVuSans-69" transform="scale(0.015625)"/>
       <path d="M 1172 4494 
L 1172 3500 
L 2356 3500 
L 2356 3053 
L 1172 3053 
L 1172 1153 
Q 1172 725 1289 603 
Q 1406 481 1766 481 
L 2356 481 
L 2356 0 
L 1766 0 
Q 1100 0 847 248 
Q 594 497 594 1153 
L 594 3053 
L 172 3053 
L 172 3500 
L 594 3500 
L 594 4494 
L 1172 4494 
z
" id="DejaVuSans-74" transform="scale(0.015625)"/>
       <path d="M 191 3500 
L 800 3500 
L 1894 563 
L 2988 3500 
L 3597 3500 
L 2284 0 
L 1503 0 
L 191 3500 
z
" id="DejaVuSans-76" transform="scale(0.015625)"/>
       <path d="M 2841 2188 
Q 3044 2119 3236 1894 
Q 3428 1669 3622 1275 
L 4263 0 
L 3584 0 
L 2988 1197 
Q 2756 1666 2539 1819 
Q 2322 1972 1947 1972 
L 1259 1972 
L 1259 0 
L 628 0 
L 628 4666 
L 2053 4666 
Q 2853 4666 3247 4331 
Q 3641 3997 3641 3322 
Q 3641 2881 3436 2590 
Q 3231 2300 2841 2188 
z
M 1259 4147 
L 1259 2491 
L 2053 2491 
Q 2509 2491 2742 2702 
Q 2975 2913 2975 3322 
Q 2975 3731 2742 3939 
Q 2509 4147 2053 4147 
L 1259 4147 
z
" id="DejaVuSans-52" transform="scale(0.015625)"/>
      </defs>
      <use xlink:href="#DejaVuSans-46"/>
      <use x="48.394531" xlink:href="#DejaVuSans-61"/>
      <use x="109.673828" xlink:href="#DejaVuSans-6c"/>
      <use x="137.457031" xlink:href="#DejaVuSans-73"/>
      <use x="189.556641" xlink:href="#DejaVuSans-65"/>
      <use x="251.080078" xlink:href="#DejaVuSans-20"/>
      <use x="282.867188" xlink:href="#DejaVuSans-50"/>
      <use x="339.544922" xlink:href="#DejaVuSans-6f"/>
      <use x="400.726562" xlink:href="#DejaVuSans-73"/>
      <use x="452.826172" xlink:href="#DejaVuSans-69"/>
      <use x="480.609375" xlink:href="#DejaVuSans-74"/>
      <use x="519.818359" xlink:href="#DejaVuSans-69"/>
      <use x="547.601562" xlink:href="#DejaVuSans-76"/>
      <use x="606.78125" xlink:href="#DejaVuSans-65"/>
      <use x="668.304688" xlink:href="#DejaVuSans-20"/>
      <use x="700.091797" xlink:href="#DejaVuSans-52"/>
      <use x="767.324219" xlink:href="#DejaVuSans-61"/>
      <use x="828.603516" xlink:href="#DejaVuSans-74"/>
      <use x="867.8125" xlink:href="#DejaVuSans-65"/>
     </g>
    </g>
   </g>
   <g id="matplotlib.axis_2">
    <g id="ytick_1">
     <g id="line2d_13">
      <path clip-path="url(#p0547568913)" d="M 61.663138 447.010626 
L 508.063138 447.010626 
" style="fill:none;stroke:#f2f2f2;stroke-linecap:round;"/>
     </g>
     <g id="line2d_14">
      <defs>
       <path d="M 0 0 
L -6 0 
" id="m83a74db68a" style="stroke:#262626;stroke-width:1.25;"/>
      </defs>
      <g>
       <use style="fill:#262626;stroke:#262626;stroke-width:1.25;" x="61.663138" xlink:href="#m83a74db68a" y="447.010626"/>
      </g>
     </g>
     <g id="text_8">
      <!-- 0.0 -->
      <g style="fill:#262626;" transform="translate(31.524063 451.941252)scale(0.12978 -0.12978)">
       <use xlink:href="#DejaVuSans-30"/>
       <use x="63.623047" xlink:href="#DejaVuSans-2e"/>
       <use x="95.410156" xlink:href="#DejaVuSans-30"/>
      </g>
     </g>
    </g>
    <g id="ytick_2">
     <g id="line2d_15">
      <path clip-path="url(#p0547568913)" d="M 61.663138 360.034626 
L 508.063138 360.034626 
" style="fill:none;stroke:#f2f2f2;stroke-linecap:round;"/>
     </g>
     <g id="line2d_16">
      <g>
       <use style="fill:#262626;stroke:#262626;stroke-width:1.25;" x="61.663138" xlink:href="#m83a74db68a" y="360.034626"/>
      </g>
     </g>
     <g id="text_9">
      <!-- 0.2 -->
      <g style="fill:#262626;" transform="translate(31.524063 364.965252)scale(0.12978 -0.12978)">
       <use xlink:href="#DejaVuSans-30"/>
       <use x="63.623047" xlink:href="#DejaVuSans-2e"/>
       <use x="95.410156" xlink:href="#DejaVuSans-32"/>
      </g>
     </g>
    </g>
    <g id="ytick_3">
     <g id="line2d_17">
      <path clip-path="url(#p0547568913)" d="M 61.663138 273.058626 
L 508.063138 273.058626 
" style="fill:none;stroke:#f2f2f2;stroke-linecap:round;"/>
     </g>
     <g id="line2d_18">
      <g>
       <use style="fill:#262626;stroke:#262626;stroke-width:1.25;" x="61.663138" xlink:href="#m83a74db68a" y="273.058626"/>
      </g>
     </g>
     <g id="text_10">
      <!-- 0.4 -->
      <g style="fill:#262626;" transform="translate(31.524063 277.989252)scale(0.12978 -0.12978)">
       <use xlink:href="#DejaVuSans-30"/>
       <use x="63.623047" xlink:href="#DejaVuSans-2e"/>
       <use x="95.410156" xlink:href="#DejaVuSans-34"/>
      </g>
     </g>
    </g>
    <g id="ytick_4">
     <g id="line2d_19">
      <path clip-path="url(#p0547568913)" d="M 61.663138 186.082626 
L 508.063138 186.082626 
" style="fill:none;stroke:#f2f2f2;stroke-linecap:round;"/>
     </g>
     <g id="line2d_20">
      <g>
       <use style="fill:#262626;stroke:#262626;stroke-width:1.25;" x="61.663138" xlink:href="#m83a74db68a" y="186.082626"/>
      </g>
     </g>
     <g id="text_11">
      <!-- 0.6 -->
      <g style="fill:#262626;" transform="translate(31.524063 191.013252)scale(0.12978 -0.12978)">
       <use xlink:href="#DejaVuSans-30"/>
       <use x="63.623047" xlink:href="#DejaVuSans-2e"/>
       <use x="95.410156" xlink:href="#DejaVuSans-36"/>
      </g>
     </g>
    </g>
    <g id="ytick_5">
     <g id="line2d_21">
      <path clip-path="url(#p0547568913)" d="M 61.663138 99.106626 
L 508.063138 99.106626 
" style="fill:none;stroke:#f2f2f2;stroke-linecap:round;"/>
     </g>
     <g id="line2d_22">
      <g>
       <use style="fill:#262626;stroke:#262626;stroke-width:1.25;" x="61.663138" xlink:href="#m83a74db68a" y="99.106626"/>
      </g>
     </g>
     <g id="text_12">
      <!-- 0.8 -->
      <g style="fill:#262626;" transform="translate(31.524063 104.037252)scale(0.12978 -0.12978)">
       <use xlink:href="#DejaVuSans-30"/>
       <use x="63.623047" xlink:href="#DejaVuSans-2e"/>
       <use x="95.410156" xlink:href="#DejaVuSans-38"/>
      </g>
     </g>
    </g>
    <g id="ytick_6">
     <g id="line2d_23">
      <path clip-path="url(#p0547568913)" d="M 61.663138 12.130626 
L 508.063138 12.130626 
" style="fill:none;stroke:#f2f2f2;stroke-linecap:round;"/>
     </g>
     <g id="line2d_24">
      <g>
       <use style="fill:#262626;stroke:#262626;stroke-width:1.25;" x="61.663138" xlink:href="#m83a74db68a" y="12.130626"/>
      </g>
     </g>
     <g id="text_13">
      <!-- 1.0 -->
      <g style="fill:#262626;" transform="translate(31.524063 17.061252)scale(0.12978 -0.12978)">
       <use xlink:href="#DejaVuSans-31"/>
       <use x="63.623047" xlink:href="#DejaVuSans-2e"/>
       <use x="95.410156" xlink:href="#DejaVuSans-30"/>
      </g>
     </g>
    </g>
    <g id="text_14">
     <!-- True Positive Rate -->
     <g style="fill:#262626;" transform="translate(23.156719 323.08297)rotate(-90)scale(0.21 -0.21)">
      <defs>
       <path d="M -19 4666 
L 3928 4666 
L 3928 4134 
L 2272 4134 
L 2272 0 
L 1638 0 
L 1638 4134 
L -19 4134 
L -19 4666 
z
" id="DejaVuSans-54" transform="scale(0.015625)"/>
       <path d="M 2631 2963 
Q 2534 3019 2420 3045 
Q 2306 3072 2169 3072 
Q 1681 3072 1420 2755 
Q 1159 2438 1159 1844 
L 1159 0 
L 581 0 
L 581 3500 
L 1159 3500 
L 1159 2956 
Q 1341 3275 1631 3429 
Q 1922 3584 2338 3584 
Q 2397 3584 2469 3576 
Q 2541 3569 2628 3553 
L 2631 2963 
z
" id="DejaVuSans-72" transform="scale(0.015625)"/>
       <path d="M 544 1381 
L 544 3500 
L 1119 3500 
L 1119 1403 
Q 1119 906 1312 657 
Q 1506 409 1894 409 
Q 2359 409 2629 706 
Q 2900 1003 2900 1516 
L 2900 3500 
L 3475 3500 
L 3475 0 
L 2900 0 
L 2900 538 
Q 2691 219 2414 64 
Q 2138 -91 1772 -91 
Q 1169 -91 856 284 
Q 544 659 544 1381 
z
M 1991 3584 
L 1991 3584 
z
" id="DejaVuSans-75" transform="scale(0.015625)"/>
      </defs>
      <use xlink:href="#DejaVuSans-54"/>
      <use x="46.333984" xlink:href="#DejaVuSans-72"/>
      <use x="87.447266" xlink:href="#DejaVuSans-75"/>
      <use x="150.826172" xlink:href="#DejaVuSans-65"/>
      <use x="212.349609" xlink:href="#DejaVuSans-20"/>
      <use x="244.136719" xlink:href="#DejaVuSans-50"/>
      <use x="300.814453" xlink:href="#DejaVuSans-6f"/>
      <use x="361.996094" xlink:href="#DejaVuSans-73"/>
      <use x="414.095703" xlink:href="#DejaVuSans-69"/>
      <use x="441.878906" xlink:href="#DejaVuSans-74"/>
      <use x="481.087891" xlink:href="#DejaVuSans-69"/>
      <use x="508.871094" xlink:href="#DejaVuSans-76"/>
      <use x="568.050781" xlink:href="#DejaVuSans-65"/>
      <use x="629.574219" xlink:href="#DejaVuSans-20"/>
      <use x="661.361328" xlink:href="#DejaVuSans-52"/>
      <use x="728.59375" xlink:href="#DejaVuSans-61"/>
      <use x="789.873047" xlink:href="#DejaVuSans-74"/>
      <use x="829.082031" xlink:href="#DejaVuSans-65"/>
     </g>
    </g>
   </g>
   <g id="line2d_25">
    <path clip-path="url(#p0547568913)" d="M 61.663138 447.010626 
L 61.663138 444.222934 
L 61.663138 196.118318 
L 64.580785 196.118318 
L 64.580785 159.878318 
L 67.498432 159.878318 
L 67.498432 151.515241 
L 70.416079 151.515241 
L 70.416079 137.57678 
L 73.333726 137.57678 
L 73.333726 132.001395 
L 76.251373 132.001395 
L 76.251373 104.124472 
L 79.16902 104.124472 
L 79.16902 95.761395 
L 87.921962 95.761395 
L 87.921962 90.186011 
L 93.757256 90.186011 
L 93.757256 87.398318 
L 99.59255 87.398318 
L 99.59255 76.247549 
L 105.427844 76.247549 
L 105.427844 73.459857 
L 108.345491 73.459857 
L 108.345491 70.672165 
L 111.263138 70.672165 
L 111.263138 67.884472 
L 120.016079 67.884472 
L 120.016079 65.09678 
L 122.933726 65.09678 
L 122.933726 59.521395 
L 134.604315 59.521395 
L 134.604315 53.946011 
L 155.027844 53.946011 
L 155.027844 51.158318 
L 157.945491 51.158318 
L 157.945491 48.370626 
L 163.780785 48.370626 
L 163.780785 42.795241 
L 172.533726 42.795241 
L 172.533726 37.219857 
L 178.36902 37.219857 
L 178.36902 34.432165 
L 181.286668 34.432165 
L 181.286668 31.644472 
L 190.039609 31.644472 
L 190.039609 28.85678 
L 195.874903 28.85678 
L 195.874903 23.281395 
L 219.216079 23.281395 
L 219.216079 20.493703 
L 338.839609 20.493703 
L 338.839609 17.706011 
L 341.757256 17.706011 
L 341.757256 14.918318 
L 365.098432 14.918318 
L 365.098432 12.130626 
L 508.063138 12.130626 
" style="fill:none;stroke:#015b52;stroke-linecap:round;stroke-width:1.5;"/>
   </g>
   <g id="line2d_26">
    <path clip-path="url(#p0547568913)" d="M 61.663138 447.010626 
L 61.663138 444.222934 
L 61.663138 204.481395 
L 64.580785 204.481395 
L 64.580785 140.364472 
L 67.498432 140.364472 
L 67.498432 126.426011 
L 70.416079 126.426011 
L 70.416079 123.638318 
L 76.251373 123.638318 
L 76.251373 118.062934 
L 79.16902 118.062934 
L 79.16902 101.33678 
L 82.086668 101.33678 
L 82.086668 95.761395 
L 96.674903 95.761395 
L 96.674903 90.186011 
L 99.59255 90.186011 
L 99.59255 84.610626 
L 102.510197 84.610626 
L 102.510197 81.822934 
L 105.427844 81.822934 
L 105.427844 79.035241 
L 108.345491 79.035241 
L 108.345491 73.459857 
L 111.263138 73.459857 
L 111.263138 70.672165 
L 114.180785 70.672165 
L 114.180785 67.884472 
L 120.016079 67.884472 
L 120.016079 59.521395 
L 131.686668 59.521395 
L 131.686668 53.946011 
L 149.19255 53.946011 
L 149.19255 51.158318 
L 157.945491 51.158318 
L 157.945491 48.370626 
L 160.863138 48.370626 
L 160.863138 45.582934 
L 166.698432 45.582934 
L 166.698432 42.795241 
L 178.36902 42.795241 
L 178.36902 37.219857 
L 181.286668 37.219857 
L 181.286668 31.644472 
L 195.874903 31.644472 
L 195.874903 28.85678 
L 198.79255 28.85678 
L 198.79255 23.281395 
L 225.051373 23.281395 
L 225.051373 20.493703 
L 321.333726 20.493703 
L 321.333726 17.706011 
L 350.510197 17.706011 
L 350.510197 14.918318 
L 365.098432 14.918318 
L 365.098432 12.130626 
L 508.063138 12.130626 
" style="fill:none;stroke:#1d8078;stroke-linecap:round;stroke-width:1.5;"/>
   </g>
   <g id="line2d_27">
    <path clip-path="url(#p0547568913)" d="M 61.663138 447.010626 
L 61.663138 444.222934 
L 61.663138 201.693703 
L 64.580785 201.693703 
L 64.580785 137.57678 
L 67.498432 137.57678 
L 67.498432 129.213703 
L 70.416079 129.213703 
L 70.416079 123.638318 
L 73.333726 123.638318 
L 73.333726 118.062934 
L 76.251373 118.062934 
L 76.251373 104.124472 
L 85.004315 104.124472 
L 85.004315 95.761395 
L 93.757256 95.761395 
L 93.757256 92.973703 
L 96.674903 92.973703 
L 96.674903 84.610626 
L 105.427844 84.610626 
L 105.427844 79.035241 
L 108.345491 79.035241 
L 108.345491 70.672165 
L 120.016079 70.672165 
L 120.016079 67.884472 
L 122.933726 67.884472 
L 122.933726 62.309088 
L 125.851373 62.309088 
L 125.851373 59.521395 
L 128.76902 59.521395 
L 128.76902 53.946011 
L 140.439609 53.946011 
L 140.439609 51.158318 
L 155.027844 51.158318 
L 155.027844 48.370626 
L 157.945491 48.370626 
L 157.945491 45.582934 
L 163.780785 45.582934 
L 163.780785 37.219857 
L 184.204315 37.219857 
L 184.204315 34.432165 
L 192.957256 34.432165 
L 192.957256 28.85678 
L 195.874903 28.85678 
L 195.874903 26.069088 
L 230.886668 26.069088 
L 230.886668 20.493703 
L 312.580785 20.493703 
L 312.580785 17.706011 
L 362.180785 17.706011 
L 362.180785 12.130626 
L 508.063138 12.130626 
" style="fill:none;stroke:#4da89f;stroke-linecap:round;stroke-width:1.5;"/>
   </g>
   <g id="line2d_28">
    <path clip-path="url(#p0547568913)" d="M 61.663138 447.010626 
L 61.663138 438.647549 
L 61.663138 204.481395 
L 64.580785 204.481395 
L 64.580785 143.152165 
L 67.498432 143.152165 
L 67.498432 137.57678 
L 70.416079 137.57678 
L 70.416079 134.789088 
L 73.333726 134.789088 
L 73.333726 101.33678 
L 76.251373 101.33678 
L 76.251373 92.973703 
L 82.086668 92.973703 
L 82.086668 90.186011 
L 85.004315 90.186011 
L 85.004315 87.398318 
L 96.674903 87.398318 
L 96.674903 84.610626 
L 105.427844 84.610626 
L 105.427844 81.822934 
L 108.345491 81.822934 
L 108.345491 79.035241 
L 111.263138 79.035241 
L 111.263138 65.09678 
L 128.76902 65.09678 
L 128.76902 51.158318 
L 146.274903 51.158318 
L 146.274903 48.370626 
L 149.19255 48.370626 
L 149.19255 45.582934 
L 152.110197 45.582934 
L 152.110197 42.795241 
L 157.945491 42.795241 
L 157.945491 40.007549 
L 166.698432 40.007549 
L 166.698432 37.219857 
L 184.204315 37.219857 
L 184.204315 34.432165 
L 192.957256 34.432165 
L 192.957256 31.644472 
L 198.79255 31.644472 
L 198.79255 26.069088 
L 233.804315 26.069088 
L 233.804315 23.281395 
L 260.063138 23.281395 
L 260.063138 20.493703 
L 309.663138 20.493703 
L 309.663138 17.706011 
L 350.510197 17.706011 
L 350.510197 14.918318 
L 359.263138 14.918318 
L 359.263138 12.130626 
L 508.063138 12.130626 
" style="fill:none;stroke:#84cfc3;stroke-linecap:round;stroke-width:1.5;"/>
   </g>
   <g id="line2d_29">
    <path clip-path="url(#p0547568913)" d="M 61.663138 447.010626 
L 61.663138 433.072165 
L 61.663138 204.481395 
L 64.580785 204.481395 
L 64.580785 151.515241 
L 67.498432 151.515241 
L 67.498432 148.727549 
L 70.416079 148.727549 
L 70.416079 145.939857 
L 73.333726 145.939857 
L 73.333726 101.33678 
L 79.16902 101.33678 
L 79.16902 95.761395 
L 82.086668 95.761395 
L 82.086668 92.973703 
L 87.921962 92.973703 
L 87.921962 84.610626 
L 93.757256 84.610626 
L 93.757256 81.822934 
L 96.674903 81.822934 
L 96.674903 76.247549 
L 99.59255 76.247549 
L 99.59255 73.459857 
L 105.427844 73.459857 
L 105.427844 70.672165 
L 108.345491 70.672165 
L 108.345491 67.884472 
L 114.180785 67.884472 
L 114.180785 59.521395 
L 125.851373 59.521395 
L 125.851373 53.946011 
L 137.521962 53.946011 
L 137.521962 48.370626 
L 140.439609 48.370626 
L 140.439609 45.582934 
L 146.274903 45.582934 
L 146.274903 40.007549 
L 163.780785 40.007549 
L 163.780785 37.219857 
L 178.36902 37.219857 
L 178.36902 34.432165 
L 192.957256 34.432165 
L 192.957256 31.644472 
L 198.79255 31.644472 
L 198.79255 28.85678 
L 210.463138 28.85678 
L 210.463138 26.069088 
L 236.721962 26.069088 
L 236.721962 23.281395 
L 277.56902 23.281395 
L 277.56902 20.493703 
L 306.745491 20.493703 
L 306.745491 17.706011 
L 350.510197 17.706011 
L 350.510197 14.918318 
L 353.427844 14.918318 
L 353.427844 12.130626 
L 508.063138 12.130626 
" style="fill:none;stroke:#bce5df;stroke-linecap:round;stroke-width:1.5;"/>
   </g>
   <g id="line2d_30">
    <path clip-path="url(#p0547568913)" d="M 61.663138 447.010626 
L 61.663138 430.284472 
L 61.663138 424.709088 
L 61.663138 419.133703 
L 61.663138 201.693703 
L 64.580785 201.693703 
L 64.580785 165.453703 
L 67.498432 165.453703 
L 67.498432 151.515241 
L 73.333726 151.515241 
L 73.333726 123.638318 
L 76.251373 123.638318 
L 76.251373 112.487549 
L 79.16902 112.487549 
L 79.16902 109.699857 
L 82.086668 109.699857 
L 82.086668 101.33678 
L 85.004315 101.33678 
L 85.004315 90.186011 
L 87.921962 90.186011 
L 87.921962 87.398318 
L 96.674903 87.398318 
L 96.674903 84.610626 
L 99.59255 84.610626 
L 99.59255 70.672165 
L 102.510197 70.672165 
L 102.510197 67.884472 
L 111.263138 67.884472 
L 111.263138 65.09678 
L 114.180785 65.09678 
L 114.180785 59.521395 
L 117.098432 59.521395 
L 117.098432 56.733703 
L 120.016079 56.733703 
L 120.016079 53.946011 
L 125.851373 53.946011 
L 125.851373 51.158318 
L 137.521962 51.158318 
L 137.521962 48.370626 
L 140.439609 48.370626 
L 140.439609 40.007549 
L 160.863138 40.007549 
L 160.863138 37.219857 
L 184.204315 37.219857 
L 184.204315 34.432165 
L 187.121962 34.432165 
L 187.121962 31.644472 
L 190.039609 31.644472 
L 190.039609 28.85678 
L 216.298432 28.85678 
L 216.298432 26.069088 
L 233.804315 26.069088 
L 233.804315 23.281395 
L 283.404315 23.281395 
L 283.404315 20.493703 
L 297.99255 20.493703 
L 297.99255 17.706011 
L 347.59255 17.706011 
L 347.59255 14.918318 
L 350.510197 14.918318 
L 350.510197 12.130626 
L 508.063138 12.130626 
" style="fill:none;stroke:#e4f1ef;stroke-linecap:round;stroke-width:1.5;"/>
   </g>
   <g id="line2d_31">
    <path clip-path="url(#p0547568913)" d="M 61.663138 447.010626 
L 61.663138 430.284472 
L 61.663138 424.709088 
L 61.663138 419.133703 
L 61.663138 201.693703 
L 64.580785 201.693703 
L 64.580785 179.392165 
L 67.498432 179.392165 
L 67.498432 176.604472 
L 70.416079 176.604472 
L 70.416079 173.81678 
L 73.333726 173.81678 
L 73.333726 134.789088 
L 76.251373 134.789088 
L 76.251373 115.275241 
L 82.086668 115.275241 
L 82.086668 109.699857 
L 85.004315 109.699857 
L 85.004315 98.549088 
L 87.921962 98.549088 
L 87.921962 92.973703 
L 90.839609 92.973703 
L 90.839609 90.186011 
L 93.757256 90.186011 
L 93.757256 87.398318 
L 96.674903 87.398318 
L 96.674903 81.822934 
L 102.510197 81.822934 
L 102.510197 73.459857 
L 105.427844 73.459857 
L 105.427844 70.672165 
L 108.345491 70.672165 
L 108.345491 67.884472 
L 111.263138 67.884472 
L 111.263138 65.09678 
L 114.180785 65.09678 
L 114.180785 56.733703 
L 125.851373 56.733703 
L 125.851373 53.946011 
L 128.76902 53.946011 
L 128.76902 42.795241 
L 152.110197 42.795241 
L 152.110197 40.007549 
L 157.945491 40.007549 
L 157.945491 37.219857 
L 175.451373 37.219857 
L 175.451373 31.644472 
L 195.874903 31.644472 
L 195.874903 28.85678 
L 210.463138 28.85678 
L 210.463138 26.069088 
L 222.133726 26.069088 
L 222.133726 23.281395 
L 283.404315 23.281395 
L 283.404315 20.493703 
L 297.99255 20.493703 
L 297.99255 17.706011 
L 344.674903 17.706011 
L 344.674903 14.918318 
L 347.59255 14.918318 
L 347.59255 12.130626 
L 508.063138 12.130626 
" style="fill:none;stroke:#f5f0e2;stroke-linecap:round;stroke-width:1.5;"/>
   </g>
   <g id="line2d_32">
    <path clip-path="url(#p0547568913)" d="M 61.663138 447.010626 
L 61.663138 430.284472 
L 61.663138 424.709088 
L 61.663138 419.133703 
L 61.663138 193.330626 
L 64.580785 193.330626 
L 64.580785 187.755241 
L 67.498432 187.755241 
L 67.498432 182.179857 
L 73.333726 182.179857 
L 73.333726 143.152165 
L 76.251373 143.152165 
L 76.251373 120.850626 
L 79.16902 120.850626 
L 79.16902 118.062934 
L 82.086668 118.062934 
L 82.086668 112.487549 
L 87.921962 112.487549 
L 87.921962 95.761395 
L 90.839609 95.761395 
L 90.839609 92.973703 
L 93.757256 92.973703 
L 93.757256 90.186011 
L 96.674903 90.186011 
L 96.674903 84.610626 
L 99.59255 84.610626 
L 99.59255 81.822934 
L 102.510197 81.822934 
L 102.510197 76.247549 
L 108.345491 76.247549 
L 108.345491 73.459857 
L 111.263138 73.459857 
L 111.263138 70.672165 
L 114.180785 70.672165 
L 114.180785 67.884472 
L 117.098432 67.884472 
L 117.098432 62.309088 
L 120.016079 62.309088 
L 120.016079 53.946011 
L 122.933726 53.946011 
L 122.933726 51.158318 
L 128.76902 51.158318 
L 128.76902 48.370626 
L 146.274903 48.370626 
L 146.274903 45.582934 
L 149.19255 45.582934 
L 149.19255 42.795241 
L 157.945491 42.795241 
L 157.945491 37.219857 
L 172.533726 37.219857 
L 172.533726 31.644472 
L 195.874903 31.644472 
L 195.874903 28.85678 
L 216.298432 28.85678 
L 216.298432 23.281395 
L 283.404315 23.281395 
L 283.404315 20.493703 
L 292.157256 20.493703 
L 292.157256 17.706011 
L 335.921962 17.706011 
L 335.921962 14.918318 
L 347.59255 14.918318 
L 347.59255 12.130626 
L 508.063138 12.130626 
" style="fill:none;stroke:#f2e2b8;stroke-linecap:round;stroke-width:1.5;"/>
   </g>
   <g id="line2d_33">
    <path clip-path="url(#p0547568913)" d="M 61.663138 447.010626 
L 61.663138 430.284472 
L 61.663138 427.49678 
L 61.663138 421.921395 
L 61.663138 190.542934 
L 70.416079 190.542934 
L 70.416079 184.967549 
L 73.333726 184.967549 
L 73.333726 151.515241 
L 76.251373 151.515241 
L 76.251373 129.213703 
L 82.086668 129.213703 
L 82.086668 115.275241 
L 87.921962 115.275241 
L 87.921962 101.33678 
L 93.757256 101.33678 
L 93.757256 92.973703 
L 96.674903 92.973703 
L 96.674903 84.610626 
L 99.59255 84.610626 
L 99.59255 81.822934 
L 102.510197 81.822934 
L 102.510197 76.247549 
L 111.263138 76.247549 
L 111.263138 73.459857 
L 117.098432 73.459857 
L 117.098432 62.309088 
L 120.016079 62.309088 
L 120.016079 59.521395 
L 125.851373 59.521395 
L 125.851373 56.733703 
L 131.686668 56.733703 
L 131.686668 53.946011 
L 134.604315 53.946011 
L 134.604315 51.158318 
L 137.521962 51.158318 
L 137.521962 48.370626 
L 157.945491 48.370626 
L 157.945491 45.582934 
L 160.863138 45.582934 
L 160.863138 40.007549 
L 166.698432 40.007549 
L 166.698432 37.219857 
L 172.533726 37.219857 
L 172.533726 31.644472 
L 190.039609 31.644472 
L 190.039609 28.85678 
L 210.463138 28.85678 
L 210.463138 26.069088 
L 227.96902 26.069088 
L 227.96902 23.281395 
L 283.404315 23.281395 
L 283.404315 20.493703 
L 286.321962 20.493703 
L 286.321962 17.706011 
L 333.004315 17.706011 
L 333.004315 14.918318 
L 347.59255 14.918318 
L 347.59255 12.130626 
L 508.063138 12.130626 
" style="fill:none;stroke:#e0c481;stroke-linecap:round;stroke-width:1.5;"/>
   </g>
   <g id="line2d_34">
    <path clip-path="url(#p0547568913)" d="M 61.663138 447.010626 
L 61.663138 430.284472 
L 61.663138 424.709088 
L 61.663138 416.346011 
L 61.663138 407.982934 
L 61.663138 399.619857 
L 61.663138 193.330626 
L 64.580785 193.330626 
L 64.580785 190.542934 
L 70.416079 190.542934 
L 70.416079 187.755241 
L 73.333726 187.755241 
L 73.333726 154.302934 
L 76.251373 154.302934 
L 76.251373 132.001395 
L 82.086668 132.001395 
L 82.086668 129.213703 
L 85.004315 129.213703 
L 85.004315 126.426011 
L 87.921962 126.426011 
L 87.921962 104.124472 
L 90.839609 104.124472 
L 90.839609 101.33678 
L 93.757256 101.33678 
L 93.757256 95.761395 
L 96.674903 95.761395 
L 96.674903 90.186011 
L 99.59255 90.186011 
L 99.59255 84.610626 
L 102.510197 84.610626 
L 102.510197 81.822934 
L 105.427844 81.822934 
L 105.427844 79.035241 
L 108.345491 79.035241 
L 108.345491 76.247549 
L 114.180785 76.247549 
L 114.180785 73.459857 
L 117.098432 73.459857 
L 117.098432 70.672165 
L 125.851373 70.672165 
L 125.851373 67.884472 
L 128.76902 67.884472 
L 128.76902 62.309088 
L 131.686668 62.309088 
L 131.686668 59.521395 
L 134.604315 59.521395 
L 134.604315 56.733703 
L 137.521962 56.733703 
L 137.521962 51.158318 
L 155.027844 51.158318 
L 155.027844 45.582934 
L 166.698432 45.582934 
L 166.698432 37.219857 
L 169.616079 37.219857 
L 169.616079 34.432165 
L 175.451373 34.432165 
L 175.451373 31.644472 
L 198.79255 31.644472 
L 198.79255 28.85678 
L 213.380785 28.85678 
L 213.380785 26.069088 
L 230.886668 26.069088 
L 230.886668 23.281395 
L 277.56902 23.281395 
L 277.56902 20.493703 
L 292.157256 20.493703 
L 292.157256 17.706011 
L 321.333726 17.706011 
L 321.333726 14.918318 
L 335.921962 14.918318 
L 335.921962 12.130626 
L 508.063138 12.130626 
" style="fill:none;stroke:#c99546;stroke-linecap:round;stroke-width:1.5;"/>
   </g>
   <g id="line2d_35">
    <path clip-path="url(#p0547568913)" d="M 61.663138 447.010626 
L 61.663138 430.284472 
L 61.663138 424.709088 
L 61.663138 421.921395 
L 61.663138 416.346011 
L 61.663138 407.982934 
L 61.663138 402.407549 
L 61.663138 196.118318 
L 67.498432 196.118318 
L 67.498432 190.542934 
L 70.416079 190.542934 
L 70.416079 176.604472 
L 73.333726 176.604472 
L 73.333726 154.302934 
L 76.251373 154.302934 
L 76.251373 134.789088 
L 82.086668 134.789088 
L 82.086668 132.001395 
L 85.004315 132.001395 
L 85.004315 129.213703 
L 87.921962 129.213703 
L 87.921962 101.33678 
L 90.839609 101.33678 
L 90.839609 98.549088 
L 99.59255 98.549088 
L 99.59255 92.973703 
L 102.510197 92.973703 
L 102.510197 90.186011 
L 108.345491 90.186011 
L 108.345491 76.247549 
L 114.180785 76.247549 
L 114.180785 73.459857 
L 122.933726 73.459857 
L 122.933726 70.672165 
L 125.851373 70.672165 
L 125.851373 67.884472 
L 131.686668 67.884472 
L 131.686668 62.309088 
L 134.604315 62.309088 
L 134.604315 59.521395 
L 140.439609 59.521395 
L 140.439609 56.733703 
L 143.357256 56.733703 
L 143.357256 51.158318 
L 146.274903 51.158318 
L 146.274903 48.370626 
L 163.780785 48.370626 
L 163.780785 42.795241 
L 166.698432 42.795241 
L 166.698432 40.007549 
L 169.616079 40.007549 
L 169.616079 37.219857 
L 181.286668 37.219857 
L 181.286668 34.432165 
L 190.039609 34.432165 
L 190.039609 31.644472 
L 195.874903 31.644472 
L 195.874903 28.85678 
L 216.298432 28.85678 
L 216.298432 26.069088 
L 233.804315 26.069088 
L 233.804315 23.281395 
L 277.56902 23.281395 
L 277.56902 20.493703 
L 292.157256 20.493703 
L 292.157256 17.706011 
L 315.498432 17.706011 
L 315.498432 14.918318 
L 330.086668 14.918318 
L 330.086668 12.130626 
L 508.063138 12.130626 
" style="fill:none;stroke:#a76a1d;stroke-linecap:round;stroke-width:1.5;"/>
   </g>
   <g id="line2d_36">
    <path clip-path="url(#p0547568913)" d="M 61.663138 447.010626 
L 61.663138 430.284472 
L 61.663138 424.709088 
L 61.663138 416.346011 
L 61.663138 410.770626 
L 61.663138 402.407549 
L 61.663138 198.906011 
L 67.498432 198.906011 
L 67.498432 187.755241 
L 70.416079 187.755241 
L 70.416079 171.029088 
L 73.333726 171.029088 
L 73.333726 162.666011 
L 76.251373 162.666011 
L 76.251373 137.57678 
L 85.004315 137.57678 
L 85.004315 129.213703 
L 87.921962 129.213703 
L 87.921962 101.33678 
L 96.674903 101.33678 
L 96.674903 98.549088 
L 102.510197 98.549088 
L 102.510197 95.761395 
L 105.427844 95.761395 
L 105.427844 92.973703 
L 108.345491 92.973703 
L 108.345491 76.247549 
L 114.180785 76.247549 
L 114.180785 73.459857 
L 125.851373 73.459857 
L 125.851373 67.884472 
L 131.686668 67.884472 
L 131.686668 62.309088 
L 137.521962 62.309088 
L 137.521962 59.521395 
L 143.357256 59.521395 
L 143.357256 51.158318 
L 149.19255 51.158318 
L 149.19255 48.370626 
L 166.698432 48.370626 
L 166.698432 42.795241 
L 172.533726 42.795241 
L 172.533726 40.007549 
L 178.36902 40.007549 
L 178.36902 37.219857 
L 192.957256 37.219857 
L 192.957256 28.85678 
L 216.298432 28.85678 
L 216.298432 26.069088 
L 239.639609 26.069088 
L 239.639609 23.281395 
L 274.651373 23.281395 
L 274.651373 20.493703 
L 297.99255 20.493703 
L 297.99255 17.706011 
L 306.745491 17.706011 
L 306.745491 14.918318 
L 321.333726 14.918318 
L 321.333726 12.130626 
L 508.063138 12.130626 
" style="fill:none;stroke:#7e4909;stroke-linecap:round;stroke-width:1.5;"/>
   </g>
   <g id="line2d_37">
    <path clip-path="url(#p0547568913)" d="M 61.663138 447.010626 
L 508.063138 12.130626 
" style="fill:none;stroke:#949494;stroke-linecap:round;stroke-width:0.5;"/>
   </g>
   <g id="patch_3">
    <path d="M 61.663138 447.010626 
L 61.663138 12.130626 
" style="fill:none;stroke:#262626;stroke-linecap:square;stroke-linejoin:miter;stroke-width:1.25;"/>
   </g>
   <g id="patch_4">
    <path d="M 508.063138 447.010626 
L 508.063138 12.130626 
" style="fill:none;stroke:#262626;stroke-linecap:square;stroke-linejoin:miter;stroke-width:1.25;"/>
   </g>
   <g id="patch_5">
    <path d="M 61.663138 447.010626 
L 508.063138 447.010626 
" style="fill:none;stroke:#262626;stroke-linecap:square;stroke-linejoin:miter;stroke-width:1.25;"/>
   </g>
   <g id="patch_6">
    <path d="M 61.663138 12.130626 
L 508.063138 12.130626 
" style="fill:none;stroke:#262626;stroke-linecap:square;stroke-linejoin:miter;stroke-width:1.25;"/>
   </g>
   <g id="legend_1">
    <g id="patch_7">
     <path d="M 390.961576 440.510626 
L 498.963138 440.510626 
Q 501.563138 440.510626 501.563138 437.910626 
L 501.563138 189.795376 
Q 501.563138 187.195376 498.963138 187.195376 
L 390.961576 187.195376 
Q 388.361576 187.195376 388.361576 189.795376 
L 388.361576 437.910626 
Q 388.361576 440.510626 390.961576 440.510626 
z
" style="fill:#ffffff;opacity:0.8;stroke:#cccccc;stroke-linejoin:miter;"/>
    </g>
    <g id="text_15">
     <!-- Age : AUROC -->
     <g style="fill:#262626;" transform="translate(398.140982 203.337126)scale(0.144 -0.144)">
      <defs>
       <path d="M 2188 4044 
L 1331 1722 
L 3047 1722 
L 2188 4044 
z
M 1831 4666 
L 2547 4666 
L 4325 0 
L 3669 0 
L 3244 1197 
L 1141 1197 
L 716 0 
L 50 0 
L 1831 4666 
z
" id="DejaVuSans-41" transform="scale(0.015625)"/>
       <path d="M 2906 1791 
Q 2906 2416 2648 2759 
Q 2391 3103 1925 3103 
Q 1463 3103 1205 2759 
Q 947 2416 947 1791 
Q 947 1169 1205 825 
Q 1463 481 1925 481 
Q 2391 481 2648 825 
Q 2906 1169 2906 1791 
z
M 3481 434 
Q 3481 -459 3084 -895 
Q 2688 -1331 1869 -1331 
Q 1566 -1331 1297 -1286 
Q 1028 -1241 775 -1147 
L 775 -588 
Q 1028 -725 1275 -790 
Q 1522 -856 1778 -856 
Q 2344 -856 2625 -561 
Q 2906 -266 2906 331 
L 2906 616 
Q 2728 306 2450 153 
Q 2172 0 1784 0 
Q 1141 0 747 490 
Q 353 981 353 1791 
Q 353 2603 747 3093 
Q 1141 3584 1784 3584 
Q 2172 3584 2450 3431 
Q 2728 3278 2906 2969 
L 2906 3500 
L 3481 3500 
L 3481 434 
z
" id="DejaVuSans-67" transform="scale(0.015625)"/>
       <path d="M 750 794 
L 1409 794 
L 1409 0 
L 750 0 
L 750 794 
z
M 750 3309 
L 1409 3309 
L 1409 2516 
L 750 2516 
L 750 3309 
z
" id="DejaVuSans-3a" transform="scale(0.015625)"/>
       <path d="M 556 4666 
L 1191 4666 
L 1191 1831 
Q 1191 1081 1462 751 
Q 1734 422 2344 422 
Q 2950 422 3222 751 
Q 3494 1081 3494 1831 
L 3494 4666 
L 4128 4666 
L 4128 1753 
Q 4128 841 3676 375 
Q 3225 -91 2344 -91 
Q 1459 -91 1007 375 
Q 556 841 556 1753 
L 556 4666 
z
" id="DejaVuSans-55" transform="scale(0.015625)"/>
       <path d="M 2522 4238 
Q 1834 4238 1429 3725 
Q 1025 3213 1025 2328 
Q 1025 1447 1429 934 
Q 1834 422 2522 422 
Q 3209 422 3611 934 
Q 4013 1447 4013 2328 
Q 4013 3213 3611 3725 
Q 3209 4238 2522 4238 
z
M 2522 4750 
Q 3503 4750 4090 4092 
Q 4678 3434 4678 2328 
Q 4678 1225 4090 567 
Q 3503 -91 2522 -91 
Q 1538 -91 948 565 
Q 359 1222 359 2328 
Q 359 3434 948 4092 
Q 1538 4750 2522 4750 
z
" id="DejaVuSans-4f" transform="scale(0.015625)"/>
       <path d="M 4122 4306 
L 4122 3641 
Q 3803 3938 3442 4084 
Q 3081 4231 2675 4231 
Q 1875 4231 1450 3742 
Q 1025 3253 1025 2328 
Q 1025 1406 1450 917 
Q 1875 428 2675 428 
Q 3081 428 3442 575 
Q 3803 722 4122 1019 
L 4122 359 
Q 3791 134 3420 21 
Q 3050 -91 2638 -91 
Q 1578 -91 968 557 
Q 359 1206 359 2328 
Q 359 3453 968 4101 
Q 1578 4750 2638 4750 
Q 3056 4750 3426 4639 
Q 3797 4528 4122 4306 
z
" id="DejaVuSans-43" transform="scale(0.015625)"/>
      </defs>
      <use xlink:href="#DejaVuSans-41"/>
      <use x="68.408203" xlink:href="#DejaVuSans-67"/>
      <use x="131.884766" xlink:href="#DejaVuSans-65"/>
      <use x="193.408203" xlink:href="#DejaVuSans-20"/>
      <use x="225.195312" xlink:href="#DejaVuSans-3a"/>
      <use x="258.886719" xlink:href="#DejaVuSans-20"/>
      <use x="290.673828" xlink:href="#DejaVuSans-41"/>
      <use x="359.082031" xlink:href="#DejaVuSans-55"/>
      <use x="432.275391" xlink:href="#DejaVuSans-52"/>
      <use x="501.757812" xlink:href="#DejaVuSans-4f"/>
      <use x="580.46875" xlink:href="#DejaVuSans-43"/>
     </g>
    </g>
    <g id="line2d_38">
     <path d="M 393.561576 218.159845 
L 419.561576 218.159845 
" style="fill:none;stroke:#015b52;stroke-linecap:round;stroke-width:1.5;"/>
    </g>
    <g id="line2d_39"/>
    <g id="text_16">
     <!-- 20 : 0.953 -->
     <g style="fill:#262626;" transform="translate(429.961576 222.709845)scale(0.13 -0.13)">
      <defs>
       <path d="M 703 97 
L 703 672 
Q 941 559 1184 500 
Q 1428 441 1663 441 
Q 2288 441 2617 861 
Q 2947 1281 2994 2138 
Q 2813 1869 2534 1725 
Q 2256 1581 1919 1581 
Q 1219 1581 811 2004 
Q 403 2428 403 3163 
Q 403 3881 828 4315 
Q 1253 4750 1959 4750 
Q 2769 4750 3195 4129 
Q 3622 3509 3622 2328 
Q 3622 1225 3098 567 
Q 2575 -91 1691 -91 
Q 1453 -91 1209 -44 
Q 966 3 703 97 
z
M 1959 2075 
Q 2384 2075 2632 2365 
Q 2881 2656 2881 3163 
Q 2881 3666 2632 3958 
Q 2384 4250 1959 4250 
Q 1534 4250 1286 3958 
Q 1038 3666 1038 3163 
Q 1038 2656 1286 2365 
Q 1534 2075 1959 2075 
z
" id="DejaVuSans-39" transform="scale(0.015625)"/>
       <path d="M 691 4666 
L 3169 4666 
L 3169 4134 
L 1269 4134 
L 1269 2991 
Q 1406 3038 1543 3061 
Q 1681 3084 1819 3084 
Q 2600 3084 3056 2656 
Q 3513 2228 3513 1497 
Q 3513 744 3044 326 
Q 2575 -91 1722 -91 
Q 1428 -91 1123 -41 
Q 819 9 494 109 
L 494 744 
Q 775 591 1075 516 
Q 1375 441 1709 441 
Q 2250 441 2565 725 
Q 2881 1009 2881 1497 
Q 2881 1984 2565 2268 
Q 2250 2553 1709 2553 
Q 1456 2553 1204 2497 
Q 953 2441 691 2322 
L 691 4666 
z
" id="DejaVuSans-35" transform="scale(0.015625)"/>
       <path d="M 2597 2516 
Q 3050 2419 3304 2112 
Q 3559 1806 3559 1356 
Q 3559 666 3084 287 
Q 2609 -91 1734 -91 
Q 1441 -91 1130 -33 
Q 819 25 488 141 
L 488 750 
Q 750 597 1062 519 
Q 1375 441 1716 441 
Q 2309 441 2620 675 
Q 2931 909 2931 1356 
Q 2931 1769 2642 2001 
Q 2353 2234 1838 2234 
L 1294 2234 
L 1294 2753 
L 1863 2753 
Q 2328 2753 2575 2939 
Q 2822 3125 2822 3475 
Q 2822 3834 2567 4026 
Q 2313 4219 1838 4219 
Q 1578 4219 1281 4162 
Q 984 4106 628 3988 
L 628 4550 
Q 988 4650 1302 4700 
Q 1616 4750 1894 4750 
Q 2613 4750 3031 4423 
Q 3450 4097 3450 3541 
Q 3450 3153 3228 2886 
Q 3006 2619 2597 2516 
z
" id="DejaVuSans-33" transform="scale(0.015625)"/>
      </defs>
      <use xlink:href="#DejaVuSans-32"/>
      <use x="63.623047" xlink:href="#DejaVuSans-30"/>
      <use x="127.246094" xlink:href="#DejaVuSans-20"/>
      <use x="159.033203" xlink:href="#DejaVuSans-3a"/>
      <use x="192.724609" xlink:href="#DejaVuSans-20"/>
      <use x="224.511719" xlink:href="#DejaVuSans-30"/>
      <use x="288.134766" xlink:href="#DejaVuSans-2e"/>
      <use x="319.921875" xlink:href="#DejaVuSans-39"/>
      <use x="383.544922" xlink:href="#DejaVuSans-35"/>
      <use x="447.167969" xlink:href="#DejaVuSans-33"/>
     </g>
    </g>
    <g id="line2d_40">
     <path d="M 393.561576 237.241407 
L 419.561576 237.241407 
" style="fill:none;stroke:#1d8078;stroke-linecap:round;stroke-width:1.5;"/>
    </g>
    <g id="line2d_41"/>
    <g id="text_17">
     <!-- 25 : 0.953 -->
     <g style="fill:#262626;" transform="translate(429.961576 241.791407)scale(0.13 -0.13)">
      <use xlink:href="#DejaVuSans-32"/>
      <use x="63.623047" xlink:href="#DejaVuSans-35"/>
      <use x="127.246094" xlink:href="#DejaVuSans-20"/>
      <use x="159.033203" xlink:href="#DejaVuSans-3a"/>
      <use x="192.724609" xlink:href="#DejaVuSans-20"/>
      <use x="224.511719" xlink:href="#DejaVuSans-30"/>
      <use x="288.134766" xlink:href="#DejaVuSans-2e"/>
      <use x="319.921875" xlink:href="#DejaVuSans-39"/>
      <use x="383.544922" xlink:href="#DejaVuSans-35"/>
      <use x="447.167969" xlink:href="#DejaVuSans-33"/>
     </g>
    </g>
    <g id="line2d_42">
     <path d="M 393.561576 256.32297 
L 419.561576 256.32297 
" style="fill:none;stroke:#4da89f;stroke-linecap:round;stroke-width:1.5;"/>
    </g>
    <g id="line2d_43"/>
    <g id="text_18">
     <!-- 30 : 0.953 -->
     <g style="fill:#262626;" transform="translate(429.961576 260.87297)scale(0.13 -0.13)">
      <use xlink:href="#DejaVuSans-33"/>
      <use x="63.623047" xlink:href="#DejaVuSans-30"/>
      <use x="127.246094" xlink:href="#DejaVuSans-20"/>
      <use x="159.033203" xlink:href="#DejaVuSans-3a"/>
      <use x="192.724609" xlink:href="#DejaVuSans-20"/>
      <use x="224.511719" xlink:href="#DejaVuSans-30"/>
      <use x="288.134766" xlink:href="#DejaVuSans-2e"/>
      <use x="319.921875" xlink:href="#DejaVuSans-39"/>
      <use x="383.544922" xlink:href="#DejaVuSans-35"/>
      <use x="447.167969" xlink:href="#DejaVuSans-33"/>
     </g>
    </g>
    <g id="line2d_44">
     <path d="M 393.561576 275.404532 
L 419.561576 275.404532 
" style="fill:none;stroke:#84cfc3;stroke-linecap:round;stroke-width:1.5;"/>
    </g>
    <g id="line2d_45"/>
    <g id="text_19">
     <!-- 35 : 0.954 -->
     <g style="fill:#262626;" transform="translate(429.961576 279.954532)scale(0.13 -0.13)">
      <use xlink:href="#DejaVuSans-33"/>
      <use x="63.623047" xlink:href="#DejaVuSans-35"/>
      <use x="127.246094" xlink:href="#DejaVuSans-20"/>
      <use x="159.033203" xlink:href="#DejaVuSans-3a"/>
      <use x="192.724609" xlink:href="#DejaVuSans-20"/>
      <use x="224.511719" xlink:href="#DejaVuSans-30"/>
      <use x="288.134766" xlink:href="#DejaVuSans-2e"/>
      <use x="319.921875" xlink:href="#DejaVuSans-39"/>
      <use x="383.544922" xlink:href="#DejaVuSans-35"/>
      <use x="447.167969" xlink:href="#DejaVuSans-34"/>
     </g>
    </g>
    <g id="line2d_46">
     <path d="M 393.561576 294.486095 
L 419.561576 294.486095 
" style="fill:none;stroke:#bce5df;stroke-linecap:round;stroke-width:1.5;"/>
    </g>
    <g id="line2d_47"/>
    <g id="text_20">
     <!-- 40 : 0.955 -->
     <g style="fill:#262626;" transform="translate(429.961576 299.036095)scale(0.13 -0.13)">
      <use xlink:href="#DejaVuSans-34"/>
      <use x="63.623047" xlink:href="#DejaVuSans-30"/>
      <use x="127.246094" xlink:href="#DejaVuSans-20"/>
      <use x="159.033203" xlink:href="#DejaVuSans-3a"/>
      <use x="192.724609" xlink:href="#DejaVuSans-20"/>
      <use x="224.511719" xlink:href="#DejaVuSans-30"/>
      <use x="288.134766" xlink:href="#DejaVuSans-2e"/>
      <use x="319.921875" xlink:href="#DejaVuSans-39"/>
      <use x="383.544922" xlink:href="#DejaVuSans-35"/>
      <use x="447.167969" xlink:href="#DejaVuSans-35"/>
     </g>
    </g>
    <g id="line2d_48">
     <path d="M 393.561576 313.567657 
L 419.561576 313.567657 
" style="fill:none;stroke:#e4f1ef;stroke-linecap:round;stroke-width:1.5;"/>
    </g>
    <g id="line2d_49"/>
    <g id="text_21">
     <!-- 45 : 0.954 -->
     <g style="fill:#262626;" transform="translate(429.961576 318.117657)scale(0.13 -0.13)">
      <use xlink:href="#DejaVuSans-34"/>
      <use x="63.623047" xlink:href="#DejaVuSans-35"/>
      <use x="127.246094" xlink:href="#DejaVuSans-20"/>
      <use x="159.033203" xlink:href="#DejaVuSans-3a"/>
      <use x="192.724609" xlink:href="#DejaVuSans-20"/>
      <use x="224.511719" xlink:href="#DejaVuSans-30"/>
      <use x="288.134766" xlink:href="#DejaVuSans-2e"/>
      <use x="319.921875" xlink:href="#DejaVuSans-39"/>
      <use x="383.544922" xlink:href="#DejaVuSans-35"/>
      <use x="447.167969" xlink:href="#DejaVuSans-34"/>
     </g>
    </g>
    <g id="line2d_50">
     <path d="M 393.561576 332.64922 
L 419.561576 332.64922 
" style="fill:none;stroke:#f5f0e2;stroke-linecap:round;stroke-width:1.5;"/>
    </g>
    <g id="line2d_51"/>
    <g id="text_22">
     <!-- 50 : 0.953 -->
     <g style="fill:#262626;" transform="translate(429.961576 337.19922)scale(0.13 -0.13)">
      <use xlink:href="#DejaVuSans-35"/>
      <use x="63.623047" xlink:href="#DejaVuSans-30"/>
      <use x="127.246094" xlink:href="#DejaVuSans-20"/>
      <use x="159.033203" xlink:href="#DejaVuSans-3a"/>
      <use x="192.724609" xlink:href="#DejaVuSans-20"/>
      <use x="224.511719" xlink:href="#DejaVuSans-30"/>
      <use x="288.134766" xlink:href="#DejaVuSans-2e"/>
      <use x="319.921875" xlink:href="#DejaVuSans-39"/>
      <use x="383.544922" xlink:href="#DejaVuSans-35"/>
      <use x="447.167969" xlink:href="#DejaVuSans-33"/>
     </g>
    </g>
    <g id="line2d_52">
     <path d="M 393.561576 351.730782 
L 419.561576 351.730782 
" style="fill:none;stroke:#f2e2b8;stroke-linecap:round;stroke-width:1.5;"/>
    </g>
    <g id="line2d_53"/>
    <g id="text_23">
     <!-- 55 : 0.952 -->
     <g style="fill:#262626;" transform="translate(429.961576 356.280782)scale(0.13 -0.13)">
      <use xlink:href="#DejaVuSans-35"/>
      <use x="63.623047" xlink:href="#DejaVuSans-35"/>
      <use x="127.246094" xlink:href="#DejaVuSans-20"/>
      <use x="159.033203" xlink:href="#DejaVuSans-3a"/>
      <use x="192.724609" xlink:href="#DejaVuSans-20"/>
      <use x="224.511719" xlink:href="#DejaVuSans-30"/>
      <use x="288.134766" xlink:href="#DejaVuSans-2e"/>
      <use x="319.921875" xlink:href="#DejaVuSans-39"/>
      <use x="383.544922" xlink:href="#DejaVuSans-35"/>
      <use x="447.167969" xlink:href="#DejaVuSans-32"/>
     </g>
    </g>
    <g id="line2d_54">
     <path d="M 393.561576 370.812345 
L 419.561576 370.812345 
" style="fill:none;stroke:#e0c481;stroke-linecap:round;stroke-width:1.5;"/>
    </g>
    <g id="line2d_55"/>
    <g id="text_24">
     <!-- 60 : 0.950 -->
     <g style="fill:#262626;" transform="translate(429.961576 375.362345)scale(0.13 -0.13)">
      <use xlink:href="#DejaVuSans-36"/>
      <use x="63.623047" xlink:href="#DejaVuSans-30"/>
      <use x="127.246094" xlink:href="#DejaVuSans-20"/>
      <use x="159.033203" xlink:href="#DejaVuSans-3a"/>
      <use x="192.724609" xlink:href="#DejaVuSans-20"/>
      <use x="224.511719" xlink:href="#DejaVuSans-30"/>
      <use x="288.134766" xlink:href="#DejaVuSans-2e"/>
      <use x="319.921875" xlink:href="#DejaVuSans-39"/>
      <use x="383.544922" xlink:href="#DejaVuSans-35"/>
      <use x="447.167969" xlink:href="#DejaVuSans-30"/>
     </g>
    </g>
    <g id="line2d_56">
     <path d="M 393.561576 389.893907 
L 419.561576 389.893907 
" style="fill:none;stroke:#c99546;stroke-linecap:round;stroke-width:1.5;"/>
    </g>
    <g id="line2d_57"/>
    <g id="text_25">
     <!-- 65 : 0.948 -->
     <g style="fill:#262626;" transform="translate(429.961576 394.443907)scale(0.13 -0.13)">
      <use xlink:href="#DejaVuSans-36"/>
      <use x="63.623047" xlink:href="#DejaVuSans-35"/>
      <use x="127.246094" xlink:href="#DejaVuSans-20"/>
      <use x="159.033203" xlink:href="#DejaVuSans-3a"/>
      <use x="192.724609" xlink:href="#DejaVuSans-20"/>
      <use x="224.511719" xlink:href="#DejaVuSans-30"/>
      <use x="288.134766" xlink:href="#DejaVuSans-2e"/>
      <use x="319.921875" xlink:href="#DejaVuSans-39"/>
      <use x="383.544922" xlink:href="#DejaVuSans-34"/>
      <use x="447.167969" xlink:href="#DejaVuSans-38"/>
     </g>
    </g>
    <g id="line2d_58">
     <path d="M 393.561576 408.97547 
L 419.561576 408.97547 
" style="fill:none;stroke:#a76a1d;stroke-linecap:round;stroke-width:1.5;"/>
    </g>
    <g id="line2d_59"/>
    <g id="text_26">
     <!-- 70 : 0.946 -->
     <g style="fill:#262626;" transform="translate(429.961576 413.52547)scale(0.13 -0.13)">
      <defs>
       <path d="M 525 4666 
L 3525 4666 
L 3525 4397 
L 1831 0 
L 1172 0 
L 2766 4134 
L 525 4134 
L 525 4666 
z
" id="DejaVuSans-37" transform="scale(0.015625)"/>
      </defs>
      <use xlink:href="#DejaVuSans-37"/>
      <use x="63.623047" xlink:href="#DejaVuSans-30"/>
      <use x="127.246094" xlink:href="#DejaVuSans-20"/>
      <use x="159.033203" xlink:href="#DejaVuSans-3a"/>
      <use x="192.724609" xlink:href="#DejaVuSans-20"/>
      <use x="224.511719" xlink:href="#DejaVuSans-30"/>
      <use x="288.134766" xlink:href="#DejaVuSans-2e"/>
      <use x="319.921875" xlink:href="#DejaVuSans-39"/>
      <use x="383.544922" xlink:href="#DejaVuSans-34"/>
      <use x="447.167969" xlink:href="#DejaVuSans-36"/>
     </g>
    </g>
    <g id="line2d_60">
     <path d="M 393.561576 428.057032 
L 419.561576 428.057032 
" style="fill:none;stroke:#7e4909;stroke-linecap:round;stroke-width:1.5;"/>
    </g>
    <g id="line2d_61"/>
    <g id="text_27">
     <!-- 75 : 0.945 -->
     <g style="fill:#262626;" transform="translate(429.961576 432.607032)scale(0.13 -0.13)">
      <use xlink:href="#DejaVuSans-37"/>
      <use x="63.623047" xlink:href="#DejaVuSans-35"/>
      <use x="127.246094" xlink:href="#DejaVuSans-20"/>
      <use x="159.033203" xlink:href="#DejaVuSans-3a"/>
      <use x="192.724609" xlink:href="#DejaVuSans-20"/>
      <use x="224.511719" xlink:href="#DejaVuSans-30"/>
      <use x="288.134766" xlink:href="#DejaVuSans-2e"/>
      <use x="319.921875" xlink:href="#DejaVuSans-39"/>
      <use x="383.544922" xlink:href="#DejaVuSans-34"/>
      <use x="447.167969" xlink:href="#DejaVuSans-35"/>
     </g>
    </g>
   </g>
  </g>
 </g>
 <defs>
  <clipPath id="p0547568913">
   <rect height="434.88" width="446.4" x="61.663138" y="12.130626"/>
  </clipPath>
 </defs>
</svg>
