<?xml version="1.0" encoding="utf-8" standalone="no"?>
<!DOCTYPE svg PUBLIC "-//W3C//DTD SVG 1.1//EN"
  "http://www.w3.org/Graphics/SVG/1.1/DTD/svg11.dtd">
<svg height="373.023531pt" version="1.1" viewBox="0 0 1045.793438 373.023531" width="1045.793438pt" xmlns="http://www.w3.org/2000/svg" xmlns:xlink="http://www.w3.org/1999/xlink">
 <metadata>
  <rdf:RDF xmlns:cc="http://creativecommons.org/ns#" xmlns:dc="http://purl.org/dc/elements/1.1/" xmlns:rdf="http://www.w3.org/1999/02/22-rdf-syntax-ns#">
   <cc:Work>
    <dc:type rdf:resource="http://purl.org/dc/dcmitype/StillImage"/>
    <dc:date>2022-01-13T16:05:07.501848</dc:date>
    <dc:format>image/svg+xml</dc:format>
    <dc:creator>
     <cc:Agent>
      <dc:title>Matplotlib v3.4.3, https://matplotlib.org/</dc:title>
     </cc:Agent>
    </dc:creator>
   </cc:Work>
  </rdf:RDF>
 </metadata>
 <defs>
  <style type="text/css">*{stroke-linecap:butt;stroke-linejoin:round;}</style>
 </defs>
 <g id="figure_1">
  <g id="patch_1">
   <path d="M -0 373.023531 
L 1045.793438 373.023531 
L 1045.793438 0 
L -0 0 
z
" style="fill:#ffffff;"/>
  </g>
  <g id="axes_1">
   <g id="patch_2">
    <path d="M 34.193438 333.36 
L 1038.593438 333.36 
L 1038.593438 7.2 
L 34.193438 7.2 
z
" style="fill:#ffffff;"/>
   </g>
   <g id="matplotlib.axis_1">
    <g id="xtick_1">
     <g id="line2d_1">
      <path clip-path="url(#pad44b449b8)" d="M 111.454976 333.36 
L 111.454976 7.2 
" style="fill:none;stroke:#f2f2f2;stroke-linecap:round;"/>
     </g>
     <g id="line2d_2">
      <defs>
       <path d="M 0 0 
L 0 6 
" id="m891d8347de" style="stroke:#262626;stroke-width:1.25;"/>
      </defs>
      <g>
       <use style="fill:#262626;stroke:#262626;stroke-width:1.25;" x="111.454976" xlink:href="#m891d8347de" y="333.36"/>
      </g>
     </g>
     <g id="text_1">
      <!-- AUROC -->
      <g style="fill:#262626;" transform="translate(91.675601 351.218281)scale(0.11 -0.11)">
       <defs>
        <path d="M 2188 4044 
L 1331 1722 
L 3047 1722 
L 2188 4044 
z
M 1831 4666 
L 2547 4666 
L 4325 0 
L 3669 0 
L 3244 1197 
L 1141 1197 
L 716 0 
L 50 0 
L 1831 4666 
z
" id="DejaVuSans-41" transform="scale(0.015625)"/>
        <path d="M 556 4666 
L 1191 4666 
L 1191 1831 
Q 1191 1081 1462 751 
Q 1734 422 2344 422 
Q 2950 422 3222 751 
Q 3494 1081 3494 1831 
L 3494 4666 
L 4128 4666 
L 4128 1753 
Q 4128 841 3676 375 
Q 3225 -91 2344 -91 
Q 1459 -91 1007 375 
Q 556 841 556 1753 
L 556 4666 
z
" id="DejaVuSans-55" transform="scale(0.015625)"/>
        <path d="M 2841 2188 
Q 3044 2119 3236 1894 
Q 3428 1669 3622 1275 
L 4263 0 
L 3584 0 
L 2988 1197 
Q 2756 1666 2539 1819 
Q 2322 1972 1947 1972 
L 1259 1972 
L 1259 0 
L 628 0 
L 628 4666 
L 2053 4666 
Q 2853 4666 3247 4331 
Q 3641 3997 3641 3322 
Q 3641 2881 3436 2590 
Q 3231 2300 2841 2188 
z
M 1259 4147 
L 1259 2491 
L 2053 2491 
Q 2509 2491 2742 2702 
Q 2975 2913 2975 3322 
Q 2975 3731 2742 3939 
Q 2509 4147 2053 4147 
L 1259 4147 
z
" id="DejaVuSans-52" transform="scale(0.015625)"/>
        <path d="M 2522 4238 
Q 1834 4238 1429 3725 
Q 1025 3213 1025 2328 
Q 1025 1447 1429 934 
Q 1834 422 2522 422 
Q 3209 422 3611 934 
Q 4013 1447 4013 2328 
Q 4013 3213 3611 3725 
Q 3209 4238 2522 4238 
z
M 2522 4750 
Q 3503 4750 4090 4092 
Q 4678 3434 4678 2328 
Q 4678 1225 4090 567 
Q 3503 -91 2522 -91 
Q 1538 -91 948 565 
Q 359 1222 359 2328 
Q 359 3434 948 4092 
Q 1538 4750 2522 4750 
z
" id="DejaVuSans-4f" transform="scale(0.015625)"/>
        <path d="M 4122 4306 
L 4122 3641 
Q 3803 3938 3442 4084 
Q 3081 4231 2675 4231 
Q 1875 4231 1450 3742 
Q 1025 3253 1025 2328 
Q 1025 1406 1450 917 
Q 1875 428 2675 428 
Q 3081 428 3442 575 
Q 3803 722 4122 1019 
L 4122 359 
Q 3791 134 3420 21 
Q 3050 -91 2638 -91 
Q 1578 -91 968 557 
Q 359 1206 359 2328 
Q 359 3453 968 4101 
Q 1578 4750 2638 4750 
Q 3056 4750 3426 4639 
Q 3797 4528 4122 4306 
z
" id="DejaVuSans-43" transform="scale(0.015625)"/>
       </defs>
       <use xlink:href="#DejaVuSans-41"/>
       <use x="68.408203" xlink:href="#DejaVuSans-55"/>
       <use x="141.601562" xlink:href="#DejaVuSans-52"/>
       <use x="211.083984" xlink:href="#DejaVuSans-4f"/>
       <use x="289.794922" xlink:href="#DejaVuSans-43"/>
      </g>
     </g>
    </g>
    <g id="xtick_2">
     <g id="line2d_3">
      <path clip-path="url(#pad44b449b8)" d="M 188.716514 333.36 
L 188.716514 7.2 
" style="fill:none;stroke:#f2f2f2;stroke-linecap:round;"/>
     </g>
     <g id="line2d_4">
      <g>
       <use style="fill:#262626;stroke:#262626;stroke-width:1.25;" x="188.716514" xlink:href="#m891d8347de" y="333.36"/>
      </g>
     </g>
     <g id="text_2">
      <!-- AUPRC -->
      <g style="fill:#262626;" transform="translate(170.225343 351.218281)scale(0.11 -0.11)">
       <defs>
        <path d="M 1259 4147 
L 1259 2394 
L 2053 2394 
Q 2494 2394 2734 2622 
Q 2975 2850 2975 3272 
Q 2975 3691 2734 3919 
Q 2494 4147 2053 4147 
L 1259 4147 
z
M 628 4666 
L 2053 4666 
Q 2838 4666 3239 4311 
Q 3641 3956 3641 3272 
Q 3641 2581 3239 2228 
Q 2838 1875 2053 1875 
L 1259 1875 
L 1259 0 
L 628 0 
L 628 4666 
z
" id="DejaVuSans-50" transform="scale(0.015625)"/>
       </defs>
       <use xlink:href="#DejaVuSans-41"/>
       <use x="68.408203" xlink:href="#DejaVuSans-55"/>
       <use x="141.601562" xlink:href="#DejaVuSans-50"/>
       <use x="201.904297" xlink:href="#DejaVuSans-52"/>
       <use x="266.386719" xlink:href="#DejaVuSans-43"/>
      </g>
     </g>
    </g>
    <g id="xtick_3">
     <g id="line2d_5">
      <path clip-path="url(#pad44b449b8)" d="M 265.978053 333.36 
L 265.978053 7.2 
" style="fill:none;stroke:#f2f2f2;stroke-linecap:round;"/>
     </g>
     <g id="line2d_6">
      <g>
       <use style="fill:#262626;stroke:#262626;stroke-width:1.25;" x="265.978053" xlink:href="#m891d8347de" y="333.36"/>
      </g>
     </g>
     <g id="text_3">
      <!-- Balanced -->
      <g style="fill:#262626;" transform="translate(240.550006 351.218281)scale(0.11 -0.11)">
       <defs>
        <path d="M 1259 2228 
L 1259 519 
L 2272 519 
Q 2781 519 3026 730 
Q 3272 941 3272 1375 
Q 3272 1813 3026 2020 
Q 2781 2228 2272 2228 
L 1259 2228 
z
M 1259 4147 
L 1259 2741 
L 2194 2741 
Q 2656 2741 2882 2914 
Q 3109 3088 3109 3444 
Q 3109 3797 2882 3972 
Q 2656 4147 2194 4147 
L 1259 4147 
z
M 628 4666 
L 2241 4666 
Q 2963 4666 3353 4366 
Q 3744 4066 3744 3513 
Q 3744 3084 3544 2831 
Q 3344 2578 2956 2516 
Q 3422 2416 3680 2098 
Q 3938 1781 3938 1306 
Q 3938 681 3513 340 
Q 3088 0 2303 0 
L 628 0 
L 628 4666 
z
" id="DejaVuSans-42" transform="scale(0.015625)"/>
        <path d="M 2194 1759 
Q 1497 1759 1228 1600 
Q 959 1441 959 1056 
Q 959 750 1161 570 
Q 1363 391 1709 391 
Q 2188 391 2477 730 
Q 2766 1069 2766 1631 
L 2766 1759 
L 2194 1759 
z
M 3341 1997 
L 3341 0 
L 2766 0 
L 2766 531 
Q 2569 213 2275 61 
Q 1981 -91 1556 -91 
Q 1019 -91 701 211 
Q 384 513 384 1019 
Q 384 1609 779 1909 
Q 1175 2209 1959 2209 
L 2766 2209 
L 2766 2266 
Q 2766 2663 2505 2880 
Q 2244 3097 1772 3097 
Q 1472 3097 1187 3025 
Q 903 2953 641 2809 
L 641 3341 
Q 956 3463 1253 3523 
Q 1550 3584 1831 3584 
Q 2591 3584 2966 3190 
Q 3341 2797 3341 1997 
z
" id="DejaVuSans-61" transform="scale(0.015625)"/>
        <path d="M 603 4863 
L 1178 4863 
L 1178 0 
L 603 0 
L 603 4863 
z
" id="DejaVuSans-6c" transform="scale(0.015625)"/>
        <path d="M 3513 2113 
L 3513 0 
L 2938 0 
L 2938 2094 
Q 2938 2591 2744 2837 
Q 2550 3084 2163 3084 
Q 1697 3084 1428 2787 
Q 1159 2491 1159 1978 
L 1159 0 
L 581 0 
L 581 3500 
L 1159 3500 
L 1159 2956 
Q 1366 3272 1645 3428 
Q 1925 3584 2291 3584 
Q 2894 3584 3203 3211 
Q 3513 2838 3513 2113 
z
" id="DejaVuSans-6e" transform="scale(0.015625)"/>
        <path d="M 3122 3366 
L 3122 2828 
Q 2878 2963 2633 3030 
Q 2388 3097 2138 3097 
Q 1578 3097 1268 2742 
Q 959 2388 959 1747 
Q 959 1106 1268 751 
Q 1578 397 2138 397 
Q 2388 397 2633 464 
Q 2878 531 3122 666 
L 3122 134 
Q 2881 22 2623 -34 
Q 2366 -91 2075 -91 
Q 1284 -91 818 406 
Q 353 903 353 1747 
Q 353 2603 823 3093 
Q 1294 3584 2113 3584 
Q 2378 3584 2631 3529 
Q 2884 3475 3122 3366 
z
" id="DejaVuSans-63" transform="scale(0.015625)"/>
        <path d="M 3597 1894 
L 3597 1613 
L 953 1613 
Q 991 1019 1311 708 
Q 1631 397 2203 397 
Q 2534 397 2845 478 
Q 3156 559 3463 722 
L 3463 178 
Q 3153 47 2828 -22 
Q 2503 -91 2169 -91 
Q 1331 -91 842 396 
Q 353 884 353 1716 
Q 353 2575 817 3079 
Q 1281 3584 2069 3584 
Q 2775 3584 3186 3129 
Q 3597 2675 3597 1894 
z
M 3022 2063 
Q 3016 2534 2758 2815 
Q 2500 3097 2075 3097 
Q 1594 3097 1305 2825 
Q 1016 2553 972 2059 
L 3022 2063 
z
" id="DejaVuSans-65" transform="scale(0.015625)"/>
        <path d="M 2906 2969 
L 2906 4863 
L 3481 4863 
L 3481 0 
L 2906 0 
L 2906 525 
Q 2725 213 2448 61 
Q 2172 -91 1784 -91 
Q 1150 -91 751 415 
Q 353 922 353 1747 
Q 353 2572 751 3078 
Q 1150 3584 1784 3584 
Q 2172 3584 2448 3432 
Q 2725 3281 2906 2969 
z
M 947 1747 
Q 947 1113 1208 752 
Q 1469 391 1925 391 
Q 2381 391 2643 752 
Q 2906 1113 2906 1747 
Q 2906 2381 2643 2742 
Q 2381 3103 1925 3103 
Q 1469 3103 1208 2742 
Q 947 2381 947 1747 
z
" id="DejaVuSans-64" transform="scale(0.015625)"/>
       </defs>
       <use xlink:href="#DejaVuSans-42"/>
       <use x="68.603516" xlink:href="#DejaVuSans-61"/>
       <use x="129.882812" xlink:href="#DejaVuSans-6c"/>
       <use x="157.666016" xlink:href="#DejaVuSans-61"/>
       <use x="218.945312" xlink:href="#DejaVuSans-6e"/>
       <use x="282.324219" xlink:href="#DejaVuSans-63"/>
       <use x="337.304688" xlink:href="#DejaVuSans-65"/>
       <use x="398.828125" xlink:href="#DejaVuSans-64"/>
      </g>
      <!-- Accuracy -->
      <g style="fill:#262626;" transform="translate(240.867115 363.535875)scale(0.11 -0.11)">
       <defs>
        <path d="M 544 1381 
L 544 3500 
L 1119 3500 
L 1119 1403 
Q 1119 906 1312 657 
Q 1506 409 1894 409 
Q 2359 409 2629 706 
Q 2900 1003 2900 1516 
L 2900 3500 
L 3475 3500 
L 3475 0 
L 2900 0 
L 2900 538 
Q 2691 219 2414 64 
Q 2138 -91 1772 -91 
Q 1169 -91 856 284 
Q 544 659 544 1381 
z
M 1991 3584 
L 1991 3584 
z
" id="DejaVuSans-75" transform="scale(0.015625)"/>
        <path d="M 2631 2963 
Q 2534 3019 2420 3045 
Q 2306 3072 2169 3072 
Q 1681 3072 1420 2755 
Q 1159 2438 1159 1844 
L 1159 0 
L 581 0 
L 581 3500 
L 1159 3500 
L 1159 2956 
Q 1341 3275 1631 3429 
Q 1922 3584 2338 3584 
Q 2397 3584 2469 3576 
Q 2541 3569 2628 3553 
L 2631 2963 
z
" id="DejaVuSans-72" transform="scale(0.015625)"/>
        <path d="M 2059 -325 
Q 1816 -950 1584 -1140 
Q 1353 -1331 966 -1331 
L 506 -1331 
L 506 -850 
L 844 -850 
Q 1081 -850 1212 -737 
Q 1344 -625 1503 -206 
L 1606 56 
L 191 3500 
L 800 3500 
L 1894 763 
L 2988 3500 
L 3597 3500 
L 2059 -325 
z
" id="DejaVuSans-79" transform="scale(0.015625)"/>
       </defs>
       <use xlink:href="#DejaVuSans-41"/>
       <use x="66.658203" xlink:href="#DejaVuSans-63"/>
       <use x="121.638672" xlink:href="#DejaVuSans-63"/>
       <use x="176.619141" xlink:href="#DejaVuSans-75"/>
       <use x="239.998047" xlink:href="#DejaVuSans-72"/>
       <use x="281.111328" xlink:href="#DejaVuSans-61"/>
       <use x="342.390625" xlink:href="#DejaVuSans-63"/>
       <use x="397.371094" xlink:href="#DejaVuSans-79"/>
      </g>
     </g>
    </g>
    <g id="xtick_4">
     <g id="line2d_7">
      <path clip-path="url(#pad44b449b8)" d="M 343.239591 333.36 
L 343.239591 7.2 
" style="fill:none;stroke:#f2f2f2;stroke-linecap:round;"/>
     </g>
     <g id="line2d_8">
      <g>
       <use style="fill:#262626;stroke:#262626;stroke-width:1.25;" x="343.239591" xlink:href="#m891d8347de" y="333.36"/>
      </g>
     </g>
     <g id="text_4">
      <!-- Accuracy -->
      <g style="fill:#262626;" transform="translate(318.128654 351.218281)scale(0.11 -0.11)">
       <use xlink:href="#DejaVuSans-41"/>
       <use x="66.658203" xlink:href="#DejaVuSans-63"/>
       <use x="121.638672" xlink:href="#DejaVuSans-63"/>
       <use x="176.619141" xlink:href="#DejaVuSans-75"/>
       <use x="239.998047" xlink:href="#DejaVuSans-72"/>
       <use x="281.111328" xlink:href="#DejaVuSans-61"/>
       <use x="342.390625" xlink:href="#DejaVuSans-63"/>
       <use x="397.371094" xlink:href="#DejaVuSans-79"/>
      </g>
     </g>
    </g>
    <g id="xtick_5">
     <g id="line2d_9">
      <path clip-path="url(#pad44b449b8)" d="M 420.50113 333.36 
L 420.50113 7.2 
" style="fill:none;stroke:#f2f2f2;stroke-linecap:round;"/>
     </g>
     <g id="line2d_10">
      <g>
       <use style="fill:#262626;stroke:#262626;stroke-width:1.25;" x="420.50113" xlink:href="#m891d8347de" y="333.36"/>
      </g>
     </g>
     <g id="text_5">
      <!-- F1-Score -->
      <g style="fill:#262626;" transform="translate(396.45152 351.218281)scale(0.11 -0.11)">
       <defs>
        <path d="M 628 4666 
L 3309 4666 
L 3309 4134 
L 1259 4134 
L 1259 2759 
L 3109 2759 
L 3109 2228 
L 1259 2228 
L 1259 0 
L 628 0 
L 628 4666 
z
" id="DejaVuSans-46" transform="scale(0.015625)"/>
        <path d="M 794 531 
L 1825 531 
L 1825 4091 
L 703 3866 
L 703 4441 
L 1819 4666 
L 2450 4666 
L 2450 531 
L 3481 531 
L 3481 0 
L 794 0 
L 794 531 
z
" id="DejaVuSans-31" transform="scale(0.015625)"/>
        <path d="M 313 2009 
L 1997 2009 
L 1997 1497 
L 313 1497 
L 313 2009 
z
" id="DejaVuSans-2d" transform="scale(0.015625)"/>
        <path d="M 3425 4513 
L 3425 3897 
Q 3066 4069 2747 4153 
Q 2428 4238 2131 4238 
Q 1616 4238 1336 4038 
Q 1056 3838 1056 3469 
Q 1056 3159 1242 3001 
Q 1428 2844 1947 2747 
L 2328 2669 
Q 3034 2534 3370 2195 
Q 3706 1856 3706 1288 
Q 3706 609 3251 259 
Q 2797 -91 1919 -91 
Q 1588 -91 1214 -16 
Q 841 59 441 206 
L 441 856 
Q 825 641 1194 531 
Q 1563 422 1919 422 
Q 2459 422 2753 634 
Q 3047 847 3047 1241 
Q 3047 1584 2836 1778 
Q 2625 1972 2144 2069 
L 1759 2144 
Q 1053 2284 737 2584 
Q 422 2884 422 3419 
Q 422 4038 858 4394 
Q 1294 4750 2059 4750 
Q 2388 4750 2728 4690 
Q 3069 4631 3425 4513 
z
" id="DejaVuSans-53" transform="scale(0.015625)"/>
        <path d="M 1959 3097 
Q 1497 3097 1228 2736 
Q 959 2375 959 1747 
Q 959 1119 1226 758 
Q 1494 397 1959 397 
Q 2419 397 2687 759 
Q 2956 1122 2956 1747 
Q 2956 2369 2687 2733 
Q 2419 3097 1959 3097 
z
M 1959 3584 
Q 2709 3584 3137 3096 
Q 3566 2609 3566 1747 
Q 3566 888 3137 398 
Q 2709 -91 1959 -91 
Q 1206 -91 779 398 
Q 353 888 353 1747 
Q 353 2609 779 3096 
Q 1206 3584 1959 3584 
z
" id="DejaVuSans-6f" transform="scale(0.015625)"/>
       </defs>
       <use xlink:href="#DejaVuSans-46"/>
       <use x="57.519531" xlink:href="#DejaVuSans-31"/>
       <use x="121.142578" xlink:href="#DejaVuSans-2d"/>
       <use x="157.226562" xlink:href="#DejaVuSans-53"/>
       <use x="220.703125" xlink:href="#DejaVuSans-63"/>
       <use x="275.683594" xlink:href="#DejaVuSans-6f"/>
       <use x="336.865234" xlink:href="#DejaVuSans-72"/>
       <use x="375.728516" xlink:href="#DejaVuSans-65"/>
      </g>
     </g>
    </g>
    <g id="xtick_6">
     <g id="line2d_11">
      <path clip-path="url(#pad44b449b8)" d="M 497.762668 333.36 
L 497.762668 7.2 
" style="fill:none;stroke:#f2f2f2;stroke-linecap:round;"/>
     </g>
     <g id="line2d_12">
      <g>
       <use style="fill:#262626;stroke:#262626;stroke-width:1.25;" x="497.762668" xlink:href="#m891d8347de" y="333.36"/>
      </g>
     </g>
     <g id="text_6">
      <!-- Precision -->
      <g style="fill:#262626;" transform="translate(473.224934 351.218281)scale(0.11 -0.11)">
       <defs>
        <path d="M 603 3500 
L 1178 3500 
L 1178 0 
L 603 0 
L 603 3500 
z
M 603 4863 
L 1178 4863 
L 1178 4134 
L 603 4134 
L 603 4863 
z
" id="DejaVuSans-69" transform="scale(0.015625)"/>
        <path d="M 2834 3397 
L 2834 2853 
Q 2591 2978 2328 3040 
Q 2066 3103 1784 3103 
Q 1356 3103 1142 2972 
Q 928 2841 928 2578 
Q 928 2378 1081 2264 
Q 1234 2150 1697 2047 
L 1894 2003 
Q 2506 1872 2764 1633 
Q 3022 1394 3022 966 
Q 3022 478 2636 193 
Q 2250 -91 1575 -91 
Q 1294 -91 989 -36 
Q 684 19 347 128 
L 347 722 
Q 666 556 975 473 
Q 1284 391 1588 391 
Q 1994 391 2212 530 
Q 2431 669 2431 922 
Q 2431 1156 2273 1281 
Q 2116 1406 1581 1522 
L 1381 1569 
Q 847 1681 609 1914 
Q 372 2147 372 2553 
Q 372 3047 722 3315 
Q 1072 3584 1716 3584 
Q 2034 3584 2315 3537 
Q 2597 3491 2834 3397 
z
" id="DejaVuSans-73" transform="scale(0.015625)"/>
       </defs>
       <use xlink:href="#DejaVuSans-50"/>
       <use x="58.552734" xlink:href="#DejaVuSans-72"/>
       <use x="97.416016" xlink:href="#DejaVuSans-65"/>
       <use x="158.939453" xlink:href="#DejaVuSans-63"/>
       <use x="213.919922" xlink:href="#DejaVuSans-69"/>
       <use x="241.703125" xlink:href="#DejaVuSans-73"/>
       <use x="293.802734" xlink:href="#DejaVuSans-69"/>
       <use x="321.585938" xlink:href="#DejaVuSans-6f"/>
       <use x="382.767578" xlink:href="#DejaVuSans-6e"/>
      </g>
     </g>
    </g>
    <g id="xtick_7">
     <g id="line2d_13">
      <path clip-path="url(#pad44b449b8)" d="M 575.024207 333.36 
L 575.024207 7.2 
" style="fill:none;stroke:#f2f2f2;stroke-linecap:round;"/>
     </g>
     <g id="line2d_14">
      <g>
       <use style="fill:#262626;stroke:#262626;stroke-width:1.25;" x="575.024207" xlink:href="#m891d8347de" y="333.36"/>
      </g>
     </g>
     <g id="text_7">
      <!-- Sensitivity -->
      <g style="fill:#262626;" transform="translate(546.390691 351.218281)scale(0.11 -0.11)">
       <defs>
        <path d="M 1172 4494 
L 1172 3500 
L 2356 3500 
L 2356 3053 
L 1172 3053 
L 1172 1153 
Q 1172 725 1289 603 
Q 1406 481 1766 481 
L 2356 481 
L 2356 0 
L 1766 0 
Q 1100 0 847 248 
Q 594 497 594 1153 
L 594 3053 
L 172 3053 
L 172 3500 
L 594 3500 
L 594 4494 
L 1172 4494 
z
" id="DejaVuSans-74" transform="scale(0.015625)"/>
        <path d="M 191 3500 
L 800 3500 
L 1894 563 
L 2988 3500 
L 3597 3500 
L 2284 0 
L 1503 0 
L 191 3500 
z
" id="DejaVuSans-76" transform="scale(0.015625)"/>
       </defs>
       <use xlink:href="#DejaVuSans-53"/>
       <use x="63.476562" xlink:href="#DejaVuSans-65"/>
       <use x="125" xlink:href="#DejaVuSans-6e"/>
       <use x="188.378906" xlink:href="#DejaVuSans-73"/>
       <use x="240.478516" xlink:href="#DejaVuSans-69"/>
       <use x="268.261719" xlink:href="#DejaVuSans-74"/>
       <use x="307.470703" xlink:href="#DejaVuSans-69"/>
       <use x="335.253906" xlink:href="#DejaVuSans-76"/>
       <use x="394.433594" xlink:href="#DejaVuSans-69"/>
       <use x="422.216797" xlink:href="#DejaVuSans-74"/>
       <use x="461.425781" xlink:href="#DejaVuSans-79"/>
      </g>
     </g>
    </g>
    <g id="xtick_8">
     <g id="line2d_15">
      <path clip-path="url(#pad44b449b8)" d="M 652.285745 333.36 
L 652.285745 7.2 
" style="fill:none;stroke:#f2f2f2;stroke-linecap:round;"/>
     </g>
     <g id="line2d_16">
      <g>
       <use style="fill:#262626;stroke:#262626;stroke-width:1.25;" x="652.285745" xlink:href="#m891d8347de" y="333.36"/>
      </g>
     </g>
     <g id="text_8">
      <!-- Specificity -->
      <g style="fill:#262626;" transform="translate(623.938401 351.218281)scale(0.11 -0.11)">
       <defs>
        <path d="M 1159 525 
L 1159 -1331 
L 581 -1331 
L 581 3500 
L 1159 3500 
L 1159 2969 
Q 1341 3281 1617 3432 
Q 1894 3584 2278 3584 
Q 2916 3584 3314 3078 
Q 3713 2572 3713 1747 
Q 3713 922 3314 415 
Q 2916 -91 2278 -91 
Q 1894 -91 1617 61 
Q 1341 213 1159 525 
z
M 3116 1747 
Q 3116 2381 2855 2742 
Q 2594 3103 2138 3103 
Q 1681 3103 1420 2742 
Q 1159 2381 1159 1747 
Q 1159 1113 1420 752 
Q 1681 391 2138 391 
Q 2594 391 2855 752 
Q 3116 1113 3116 1747 
z
" id="DejaVuSans-70" transform="scale(0.015625)"/>
        <path d="M 2375 4863 
L 2375 4384 
L 1825 4384 
Q 1516 4384 1395 4259 
Q 1275 4134 1275 3809 
L 1275 3500 
L 2222 3500 
L 2222 3053 
L 1275 3053 
L 1275 0 
L 697 0 
L 697 3053 
L 147 3053 
L 147 3500 
L 697 3500 
L 697 3744 
Q 697 4328 969 4595 
Q 1241 4863 1831 4863 
L 2375 4863 
z
" id="DejaVuSans-66" transform="scale(0.015625)"/>
       </defs>
       <use xlink:href="#DejaVuSans-53"/>
       <use x="63.476562" xlink:href="#DejaVuSans-70"/>
       <use x="126.953125" xlink:href="#DejaVuSans-65"/>
       <use x="188.476562" xlink:href="#DejaVuSans-63"/>
       <use x="243.457031" xlink:href="#DejaVuSans-69"/>
       <use x="271.240234" xlink:href="#DejaVuSans-66"/>
       <use x="306.445312" xlink:href="#DejaVuSans-69"/>
       <use x="334.228516" xlink:href="#DejaVuSans-63"/>
       <use x="389.208984" xlink:href="#DejaVuSans-69"/>
       <use x="416.992188" xlink:href="#DejaVuSans-74"/>
       <use x="456.201172" xlink:href="#DejaVuSans-79"/>
      </g>
     </g>
    </g>
    <g id="xtick_9">
     <g id="line2d_17">
      <path clip-path="url(#pad44b449b8)" d="M 729.547284 333.36 
L 729.547284 7.2 
" style="fill:none;stroke:#f2f2f2;stroke-linecap:round;"/>
     </g>
     <g id="line2d_18">
      <g>
       <use style="fill:#262626;stroke:#262626;stroke-width:1.25;" x="729.547284" xlink:href="#m891d8347de" y="333.36"/>
      </g>
     </g>
     <g id="text_9">
      <!-- Brier -->
      <g style="fill:#262626;" transform="translate(716.339549 351.218281)scale(0.11 -0.11)">
       <use xlink:href="#DejaVuSans-42"/>
       <use x="68.603516" xlink:href="#DejaVuSans-72"/>
       <use x="109.716797" xlink:href="#DejaVuSans-69"/>
       <use x="137.5" xlink:href="#DejaVuSans-65"/>
       <use x="199.023438" xlink:href="#DejaVuSans-72"/>
      </g>
     </g>
    </g>
    <g id="xtick_10">
     <g id="line2d_19">
      <path clip-path="url(#pad44b449b8)" d="M 806.808822 333.36 
L 806.808822 7.2 
" style="fill:none;stroke:#f2f2f2;stroke-linecap:round;"/>
     </g>
     <g id="line2d_20">
      <g>
       <use style="fill:#262626;stroke:#262626;stroke-width:1.25;" x="806.808822" xlink:href="#m891d8347de" y="333.36"/>
      </g>
     </g>
     <g id="text_10">
      <!-- ECE -->
      <g style="fill:#262626;" transform="translate(796.01765 351.218281)scale(0.11 -0.11)">
       <defs>
        <path d="M 628 4666 
L 3578 4666 
L 3578 4134 
L 1259 4134 
L 1259 2753 
L 3481 2753 
L 3481 2222 
L 1259 2222 
L 1259 531 
L 3634 531 
L 3634 0 
L 628 0 
L 628 4666 
z
" id="DejaVuSans-45" transform="scale(0.015625)"/>
       </defs>
       <use xlink:href="#DejaVuSans-45"/>
       <use x="63.183594" xlink:href="#DejaVuSans-43"/>
       <use x="133.007812" xlink:href="#DejaVuSans-45"/>
      </g>
     </g>
    </g>
    <g id="xtick_11">
     <g id="line2d_21">
      <path clip-path="url(#pad44b449b8)" d="M 884.070361 333.36 
L 884.070361 7.2 
" style="fill:none;stroke:#f2f2f2;stroke-linecap:round;"/>
     </g>
     <g id="line2d_22">
      <g>
       <use style="fill:#262626;stroke:#262626;stroke-width:1.25;" x="884.070361" xlink:href="#m891d8347de" y="333.36"/>
      </g>
     </g>
     <g id="text_11">
      <!-- MCE -->
      <g style="fill:#262626;" transform="translate(872.009032 351.218281)scale(0.11 -0.11)">
       <defs>
        <path d="M 628 4666 
L 1569 4666 
L 2759 1491 
L 3956 4666 
L 4897 4666 
L 4897 0 
L 4281 0 
L 4281 4097 
L 3078 897 
L 2444 897 
L 1241 4097 
L 1241 0 
L 628 0 
L 628 4666 
z
" id="DejaVuSans-4d" transform="scale(0.015625)"/>
       </defs>
       <use xlink:href="#DejaVuSans-4d"/>
       <use x="86.279297" xlink:href="#DejaVuSans-43"/>
       <use x="156.103516" xlink:href="#DejaVuSans-45"/>
      </g>
     </g>
    </g>
    <g id="xtick_12">
     <g id="line2d_23">
      <path clip-path="url(#pad44b449b8)" d="M 961.331899 333.36 
L 961.331899 7.2 
" style="fill:none;stroke:#f2f2f2;stroke-linecap:round;"/>
     </g>
     <g id="line2d_24">
      <g>
       <use style="fill:#262626;stroke:#262626;stroke-width:1.25;" x="961.331899" xlink:href="#m891d8347de" y="333.36"/>
      </g>
     </g>
     <g id="text_12">
      <!-- Fraction of -->
      <g style="fill:#262626;" transform="translate(932.327133 351.218281)scale(0.11 -0.11)">
       <defs>
        <path id="DejaVuSans-20" transform="scale(0.015625)"/>
       </defs>
       <use xlink:href="#DejaVuSans-46"/>
       <use x="50.269531" xlink:href="#DejaVuSans-72"/>
       <use x="91.382812" xlink:href="#DejaVuSans-61"/>
       <use x="152.662109" xlink:href="#DejaVuSans-63"/>
       <use x="207.642578" xlink:href="#DejaVuSans-74"/>
       <use x="246.851562" xlink:href="#DejaVuSans-69"/>
       <use x="274.634766" xlink:href="#DejaVuSans-6f"/>
       <use x="335.816406" xlink:href="#DejaVuSans-6e"/>
       <use x="399.195312" xlink:href="#DejaVuSans-20"/>
       <use x="430.982422" xlink:href="#DejaVuSans-6f"/>
       <use x="492.164062" xlink:href="#DejaVuSans-66"/>
      </g>
      <!-- positives -->
      <g style="fill:#262626;" transform="translate(936.892993 363.535875)scale(0.11 -0.11)">
       <use xlink:href="#DejaVuSans-70"/>
       <use x="63.476562" xlink:href="#DejaVuSans-6f"/>
       <use x="124.658203" xlink:href="#DejaVuSans-73"/>
       <use x="176.757812" xlink:href="#DejaVuSans-69"/>
       <use x="204.541016" xlink:href="#DejaVuSans-74"/>
       <use x="243.75" xlink:href="#DejaVuSans-69"/>
       <use x="271.533203" xlink:href="#DejaVuSans-76"/>
       <use x="330.712891" xlink:href="#DejaVuSans-65"/>
       <use x="392.236328" xlink:href="#DejaVuSans-73"/>
      </g>
     </g>
    </g>
   </g>
   <g id="matplotlib.axis_2">
    <g id="ytick_1">
     <g id="line2d_25">
      <path clip-path="url(#pad44b449b8)" d="M 34.193438 333.36 
L 1038.593438 333.36 
" style="fill:none;stroke:#f2f2f2;stroke-linecap:round;"/>
     </g>
     <g id="line2d_26">
      <defs>
       <path d="M 0 0 
L -6 0 
" id="mdc3bb8f5a4" style="stroke:#262626;stroke-width:1.25;"/>
      </defs>
      <g>
       <use style="fill:#262626;stroke:#262626;stroke-width:1.25;" x="34.193438" xlink:href="#mdc3bb8f5a4" y="333.36"/>
      </g>
     </g>
     <g id="text_13">
      <!-- 0.0 -->
      <g style="fill:#262626;" transform="translate(7.2 337.539141)scale(0.11 -0.11)">
       <defs>
        <path d="M 2034 4250 
Q 1547 4250 1301 3770 
Q 1056 3291 1056 2328 
Q 1056 1369 1301 889 
Q 1547 409 2034 409 
Q 2525 409 2770 889 
Q 3016 1369 3016 2328 
Q 3016 3291 2770 3770 
Q 2525 4250 2034 4250 
z
M 2034 4750 
Q 2819 4750 3233 4129 
Q 3647 3509 3647 2328 
Q 3647 1150 3233 529 
Q 2819 -91 2034 -91 
Q 1250 -91 836 529 
Q 422 1150 422 2328 
Q 422 3509 836 4129 
Q 1250 4750 2034 4750 
z
" id="DejaVuSans-30" transform="scale(0.015625)"/>
        <path d="M 684 794 
L 1344 794 
L 1344 0 
L 684 0 
L 684 794 
z
" id="DejaVuSans-2e" transform="scale(0.015625)"/>
       </defs>
       <use xlink:href="#DejaVuSans-30"/>
       <use x="63.623047" xlink:href="#DejaVuSans-2e"/>
       <use x="95.410156" xlink:href="#DejaVuSans-30"/>
      </g>
     </g>
    </g>
    <g id="ytick_2">
     <g id="line2d_27">
      <path clip-path="url(#pad44b449b8)" d="M 34.193438 271.234286 
L 1038.593438 271.234286 
" style="fill:none;stroke:#f2f2f2;stroke-linecap:round;"/>
     </g>
     <g id="line2d_28">
      <g>
       <use style="fill:#262626;stroke:#262626;stroke-width:1.25;" x="34.193438" xlink:href="#mdc3bb8f5a4" y="271.234286"/>
      </g>
     </g>
     <g id="text_14">
      <!-- 0.2 -->
      <g style="fill:#262626;" transform="translate(7.2 275.413426)scale(0.11 -0.11)">
       <defs>
        <path d="M 1228 531 
L 3431 531 
L 3431 0 
L 469 0 
L 469 531 
Q 828 903 1448 1529 
Q 2069 2156 2228 2338 
Q 2531 2678 2651 2914 
Q 2772 3150 2772 3378 
Q 2772 3750 2511 3984 
Q 2250 4219 1831 4219 
Q 1534 4219 1204 4116 
Q 875 4013 500 3803 
L 500 4441 
Q 881 4594 1212 4672 
Q 1544 4750 1819 4750 
Q 2544 4750 2975 4387 
Q 3406 4025 3406 3419 
Q 3406 3131 3298 2873 
Q 3191 2616 2906 2266 
Q 2828 2175 2409 1742 
Q 1991 1309 1228 531 
z
" id="DejaVuSans-32" transform="scale(0.015625)"/>
       </defs>
       <use xlink:href="#DejaVuSans-30"/>
       <use x="63.623047" xlink:href="#DejaVuSans-2e"/>
       <use x="95.410156" xlink:href="#DejaVuSans-32"/>
      </g>
     </g>
    </g>
    <g id="ytick_3">
     <g id="line2d_29">
      <path clip-path="url(#pad44b449b8)" d="M 34.193438 209.108571 
L 1038.593438 209.108571 
" style="fill:none;stroke:#f2f2f2;stroke-linecap:round;"/>
     </g>
     <g id="line2d_30">
      <g>
       <use style="fill:#262626;stroke:#262626;stroke-width:1.25;" x="34.193438" xlink:href="#mdc3bb8f5a4" y="209.108571"/>
      </g>
     </g>
     <g id="text_15">
      <!-- 0.4 -->
      <g style="fill:#262626;" transform="translate(7.2 213.287712)scale(0.11 -0.11)">
       <defs>
        <path d="M 2419 4116 
L 825 1625 
L 2419 1625 
L 2419 4116 
z
M 2253 4666 
L 3047 4666 
L 3047 1625 
L 3713 1625 
L 3713 1100 
L 3047 1100 
L 3047 0 
L 2419 0 
L 2419 1100 
L 313 1100 
L 313 1709 
L 2253 4666 
z
" id="DejaVuSans-34" transform="scale(0.015625)"/>
       </defs>
       <use xlink:href="#DejaVuSans-30"/>
       <use x="63.623047" xlink:href="#DejaVuSans-2e"/>
       <use x="95.410156" xlink:href="#DejaVuSans-34"/>
      </g>
     </g>
    </g>
    <g id="ytick_4">
     <g id="line2d_31">
      <path clip-path="url(#pad44b449b8)" d="M 34.193438 146.982857 
L 1038.593438 146.982857 
" style="fill:none;stroke:#f2f2f2;stroke-linecap:round;"/>
     </g>
     <g id="line2d_32">
      <g>
       <use style="fill:#262626;stroke:#262626;stroke-width:1.25;" x="34.193438" xlink:href="#mdc3bb8f5a4" y="146.982857"/>
      </g>
     </g>
     <g id="text_16">
      <!-- 0.6 -->
      <g style="fill:#262626;" transform="translate(7.2 151.161998)scale(0.11 -0.11)">
       <defs>
        <path d="M 2113 2584 
Q 1688 2584 1439 2293 
Q 1191 2003 1191 1497 
Q 1191 994 1439 701 
Q 1688 409 2113 409 
Q 2538 409 2786 701 
Q 3034 994 3034 1497 
Q 3034 2003 2786 2293 
Q 2538 2584 2113 2584 
z
M 3366 4563 
L 3366 3988 
Q 3128 4100 2886 4159 
Q 2644 4219 2406 4219 
Q 1781 4219 1451 3797 
Q 1122 3375 1075 2522 
Q 1259 2794 1537 2939 
Q 1816 3084 2150 3084 
Q 2853 3084 3261 2657 
Q 3669 2231 3669 1497 
Q 3669 778 3244 343 
Q 2819 -91 2113 -91 
Q 1303 -91 875 529 
Q 447 1150 447 2328 
Q 447 3434 972 4092 
Q 1497 4750 2381 4750 
Q 2619 4750 2861 4703 
Q 3103 4656 3366 4563 
z
" id="DejaVuSans-36" transform="scale(0.015625)"/>
       </defs>
       <use xlink:href="#DejaVuSans-30"/>
       <use x="63.623047" xlink:href="#DejaVuSans-2e"/>
       <use x="95.410156" xlink:href="#DejaVuSans-36"/>
      </g>
     </g>
    </g>
    <g id="ytick_5">
     <g id="line2d_33">
      <path clip-path="url(#pad44b449b8)" d="M 34.193438 84.857143 
L 1038.593438 84.857143 
" style="fill:none;stroke:#f2f2f2;stroke-linecap:round;"/>
     </g>
     <g id="line2d_34">
      <g>
       <use style="fill:#262626;stroke:#262626;stroke-width:1.25;" x="34.193438" xlink:href="#mdc3bb8f5a4" y="84.857143"/>
      </g>
     </g>
     <g id="text_17">
      <!-- 0.8 -->
      <g style="fill:#262626;" transform="translate(7.2 89.036283)scale(0.11 -0.11)">
       <defs>
        <path d="M 2034 2216 
Q 1584 2216 1326 1975 
Q 1069 1734 1069 1313 
Q 1069 891 1326 650 
Q 1584 409 2034 409 
Q 2484 409 2743 651 
Q 3003 894 3003 1313 
Q 3003 1734 2745 1975 
Q 2488 2216 2034 2216 
z
M 1403 2484 
Q 997 2584 770 2862 
Q 544 3141 544 3541 
Q 544 4100 942 4425 
Q 1341 4750 2034 4750 
Q 2731 4750 3128 4425 
Q 3525 4100 3525 3541 
Q 3525 3141 3298 2862 
Q 3072 2584 2669 2484 
Q 3125 2378 3379 2068 
Q 3634 1759 3634 1313 
Q 3634 634 3220 271 
Q 2806 -91 2034 -91 
Q 1263 -91 848 271 
Q 434 634 434 1313 
Q 434 1759 690 2068 
Q 947 2378 1403 2484 
z
M 1172 3481 
Q 1172 3119 1398 2916 
Q 1625 2713 2034 2713 
Q 2441 2713 2670 2916 
Q 2900 3119 2900 3481 
Q 2900 3844 2670 4047 
Q 2441 4250 2034 4250 
Q 1625 4250 1398 4047 
Q 1172 3844 1172 3481 
z
" id="DejaVuSans-38" transform="scale(0.015625)"/>
       </defs>
       <use xlink:href="#DejaVuSans-30"/>
       <use x="63.623047" xlink:href="#DejaVuSans-2e"/>
       <use x="95.410156" xlink:href="#DejaVuSans-38"/>
      </g>
     </g>
    </g>
    <g id="ytick_6">
     <g id="line2d_35">
      <path clip-path="url(#pad44b449b8)" d="M 34.193438 22.731429 
L 1038.593438 22.731429 
" style="fill:none;stroke:#f2f2f2;stroke-linecap:round;"/>
     </g>
     <g id="line2d_36">
      <g>
       <use style="fill:#262626;stroke:#262626;stroke-width:1.25;" x="34.193438" xlink:href="#mdc3bb8f5a4" y="22.731429"/>
      </g>
     </g>
     <g id="text_18">
      <!-- 1.0 -->
      <g style="fill:#262626;" transform="translate(7.2 26.910569)scale(0.11 -0.11)">
       <use xlink:href="#DejaVuSans-31"/>
       <use x="63.623047" xlink:href="#DejaVuSans-2e"/>
       <use x="95.410156" xlink:href="#DejaVuSans-30"/>
      </g>
     </g>
    </g>
   </g>
   <g id="patch_3">
    <path clip-path="url(#pad44b449b8)" d="M 79.847983 333.36 
L 86.169382 333.36 
L 86.169382 44.95 
L 79.847983 44.95 
z
" style="fill:#fb8072;stroke:#dcdcdc;stroke-linejoin:miter;"/>
   </g>
   <g id="patch_4">
    <path clip-path="url(#pad44b449b8)" d="M 86.169382 333.36 
L 92.49078 333.36 
L 92.49078 43.234965 
L 86.169382 43.234965 
z
" style="fill:#bebada;stroke:#dcdcdc;stroke-linejoin:miter;"/>
   </g>
   <g id="patch_5">
    <path clip-path="url(#pad44b449b8)" d="M 92.49078 333.36 
L 98.812179 333.36 
L 98.812179 40.851429 
L 92.49078 40.851429 
z
" style="fill:#d9d9d9;stroke:#dcdcdc;stroke-linejoin:miter;"/>
   </g>
   <g id="patch_6">
    <path clip-path="url(#pad44b449b8)" d="M 98.812179 333.36 
L 105.133577 333.36 
L 105.133577 37.566584 
L 98.812179 37.566584 
z
" style="fill:#80b1d3;stroke:#dcdcdc;stroke-linejoin:miter;"/>
   </g>
   <g id="patch_7">
    <path clip-path="url(#pad44b449b8)" d="M 105.133577 333.36 
L 111.454976 333.36 
L 111.454976 34.421751 
L 105.133577 34.421751 
z
" style="fill:#bc80bd;stroke:#dcdcdc;stroke-linejoin:miter;"/>
   </g>
   <g id="patch_8">
    <path clip-path="url(#pad44b449b8)" d="M 111.454976 333.36 
L 117.776375 333.36 
L 117.776375 32.882689 
L 111.454976 32.882689 
z
" style="fill:#8dd3c7;stroke:#dcdcdc;stroke-linejoin:miter;"/>
   </g>
   <g id="patch_9">
    <path clip-path="url(#pad44b449b8)" d="M 117.776375 333.36 
L 124.097773 333.36 
L 124.097773 31.051837 
L 117.776375 31.051837 
z
" style="fill:#fccde5;stroke:#dcdcdc;stroke-linejoin:miter;"/>
   </g>
   <g id="patch_10">
    <path clip-path="url(#pad44b449b8)" d="M 124.097773 333.36 
L 130.419172 333.36 
L 130.419172 28.48381 
L 124.097773 28.48381 
z
" style="fill:#b3de69;stroke:#dcdcdc;stroke-linejoin:miter;"/>
   </g>
   <g id="patch_11">
    <path clip-path="url(#pad44b449b8)" d="M 130.419172 333.36 
L 136.74057 333.36 
L 136.74057 28.34 
L 130.419172 28.34 
z
" style="fill:#fdb462;stroke:#dcdcdc;stroke-linejoin:miter;"/>
   </g>
   <g id="patch_12">
    <path clip-path="url(#pad44b449b8)" d="M 136.74057 333.36 
L 143.061969 333.36 
L 143.061969 26.540698 
L 136.74057 26.540698 
z
" style="fill:#ffffb3;stroke:#dcdcdc;stroke-linejoin:miter;"/>
   </g>
   <g id="patch_13">
    <path clip-path="url(#pad44b449b8)" d="M 157.109521 333.36 
L 163.43092 333.36 
L 163.43092 81.759806 
L 157.109521 81.759806 
z
" style="fill:#bebada;stroke:#dcdcdc;stroke-linejoin:miter;"/>
   </g>
   <g id="patch_14">
    <path clip-path="url(#pad44b449b8)" d="M 163.43092 333.36 
L 169.752319 333.36 
L 169.752319 67.069515 
L 163.43092 67.069515 
z
" style="fill:#80b1d3;stroke:#dcdcdc;stroke-linejoin:miter;"/>
   </g>
   <g id="patch_15">
    <path clip-path="url(#pad44b449b8)" d="M 169.752319 333.36 
L 176.073717 333.36 
L 176.073717 65.646915 
L 169.752319 65.646915 
z
" style="fill:#fb8072;stroke:#dcdcdc;stroke-linejoin:miter;"/>
   </g>
   <g id="patch_16">
    <path clip-path="url(#pad44b449b8)" d="M 176.073717 333.36 
L 182.395116 333.36 
L 182.395116 53.351128 
L 176.073717 53.351128 
z
" style="fill:#d9d9d9;stroke:#dcdcdc;stroke-linejoin:miter;"/>
   </g>
   <g id="patch_17">
    <path clip-path="url(#pad44b449b8)" d="M 182.395116 333.36 
L 188.716514 333.36 
L 188.716514 45.234491 
L 182.395116 45.234491 
z
" style="fill:#fccde5;stroke:#dcdcdc;stroke-linejoin:miter;"/>
   </g>
   <g id="patch_18">
    <path clip-path="url(#pad44b449b8)" d="M 188.716514 333.36 
L 195.037913 333.36 
L 195.037913 44.828006 
L 188.716514 44.828006 
z
" style="fill:#8dd3c7;stroke:#dcdcdc;stroke-linejoin:miter;"/>
   </g>
   <g id="patch_19">
    <path clip-path="url(#pad44b449b8)" d="M 195.037913 333.36 
L 201.359312 333.36 
L 201.359312 42.157404 
L 195.037913 42.157404 
z
" style="fill:#fdb462;stroke:#dcdcdc;stroke-linejoin:miter;"/>
   </g>
   <g id="patch_20">
    <path clip-path="url(#pad44b449b8)" d="M 201.359312 333.36 
L 207.68071 333.36 
L 207.68071 38.629839 
L 201.359312 38.629839 
z
" style="fill:#bc80bd;stroke:#dcdcdc;stroke-linejoin:miter;"/>
   </g>
   <g id="patch_21">
    <path clip-path="url(#pad44b449b8)" d="M 207.68071 333.36 
L 214.002109 333.36 
L 214.002109 35.80522 
L 207.68071 35.80522 
z
" style="fill:#b3de69;stroke:#dcdcdc;stroke-linejoin:miter;"/>
   </g>
   <g id="patch_22">
    <path clip-path="url(#pad44b449b8)" d="M 214.002109 333.36 
L 220.323507 333.36 
L 220.323507 27.844816 
L 214.002109 27.844816 
z
" style="fill:#ffffb3;stroke:#dcdcdc;stroke-linejoin:miter;"/>
   </g>
   <g id="patch_23">
    <path clip-path="url(#pad44b449b8)" d="M 234.37106 333.36 
L 240.692458 333.36 
L 240.692458 89.294694 
L 234.37106 89.294694 
z
" style="fill:#fccde5;stroke:#dcdcdc;stroke-linejoin:miter;"/>
   </g>
   <g id="patch_24">
    <path clip-path="url(#pad44b449b8)" d="M 240.692458 333.36 
L 247.013857 333.36 
L 247.013857 73.862122 
L 240.692458 73.862122 
z
" style="fill:#bebada;stroke:#dcdcdc;stroke-linejoin:miter;"/>
   </g>
   <g id="patch_25">
    <path clip-path="url(#pad44b449b8)" d="M 247.013857 333.36 
L 253.335256 333.36 
L 253.335256 71.288291 
L 247.013857 71.288291 
z
" style="fill:#8dd3c7;stroke:#dcdcdc;stroke-linejoin:miter;"/>
   </g>
   <g id="patch_26">
    <path clip-path="url(#pad44b449b8)" d="M 253.335256 333.36 
L 259.656654 333.36 
L 259.656654 66.467148 
L 253.335256 66.467148 
z
" style="fill:#80b1d3;stroke:#dcdcdc;stroke-linejoin:miter;"/>
   </g>
   <g id="patch_27">
    <path clip-path="url(#pad44b449b8)" d="M 259.656654 333.36 
L 265.978053 333.36 
L 265.978053 65.442857 
L 259.656654 65.442857 
z
" style="fill:#fb8072;stroke:#dcdcdc;stroke-linejoin:miter;"/>
   </g>
   <g id="patch_28">
    <path clip-path="url(#pad44b449b8)" d="M 265.978053 333.36 
L 272.299451 333.36 
L 272.299451 54.657143 
L 265.978053 54.657143 
z
" style="fill:#fdb462;stroke:#dcdcdc;stroke-linejoin:miter;"/>
   </g>
   <g id="patch_29">
    <path clip-path="url(#pad44b449b8)" d="M 272.299451 333.36 
L 278.62085 333.36 
L 278.62085 51.205714 
L 272.299451 51.205714 
z
" style="fill:#d9d9d9;stroke:#dcdcdc;stroke-linejoin:miter;"/>
   </g>
   <g id="patch_30">
    <path clip-path="url(#pad44b449b8)" d="M 278.62085 333.36 
L 284.942249 333.36 
L 284.942249 50.008848 
L 278.62085 50.008848 
z
" style="fill:#bc80bd;stroke:#dcdcdc;stroke-linejoin:miter;"/>
   </g>
   <g id="patch_31">
    <path clip-path="url(#pad44b449b8)" d="M 284.942249 333.36 
L 291.263647 333.36 
L 291.263647 46.46 
L 284.942249 46.46 
z
" style="fill:#b3de69;stroke:#dcdcdc;stroke-linejoin:miter;"/>
   </g>
   <g id="patch_32">
    <path clip-path="url(#pad44b449b8)" d="M 291.263647 333.36 
L 297.585046 333.36 
L 297.585046 40.219436 
L 291.263647 40.219436 
z
" style="fill:#ffffb3;stroke:#dcdcdc;stroke-linejoin:miter;"/>
   </g>
   <g id="patch_33">
    <path clip-path="url(#pad44b449b8)" d="M 311.632598 333.36 
L 317.953997 333.36 
L 317.953997 63.248199 
L 311.632598 63.248199 
z
" style="fill:#fb8072;stroke:#dcdcdc;stroke-linejoin:miter;"/>
   </g>
   <g id="patch_34">
    <path clip-path="url(#pad44b449b8)" d="M 317.953997 333.36 
L 324.275396 333.36 
L 324.275396 57.521829 
L 317.953997 57.521829 
z
" style="fill:#bebada;stroke:#dcdcdc;stroke-linejoin:miter;"/>
   </g>
   <g id="patch_35">
    <path clip-path="url(#pad44b449b8)" d="M 324.275396 333.36 
L 330.596794 333.36 
L 330.596794 52.889542 
L 324.275396 52.889542 
z
" style="fill:#bc80bd;stroke:#dcdcdc;stroke-linejoin:miter;"/>
   </g>
   <g id="patch_36">
    <path clip-path="url(#pad44b449b8)" d="M 330.596794 333.36 
L 336.918193 333.36 
L 336.918193 52.792258 
L 330.596794 52.792258 
z
" style="fill:#fccde5;stroke:#dcdcdc;stroke-linejoin:miter;"/>
   </g>
   <g id="patch_37">
    <path clip-path="url(#pad44b449b8)" d="M 336.918193 333.36 
L 343.239591 333.36 
L 343.239591 52.115212 
L 336.918193 52.115212 
z
" style="fill:#d9d9d9;stroke:#dcdcdc;stroke-linejoin:miter;"/>
   </g>
   <g id="patch_38">
    <path clip-path="url(#pad44b449b8)" d="M 343.239591 333.36 
L 349.56099 333.36 
L 349.56099 48.98173 
L 343.239591 48.98173 
z
" style="fill:#8dd3c7;stroke:#dcdcdc;stroke-linejoin:miter;"/>
   </g>
   <g id="patch_39">
    <path clip-path="url(#pad44b449b8)" d="M 349.56099 333.36 
L 355.882389 333.36 
L 355.882389 46.366211 
L 349.56099 46.366211 
z
" style="fill:#fdb462;stroke:#dcdcdc;stroke-linejoin:miter;"/>
   </g>
   <g id="patch_40">
    <path clip-path="url(#pad44b449b8)" d="M 355.882389 333.36 
L 362.203787 333.36 
L 362.203787 41.557403 
L 355.882389 41.557403 
z
" style="fill:#b3de69;stroke:#dcdcdc;stroke-linejoin:miter;"/>
   </g>
   <g id="patch_41">
    <path clip-path="url(#pad44b449b8)" d="M 362.203787 333.36 
L 368.525186 333.36 
L 368.525186 37.761843 
L 362.203787 37.761843 
z
" style="fill:#ffffb3;stroke:#dcdcdc;stroke-linejoin:miter;"/>
   </g>
   <g id="patch_42">
    <path clip-path="url(#pad44b449b8)" d="M 368.525186 333.36 
L 374.846584 333.36 
L 374.846584 37.112381 
L 368.525186 37.112381 
z
" style="fill:#80b1d3;stroke:#dcdcdc;stroke-linejoin:miter;"/>
   </g>
   <g id="patch_43">
    <path clip-path="url(#pad44b449b8)" d="M 388.894137 333.36 
L 395.215535 333.36 
L 395.215535 109.707429 
L 388.894137 109.707429 
z
" style="fill:#bebada;stroke:#dcdcdc;stroke-linejoin:miter;"/>
   </g>
   <g id="patch_44">
    <path clip-path="url(#pad44b449b8)" d="M 395.215535 333.36 
L 401.536934 333.36 
L 401.536934 107.448312 
L 395.215535 107.448312 
z
" style="fill:#fccde5;stroke:#dcdcdc;stroke-linejoin:miter;"/>
   </g>
   <g id="patch_45">
    <path clip-path="url(#pad44b449b8)" d="M 401.536934 333.36 
L 407.858333 333.36 
L 407.858333 103.764969 
L 401.536934 103.764969 
z
" style="fill:#fb8072;stroke:#dcdcdc;stroke-linejoin:miter;"/>
   </g>
   <g id="patch_46">
    <path clip-path="url(#pad44b449b8)" d="M 407.858333 333.36 
L 414.179731 333.36 
L 414.179731 93.328831 
L 407.858333 93.328831 
z
" style="fill:#80b1d3;stroke:#dcdcdc;stroke-linejoin:miter;"/>
   </g>
   <g id="patch_47">
    <path clip-path="url(#pad44b449b8)" d="M 414.179731 333.36 
L 420.50113 333.36 
L 420.50113 84.857143 
L 414.179731 84.857143 
z
" style="fill:#8dd3c7;stroke:#dcdcdc;stroke-linejoin:miter;"/>
   </g>
   <g id="patch_48">
    <path clip-path="url(#pad44b449b8)" d="M 420.50113 333.36 
L 426.822528 333.36 
L 426.822528 75.765575 
L 420.50113 75.765575 
z
" style="fill:#fdb462;stroke:#dcdcdc;stroke-linejoin:miter;"/>
   </g>
   <g id="patch_49">
    <path clip-path="url(#pad44b449b8)" d="M 426.822528 333.36 
L 433.143927 333.36 
L 433.143927 68.412101 
L 426.822528 68.412101 
z
" style="fill:#bc80bd;stroke:#dcdcdc;stroke-linejoin:miter;"/>
   </g>
   <g id="patch_50">
    <path clip-path="url(#pad44b449b8)" d="M 433.143927 333.36 
L 439.465326 333.36 
L 439.465326 65.366723 
L 433.143927 65.366723 
z
" style="fill:#d9d9d9;stroke:#dcdcdc;stroke-linejoin:miter;"/>
   </g>
   <g id="patch_51">
    <path clip-path="url(#pad44b449b8)" d="M 439.465326 333.36 
L 445.786724 333.36 
L 445.786724 57.245714 
L 439.465326 57.245714 
z
" style="fill:#b3de69;stroke:#dcdcdc;stroke-linejoin:miter;"/>
   </g>
   <g id="patch_52">
    <path clip-path="url(#pad44b449b8)" d="M 445.786724 333.36 
L 452.108123 333.36 
L 452.108123 43.44 
L 445.786724 43.44 
z
" style="fill:#ffffb3;stroke:#dcdcdc;stroke-linejoin:miter;"/>
   </g>
   <g id="patch_53">
    <path clip-path="url(#pad44b449b8)" d="M 466.155675 333.36 
L 472.477074 333.36 
L 472.477074 130.256703 
L 466.155675 130.256703 
z
" style="fill:#fb8072;stroke:#dcdcdc;stroke-linejoin:miter;"/>
   </g>
   <g id="patch_54">
    <path clip-path="url(#pad44b449b8)" d="M 472.477074 333.36 
L 478.798472 333.36 
L 478.798472 118.309451 
L 472.477074 118.309451 
z
" style="fill:#bebada;stroke:#dcdcdc;stroke-linejoin:miter;"/>
   </g>
   <g id="patch_55">
    <path clip-path="url(#pad44b449b8)" d="M 478.798472 333.36 
L 485.119871 333.36 
L 485.119871 89.894363 
L 478.798472 89.894363 
z
" style="fill:#bc80bd;stroke:#dcdcdc;stroke-linejoin:miter;"/>
   </g>
   <g id="patch_56">
    <path clip-path="url(#pad44b449b8)" d="M 485.119871 333.36 
L 491.44127 333.36 
L 491.44127 81.898776 
L 485.119871 81.898776 
z
" style="fill:#80b1d3;stroke:#dcdcdc;stroke-linejoin:miter;"/>
   </g>
   <g id="patch_57">
    <path clip-path="url(#pad44b449b8)" d="M 491.44127 333.36 
L 497.762668 333.36 
L 497.762668 81.898776 
L 491.44127 81.898776 
z
" style="fill:#fdb462;stroke:#dcdcdc;stroke-linejoin:miter;"/>
   </g>
   <g id="patch_58">
    <path clip-path="url(#pad44b449b8)" d="M 497.762668 333.36 
L 504.084067 333.36 
L 504.084067 80.255238 
L 497.762668 80.255238 
z
" style="fill:#d9d9d9;stroke:#dcdcdc;stroke-linejoin:miter;"/>
   </g>
   <g id="patch_59">
    <path clip-path="url(#pad44b449b8)" d="M 504.084067 333.36 
L 510.405465 333.36 
L 510.405465 57.245714 
L 504.084067 57.245714 
z
" style="fill:#b3de69;stroke:#dcdcdc;stroke-linejoin:miter;"/>
   </g>
   <g id="patch_60">
    <path clip-path="url(#pad44b449b8)" d="M 510.405465 333.36 
L 516.726864 333.36 
L 516.726864 46.625934 
L 510.405465 46.625934 
z
" style="fill:#8dd3c7;stroke:#dcdcdc;stroke-linejoin:miter;"/>
   </g>
   <g id="patch_61">
    <path clip-path="url(#pad44b449b8)" d="M 516.726864 333.36 
L 523.048263 333.36 
L 523.048263 36.850909 
L 516.726864 36.850909 
z
" style="fill:#ffffb3;stroke:#dcdcdc;stroke-linejoin:miter;"/>
   </g>
   <g id="patch_62">
    <path clip-path="url(#pad44b449b8)" d="M 523.048263 333.36 
L 529.369661 333.36 
L 529.369661 22.731429 
L 523.048263 22.731429 
z
" style="fill:#fccde5;stroke:#dcdcdc;stroke-linejoin:miter;"/>
   </g>
   <g id="patch_63">
    <path clip-path="url(#pad44b449b8)" d="M 543.417214 333.36 
L 549.738612 333.36 
L 549.738612 155.857959 
L 543.417214 155.857959 
z
" style="fill:#fccde5;stroke:#dcdcdc;stroke-linejoin:miter;"/>
   </g>
   <g id="patch_64">
    <path clip-path="url(#pad44b449b8)" d="M 549.738612 333.36 
L 556.060011 333.36 
L 556.060011 114.092773 
L 549.738612 114.092773 
z
" style="fill:#8dd3c7;stroke:#dcdcdc;stroke-linejoin:miter;"/>
   </g>
   <g id="patch_65">
    <path clip-path="url(#pad44b449b8)" d="M 556.060011 333.36 
L 562.38141 333.36 
L 562.38141 103.764969 
L 556.060011 103.764969 
z
" style="fill:#80b1d3;stroke:#dcdcdc;stroke-linejoin:miter;"/>
   </g>
   <g id="patch_66">
    <path clip-path="url(#pad44b449b8)" d="M 562.38141 333.36 
L 568.702808 333.36 
L 568.702808 100.388571 
L 562.38141 100.388571 
z
" style="fill:#bebada;stroke:#dcdcdc;stroke-linejoin:miter;"/>
   </g>
   <g id="patch_67">
    <path clip-path="url(#pad44b449b8)" d="M 568.702808 333.36 
L 575.024207 333.36 
L 575.024207 69.325714 
L 568.702808 69.325714 
z
" style="fill:#fb8072;stroke:#dcdcdc;stroke-linejoin:miter;"/>
   </g>
   <g id="patch_68">
    <path clip-path="url(#pad44b449b8)" d="M 575.024207 333.36 
L 581.345605 333.36 
L 581.345605 69.325714 
L 575.024207 69.325714 
z
" style="fill:#fdb462;stroke:#dcdcdc;stroke-linejoin:miter;"/>
   </g>
   <g id="patch_69">
    <path clip-path="url(#pad44b449b8)" d="M 581.345605 333.36 
L 587.667004 333.36 
L 587.667004 57.245714 
L 581.345605 57.245714 
z
" style="fill:#b3de69;stroke:#dcdcdc;stroke-linejoin:miter;"/>
   </g>
   <g id="patch_70">
    <path clip-path="url(#pad44b449b8)" d="M 587.667004 333.36 
L 593.988403 333.36 
L 593.988403 49.742609 
L 587.667004 49.742609 
z
" style="fill:#ffffb3;stroke:#dcdcdc;stroke-linejoin:miter;"/>
   </g>
   <g id="patch_71">
    <path clip-path="url(#pad44b449b8)" d="M 593.988403 333.36 
L 600.309801 333.36 
L 600.309801 48.617143 
L 593.988403 48.617143 
z
" style="fill:#d9d9d9;stroke:#dcdcdc;stroke-linejoin:miter;"/>
   </g>
   <g id="patch_72">
    <path clip-path="url(#pad44b449b8)" d="M 600.309801 333.36 
L 606.6312 333.36 
L 606.6312 42.771982 
L 600.309801 42.771982 
z
" style="fill:#bc80bd;stroke:#dcdcdc;stroke-linejoin:miter;"/>
   </g>
   <g id="patch_73">
    <path clip-path="url(#pad44b449b8)" d="M 620.678752 333.36 
L 627.000151 333.36 
L 627.000151 61.56 
L 620.678752 61.56 
z
" style="fill:#fb8072;stroke:#dcdcdc;stroke-linejoin:miter;"/>
   </g>
   <g id="patch_74">
    <path clip-path="url(#pad44b449b8)" d="M 627.000151 333.36 
L 633.321549 333.36 
L 633.321549 57.245714 
L 627.000151 57.245714 
z
" style="fill:#bc80bd;stroke:#dcdcdc;stroke-linejoin:miter;"/>
   </g>
   <g id="patch_75">
    <path clip-path="url(#pad44b449b8)" d="M 633.321549 333.36 
L 639.642948 333.36 
L 639.642948 53.794286 
L 633.321549 53.794286 
z
" style="fill:#d9d9d9;stroke:#dcdcdc;stroke-linejoin:miter;"/>
   </g>
   <g id="patch_76">
    <path clip-path="url(#pad44b449b8)" d="M 639.642948 333.36 
L 645.964347 333.36 
L 645.964347 47.335672 
L 639.642948 47.335672 
z
" style="fill:#bebada;stroke:#dcdcdc;stroke-linejoin:miter;"/>
   </g>
   <g id="patch_77">
    <path clip-path="url(#pad44b449b8)" d="M 645.964347 333.36 
L 652.285745 333.36 
L 652.285745 39.988571 
L 645.964347 39.988571 
z
" style="fill:#fdb462;stroke:#dcdcdc;stroke-linejoin:miter;"/>
   </g>
   <g id="patch_78">
    <path clip-path="url(#pad44b449b8)" d="M 652.285745 333.36 
L 658.607144 333.36 
L 658.607144 35.674286 
L 652.285745 35.674286 
z
" style="fill:#b3de69;stroke:#dcdcdc;stroke-linejoin:miter;"/>
   </g>
   <g id="patch_79">
    <path clip-path="url(#pad44b449b8)" d="M 658.607144 333.36 
L 664.928542 333.36 
L 664.928542 30.696264 
L 658.607144 30.696264 
z
" style="fill:#ffffb3;stroke:#dcdcdc;stroke-linejoin:miter;"/>
   </g>
   <g id="patch_80">
    <path clip-path="url(#pad44b449b8)" d="M 664.928542 333.36 
L 671.249941 333.36 
L 671.249941 29.169326 
L 664.928542 29.169326 
z
" style="fill:#80b1d3;stroke:#dcdcdc;stroke-linejoin:miter;"/>
   </g>
   <g id="patch_81">
    <path clip-path="url(#pad44b449b8)" d="M 671.249941 333.36 
L 677.57134 333.36 
L 677.57134 28.48381 
L 671.249941 28.48381 
z
" style="fill:#8dd3c7;stroke:#dcdcdc;stroke-linejoin:miter;"/>
   </g>
   <g id="patch_82">
    <path clip-path="url(#pad44b449b8)" d="M 677.57134 333.36 
L 683.892738 333.36 
L 683.892738 22.731429 
L 677.57134 22.731429 
z
" style="fill:#fccde5;stroke:#dcdcdc;stroke-linejoin:miter;"/>
   </g>
   <g id="patch_83">
    <path clip-path="url(#pad44b449b8)" d="M 697.940291 333.36 
L 704.261689 333.36 
L 704.261689 323.083689 
L 697.940291 323.083689 
z
" style="fill:#80b1d3;stroke:#dcdcdc;stroke-linejoin:miter;"/>
   </g>
   <g id="patch_84">
    <path clip-path="url(#pad44b449b8)" d="M 704.261689 333.36 
L 710.583088 333.36 
L 710.583088 321.258161 
L 704.261689 321.258161 
z
" style="fill:#ffffb3;stroke:#dcdcdc;stroke-linejoin:miter;"/>
   </g>
   <g id="patch_85">
    <path clip-path="url(#pad44b449b8)" d="M 710.583088 333.36 
L 716.904486 333.36 
L 716.904486 318.291439 
L 710.583088 318.291439 
z
" style="fill:#fdb462;stroke:#dcdcdc;stroke-linejoin:miter;"/>
   </g>
   <g id="patch_86">
    <path clip-path="url(#pad44b449b8)" d="M 716.904486 333.36 
L 723.225885 333.36 
L 723.225885 316.869144 
L 716.904486 316.869144 
z
" style="fill:#b3de69;stroke:#dcdcdc;stroke-linejoin:miter;"/>
   </g>
   <g id="patch_87">
    <path clip-path="url(#pad44b449b8)" d="M 723.225885 333.36 
L 729.547284 333.36 
L 729.547284 315.527182 
L 723.225885 315.527182 
z
" style="fill:#8dd3c7;stroke:#dcdcdc;stroke-linejoin:miter;"/>
   </g>
   <g id="patch_88">
    <path clip-path="url(#pad44b449b8)" d="M 729.547284 333.36 
L 735.868682 333.36 
L 735.868682 312.02989 
L 729.547284 312.02989 
z
" style="fill:#bc80bd;stroke:#dcdcdc;stroke-linejoin:miter;"/>
   </g>
   <g id="patch_89">
    <path clip-path="url(#pad44b449b8)" d="M 735.868682 333.36 
L 742.190081 333.36 
L 742.190081 309.025531 
L 735.868682 309.025531 
z
" style="fill:#fccde5;stroke:#dcdcdc;stroke-linejoin:miter;"/>
   </g>
   <g id="patch_90">
    <path clip-path="url(#pad44b449b8)" d="M 742.190081 333.36 
L 748.511479 333.36 
L 748.511479 308.701679 
L 742.190081 308.701679 
z
" style="fill:#bebada;stroke:#dcdcdc;stroke-linejoin:miter;"/>
   </g>
   <g id="patch_91">
    <path clip-path="url(#pad44b449b8)" d="M 748.511479 333.36 
L 754.832878 333.36 
L 754.832878 306.707119 
L 748.511479 306.707119 
z
" style="fill:#d9d9d9;stroke:#dcdcdc;stroke-linejoin:miter;"/>
   </g>
   <g id="patch_92">
    <path clip-path="url(#pad44b449b8)" d="M 754.832878 333.36 
L 761.154277 333.36 
L 761.154277 302.570448 
L 754.832878 302.570448 
z
" style="fill:#fb8072;stroke:#dcdcdc;stroke-linejoin:miter;"/>
   </g>
   <g id="patch_93">
    <path clip-path="url(#pad44b449b8)" d="M 775.201829 333.36 
L 781.523228 333.36 
L 781.523228 327.525179 
L 775.201829 327.525179 
z
" style="fill:#80b1d3;stroke:#dcdcdc;stroke-linejoin:miter;"/>
   </g>
   <g id="patch_94">
    <path clip-path="url(#pad44b449b8)" d="M 781.523228 333.36 
L 787.844626 333.36 
L 787.844626 320.216582 
L 781.523228 320.216582 
z
" style="fill:#ffffb3;stroke:#dcdcdc;stroke-linejoin:miter;"/>
   </g>
   <g id="patch_95">
    <path clip-path="url(#pad44b449b8)" d="M 787.844626 333.36 
L 794.166025 333.36 
L 794.166025 319.308442 
L 787.844626 319.308442 
z
" style="fill:#fdb462;stroke:#dcdcdc;stroke-linejoin:miter;"/>
   </g>
   <g id="patch_96">
    <path clip-path="url(#pad44b449b8)" d="M 794.166025 333.36 
L 800.487424 333.36 
L 800.487424 318.142601 
L 794.166025 318.142601 
z
" style="fill:#b3de69;stroke:#dcdcdc;stroke-linejoin:miter;"/>
   </g>
   <g id="patch_97">
    <path clip-path="url(#pad44b449b8)" d="M 800.487424 333.36 
L 806.808822 333.36 
L 806.808822 317.737836 
L 800.487424 317.737836 
z
" style="fill:#8dd3c7;stroke:#dcdcdc;stroke-linejoin:miter;"/>
   </g>
   <g id="patch_98">
    <path clip-path="url(#pad44b449b8)" d="M 806.808822 333.36 
L 813.130221 333.36 
L 813.130221 313.147127 
L 806.808822 313.147127 
z
" style="fill:#d9d9d9;stroke:#dcdcdc;stroke-linejoin:miter;"/>
   </g>
   <g id="patch_99">
    <path clip-path="url(#pad44b449b8)" d="M 813.130221 333.36 
L 819.451619 333.36 
L 819.451619 310.633511 
L 813.130221 310.633511 
z
" style="fill:#bc80bd;stroke:#dcdcdc;stroke-linejoin:miter;"/>
   </g>
   <g id="patch_100">
    <path clip-path="url(#pad44b449b8)" d="M 819.451619 333.36 
L 825.773018 333.36 
L 825.773018 310.42668 
L 819.451619 310.42668 
z
" style="fill:#bebada;stroke:#dcdcdc;stroke-linejoin:miter;"/>
   </g>
   <g id="patch_101">
    <path clip-path="url(#pad44b449b8)" d="M 825.773018 333.36 
L 832.094417 333.36 
L 832.094417 307.670923 
L 825.773018 307.670923 
z
" style="fill:#fb8072;stroke:#dcdcdc;stroke-linejoin:miter;"/>
   </g>
   <g id="patch_102">
    <path clip-path="url(#pad44b449b8)" d="M 832.094417 333.36 
L 838.415815 333.36 
L 838.415815 302.176805 
L 832.094417 302.176805 
z
" style="fill:#fccde5;stroke:#dcdcdc;stroke-linejoin:miter;"/>
   </g>
   <g id="patch_103">
    <path clip-path="url(#pad44b449b8)" d="M 852.463368 333.36 
L 858.784766 333.36 
L 858.784766 261.596374 
L 852.463368 261.596374 
z
" style="fill:#ffffb3;stroke:#dcdcdc;stroke-linejoin:miter;"/>
   </g>
   <g id="patch_104">
    <path clip-path="url(#pad44b449b8)" d="M 858.784766 333.36 
L 865.106165 333.36 
L 865.106165 239.854042 
L 858.784766 239.854042 
z
" style="fill:#b3de69;stroke:#dcdcdc;stroke-linejoin:miter;"/>
   </g>
   <g id="patch_105">
    <path clip-path="url(#pad44b449b8)" d="M 865.106165 333.36 
L 871.427563 333.36 
L 871.427563 236.847286 
L 865.106165 236.847286 
z
" style="fill:#d9d9d9;stroke:#dcdcdc;stroke-linejoin:miter;"/>
   </g>
   <g id="patch_106">
    <path clip-path="url(#pad44b449b8)" d="M 871.427563 333.36 
L 877.748962 333.36 
L 877.748962 229.227235 
L 871.427563 229.227235 
z
" style="fill:#bc80bd;stroke:#dcdcdc;stroke-linejoin:miter;"/>
   </g>
   <g id="patch_107">
    <path clip-path="url(#pad44b449b8)" d="M 877.748962 333.36 
L 884.070361 333.36 
L 884.070361 214.747142 
L 877.748962 214.747142 
z
" style="fill:#80b1d3;stroke:#dcdcdc;stroke-linejoin:miter;"/>
   </g>
   <g id="patch_108">
    <path clip-path="url(#pad44b449b8)" d="M 884.070361 333.36 
L 890.391759 333.36 
L 890.391759 186.624781 
L 884.070361 186.624781 
z
" style="fill:#fccde5;stroke:#dcdcdc;stroke-linejoin:miter;"/>
   </g>
   <g id="patch_109">
    <path clip-path="url(#pad44b449b8)" d="M 890.391759 333.36 
L 896.713158 333.36 
L 896.713158 167.185111 
L 890.391759 167.185111 
z
" style="fill:#bebada;stroke:#dcdcdc;stroke-linejoin:miter;"/>
   </g>
   <g id="patch_110">
    <path clip-path="url(#pad44b449b8)" d="M 896.713158 333.36 
L 903.034556 333.36 
L 903.034556 159.804644 
L 896.713158 159.804644 
z
" style="fill:#fdb462;stroke:#dcdcdc;stroke-linejoin:miter;"/>
   </g>
   <g id="patch_111">
    <path clip-path="url(#pad44b449b8)" d="M 903.034556 333.36 
L 909.355955 333.36 
L 909.355955 120.866168 
L 903.034556 120.866168 
z
" style="fill:#fb8072;stroke:#dcdcdc;stroke-linejoin:miter;"/>
   </g>
   <g id="patch_112">
    <path clip-path="url(#pad44b449b8)" d="M 909.355955 333.36 
L 915.677354 333.36 
L 915.677354 105.118741 
L 909.355955 105.118741 
z
" style="fill:#8dd3c7;stroke:#dcdcdc;stroke-linejoin:miter;"/>
   </g>
   <g id="patch_113">
    <path clip-path="url(#pad44b449b8)" d="M 929.724906 333.36 
L 936.046305 333.36 
L 936.046305 300.28381 
L 929.724906 300.28381 
z
" style="fill:#80b1d3;stroke:#dcdcdc;stroke-linejoin:miter;"/>
   </g>
   <g id="patch_114">
    <path clip-path="url(#pad44b449b8)" d="M 936.046305 333.36 
L 942.367703 333.36 
L 942.367703 273.719314 
L 936.046305 273.719314 
z
" style="fill:#bebada;stroke:#dcdcdc;stroke-linejoin:miter;"/>
   </g>
   <g id="patch_115">
    <path clip-path="url(#pad44b449b8)" d="M 942.367703 333.36 
L 948.689102 333.36 
L 948.689102 265.83205 
L 942.367703 265.83205 
z
" style="fill:#fb8072;stroke:#dcdcdc;stroke-linejoin:miter;"/>
   </g>
   <g id="patch_116">
    <path clip-path="url(#pad44b449b8)" d="M 948.689102 333.36 
L 955.0105 333.36 
L 955.0105 265.83205 
L 948.689102 265.83205 
z
" style="fill:#fdb462;stroke:#dcdcdc;stroke-linejoin:miter;"/>
   </g>
   <g id="patch_117">
    <path clip-path="url(#pad44b449b8)" d="M 955.0105 333.36 
L 961.331899 333.36 
L 961.331899 263.218065 
L 955.0105 263.218065 
z
" style="fill:#fccde5;stroke:#dcdcdc;stroke-linejoin:miter;"/>
   </g>
   <g id="patch_118">
    <path clip-path="url(#pad44b449b8)" d="M 961.331899 333.36 
L 967.653298 333.36 
L 967.653298 258.984145 
L 961.331899 258.984145 
z
" style="fill:#8dd3c7;stroke:#dcdcdc;stroke-linejoin:miter;"/>
   </g>
   <g id="patch_119">
    <path clip-path="url(#pad44b449b8)" d="M 967.653298 333.36 
L 973.974696 333.36 
L 973.974696 248.643117 
L 967.653298 248.643117 
z
" style="fill:#b3de69;stroke:#dcdcdc;stroke-linejoin:miter;"/>
   </g>
   <g id="patch_120">
    <path clip-path="url(#pad44b449b8)" d="M 973.974696 333.36 
L 980.296095 333.36 
L 980.296095 239.869847 
L 973.974696 239.869847 
z
" style="fill:#bc80bd;stroke:#dcdcdc;stroke-linejoin:miter;"/>
   </g>
   <g id="patch_121">
    <path clip-path="url(#pad44b449b8)" d="M 980.296095 333.36 
L 986.617493 333.36 
L 986.617493 232.615598 
L 980.296095 232.615598 
z
" style="fill:#d9d9d9;stroke:#dcdcdc;stroke-linejoin:miter;"/>
   </g>
   <g id="patch_122">
    <path clip-path="url(#pad44b449b8)" d="M 986.617493 333.36 
L 992.938892 333.36 
L 992.938892 218.12682 
L 986.617493 218.12682 
z
" style="fill:#ffffb3;stroke:#dcdcdc;stroke-linejoin:miter;"/>
   </g>
   <g id="patch_123">
    <path d="M 34.193438 333.36 
L 34.193438 7.2 
" style="fill:none;stroke:#262626;stroke-linecap:square;stroke-linejoin:miter;stroke-width:1.25;"/>
   </g>
   <g id="patch_124">
    <path d="M 1038.593438 333.36 
L 1038.593438 7.2 
" style="fill:none;stroke:#262626;stroke-linecap:square;stroke-linejoin:miter;stroke-width:1.25;"/>
   </g>
   <g id="patch_125">
    <path d="M 34.193438 333.36 
L 1038.593438 333.36 
" style="fill:none;stroke:#262626;stroke-linecap:square;stroke-linejoin:miter;stroke-width:1.25;"/>
   </g>
   <g id="patch_126">
    <path d="M 34.193438 7.2 
L 1038.593438 7.2 
" style="fill:none;stroke:#262626;stroke-linecap:square;stroke-linejoin:miter;stroke-width:1.25;"/>
   </g>
   <g id="legend_1">
    <g id="patch_127">
     <path d="M 950.32875 177.459375 
L 1030.893438 177.459375 
Q 1033.093438 177.459375 1033.093438 175.259375 
L 1033.093438 14.9 
Q 1033.093438 12.7 1030.893438 12.7 
L 950.32875 12.7 
Q 948.12875 12.7 948.12875 14.9 
L 948.12875 175.259375 
Q 948.12875 177.459375 950.32875 177.459375 
z
" style="fill:#ffffff;opacity:0.8;stroke:#cccccc;stroke-linejoin:miter;"/>
    </g>
    <g id="patch_128">
     <path d="M 952.52875 25.458281 
L 974.52875 25.458281 
L 974.52875 17.758281 
L 952.52875 17.758281 
z
" style="fill:#fb8072;stroke:#dcdcdc;stroke-linejoin:miter;"/>
    </g>
    <g id="text_19">
     <!-- famid14 -->
     <g style="fill:#262626;" transform="translate(983.32875 25.458281)scale(0.11 -0.11)">
      <defs>
       <path d="M 3328 2828 
Q 3544 3216 3844 3400 
Q 4144 3584 4550 3584 
Q 5097 3584 5394 3201 
Q 5691 2819 5691 2113 
L 5691 0 
L 5113 0 
L 5113 2094 
Q 5113 2597 4934 2840 
Q 4756 3084 4391 3084 
Q 3944 3084 3684 2787 
Q 3425 2491 3425 1978 
L 3425 0 
L 2847 0 
L 2847 2094 
Q 2847 2600 2669 2842 
Q 2491 3084 2119 3084 
Q 1678 3084 1418 2786 
Q 1159 2488 1159 1978 
L 1159 0 
L 581 0 
L 581 3500 
L 1159 3500 
L 1159 2956 
Q 1356 3278 1631 3431 
Q 1906 3584 2284 3584 
Q 2666 3584 2933 3390 
Q 3200 3197 3328 2828 
z
" id="DejaVuSans-6d" transform="scale(0.015625)"/>
      </defs>
      <use xlink:href="#DejaVuSans-66"/>
      <use x="35.205078" xlink:href="#DejaVuSans-61"/>
      <use x="96.484375" xlink:href="#DejaVuSans-6d"/>
      <use x="193.896484" xlink:href="#DejaVuSans-69"/>
      <use x="221.679688" xlink:href="#DejaVuSans-64"/>
      <use x="285.15625" xlink:href="#DejaVuSans-31"/>
      <use x="348.779297" xlink:href="#DejaVuSans-34"/>
     </g>
    </g>
    <g id="patch_129">
     <path d="M 952.52875 41.604219 
L 974.52875 41.604219 
L 974.52875 33.904219 
L 952.52875 33.904219 
z
" style="fill:#bebada;stroke:#dcdcdc;stroke-linejoin:miter;"/>
    </g>
    <g id="text_20">
     <!-- famid10 -->
     <g style="fill:#262626;" transform="translate(983.32875 41.604219)scale(0.11 -0.11)">
      <use xlink:href="#DejaVuSans-66"/>
      <use x="35.205078" xlink:href="#DejaVuSans-61"/>
      <use x="96.484375" xlink:href="#DejaVuSans-6d"/>
      <use x="193.896484" xlink:href="#DejaVuSans-69"/>
      <use x="221.679688" xlink:href="#DejaVuSans-64"/>
      <use x="285.15625" xlink:href="#DejaVuSans-31"/>
      <use x="348.779297" xlink:href="#DejaVuSans-30"/>
     </g>
    </g>
    <g id="patch_130">
     <path d="M 952.52875 57.750156 
L 974.52875 57.750156 
L 974.52875 50.050156 
L 952.52875 50.050156 
z
" style="fill:#d9d9d9;stroke:#dcdcdc;stroke-linejoin:miter;"/>
    </g>
    <g id="text_21">
     <!-- famid43 -->
     <g style="fill:#262626;" transform="translate(983.32875 57.750156)scale(0.11 -0.11)">
      <defs>
       <path d="M 2597 2516 
Q 3050 2419 3304 2112 
Q 3559 1806 3559 1356 
Q 3559 666 3084 287 
Q 2609 -91 1734 -91 
Q 1441 -91 1130 -33 
Q 819 25 488 141 
L 488 750 
Q 750 597 1062 519 
Q 1375 441 1716 441 
Q 2309 441 2620 675 
Q 2931 909 2931 1356 
Q 2931 1769 2642 2001 
Q 2353 2234 1838 2234 
L 1294 2234 
L 1294 2753 
L 1863 2753 
Q 2328 2753 2575 2939 
Q 2822 3125 2822 3475 
Q 2822 3834 2567 4026 
Q 2313 4219 1838 4219 
Q 1578 4219 1281 4162 
Q 984 4106 628 3988 
L 628 4550 
Q 988 4650 1302 4700 
Q 1616 4750 1894 4750 
Q 2613 4750 3031 4423 
Q 3450 4097 3450 3541 
Q 3450 3153 3228 2886 
Q 3006 2619 2597 2516 
z
" id="DejaVuSans-33" transform="scale(0.015625)"/>
      </defs>
      <use xlink:href="#DejaVuSans-66"/>
      <use x="35.205078" xlink:href="#DejaVuSans-61"/>
      <use x="96.484375" xlink:href="#DejaVuSans-6d"/>
      <use x="193.896484" xlink:href="#DejaVuSans-69"/>
      <use x="221.679688" xlink:href="#DejaVuSans-64"/>
      <use x="285.15625" xlink:href="#DejaVuSans-34"/>
      <use x="348.779297" xlink:href="#DejaVuSans-33"/>
     </g>
    </g>
    <g id="patch_131">
     <path d="M 952.52875 73.896094 
L 974.52875 73.896094 
L 974.52875 66.196094 
L 952.52875 66.196094 
z
" style="fill:#80b1d3;stroke:#dcdcdc;stroke-linejoin:miter;"/>
    </g>
    <g id="text_22">
     <!-- famid3 -->
     <g style="fill:#262626;" transform="translate(983.32875 73.896094)scale(0.11 -0.11)">
      <use xlink:href="#DejaVuSans-66"/>
      <use x="35.205078" xlink:href="#DejaVuSans-61"/>
      <use x="96.484375" xlink:href="#DejaVuSans-6d"/>
      <use x="193.896484" xlink:href="#DejaVuSans-69"/>
      <use x="221.679688" xlink:href="#DejaVuSans-64"/>
      <use x="285.15625" xlink:href="#DejaVuSans-33"/>
     </g>
    </g>
    <g id="patch_132">
     <path d="M 952.52875 90.042031 
L 974.52875 90.042031 
L 974.52875 82.342031 
L 952.52875 82.342031 
z
" style="fill:#bc80bd;stroke:#dcdcdc;stroke-linejoin:miter;"/>
    </g>
    <g id="text_23">
     <!-- famid7 -->
     <g style="fill:#262626;" transform="translate(983.32875 90.042031)scale(0.11 -0.11)">
      <defs>
       <path d="M 525 4666 
L 3525 4666 
L 3525 4397 
L 1831 0 
L 1172 0 
L 2766 4134 
L 525 4134 
L 525 4666 
z
" id="DejaVuSans-37" transform="scale(0.015625)"/>
      </defs>
      <use xlink:href="#DejaVuSans-66"/>
      <use x="35.205078" xlink:href="#DejaVuSans-61"/>
      <use x="96.484375" xlink:href="#DejaVuSans-6d"/>
      <use x="193.896484" xlink:href="#DejaVuSans-69"/>
      <use x="221.679688" xlink:href="#DejaVuSans-64"/>
      <use x="285.15625" xlink:href="#DejaVuSans-37"/>
     </g>
    </g>
    <g id="patch_133">
     <path d="M 952.52875 106.187969 
L 974.52875 106.187969 
L 974.52875 98.487969 
L 952.52875 98.487969 
z
" style="fill:#8dd3c7;stroke:#dcdcdc;stroke-linejoin:miter;"/>
    </g>
    <g id="text_24">
     <!-- famid0 -->
     <g style="fill:#262626;" transform="translate(983.32875 106.187969)scale(0.11 -0.11)">
      <use xlink:href="#DejaVuSans-66"/>
      <use x="35.205078" xlink:href="#DejaVuSans-61"/>
      <use x="96.484375" xlink:href="#DejaVuSans-6d"/>
      <use x="193.896484" xlink:href="#DejaVuSans-69"/>
      <use x="221.679688" xlink:href="#DejaVuSans-64"/>
      <use x="285.15625" xlink:href="#DejaVuSans-30"/>
     </g>
    </g>
    <g id="patch_134">
     <path d="M 952.52875 122.333906 
L 974.52875 122.333906 
L 974.52875 114.633906 
L 952.52875 114.633906 
z
" style="fill:#fccde5;stroke:#dcdcdc;stroke-linejoin:miter;"/>
    </g>
    <g id="text_25">
     <!-- famid33 -->
     <g style="fill:#262626;" transform="translate(983.32875 122.333906)scale(0.11 -0.11)">
      <use xlink:href="#DejaVuSans-66"/>
      <use x="35.205078" xlink:href="#DejaVuSans-61"/>
      <use x="96.484375" xlink:href="#DejaVuSans-6d"/>
      <use x="193.896484" xlink:href="#DejaVuSans-69"/>
      <use x="221.679688" xlink:href="#DejaVuSans-64"/>
      <use x="285.15625" xlink:href="#DejaVuSans-33"/>
      <use x="348.779297" xlink:href="#DejaVuSans-33"/>
     </g>
    </g>
    <g id="patch_135">
     <path d="M 952.52875 138.479844 
L 974.52875 138.479844 
L 974.52875 130.779844 
L 952.52875 130.779844 
z
" style="fill:#b3de69;stroke:#dcdcdc;stroke-linejoin:miter;"/>
    </g>
    <g id="text_26">
     <!-- famid32 -->
     <g style="fill:#262626;" transform="translate(983.32875 138.479844)scale(0.11 -0.11)">
      <use xlink:href="#DejaVuSans-66"/>
      <use x="35.205078" xlink:href="#DejaVuSans-61"/>
      <use x="96.484375" xlink:href="#DejaVuSans-6d"/>
      <use x="193.896484" xlink:href="#DejaVuSans-69"/>
      <use x="221.679688" xlink:href="#DejaVuSans-64"/>
      <use x="285.15625" xlink:href="#DejaVuSans-33"/>
      <use x="348.779297" xlink:href="#DejaVuSans-32"/>
     </g>
    </g>
    <g id="patch_136">
     <path d="M 952.52875 154.625781 
L 974.52875 154.625781 
L 974.52875 146.925781 
L 952.52875 146.925781 
z
" style="fill:#fdb462;stroke:#dcdcdc;stroke-linejoin:miter;"/>
    </g>
    <g id="text_27">
     <!-- famid30 -->
     <g style="fill:#262626;" transform="translate(983.32875 154.625781)scale(0.11 -0.11)">
      <use xlink:href="#DejaVuSans-66"/>
      <use x="35.205078" xlink:href="#DejaVuSans-61"/>
      <use x="96.484375" xlink:href="#DejaVuSans-6d"/>
      <use x="193.896484" xlink:href="#DejaVuSans-69"/>
      <use x="221.679688" xlink:href="#DejaVuSans-64"/>
      <use x="285.15625" xlink:href="#DejaVuSans-33"/>
      <use x="348.779297" xlink:href="#DejaVuSans-30"/>
     </g>
    </g>
    <g id="patch_137">
     <path d="M 952.52875 170.771719 
L 974.52875 170.771719 
L 974.52875 163.071719 
L 952.52875 163.071719 
z
" style="fill:#ffffb3;stroke:#dcdcdc;stroke-linejoin:miter;"/>
    </g>
    <g id="text_28">
     <!-- famid1 -->
     <g style="fill:#262626;" transform="translate(983.32875 170.771719)scale(0.11 -0.11)">
      <use xlink:href="#DejaVuSans-66"/>
      <use x="35.205078" xlink:href="#DejaVuSans-61"/>
      <use x="96.484375" xlink:href="#DejaVuSans-6d"/>
      <use x="193.896484" xlink:href="#DejaVuSans-69"/>
      <use x="221.679688" xlink:href="#DejaVuSans-64"/>
      <use x="285.15625" xlink:href="#DejaVuSans-31"/>
     </g>
    </g>
   </g>
  </g>
 </g>
 <defs>
  <clipPath id="pad44b449b8">
   <rect height="326.16" width="1004.4" x="34.193438" y="7.2"/>
  </clipPath>
 </defs>
</svg>
