<?xml version="1.0" encoding="utf-8" standalone="no"?>
<!DOCTYPE svg PUBLIC "-//W3C//DTD SVG 1.1//EN"
  "http://www.w3.org/Graphics/SVG/1.1/DTD/svg11.dtd">
<svg height="432pt" version="1.1" viewBox="0 0 432 432" width="432pt" xmlns="http://www.w3.org/2000/svg" xmlns:xlink="http://www.w3.org/1999/xlink">
 <metadata>
  <rdf:RDF xmlns:cc="http://creativecommons.org/ns#" xmlns:dc="http://purl.org/dc/elements/1.1/" xmlns:rdf="http://www.w3.org/1999/02/22-rdf-syntax-ns#">
   <cc:Work>
    <dc:type rdf:resource="http://purl.org/dc/dcmitype/StillImage"/>
    <dc:date>2021-12-14T15:06:28.078693</dc:date>
    <dc:format>image/svg+xml</dc:format>
    <dc:creator>
     <cc:Agent>
      <dc:title>Matplotlib v3.4.3, https://matplotlib.org/</dc:title>
     </cc:Agent>
    </dc:creator>
   </cc:Work>
  </rdf:RDF>
 </metadata>
 <defs>
  <style type="text/css">*{stroke-linecap:butt;stroke-linejoin:round;}</style>
 </defs>
 <g id="figure_1">
  <g id="patch_1">
   <path d="M 0 432 
L 432 432 
L 432 0 
L 0 0 
z
" style="fill:#ffffff;"/>
  </g>
  <g id="axes_1">
   <g id="patch_2">
    <path d="M 54 378 
L 388.8 378 
L 388.8 51.84 
L 54 51.84 
z
" style="fill:#ffffff;"/>
   </g>
   <g id="matplotlib.axis_1">
    <g id="xtick_1">
     <g id="line2d_1">
      <path clip-path="url(#p0a7408ed7a)" d="M 54 378 
L 54 51.84 
" style="fill:none;stroke:#f2f2f2;stroke-linecap:round;"/>
     </g>
     <g id="line2d_2">
      <defs>
       <path d="M 0 0 
L 0 6 
" id="maeef10913d" style="stroke:#262626;stroke-width:1.25;"/>
      </defs>
      <g>
       <use style="fill:#262626;stroke:#262626;stroke-width:1.25;" x="54" xlink:href="#maeef10913d" y="378"/>
      </g>
     </g>
     <g id="text_1">
      <!-- 0.0 -->
      <g style="fill:#262626;" transform="translate(45.253281 395.858281)scale(0.11 -0.11)">
       <defs>
        <path d="M 2034 4250 
Q 1547 4250 1301 3770 
Q 1056 3291 1056 2328 
Q 1056 1369 1301 889 
Q 1547 409 2034 409 
Q 2525 409 2770 889 
Q 3016 1369 3016 2328 
Q 3016 3291 2770 3770 
Q 2525 4250 2034 4250 
z
M 2034 4750 
Q 2819 4750 3233 4129 
Q 3647 3509 3647 2328 
Q 3647 1150 3233 529 
Q 2819 -91 2034 -91 
Q 1250 -91 836 529 
Q 422 1150 422 2328 
Q 422 3509 836 4129 
Q 1250 4750 2034 4750 
z
" id="DejaVuSans-30" transform="scale(0.015625)"/>
        <path d="M 684 794 
L 1344 794 
L 1344 0 
L 684 0 
L 684 794 
z
" id="DejaVuSans-2e" transform="scale(0.015625)"/>
       </defs>
       <use xlink:href="#DejaVuSans-30"/>
       <use x="63.623047" xlink:href="#DejaVuSans-2e"/>
       <use x="95.410156" xlink:href="#DejaVuSans-30"/>
      </g>
     </g>
    </g>
    <g id="xtick_2">
     <g id="line2d_3">
      <path clip-path="url(#p0a7408ed7a)" d="M 120.96 378 
L 120.96 51.84 
" style="fill:none;stroke:#f2f2f2;stroke-linecap:round;"/>
     </g>
     <g id="line2d_4">
      <g>
       <use style="fill:#262626;stroke:#262626;stroke-width:1.25;" x="120.96" xlink:href="#maeef10913d" y="378"/>
      </g>
     </g>
     <g id="text_2">
      <!-- 0.2 -->
      <g style="fill:#262626;" transform="translate(112.213281 395.858281)scale(0.11 -0.11)">
       <defs>
        <path d="M 1228 531 
L 3431 531 
L 3431 0 
L 469 0 
L 469 531 
Q 828 903 1448 1529 
Q 2069 2156 2228 2338 
Q 2531 2678 2651 2914 
Q 2772 3150 2772 3378 
Q 2772 3750 2511 3984 
Q 2250 4219 1831 4219 
Q 1534 4219 1204 4116 
Q 875 4013 500 3803 
L 500 4441 
Q 881 4594 1212 4672 
Q 1544 4750 1819 4750 
Q 2544 4750 2975 4387 
Q 3406 4025 3406 3419 
Q 3406 3131 3298 2873 
Q 3191 2616 2906 2266 
Q 2828 2175 2409 1742 
Q 1991 1309 1228 531 
z
" id="DejaVuSans-32" transform="scale(0.015625)"/>
       </defs>
       <use xlink:href="#DejaVuSans-30"/>
       <use x="63.623047" xlink:href="#DejaVuSans-2e"/>
       <use x="95.410156" xlink:href="#DejaVuSans-32"/>
      </g>
     </g>
    </g>
    <g id="xtick_3">
     <g id="line2d_5">
      <path clip-path="url(#p0a7408ed7a)" d="M 187.92 378 
L 187.92 51.84 
" style="fill:none;stroke:#f2f2f2;stroke-linecap:round;"/>
     </g>
     <g id="line2d_6">
      <g>
       <use style="fill:#262626;stroke:#262626;stroke-width:1.25;" x="187.92" xlink:href="#maeef10913d" y="378"/>
      </g>
     </g>
     <g id="text_3">
      <!-- 0.4 -->
      <g style="fill:#262626;" transform="translate(179.173281 395.858281)scale(0.11 -0.11)">
       <defs>
        <path d="M 2419 4116 
L 825 1625 
L 2419 1625 
L 2419 4116 
z
M 2253 4666 
L 3047 4666 
L 3047 1625 
L 3713 1625 
L 3713 1100 
L 3047 1100 
L 3047 0 
L 2419 0 
L 2419 1100 
L 313 1100 
L 313 1709 
L 2253 4666 
z
" id="DejaVuSans-34" transform="scale(0.015625)"/>
       </defs>
       <use xlink:href="#DejaVuSans-30"/>
       <use x="63.623047" xlink:href="#DejaVuSans-2e"/>
       <use x="95.410156" xlink:href="#DejaVuSans-34"/>
      </g>
     </g>
    </g>
    <g id="xtick_4">
     <g id="line2d_7">
      <path clip-path="url(#p0a7408ed7a)" d="M 254.88 378 
L 254.88 51.84 
" style="fill:none;stroke:#f2f2f2;stroke-linecap:round;"/>
     </g>
     <g id="line2d_8">
      <g>
       <use style="fill:#262626;stroke:#262626;stroke-width:1.25;" x="254.88" xlink:href="#maeef10913d" y="378"/>
      </g>
     </g>
     <g id="text_4">
      <!-- 0.6 -->
      <g style="fill:#262626;" transform="translate(246.133281 395.858281)scale(0.11 -0.11)">
       <defs>
        <path d="M 2113 2584 
Q 1688 2584 1439 2293 
Q 1191 2003 1191 1497 
Q 1191 994 1439 701 
Q 1688 409 2113 409 
Q 2538 409 2786 701 
Q 3034 994 3034 1497 
Q 3034 2003 2786 2293 
Q 2538 2584 2113 2584 
z
M 3366 4563 
L 3366 3988 
Q 3128 4100 2886 4159 
Q 2644 4219 2406 4219 
Q 1781 4219 1451 3797 
Q 1122 3375 1075 2522 
Q 1259 2794 1537 2939 
Q 1816 3084 2150 3084 
Q 2853 3084 3261 2657 
Q 3669 2231 3669 1497 
Q 3669 778 3244 343 
Q 2819 -91 2113 -91 
Q 1303 -91 875 529 
Q 447 1150 447 2328 
Q 447 3434 972 4092 
Q 1497 4750 2381 4750 
Q 2619 4750 2861 4703 
Q 3103 4656 3366 4563 
z
" id="DejaVuSans-36" transform="scale(0.015625)"/>
       </defs>
       <use xlink:href="#DejaVuSans-30"/>
       <use x="63.623047" xlink:href="#DejaVuSans-2e"/>
       <use x="95.410156" xlink:href="#DejaVuSans-36"/>
      </g>
     </g>
    </g>
    <g id="xtick_5">
     <g id="line2d_9">
      <path clip-path="url(#p0a7408ed7a)" d="M 321.84 378 
L 321.84 51.84 
" style="fill:none;stroke:#f2f2f2;stroke-linecap:round;"/>
     </g>
     <g id="line2d_10">
      <g>
       <use style="fill:#262626;stroke:#262626;stroke-width:1.25;" x="321.84" xlink:href="#maeef10913d" y="378"/>
      </g>
     </g>
     <g id="text_5">
      <!-- 0.8 -->
      <g style="fill:#262626;" transform="translate(313.093281 395.858281)scale(0.11 -0.11)">
       <defs>
        <path d="M 2034 2216 
Q 1584 2216 1326 1975 
Q 1069 1734 1069 1313 
Q 1069 891 1326 650 
Q 1584 409 2034 409 
Q 2484 409 2743 651 
Q 3003 894 3003 1313 
Q 3003 1734 2745 1975 
Q 2488 2216 2034 2216 
z
M 1403 2484 
Q 997 2584 770 2862 
Q 544 3141 544 3541 
Q 544 4100 942 4425 
Q 1341 4750 2034 4750 
Q 2731 4750 3128 4425 
Q 3525 4100 3525 3541 
Q 3525 3141 3298 2862 
Q 3072 2584 2669 2484 
Q 3125 2378 3379 2068 
Q 3634 1759 3634 1313 
Q 3634 634 3220 271 
Q 2806 -91 2034 -91 
Q 1263 -91 848 271 
Q 434 634 434 1313 
Q 434 1759 690 2068 
Q 947 2378 1403 2484 
z
M 1172 3481 
Q 1172 3119 1398 2916 
Q 1625 2713 2034 2713 
Q 2441 2713 2670 2916 
Q 2900 3119 2900 3481 
Q 2900 3844 2670 4047 
Q 2441 4250 2034 4250 
Q 1625 4250 1398 4047 
Q 1172 3844 1172 3481 
z
" id="DejaVuSans-38" transform="scale(0.015625)"/>
       </defs>
       <use xlink:href="#DejaVuSans-30"/>
       <use x="63.623047" xlink:href="#DejaVuSans-2e"/>
       <use x="95.410156" xlink:href="#DejaVuSans-38"/>
      </g>
     </g>
    </g>
    <g id="xtick_6">
     <g id="line2d_11">
      <path clip-path="url(#p0a7408ed7a)" d="M 388.8 378 
L 388.8 51.84 
" style="fill:none;stroke:#f2f2f2;stroke-linecap:round;"/>
     </g>
     <g id="line2d_12">
      <g>
       <use style="fill:#262626;stroke:#262626;stroke-width:1.25;" x="388.8" xlink:href="#maeef10913d" y="378"/>
      </g>
     </g>
     <g id="text_6">
      <!-- 1.0 -->
      <g style="fill:#262626;" transform="translate(380.053281 395.858281)scale(0.11 -0.11)">
       <defs>
        <path d="M 794 531 
L 1825 531 
L 1825 4091 
L 703 3866 
L 703 4441 
L 1819 4666 
L 2450 4666 
L 2450 531 
L 3481 531 
L 3481 0 
L 794 0 
L 794 531 
z
" id="DejaVuSans-31" transform="scale(0.015625)"/>
       </defs>
       <use xlink:href="#DejaVuSans-31"/>
       <use x="63.623047" xlink:href="#DejaVuSans-2e"/>
       <use x="95.410156" xlink:href="#DejaVuSans-30"/>
      </g>
     </g>
    </g>
    <g id="text_7">
     <!-- False Positive Rate -->
     <g style="fill:#262626;" transform="translate(165.640312 411.264063)scale(0.12 -0.12)">
      <defs>
       <path d="M 628 4666 
L 3309 4666 
L 3309 4134 
L 1259 4134 
L 1259 2759 
L 3109 2759 
L 3109 2228 
L 1259 2228 
L 1259 0 
L 628 0 
L 628 4666 
z
" id="DejaVuSans-46" transform="scale(0.015625)"/>
       <path d="M 2194 1759 
Q 1497 1759 1228 1600 
Q 959 1441 959 1056 
Q 959 750 1161 570 
Q 1363 391 1709 391 
Q 2188 391 2477 730 
Q 2766 1069 2766 1631 
L 2766 1759 
L 2194 1759 
z
M 3341 1997 
L 3341 0 
L 2766 0 
L 2766 531 
Q 2569 213 2275 61 
Q 1981 -91 1556 -91 
Q 1019 -91 701 211 
Q 384 513 384 1019 
Q 384 1609 779 1909 
Q 1175 2209 1959 2209 
L 2766 2209 
L 2766 2266 
Q 2766 2663 2505 2880 
Q 2244 3097 1772 3097 
Q 1472 3097 1187 3025 
Q 903 2953 641 2809 
L 641 3341 
Q 956 3463 1253 3523 
Q 1550 3584 1831 3584 
Q 2591 3584 2966 3190 
Q 3341 2797 3341 1997 
z
" id="DejaVuSans-61" transform="scale(0.015625)"/>
       <path d="M 603 4863 
L 1178 4863 
L 1178 0 
L 603 0 
L 603 4863 
z
" id="DejaVuSans-6c" transform="scale(0.015625)"/>
       <path d="M 2834 3397 
L 2834 2853 
Q 2591 2978 2328 3040 
Q 2066 3103 1784 3103 
Q 1356 3103 1142 2972 
Q 928 2841 928 2578 
Q 928 2378 1081 2264 
Q 1234 2150 1697 2047 
L 1894 2003 
Q 2506 1872 2764 1633 
Q 3022 1394 3022 966 
Q 3022 478 2636 193 
Q 2250 -91 1575 -91 
Q 1294 -91 989 -36 
Q 684 19 347 128 
L 347 722 
Q 666 556 975 473 
Q 1284 391 1588 391 
Q 1994 391 2212 530 
Q 2431 669 2431 922 
Q 2431 1156 2273 1281 
Q 2116 1406 1581 1522 
L 1381 1569 
Q 847 1681 609 1914 
Q 372 2147 372 2553 
Q 372 3047 722 3315 
Q 1072 3584 1716 3584 
Q 2034 3584 2315 3537 
Q 2597 3491 2834 3397 
z
" id="DejaVuSans-73" transform="scale(0.015625)"/>
       <path d="M 3597 1894 
L 3597 1613 
L 953 1613 
Q 991 1019 1311 708 
Q 1631 397 2203 397 
Q 2534 397 2845 478 
Q 3156 559 3463 722 
L 3463 178 
Q 3153 47 2828 -22 
Q 2503 -91 2169 -91 
Q 1331 -91 842 396 
Q 353 884 353 1716 
Q 353 2575 817 3079 
Q 1281 3584 2069 3584 
Q 2775 3584 3186 3129 
Q 3597 2675 3597 1894 
z
M 3022 2063 
Q 3016 2534 2758 2815 
Q 2500 3097 2075 3097 
Q 1594 3097 1305 2825 
Q 1016 2553 972 2059 
L 3022 2063 
z
" id="DejaVuSans-65" transform="scale(0.015625)"/>
       <path id="DejaVuSans-20" transform="scale(0.015625)"/>
       <path d="M 1259 4147 
L 1259 2394 
L 2053 2394 
Q 2494 2394 2734 2622 
Q 2975 2850 2975 3272 
Q 2975 3691 2734 3919 
Q 2494 4147 2053 4147 
L 1259 4147 
z
M 628 4666 
L 2053 4666 
Q 2838 4666 3239 4311 
Q 3641 3956 3641 3272 
Q 3641 2581 3239 2228 
Q 2838 1875 2053 1875 
L 1259 1875 
L 1259 0 
L 628 0 
L 628 4666 
z
" id="DejaVuSans-50" transform="scale(0.015625)"/>
       <path d="M 1959 3097 
Q 1497 3097 1228 2736 
Q 959 2375 959 1747 
Q 959 1119 1226 758 
Q 1494 397 1959 397 
Q 2419 397 2687 759 
Q 2956 1122 2956 1747 
Q 2956 2369 2687 2733 
Q 2419 3097 1959 3097 
z
M 1959 3584 
Q 2709 3584 3137 3096 
Q 3566 2609 3566 1747 
Q 3566 888 3137 398 
Q 2709 -91 1959 -91 
Q 1206 -91 779 398 
Q 353 888 353 1747 
Q 353 2609 779 3096 
Q 1206 3584 1959 3584 
z
" id="DejaVuSans-6f" transform="scale(0.015625)"/>
       <path d="M 603 3500 
L 1178 3500 
L 1178 0 
L 603 0 
L 603 3500 
z
M 603 4863 
L 1178 4863 
L 1178 4134 
L 603 4134 
L 603 4863 
z
" id="DejaVuSans-69" transform="scale(0.015625)"/>
       <path d="M 1172 4494 
L 1172 3500 
L 2356 3500 
L 2356 3053 
L 1172 3053 
L 1172 1153 
Q 1172 725 1289 603 
Q 1406 481 1766 481 
L 2356 481 
L 2356 0 
L 1766 0 
Q 1100 0 847 248 
Q 594 497 594 1153 
L 594 3053 
L 172 3053 
L 172 3500 
L 594 3500 
L 594 4494 
L 1172 4494 
z
" id="DejaVuSans-74" transform="scale(0.015625)"/>
       <path d="M 191 3500 
L 800 3500 
L 1894 563 
L 2988 3500 
L 3597 3500 
L 2284 0 
L 1503 0 
L 191 3500 
z
" id="DejaVuSans-76" transform="scale(0.015625)"/>
       <path d="M 2841 2188 
Q 3044 2119 3236 1894 
Q 3428 1669 3622 1275 
L 4263 0 
L 3584 0 
L 2988 1197 
Q 2756 1666 2539 1819 
Q 2322 1972 1947 1972 
L 1259 1972 
L 1259 0 
L 628 0 
L 628 4666 
L 2053 4666 
Q 2853 4666 3247 4331 
Q 3641 3997 3641 3322 
Q 3641 2881 3436 2590 
Q 3231 2300 2841 2188 
z
M 1259 4147 
L 1259 2491 
L 2053 2491 
Q 2509 2491 2742 2702 
Q 2975 2913 2975 3322 
Q 2975 3731 2742 3939 
Q 2509 4147 2053 4147 
L 1259 4147 
z
" id="DejaVuSans-52" transform="scale(0.015625)"/>
      </defs>
      <use xlink:href="#DejaVuSans-46"/>
      <use x="48.394531" xlink:href="#DejaVuSans-61"/>
      <use x="109.673828" xlink:href="#DejaVuSans-6c"/>
      <use x="137.457031" xlink:href="#DejaVuSans-73"/>
      <use x="189.556641" xlink:href="#DejaVuSans-65"/>
      <use x="251.080078" xlink:href="#DejaVuSans-20"/>
      <use x="282.867188" xlink:href="#DejaVuSans-50"/>
      <use x="339.544922" xlink:href="#DejaVuSans-6f"/>
      <use x="400.726562" xlink:href="#DejaVuSans-73"/>
      <use x="452.826172" xlink:href="#DejaVuSans-69"/>
      <use x="480.609375" xlink:href="#DejaVuSans-74"/>
      <use x="519.818359" xlink:href="#DejaVuSans-69"/>
      <use x="547.601562" xlink:href="#DejaVuSans-76"/>
      <use x="606.78125" xlink:href="#DejaVuSans-65"/>
      <use x="668.304688" xlink:href="#DejaVuSans-20"/>
      <use x="700.091797" xlink:href="#DejaVuSans-52"/>
      <use x="767.324219" xlink:href="#DejaVuSans-61"/>
      <use x="828.603516" xlink:href="#DejaVuSans-74"/>
      <use x="867.8125" xlink:href="#DejaVuSans-65"/>
     </g>
    </g>
   </g>
   <g id="matplotlib.axis_2">
    <g id="ytick_1">
     <g id="line2d_13">
      <path clip-path="url(#p0a7408ed7a)" d="M 54 378 
L 388.8 378 
" style="fill:none;stroke:#f2f2f2;stroke-linecap:round;"/>
     </g>
     <g id="line2d_14">
      <defs>
       <path d="M 0 0 
L -6 0 
" id="m44b5ee2477" style="stroke:#262626;stroke-width:1.25;"/>
      </defs>
      <g>
       <use style="fill:#262626;stroke:#262626;stroke-width:1.25;" x="54" xlink:href="#m44b5ee2477" y="378"/>
      </g>
     </g>
     <g id="text_8">
      <!-- 0.0 -->
      <g style="fill:#262626;" transform="translate(27.006563 382.179141)scale(0.11 -0.11)">
       <use xlink:href="#DejaVuSans-30"/>
       <use x="63.623047" xlink:href="#DejaVuSans-2e"/>
       <use x="95.410156" xlink:href="#DejaVuSans-30"/>
      </g>
     </g>
    </g>
    <g id="ytick_2">
     <g id="line2d_15">
      <path clip-path="url(#p0a7408ed7a)" d="M 54 312.768 
L 388.8 312.768 
" style="fill:none;stroke:#f2f2f2;stroke-linecap:round;"/>
     </g>
     <g id="line2d_16">
      <g>
       <use style="fill:#262626;stroke:#262626;stroke-width:1.25;" x="54" xlink:href="#m44b5ee2477" y="312.768"/>
      </g>
     </g>
     <g id="text_9">
      <!-- 0.2 -->
      <g style="fill:#262626;" transform="translate(27.006563 316.947141)scale(0.11 -0.11)">
       <use xlink:href="#DejaVuSans-30"/>
       <use x="63.623047" xlink:href="#DejaVuSans-2e"/>
       <use x="95.410156" xlink:href="#DejaVuSans-32"/>
      </g>
     </g>
    </g>
    <g id="ytick_3">
     <g id="line2d_17">
      <path clip-path="url(#p0a7408ed7a)" d="M 54 247.536 
L 388.8 247.536 
" style="fill:none;stroke:#f2f2f2;stroke-linecap:round;"/>
     </g>
     <g id="line2d_18">
      <g>
       <use style="fill:#262626;stroke:#262626;stroke-width:1.25;" x="54" xlink:href="#m44b5ee2477" y="247.536"/>
      </g>
     </g>
     <g id="text_10">
      <!-- 0.4 -->
      <g style="fill:#262626;" transform="translate(27.006563 251.715141)scale(0.11 -0.11)">
       <use xlink:href="#DejaVuSans-30"/>
       <use x="63.623047" xlink:href="#DejaVuSans-2e"/>
       <use x="95.410156" xlink:href="#DejaVuSans-34"/>
      </g>
     </g>
    </g>
    <g id="ytick_4">
     <g id="line2d_19">
      <path clip-path="url(#p0a7408ed7a)" d="M 54 182.304 
L 388.8 182.304 
" style="fill:none;stroke:#f2f2f2;stroke-linecap:round;"/>
     </g>
     <g id="line2d_20">
      <g>
       <use style="fill:#262626;stroke:#262626;stroke-width:1.25;" x="54" xlink:href="#m44b5ee2477" y="182.304"/>
      </g>
     </g>
     <g id="text_11">
      <!-- 0.6 -->
      <g style="fill:#262626;" transform="translate(27.006563 186.483141)scale(0.11 -0.11)">
       <use xlink:href="#DejaVuSans-30"/>
       <use x="63.623047" xlink:href="#DejaVuSans-2e"/>
       <use x="95.410156" xlink:href="#DejaVuSans-36"/>
      </g>
     </g>
    </g>
    <g id="ytick_5">
     <g id="line2d_21">
      <path clip-path="url(#p0a7408ed7a)" d="M 54 117.072 
L 388.8 117.072 
" style="fill:none;stroke:#f2f2f2;stroke-linecap:round;"/>
     </g>
     <g id="line2d_22">
      <g>
       <use style="fill:#262626;stroke:#262626;stroke-width:1.25;" x="54" xlink:href="#m44b5ee2477" y="117.072"/>
      </g>
     </g>
     <g id="text_12">
      <!-- 0.8 -->
      <g style="fill:#262626;" transform="translate(27.006563 121.251141)scale(0.11 -0.11)">
       <use xlink:href="#DejaVuSans-30"/>
       <use x="63.623047" xlink:href="#DejaVuSans-2e"/>
       <use x="95.410156" xlink:href="#DejaVuSans-38"/>
      </g>
     </g>
    </g>
    <g id="ytick_6">
     <g id="line2d_23">
      <path clip-path="url(#p0a7408ed7a)" d="M 54 51.84 
L 388.8 51.84 
" style="fill:none;stroke:#f2f2f2;stroke-linecap:round;"/>
     </g>
     <g id="line2d_24">
      <g>
       <use style="fill:#262626;stroke:#262626;stroke-width:1.25;" x="54" xlink:href="#m44b5ee2477" y="51.84"/>
      </g>
     </g>
     <g id="text_13">
      <!-- 1.0 -->
      <g style="fill:#262626;" transform="translate(27.006563 56.019141)scale(0.11 -0.11)">
       <use xlink:href="#DejaVuSans-31"/>
       <use x="63.623047" xlink:href="#DejaVuSans-2e"/>
       <use x="95.410156" xlink:href="#DejaVuSans-30"/>
      </g>
     </g>
    </g>
    <g id="text_14">
     <!-- True Positive Rate -->
     <g style="fill:#262626;" transform="translate(20.510937 268.355625)rotate(-90)scale(0.12 -0.12)">
      <defs>
       <path d="M -19 4666 
L 3928 4666 
L 3928 4134 
L 2272 4134 
L 2272 0 
L 1638 0 
L 1638 4134 
L -19 4134 
L -19 4666 
z
" id="DejaVuSans-54" transform="scale(0.015625)"/>
       <path d="M 2631 2963 
Q 2534 3019 2420 3045 
Q 2306 3072 2169 3072 
Q 1681 3072 1420 2755 
Q 1159 2438 1159 1844 
L 1159 0 
L 581 0 
L 581 3500 
L 1159 3500 
L 1159 2956 
Q 1341 3275 1631 3429 
Q 1922 3584 2338 3584 
Q 2397 3584 2469 3576 
Q 2541 3569 2628 3553 
L 2631 2963 
z
" id="DejaVuSans-72" transform="scale(0.015625)"/>
       <path d="M 544 1381 
L 544 3500 
L 1119 3500 
L 1119 1403 
Q 1119 906 1312 657 
Q 1506 409 1894 409 
Q 2359 409 2629 706 
Q 2900 1003 2900 1516 
L 2900 3500 
L 3475 3500 
L 3475 0 
L 2900 0 
L 2900 538 
Q 2691 219 2414 64 
Q 2138 -91 1772 -91 
Q 1169 -91 856 284 
Q 544 659 544 1381 
z
M 1991 3584 
L 1991 3584 
z
" id="DejaVuSans-75" transform="scale(0.015625)"/>
      </defs>
      <use xlink:href="#DejaVuSans-54"/>
      <use x="46.333984" xlink:href="#DejaVuSans-72"/>
      <use x="87.447266" xlink:href="#DejaVuSans-75"/>
      <use x="150.826172" xlink:href="#DejaVuSans-65"/>
      <use x="212.349609" xlink:href="#DejaVuSans-20"/>
      <use x="244.136719" xlink:href="#DejaVuSans-50"/>
      <use x="300.814453" xlink:href="#DejaVuSans-6f"/>
      <use x="361.996094" xlink:href="#DejaVuSans-73"/>
      <use x="414.095703" xlink:href="#DejaVuSans-69"/>
      <use x="441.878906" xlink:href="#DejaVuSans-74"/>
      <use x="481.087891" xlink:href="#DejaVuSans-69"/>
      <use x="508.871094" xlink:href="#DejaVuSans-76"/>
      <use x="568.050781" xlink:href="#DejaVuSans-65"/>
      <use x="629.574219" xlink:href="#DejaVuSans-20"/>
      <use x="661.361328" xlink:href="#DejaVuSans-52"/>
      <use x="728.59375" xlink:href="#DejaVuSans-61"/>
      <use x="789.873047" xlink:href="#DejaVuSans-74"/>
      <use x="829.082031" xlink:href="#DejaVuSans-65"/>
     </g>
    </g>
   </g>
   <g id="line2d_25">
    <path clip-path="url(#p0a7408ed7a)" d="M 54 378 
L 54 375.909231 
L 54 283.915385 
L 56.188235 283.915385 
L 56.188235 237.918462 
L 58.376471 237.918462 
L 58.376471 225.373846 
L 62.752941 225.373846 
L 62.752941 223.283077 
L 64.941176 223.283077 
L 64.941176 221.192308 
L 67.129412 221.192308 
L 67.129412 200.284615 
L 69.317647 200.284615 
L 69.317647 198.193846 
L 73.694118 198.193846 
L 73.694118 191.921538 
L 80.258824 191.921538 
L 80.258824 187.74 
L 82.447059 187.74 
L 82.447059 175.195385 
L 84.635294 175.195385 
L 84.635294 173.104615 
L 86.823529 173.104615 
L 86.823529 164.741538 
L 91.2 164.741538 
L 91.2 154.287692 
L 93.388235 154.287692 
L 93.388235 152.196923 
L 95.576471 152.196923 
L 95.576471 150.106154 
L 99.952941 150.106154 
L 99.952941 148.015385 
L 102.141176 148.015385 
L 102.141176 145.924615 
L 106.517647 145.924615 
L 106.517647 143.833846 
L 110.894118 143.833846 
L 110.894118 141.743077 
L 115.270588 141.743077 
L 115.270588 135.470769 
L 117.458824 135.470769 
L 117.458824 131.289231 
L 128.4 131.289231 
L 128.4 129.198462 
L 130.588235 129.198462 
L 130.588235 127.107692 
L 132.776471 127.107692 
L 132.776471 120.835385 
L 137.152941 120.835385 
L 137.152941 116.653846 
L 141.529412 116.653846 
L 141.529412 108.290769 
L 145.905882 108.290769 
L 145.905882 106.2 
L 165.6 106.2 
L 165.6 102.018462 
L 167.788235 102.018462 
L 167.788235 95.746154 
L 172.164706 95.746154 
L 172.164706 91.564615 
L 180.917647 91.564615 
L 180.917647 89.473846 
L 187.482353 89.473846 
L 187.482353 85.292308 
L 191.858824 85.292308 
L 191.858824 83.201538 
L 196.235294 83.201538 
L 196.235294 81.110769 
L 204.988235 81.110769 
L 204.988235 79.02 
L 207.176471 79.02 
L 207.176471 76.929231 
L 226.870588 76.929231 
L 226.870588 74.838462 
L 233.435294 74.838462 
L 233.435294 72.747692 
L 237.811765 72.747692 
L 237.811765 70.656923 
L 240 70.656923 
L 240 68.566154 
L 242.188235 68.566154 
L 242.188235 66.475385 
L 253.129412 66.475385 
L 253.129412 64.384615 
L 259.694118 64.384615 
L 259.694118 62.293846 
L 294.705882 62.293846 
L 294.705882 60.203077 
L 314.4 60.203077 
L 314.4 58.112308 
L 338.470588 58.112308 
L 338.470588 53.930769 
L 360.352941 53.930769 
L 360.352941 51.84 
L 388.8 51.84 
" style="fill:none;stroke:#015b52;stroke-linecap:round;stroke-width:1.5;"/>
   </g>
   <g id="line2d_26">
    <path clip-path="url(#p0a7408ed7a)" d="M 54 378 
L 54 375.909231 
L 54 286.006154 
L 56.188235 286.006154 
L 56.188235 229.555385 
L 60.564706 229.555385 
L 60.564706 219.101538 
L 62.752941 219.101538 
L 62.752941 217.010769 
L 64.941176 217.010769 
L 64.941176 214.92 
L 67.129412 214.92 
L 67.129412 210.738462 
L 69.317647 210.738462 
L 69.317647 191.921538 
L 71.505882 191.921538 
L 71.505882 187.74 
L 73.694118 187.74 
L 73.694118 179.376923 
L 75.882353 179.376923 
L 75.882353 177.286154 
L 80.258824 177.286154 
L 80.258824 173.104615 
L 82.447059 173.104615 
L 82.447059 168.923077 
L 86.823529 168.923077 
L 86.823529 164.741538 
L 91.2 164.741538 
L 91.2 160.56 
L 93.388235 160.56 
L 93.388235 156.378462 
L 95.576471 156.378462 
L 95.576471 154.287692 
L 99.952941 154.287692 
L 99.952941 150.106154 
L 102.141176 150.106154 
L 102.141176 143.833846 
L 106.517647 143.833846 
L 106.517647 137.561538 
L 110.894118 137.561538 
L 110.894118 135.470769 
L 115.270588 135.470769 
L 115.270588 127.107692 
L 117.458824 127.107692 
L 117.458824 125.016923 
L 119.647059 125.016923 
L 119.647059 120.835385 
L 121.835294 120.835385 
L 121.835294 118.744615 
L 124.023529 118.744615 
L 124.023529 116.653846 
L 128.4 116.653846 
L 128.4 114.563077 
L 132.776471 114.563077 
L 132.776471 112.472308 
L 150.282353 112.472308 
L 150.282353 110.381538 
L 152.470588 110.381538 
L 152.470588 106.2 
L 156.847059 106.2 
L 156.847059 104.109231 
L 159.035294 104.109231 
L 159.035294 99.927692 
L 163.411765 99.927692 
L 163.411765 97.836923 
L 167.788235 97.836923 
L 167.788235 95.746154 
L 169.976471 95.746154 
L 169.976471 91.564615 
L 172.164706 91.564615 
L 172.164706 89.473846 
L 185.294118 89.473846 
L 185.294118 85.292308 
L 196.235294 85.292308 
L 196.235294 83.201538 
L 200.611765 83.201538 
L 200.611765 81.110769 
L 211.552941 81.110769 
L 211.552941 79.02 
L 213.741176 79.02 
L 213.741176 76.929231 
L 220.305882 76.929231 
L 220.305882 72.747692 
L 242.188235 72.747692 
L 242.188235 70.656923 
L 246.564706 70.656923 
L 246.564706 68.566154 
L 257.505882 68.566154 
L 257.505882 64.384615 
L 264.070588 64.384615 
L 264.070588 62.293846 
L 285.952941 62.293846 
L 285.952941 60.203077 
L 310.023529 60.203077 
L 310.023529 58.112308 
L 318.776471 58.112308 
L 318.776471 56.021538 
L 336.282353 56.021538 
L 336.282353 53.930769 
L 364.729412 53.930769 
L 364.729412 51.84 
L 388.8 51.84 
" style="fill:none;stroke:#1d8078;stroke-linecap:round;stroke-width:1.5;"/>
   </g>
   <g id="line2d_27">
    <path clip-path="url(#p0a7408ed7a)" d="M 54 378 
L 54 375.909231 
L 54 283.915385 
L 56.188235 283.915385 
L 56.188235 225.373846 
L 60.564706 225.373846 
L 60.564706 223.283077 
L 62.752941 223.283077 
L 62.752941 214.92 
L 64.941176 214.92 
L 64.941176 206.556923 
L 67.129412 206.556923 
L 67.129412 202.375385 
L 69.317647 202.375385 
L 69.317647 196.103077 
L 71.505882 196.103077 
L 71.505882 185.649231 
L 73.694118 185.649231 
L 73.694118 181.467692 
L 78.070588 181.467692 
L 78.070588 177.286154 
L 80.258824 177.286154 
L 80.258824 171.013846 
L 82.447059 171.013846 
L 82.447059 166.832308 
L 84.635294 166.832308 
L 84.635294 164.741538 
L 89.011765 164.741538 
L 89.011765 156.378462 
L 95.576471 156.378462 
L 95.576471 148.015385 
L 104.329412 148.015385 
L 104.329412 141.743077 
L 106.517647 141.743077 
L 106.517647 137.561538 
L 108.705882 137.561538 
L 108.705882 135.470769 
L 110.894118 135.470769 
L 110.894118 133.38 
L 115.270588 133.38 
L 115.270588 120.835385 
L 126.211765 120.835385 
L 126.211765 118.744615 
L 130.588235 118.744615 
L 130.588235 116.653846 
L 132.776471 116.653846 
L 132.776471 112.472308 
L 134.964706 112.472308 
L 134.964706 110.381538 
L 139.341176 110.381538 
L 139.341176 104.109231 
L 141.529412 104.109231 
L 141.529412 102.018462 
L 143.717647 102.018462 
L 143.717647 99.927692 
L 145.905882 99.927692 
L 145.905882 95.746154 
L 148.094118 95.746154 
L 148.094118 93.655385 
L 159.035294 93.655385 
L 159.035294 91.564615 
L 165.6 91.564615 
L 165.6 87.383077 
L 174.352941 87.383077 
L 174.352941 85.292308 
L 191.858824 85.292308 
L 191.858824 83.201538 
L 194.047059 83.201538 
L 194.047059 81.110769 
L 215.929412 81.110769 
L 215.929412 79.02 
L 220.305882 79.02 
L 220.305882 74.838462 
L 226.870588 74.838462 
L 226.870588 72.747692 
L 240 72.747692 
L 240 70.656923 
L 250.941176 70.656923 
L 250.941176 68.566154 
L 261.882353 68.566154 
L 261.882353 66.475385 
L 266.258824 66.475385 
L 266.258824 62.293846 
L 283.764706 62.293846 
L 283.764706 60.203077 
L 310.023529 60.203077 
L 310.023529 58.112308 
L 314.4 58.112308 
L 314.4 56.021538 
L 331.905882 56.021538 
L 331.905882 53.930769 
L 371.294118 53.930769 
L 371.294118 51.84 
L 388.8 51.84 
" style="fill:none;stroke:#4da89f;stroke-linecap:round;stroke-width:1.5;"/>
   </g>
   <g id="line2d_28">
    <path clip-path="url(#p0a7408ed7a)" d="M 54 378 
L 54 375.909231 
L 54 277.643077 
L 56.188235 277.643077 
L 56.188235 231.646154 
L 58.376471 231.646154 
L 58.376471 223.283077 
L 60.564706 223.283077 
L 60.564706 217.010769 
L 62.752941 217.010769 
L 62.752941 206.556923 
L 64.941176 206.556923 
L 64.941176 200.284615 
L 71.505882 200.284615 
L 71.505882 194.012308 
L 73.694118 194.012308 
L 73.694118 191.921538 
L 75.882353 191.921538 
L 75.882353 185.649231 
L 78.070588 185.649231 
L 78.070588 177.286154 
L 80.258824 177.286154 
L 80.258824 173.104615 
L 84.635294 173.104615 
L 84.635294 160.56 
L 86.823529 160.56 
L 86.823529 156.378462 
L 89.011765 156.378462 
L 89.011765 154.287692 
L 91.2 154.287692 
L 91.2 152.196923 
L 95.576471 152.196923 
L 95.576471 150.106154 
L 99.952941 150.106154 
L 99.952941 139.652308 
L 106.517647 139.652308 
L 106.517647 137.561538 
L 108.705882 137.561538 
L 108.705882 133.38 
L 117.458824 133.38 
L 117.458824 125.016923 
L 119.647059 125.016923 
L 119.647059 120.835385 
L 124.023529 120.835385 
L 124.023529 118.744615 
L 126.211765 118.744615 
L 126.211765 116.653846 
L 130.588235 116.653846 
L 130.588235 102.018462 
L 137.152941 102.018462 
L 137.152941 99.927692 
L 139.341176 99.927692 
L 139.341176 97.836923 
L 141.529412 97.836923 
L 141.529412 95.746154 
L 145.905882 95.746154 
L 145.905882 93.655385 
L 148.094118 93.655385 
L 148.094118 91.564615 
L 152.470588 91.564615 
L 152.470588 87.383077 
L 154.658824 87.383077 
L 154.658824 85.292308 
L 159.035294 85.292308 
L 159.035294 83.201538 
L 176.541176 83.201538 
L 176.541176 81.110769 
L 207.176471 81.110769 
L 207.176471 79.02 
L 209.364706 79.02 
L 209.364706 76.929231 
L 213.741176 76.929231 
L 213.741176 74.838462 
L 231.247059 74.838462 
L 231.247059 72.747692 
L 233.435294 72.747692 
L 233.435294 70.656923 
L 255.317647 70.656923 
L 255.317647 68.566154 
L 264.070588 68.566154 
L 264.070588 66.475385 
L 268.447059 66.475385 
L 268.447059 64.384615 
L 272.823529 64.384615 
L 272.823529 62.293846 
L 283.764706 62.293846 
L 283.764706 60.203077 
L 296.894118 60.203077 
L 296.894118 58.112308 
L 314.4 58.112308 
L 314.4 56.021538 
L 329.717647 56.021538 
L 329.717647 53.930769 
L 375.670588 53.930769 
L 375.670588 51.84 
L 388.8 51.84 
" style="fill:none;stroke:#84cfc3;stroke-linecap:round;stroke-width:1.5;"/>
   </g>
   <g id="line2d_29">
    <path clip-path="url(#p0a7408ed7a)" d="M 54 378 
L 54 375.909231 
L 54 373.818462 
L 54 369.636923 
L 54 277.643077 
L 56.188235 277.643077 
L 56.188235 242.1 
L 58.376471 242.1 
L 58.376471 217.010769 
L 62.752941 217.010769 
L 62.752941 206.556923 
L 64.941176 206.556923 
L 64.941176 200.284615 
L 69.317647 200.284615 
L 69.317647 198.193846 
L 73.694118 198.193846 
L 73.694118 187.74 
L 75.882353 187.74 
L 75.882353 185.649231 
L 78.070588 185.649231 
L 78.070588 181.467692 
L 80.258824 181.467692 
L 80.258824 177.286154 
L 84.635294 177.286154 
L 84.635294 162.650769 
L 89.011765 162.650769 
L 89.011765 158.469231 
L 91.2 158.469231 
L 91.2 152.196923 
L 93.388235 152.196923 
L 93.388235 148.015385 
L 95.576471 148.015385 
L 95.576471 145.924615 
L 97.764706 145.924615 
L 97.764706 143.833846 
L 102.141176 143.833846 
L 102.141176 141.743077 
L 104.329412 141.743077 
L 104.329412 139.652308 
L 106.517647 139.652308 
L 106.517647 133.38 
L 110.894118 133.38 
L 110.894118 131.289231 
L 113.082353 131.289231 
L 113.082353 129.198462 
L 121.835294 129.198462 
L 121.835294 120.835385 
L 124.023529 120.835385 
L 124.023529 116.653846 
L 126.211765 116.653846 
L 126.211765 106.2 
L 128.4 106.2 
L 128.4 104.109231 
L 132.776471 104.109231 
L 132.776471 99.927692 
L 141.529412 99.927692 
L 141.529412 95.746154 
L 143.717647 95.746154 
L 143.717647 91.564615 
L 148.094118 91.564615 
L 148.094118 85.292308 
L 154.658824 85.292308 
L 154.658824 81.110769 
L 196.235294 81.110769 
L 196.235294 79.02 
L 200.611765 79.02 
L 200.611765 76.929231 
L 207.176471 76.929231 
L 207.176471 74.838462 
L 222.494118 74.838462 
L 222.494118 72.747692 
L 224.682353 72.747692 
L 224.682353 70.656923 
L 261.882353 70.656923 
L 261.882353 68.566154 
L 264.070588 68.566154 
L 264.070588 66.475385 
L 270.635294 66.475385 
L 270.635294 64.384615 
L 279.388235 64.384615 
L 279.388235 62.293846 
L 281.576471 62.293846 
L 281.576471 60.203077 
L 292.517647 60.203077 
L 292.517647 58.112308 
L 312.211765 58.112308 
L 312.211765 56.021538 
L 327.529412 56.021538 
L 327.529412 53.930769 
L 377.858824 53.930769 
L 377.858824 51.84 
L 388.8 51.84 
" style="fill:none;stroke:#bce5df;stroke-linecap:round;stroke-width:1.5;"/>
   </g>
   <g id="line2d_30">
    <path clip-path="url(#p0a7408ed7a)" d="M 54 378 
L 54 373.818462 
L 54 369.636923 
L 54 367.546154 
L 54 363.364615 
L 54 275.552308 
L 56.188235 275.552308 
L 56.188235 252.553846 
L 58.376471 252.553846 
L 58.376471 210.738462 
L 69.317647 210.738462 
L 69.317647 200.284615 
L 71.505882 200.284615 
L 71.505882 191.921538 
L 73.694118 191.921538 
L 73.694118 189.830769 
L 78.070588 189.830769 
L 78.070588 177.286154 
L 82.447059 177.286154 
L 82.447059 171.013846 
L 84.635294 171.013846 
L 84.635294 168.923077 
L 86.823529 168.923077 
L 86.823529 164.741538 
L 89.011765 164.741538 
L 89.011765 160.56 
L 93.388235 160.56 
L 93.388235 152.196923 
L 95.576471 152.196923 
L 95.576471 150.106154 
L 97.764706 150.106154 
L 97.764706 141.743077 
L 106.517647 141.743077 
L 106.517647 137.561538 
L 108.705882 137.561538 
L 108.705882 131.289231 
L 113.082353 131.289231 
L 113.082353 129.198462 
L 119.647059 129.198462 
L 119.647059 120.835385 
L 121.835294 120.835385 
L 121.835294 114.563077 
L 128.4 114.563077 
L 128.4 110.381538 
L 130.588235 110.381538 
L 130.588235 95.746154 
L 132.776471 95.746154 
L 132.776471 91.564615 
L 145.905882 91.564615 
L 145.905882 85.292308 
L 154.658824 85.292308 
L 154.658824 83.201538 
L 159.035294 83.201538 
L 159.035294 81.110769 
L 183.105882 81.110769 
L 183.105882 79.02 
L 191.858824 79.02 
L 191.858824 76.929231 
L 194.047059 76.929231 
L 194.047059 74.838462 
L 231.247059 74.838462 
L 231.247059 72.747692 
L 233.435294 72.747692 
L 233.435294 70.656923 
L 259.694118 70.656923 
L 259.694118 68.566154 
L 266.258824 68.566154 
L 266.258824 66.475385 
L 268.447059 66.475385 
L 268.447059 64.384615 
L 279.388235 64.384615 
L 279.388235 62.293846 
L 281.576471 62.293846 
L 281.576471 60.203077 
L 285.952941 60.203077 
L 285.952941 58.112308 
L 307.835294 58.112308 
L 307.835294 56.021538 
L 325.341176 56.021538 
L 325.341176 53.930769 
L 380.047059 53.930769 
L 380.047059 51.84 
L 388.8 51.84 
" style="fill:none;stroke:#e4f1ef;stroke-linecap:round;stroke-width:1.5;"/>
   </g>
   <g id="line2d_31">
    <path clip-path="url(#p0a7408ed7a)" d="M 54 378 
L 54 369.636923 
L 54 367.546154 
L 54 363.364615 
L 54 355.001538 
L 54 350.82 
L 54 340.366154 
L 54 336.184615 
L 54 277.643077 
L 56.188235 277.643077 
L 56.188235 260.916923 
L 58.376471 260.916923 
L 58.376471 214.92 
L 60.564706 214.92 
L 60.564706 212.829231 
L 62.752941 212.829231 
L 62.752941 210.738462 
L 64.941176 210.738462 
L 64.941176 204.466154 
L 67.129412 204.466154 
L 67.129412 200.284615 
L 71.505882 200.284615 
L 71.505882 189.830769 
L 75.882353 189.830769 
L 75.882353 187.74 
L 80.258824 187.74 
L 80.258824 171.013846 
L 84.635294 171.013846 
L 84.635294 168.923077 
L 86.823529 168.923077 
L 86.823529 166.832308 
L 91.2 166.832308 
L 91.2 164.741538 
L 93.388235 164.741538 
L 93.388235 156.378462 
L 95.576471 156.378462 
L 95.576471 150.106154 
L 99.952941 150.106154 
L 99.952941 145.924615 
L 102.141176 145.924615 
L 102.141176 139.652308 
L 106.517647 139.652308 
L 106.517647 137.561538 
L 108.705882 137.561538 
L 108.705882 135.470769 
L 110.894118 135.470769 
L 110.894118 127.107692 
L 113.082353 127.107692 
L 113.082353 120.835385 
L 124.023529 120.835385 
L 124.023529 112.472308 
L 128.4 112.472308 
L 128.4 110.381538 
L 130.588235 110.381538 
L 130.588235 99.927692 
L 132.776471 99.927692 
L 132.776471 91.564615 
L 134.964706 91.564615 
L 134.964706 89.473846 
L 148.094118 89.473846 
L 148.094118 87.383077 
L 150.282353 87.383077 
L 150.282353 85.292308 
L 154.658824 85.292308 
L 154.658824 83.201538 
L 178.729412 83.201538 
L 178.729412 79.02 
L 185.294118 79.02 
L 185.294118 74.838462 
L 237.811765 74.838462 
L 237.811765 72.747692 
L 240 72.747692 
L 240 70.656923 
L 266.258824 70.656923 
L 266.258824 68.566154 
L 272.823529 68.566154 
L 272.823529 64.384615 
L 275.011765 64.384615 
L 275.011765 62.293846 
L 283.764706 62.293846 
L 283.764706 60.203077 
L 285.952941 60.203077 
L 285.952941 58.112308 
L 307.835294 58.112308 
L 307.835294 56.021538 
L 325.341176 56.021538 
L 325.341176 53.930769 
L 380.047059 53.930769 
L 380.047059 51.84 
L 388.8 51.84 
" style="fill:none;stroke:#f5f0e2;stroke-linecap:round;stroke-width:1.5;"/>
   </g>
   <g id="line2d_32">
    <path clip-path="url(#p0a7408ed7a)" d="M 54 378 
L 54 367.546154 
L 54 359.183077 
L 54 350.82 
L 54 342.456923 
L 54 338.275385 
L 54 275.552308 
L 56.188235 275.552308 
L 56.188235 263.007692 
L 58.376471 263.007692 
L 58.376471 227.464615 
L 60.564706 227.464615 
L 60.564706 214.92 
L 64.941176 214.92 
L 64.941176 200.284615 
L 69.317647 200.284615 
L 69.317647 198.193846 
L 71.505882 198.193846 
L 71.505882 194.012308 
L 73.694118 194.012308 
L 73.694118 191.921538 
L 75.882353 191.921538 
L 75.882353 187.74 
L 80.258824 187.74 
L 80.258824 181.467692 
L 82.447059 181.467692 
L 82.447059 168.923077 
L 91.2 168.923077 
L 91.2 164.741538 
L 93.388235 164.741538 
L 93.388235 152.196923 
L 95.576471 152.196923 
L 95.576471 145.924615 
L 99.952941 145.924615 
L 99.952941 143.833846 
L 102.141176 143.833846 
L 102.141176 141.743077 
L 106.517647 141.743077 
L 106.517647 135.470769 
L 110.894118 135.470769 
L 110.894118 133.38 
L 113.082353 133.38 
L 113.082353 127.107692 
L 115.270588 127.107692 
L 115.270588 114.563077 
L 128.4 114.563077 
L 128.4 104.109231 
L 130.588235 104.109231 
L 130.588235 97.836923 
L 132.776471 97.836923 
L 132.776471 95.746154 
L 139.341176 95.746154 
L 139.341176 89.473846 
L 148.094118 89.473846 
L 148.094118 87.383077 
L 150.282353 87.383077 
L 150.282353 85.292308 
L 152.470588 85.292308 
L 152.470588 83.201538 
L 163.411765 83.201538 
L 163.411765 81.110769 
L 176.541176 81.110769 
L 176.541176 79.02 
L 185.294118 79.02 
L 185.294118 76.929231 
L 191.858824 76.929231 
L 191.858824 74.838462 
L 244.376471 74.838462 
L 244.376471 72.747692 
L 246.564706 72.747692 
L 246.564706 70.656923 
L 272.823529 70.656923 
L 272.823529 66.475385 
L 275.011765 66.475385 
L 275.011765 64.384615 
L 277.2 64.384615 
L 277.2 62.293846 
L 283.764706 62.293846 
L 283.764706 60.203077 
L 294.705882 60.203077 
L 294.705882 58.112308 
L 303.458824 58.112308 
L 303.458824 56.021538 
L 323.152941 56.021538 
L 323.152941 53.930769 
L 380.047059 53.930769 
L 380.047059 51.84 
L 388.8 51.84 
" style="fill:none;stroke:#f2e2b8;stroke-linecap:round;stroke-width:1.5;"/>
   </g>
   <g id="line2d_33">
    <path clip-path="url(#p0a7408ed7a)" d="M 54 378 
L 54 365.455385 
L 54 361.273846 
L 54 357.092308 
L 54 355.001538 
L 54 348.729231 
L 54 275.552308 
L 56.188235 275.552308 
L 56.188235 263.007692 
L 58.376471 263.007692 
L 58.376471 229.555385 
L 60.564706 229.555385 
L 60.564706 221.192308 
L 62.752941 221.192308 
L 62.752941 210.738462 
L 64.941176 210.738462 
L 64.941176 202.375385 
L 67.129412 202.375385 
L 67.129412 196.103077 
L 73.694118 196.103077 
L 73.694118 194.012308 
L 75.882353 194.012308 
L 75.882353 189.830769 
L 78.070588 189.830769 
L 78.070588 187.74 
L 80.258824 187.74 
L 80.258824 183.558462 
L 82.447059 183.558462 
L 82.447059 168.923077 
L 86.823529 168.923077 
L 86.823529 166.832308 
L 91.2 166.832308 
L 91.2 160.56 
L 93.388235 160.56 
L 93.388235 154.287692 
L 95.576471 154.287692 
L 95.576471 145.924615 
L 102.141176 145.924615 
L 102.141176 143.833846 
L 106.517647 143.833846 
L 106.517647 133.38 
L 108.705882 133.38 
L 108.705882 131.289231 
L 115.270588 131.289231 
L 115.270588 122.926154 
L 117.458824 122.926154 
L 117.458824 120.835385 
L 119.647059 120.835385 
L 119.647059 110.381538 
L 124.023529 110.381538 
L 124.023529 108.290769 
L 126.211765 108.290769 
L 126.211765 106.2 
L 128.4 106.2 
L 128.4 102.018462 
L 130.588235 102.018462 
L 130.588235 97.836923 
L 132.776471 97.836923 
L 132.776471 95.746154 
L 139.341176 95.746154 
L 139.341176 93.655385 
L 145.905882 93.655385 
L 145.905882 89.473846 
L 148.094118 89.473846 
L 148.094118 85.292308 
L 154.658824 85.292308 
L 154.658824 83.201538 
L 156.847059 83.201538 
L 156.847059 81.110769 
L 165.6 81.110769 
L 165.6 79.02 
L 183.105882 79.02 
L 183.105882 76.929231 
L 207.176471 76.929231 
L 207.176471 74.838462 
L 244.376471 74.838462 
L 244.376471 72.747692 
L 257.505882 72.747692 
L 257.505882 70.656923 
L 277.2 70.656923 
L 277.2 68.566154 
L 279.388235 68.566154 
L 279.388235 64.384615 
L 281.576471 64.384615 
L 281.576471 62.293846 
L 283.764706 62.293846 
L 283.764706 60.203077 
L 299.082353 60.203077 
L 299.082353 58.112308 
L 305.647059 58.112308 
L 305.647059 56.021538 
L 316.588235 56.021538 
L 316.588235 53.930769 
L 380.047059 53.930769 
L 380.047059 51.84 
L 388.8 51.84 
" style="fill:none;stroke:#e0c481;stroke-linecap:round;stroke-width:1.5;"/>
   </g>
   <g id="line2d_34">
    <path clip-path="url(#p0a7408ed7a)" d="M 54 378 
L 54 365.455385 
L 54 363.364615 
L 54 355.001538 
L 54 350.82 
L 54 334.093846 
L 54 329.912308 
L 54 277.643077 
L 56.188235 277.643077 
L 56.188235 263.007692 
L 58.376471 263.007692 
L 58.376471 229.555385 
L 60.564706 229.555385 
L 60.564706 221.192308 
L 62.752941 221.192308 
L 62.752941 208.647692 
L 64.941176 208.647692 
L 64.941176 202.375385 
L 67.129412 202.375385 
L 67.129412 200.284615 
L 69.317647 200.284615 
L 69.317647 198.193846 
L 73.694118 198.193846 
L 73.694118 194.012308 
L 75.882353 194.012308 
L 75.882353 191.921538 
L 78.070588 191.921538 
L 78.070588 189.830769 
L 80.258824 189.830769 
L 80.258824 173.104615 
L 84.635294 173.104615 
L 84.635294 166.832308 
L 89.011765 166.832308 
L 89.011765 164.741538 
L 91.2 164.741538 
L 91.2 156.378462 
L 95.576471 156.378462 
L 95.576471 148.015385 
L 97.764706 148.015385 
L 97.764706 145.924615 
L 99.952941 145.924615 
L 99.952941 143.833846 
L 102.141176 143.833846 
L 102.141176 141.743077 
L 104.329412 141.743077 
L 104.329412 139.652308 
L 108.705882 139.652308 
L 108.705882 131.289231 
L 110.894118 131.289231 
L 110.894118 125.016923 
L 115.270588 125.016923 
L 115.270588 120.835385 
L 119.647059 120.835385 
L 119.647059 116.653846 
L 121.835294 116.653846 
L 121.835294 108.290769 
L 126.211765 108.290769 
L 126.211765 102.018462 
L 132.776471 102.018462 
L 132.776471 95.746154 
L 141.529412 95.746154 
L 141.529412 93.655385 
L 143.717647 93.655385 
L 143.717647 91.564615 
L 145.905882 91.564615 
L 145.905882 87.383077 
L 152.470588 87.383077 
L 152.470588 85.292308 
L 156.847059 85.292308 
L 156.847059 83.201538 
L 159.035294 83.201538 
L 159.035294 81.110769 
L 161.223529 81.110769 
L 161.223529 79.02 
L 176.541176 79.02 
L 176.541176 76.929231 
L 215.929412 76.929231 
L 215.929412 74.838462 
L 246.564706 74.838462 
L 246.564706 72.747692 
L 259.694118 72.747692 
L 259.694118 70.656923 
L 277.2 70.656923 
L 277.2 66.475385 
L 285.952941 66.475385 
L 285.952941 60.203077 
L 307.835294 60.203077 
L 307.835294 58.112308 
L 312.211765 58.112308 
L 312.211765 56.021538 
L 316.588235 56.021538 
L 316.588235 53.930769 
L 377.858824 53.930769 
L 377.858824 51.84 
L 388.8 51.84 
" style="fill:none;stroke:#c99546;stroke-linecap:round;stroke-width:1.5;"/>
   </g>
   <g id="line2d_35">
    <path clip-path="url(#p0a7408ed7a)" d="M 54 378 
L 54 365.455385 
L 54 363.364615 
L 54 355.001538 
L 54 348.729231 
L 54 279.733846 
L 56.188235 279.733846 
L 56.188235 263.007692 
L 58.376471 263.007692 
L 58.376471 229.555385 
L 60.564706 229.555385 
L 60.564706 221.192308 
L 62.752941 221.192308 
L 62.752941 202.375385 
L 67.129412 202.375385 
L 67.129412 200.284615 
L 69.317647 200.284615 
L 69.317647 198.193846 
L 73.694118 198.193846 
L 73.694118 196.103077 
L 75.882353 196.103077 
L 75.882353 191.921538 
L 80.258824 191.921538 
L 80.258824 181.467692 
L 82.447059 181.467692 
L 82.447059 175.195385 
L 84.635294 175.195385 
L 84.635294 166.832308 
L 89.011765 166.832308 
L 89.011765 162.650769 
L 91.2 162.650769 
L 91.2 160.56 
L 93.388235 160.56 
L 93.388235 152.196923 
L 95.576471 152.196923 
L 95.576471 148.015385 
L 99.952941 148.015385 
L 99.952941 141.743077 
L 102.141176 141.743077 
L 102.141176 139.652308 
L 106.517647 139.652308 
L 106.517647 137.561538 
L 108.705882 137.561538 
L 108.705882 129.198462 
L 110.894118 129.198462 
L 110.894118 127.107692 
L 115.270588 127.107692 
L 115.270588 125.016923 
L 117.458824 125.016923 
L 117.458824 116.653846 
L 119.647059 116.653846 
L 119.647059 114.563077 
L 121.835294 114.563077 
L 121.835294 108.290769 
L 124.023529 108.290769 
L 124.023529 106.2 
L 126.211765 106.2 
L 126.211765 104.109231 
L 132.776471 104.109231 
L 132.776471 102.018462 
L 137.152941 102.018462 
L 137.152941 93.655385 
L 139.341176 93.655385 
L 139.341176 91.564615 
L 143.717647 91.564615 
L 143.717647 89.473846 
L 145.905882 89.473846 
L 145.905882 87.383077 
L 150.282353 87.383077 
L 150.282353 85.292308 
L 152.470588 85.292308 
L 152.470588 83.201538 
L 165.6 83.201538 
L 165.6 79.02 
L 174.352941 79.02 
L 174.352941 76.929231 
L 218.117647 76.929231 
L 218.117647 74.838462 
L 246.564706 74.838462 
L 246.564706 72.747692 
L 257.505882 72.747692 
L 257.505882 70.656923 
L 268.447059 70.656923 
L 268.447059 68.566154 
L 272.823529 68.566154 
L 272.823529 66.475385 
L 290.329412 66.475385 
L 290.329412 64.384615 
L 292.517647 64.384615 
L 292.517647 60.203077 
L 316.588235 60.203077 
L 316.588235 53.930769 
L 375.670588 53.930769 
L 375.670588 51.84 
L 388.8 51.84 
" style="fill:none;stroke:#a76a1d;stroke-linecap:round;stroke-width:1.5;"/>
   </g>
   <g id="line2d_36">
    <path clip-path="url(#p0a7408ed7a)" d="M 54 378 
L 54 365.455385 
L 54 363.364615 
L 54 355.001538 
L 54 350.82 
L 54 346.638462 
L 54 279.733846 
L 56.188235 279.733846 
L 56.188235 263.007692 
L 58.376471 263.007692 
L 58.376471 227.464615 
L 60.564706 227.464615 
L 60.564706 221.192308 
L 62.752941 221.192308 
L 62.752941 202.375385 
L 64.941176 202.375385 
L 64.941176 200.284615 
L 69.317647 200.284615 
L 69.317647 198.193846 
L 71.505882 198.193846 
L 71.505882 196.103077 
L 75.882353 196.103077 
L 75.882353 191.921538 
L 80.258824 191.921538 
L 80.258824 183.558462 
L 82.447059 183.558462 
L 82.447059 175.195385 
L 84.635294 175.195385 
L 84.635294 168.923077 
L 86.823529 168.923077 
L 86.823529 166.832308 
L 89.011765 166.832308 
L 89.011765 162.650769 
L 91.2 162.650769 
L 91.2 158.469231 
L 93.388235 158.469231 
L 93.388235 156.378462 
L 95.576471 156.378462 
L 95.576471 150.106154 
L 97.764706 150.106154 
L 97.764706 143.833846 
L 102.141176 143.833846 
L 102.141176 139.652308 
L 104.329412 139.652308 
L 104.329412 137.561538 
L 106.517647 137.561538 
L 106.517647 129.198462 
L 110.894118 129.198462 
L 110.894118 127.107692 
L 115.270588 127.107692 
L 115.270588 125.016923 
L 117.458824 125.016923 
L 117.458824 116.653846 
L 121.835294 116.653846 
L 121.835294 112.472308 
L 124.023529 112.472308 
L 124.023529 106.2 
L 128.4 106.2 
L 128.4 104.109231 
L 134.964706 104.109231 
L 134.964706 97.836923 
L 137.152941 97.836923 
L 137.152941 93.655385 
L 143.717647 93.655385 
L 143.717647 89.473846 
L 148.094118 89.473846 
L 148.094118 85.292308 
L 154.658824 85.292308 
L 154.658824 83.201538 
L 174.352941 83.201538 
L 174.352941 76.929231 
L 222.494118 76.929231 
L 222.494118 74.838462 
L 253.129412 74.838462 
L 253.129412 72.747692 
L 261.882353 72.747692 
L 261.882353 70.656923 
L 266.258824 70.656923 
L 266.258824 68.566154 
L 272.823529 68.566154 
L 272.823529 66.475385 
L 292.517647 66.475385 
L 292.517647 62.293846 
L 294.705882 62.293846 
L 294.705882 60.203077 
L 316.588235 60.203077 
L 316.588235 58.112308 
L 320.964706 58.112308 
L 320.964706 53.930769 
L 371.294118 53.930769 
L 371.294118 51.84 
L 388.8 51.84 
" style="fill:none;stroke:#7e4909;stroke-linecap:round;stroke-width:1.5;"/>
   </g>
   <g id="line2d_37">
    <path clip-path="url(#p0a7408ed7a)" d="M 54 378 
L 388.8 51.84 
" style="fill:none;stroke:#949494;stroke-linecap:round;stroke-width:0.5;"/>
   </g>
   <g id="patch_3">
    <path d="M 54 378 
L 54 51.84 
" style="fill:none;stroke:#262626;stroke-linecap:square;stroke-linejoin:miter;stroke-width:1.25;"/>
   </g>
   <g id="patch_4">
    <path d="M 388.8 378 
L 388.8 51.84 
" style="fill:none;stroke:#262626;stroke-linecap:square;stroke-linejoin:miter;stroke-width:1.25;"/>
   </g>
   <g id="patch_5">
    <path d="M 54 378 
L 388.8 378 
" style="fill:none;stroke:#262626;stroke-linecap:square;stroke-linejoin:miter;stroke-width:1.25;"/>
   </g>
   <g id="patch_6">
    <path d="M 54 51.84 
L 388.8 51.84 
" style="fill:none;stroke:#262626;stroke-linecap:square;stroke-linejoin:miter;stroke-width:1.25;"/>
   </g>
   <g id="legend_1">
    <g id="patch_7">
     <path d="M 301.964375 374 
L 383.2 374 
Q 384.8 374 384.8 372.4 
L 384.8 216.67625 
Q 384.8 215.07625 383.2 215.07625 
L 301.964375 215.07625 
Q 300.364375 215.07625 300.364375 216.67625 
L 300.364375 372.4 
Q 300.364375 374 301.964375 374 
z
" style="fill:#ffffff;opacity:0.8;stroke:#cccccc;stroke-linejoin:miter;"/>
    </g>
    <g id="text_15">
     <!-- Age : AUROC -->
     <g style="fill:#262626;" transform="translate(303.564375 227.394375)scale(0.12 -0.12)">
      <defs>
       <path d="M 2188 4044 
L 1331 1722 
L 3047 1722 
L 2188 4044 
z
M 1831 4666 
L 2547 4666 
L 4325 0 
L 3669 0 
L 3244 1197 
L 1141 1197 
L 716 0 
L 50 0 
L 1831 4666 
z
" id="DejaVuSans-41" transform="scale(0.015625)"/>
       <path d="M 2906 1791 
Q 2906 2416 2648 2759 
Q 2391 3103 1925 3103 
Q 1463 3103 1205 2759 
Q 947 2416 947 1791 
Q 947 1169 1205 825 
Q 1463 481 1925 481 
Q 2391 481 2648 825 
Q 2906 1169 2906 1791 
z
M 3481 434 
Q 3481 -459 3084 -895 
Q 2688 -1331 1869 -1331 
Q 1566 -1331 1297 -1286 
Q 1028 -1241 775 -1147 
L 775 -588 
Q 1028 -725 1275 -790 
Q 1522 -856 1778 -856 
Q 2344 -856 2625 -561 
Q 2906 -266 2906 331 
L 2906 616 
Q 2728 306 2450 153 
Q 2172 0 1784 0 
Q 1141 0 747 490 
Q 353 981 353 1791 
Q 353 2603 747 3093 
Q 1141 3584 1784 3584 
Q 2172 3584 2450 3431 
Q 2728 3278 2906 2969 
L 2906 3500 
L 3481 3500 
L 3481 434 
z
" id="DejaVuSans-67" transform="scale(0.015625)"/>
       <path d="M 750 794 
L 1409 794 
L 1409 0 
L 750 0 
L 750 794 
z
M 750 3309 
L 1409 3309 
L 1409 2516 
L 750 2516 
L 750 3309 
z
" id="DejaVuSans-3a" transform="scale(0.015625)"/>
       <path d="M 556 4666 
L 1191 4666 
L 1191 1831 
Q 1191 1081 1462 751 
Q 1734 422 2344 422 
Q 2950 422 3222 751 
Q 3494 1081 3494 1831 
L 3494 4666 
L 4128 4666 
L 4128 1753 
Q 4128 841 3676 375 
Q 3225 -91 2344 -91 
Q 1459 -91 1007 375 
Q 556 841 556 1753 
L 556 4666 
z
" id="DejaVuSans-55" transform="scale(0.015625)"/>
       <path d="M 2522 4238 
Q 1834 4238 1429 3725 
Q 1025 3213 1025 2328 
Q 1025 1447 1429 934 
Q 1834 422 2522 422 
Q 3209 422 3611 934 
Q 4013 1447 4013 2328 
Q 4013 3213 3611 3725 
Q 3209 4238 2522 4238 
z
M 2522 4750 
Q 3503 4750 4090 4092 
Q 4678 3434 4678 2328 
Q 4678 1225 4090 567 
Q 3503 -91 2522 -91 
Q 1538 -91 948 565 
Q 359 1222 359 2328 
Q 359 3434 948 4092 
Q 1538 4750 2522 4750 
z
" id="DejaVuSans-4f" transform="scale(0.015625)"/>
       <path d="M 4122 4306 
L 4122 3641 
Q 3803 3938 3442 4084 
Q 3081 4231 2675 4231 
Q 1875 4231 1450 3742 
Q 1025 3253 1025 2328 
Q 1025 1406 1450 917 
Q 1875 428 2675 428 
Q 3081 428 3442 575 
Q 3803 722 4122 1019 
L 4122 359 
Q 3791 134 3420 21 
Q 3050 -91 2638 -91 
Q 1578 -91 968 557 
Q 359 1206 359 2328 
Q 359 3453 968 4101 
Q 1578 4750 2638 4750 
Q 3056 4750 3426 4639 
Q 3797 4528 4122 4306 
z
" id="DejaVuSans-43" transform="scale(0.015625)"/>
      </defs>
      <use xlink:href="#DejaVuSans-41"/>
      <use x="68.408203" xlink:href="#DejaVuSans-67"/>
      <use x="131.884766" xlink:href="#DejaVuSans-65"/>
      <use x="193.408203" xlink:href="#DejaVuSans-20"/>
      <use x="225.195312" xlink:href="#DejaVuSans-3a"/>
      <use x="258.886719" xlink:href="#DejaVuSans-20"/>
      <use x="290.673828" xlink:href="#DejaVuSans-41"/>
      <use x="359.082031" xlink:href="#DejaVuSans-55"/>
      <use x="432.275391" xlink:href="#DejaVuSans-52"/>
      <use x="501.757812" xlink:href="#DejaVuSans-4f"/>
      <use x="580.46875" xlink:href="#DejaVuSans-43"/>
     </g>
    </g>
    <g id="line2d_38">
     <path d="M 310.950938 237.16875 
L 326.950938 237.16875 
" style="fill:none;stroke:#015b52;stroke-linecap:round;stroke-width:1.5;"/>
    </g>
    <g id="line2d_39"/>
    <g id="text_16">
     <!-- 20 : 0.867 -->
     <g style="fill:#262626;" transform="translate(333.350937 239.96875)scale(0.08 -0.08)">
      <defs>
       <path d="M 525 4666 
L 3525 4666 
L 3525 4397 
L 1831 0 
L 1172 0 
L 2766 4134 
L 525 4134 
L 525 4666 
z
" id="DejaVuSans-37" transform="scale(0.015625)"/>
      </defs>
      <use xlink:href="#DejaVuSans-32"/>
      <use x="63.623047" xlink:href="#DejaVuSans-30"/>
      <use x="127.246094" xlink:href="#DejaVuSans-20"/>
      <use x="159.033203" xlink:href="#DejaVuSans-3a"/>
      <use x="192.724609" xlink:href="#DejaVuSans-20"/>
      <use x="224.511719" xlink:href="#DejaVuSans-30"/>
      <use x="288.134766" xlink:href="#DejaVuSans-2e"/>
      <use x="319.921875" xlink:href="#DejaVuSans-38"/>
      <use x="383.544922" xlink:href="#DejaVuSans-36"/>
      <use x="447.167969" xlink:href="#DejaVuSans-37"/>
     </g>
    </g>
    <g id="line2d_40">
     <path d="M 310.950938 248.91125 
L 326.950938 248.91125 
" style="fill:none;stroke:#1d8078;stroke-linecap:round;stroke-width:1.5;"/>
    </g>
    <g id="line2d_41"/>
    <g id="text_17">
     <!-- 25 : 0.872 -->
     <g style="fill:#262626;" transform="translate(333.350937 251.71125)scale(0.08 -0.08)">
      <defs>
       <path d="M 691 4666 
L 3169 4666 
L 3169 4134 
L 1269 4134 
L 1269 2991 
Q 1406 3038 1543 3061 
Q 1681 3084 1819 3084 
Q 2600 3084 3056 2656 
Q 3513 2228 3513 1497 
Q 3513 744 3044 326 
Q 2575 -91 1722 -91 
Q 1428 -91 1123 -41 
Q 819 9 494 109 
L 494 744 
Q 775 591 1075 516 
Q 1375 441 1709 441 
Q 2250 441 2565 725 
Q 2881 1009 2881 1497 
Q 2881 1984 2565 2268 
Q 2250 2553 1709 2553 
Q 1456 2553 1204 2497 
Q 953 2441 691 2322 
L 691 4666 
z
" id="DejaVuSans-35" transform="scale(0.015625)"/>
      </defs>
      <use xlink:href="#DejaVuSans-32"/>
      <use x="63.623047" xlink:href="#DejaVuSans-35"/>
      <use x="127.246094" xlink:href="#DejaVuSans-20"/>
      <use x="159.033203" xlink:href="#DejaVuSans-3a"/>
      <use x="192.724609" xlink:href="#DejaVuSans-20"/>
      <use x="224.511719" xlink:href="#DejaVuSans-30"/>
      <use x="288.134766" xlink:href="#DejaVuSans-2e"/>
      <use x="319.921875" xlink:href="#DejaVuSans-38"/>
      <use x="383.544922" xlink:href="#DejaVuSans-37"/>
      <use x="447.167969" xlink:href="#DejaVuSans-32"/>
     </g>
    </g>
    <g id="line2d_42">
     <path d="M 310.950938 260.65375 
L 326.950938 260.65375 
" style="fill:none;stroke:#4da89f;stroke-linecap:round;stroke-width:1.5;"/>
    </g>
    <g id="line2d_43"/>
    <g id="text_18">
     <!-- 30 : 0.876 -->
     <g style="fill:#262626;" transform="translate(333.350937 263.45375)scale(0.08 -0.08)">
      <defs>
       <path d="M 2597 2516 
Q 3050 2419 3304 2112 
Q 3559 1806 3559 1356 
Q 3559 666 3084 287 
Q 2609 -91 1734 -91 
Q 1441 -91 1130 -33 
Q 819 25 488 141 
L 488 750 
Q 750 597 1062 519 
Q 1375 441 1716 441 
Q 2309 441 2620 675 
Q 2931 909 2931 1356 
Q 2931 1769 2642 2001 
Q 2353 2234 1838 2234 
L 1294 2234 
L 1294 2753 
L 1863 2753 
Q 2328 2753 2575 2939 
Q 2822 3125 2822 3475 
Q 2822 3834 2567 4026 
Q 2313 4219 1838 4219 
Q 1578 4219 1281 4162 
Q 984 4106 628 3988 
L 628 4550 
Q 988 4650 1302 4700 
Q 1616 4750 1894 4750 
Q 2613 4750 3031 4423 
Q 3450 4097 3450 3541 
Q 3450 3153 3228 2886 
Q 3006 2619 2597 2516 
z
" id="DejaVuSans-33" transform="scale(0.015625)"/>
      </defs>
      <use xlink:href="#DejaVuSans-33"/>
      <use x="63.623047" xlink:href="#DejaVuSans-30"/>
      <use x="127.246094" xlink:href="#DejaVuSans-20"/>
      <use x="159.033203" xlink:href="#DejaVuSans-3a"/>
      <use x="192.724609" xlink:href="#DejaVuSans-20"/>
      <use x="224.511719" xlink:href="#DejaVuSans-30"/>
      <use x="288.134766" xlink:href="#DejaVuSans-2e"/>
      <use x="319.921875" xlink:href="#DejaVuSans-38"/>
      <use x="383.544922" xlink:href="#DejaVuSans-37"/>
      <use x="447.167969" xlink:href="#DejaVuSans-36"/>
     </g>
    </g>
    <g id="line2d_44">
     <path d="M 310.950938 272.39625 
L 326.950938 272.39625 
" style="fill:none;stroke:#84cfc3;stroke-linecap:round;stroke-width:1.5;"/>
    </g>
    <g id="line2d_45"/>
    <g id="text_19">
     <!-- 35 : 0.881 -->
     <g style="fill:#262626;" transform="translate(333.350937 275.19625)scale(0.08 -0.08)">
      <use xlink:href="#DejaVuSans-33"/>
      <use x="63.623047" xlink:href="#DejaVuSans-35"/>
      <use x="127.246094" xlink:href="#DejaVuSans-20"/>
      <use x="159.033203" xlink:href="#DejaVuSans-3a"/>
      <use x="192.724609" xlink:href="#DejaVuSans-20"/>
      <use x="224.511719" xlink:href="#DejaVuSans-30"/>
      <use x="288.134766" xlink:href="#DejaVuSans-2e"/>
      <use x="319.921875" xlink:href="#DejaVuSans-38"/>
      <use x="383.544922" xlink:href="#DejaVuSans-38"/>
      <use x="447.167969" xlink:href="#DejaVuSans-31"/>
     </g>
    </g>
    <g id="line2d_46">
     <path d="M 310.950938 284.13875 
L 326.950938 284.13875 
" style="fill:none;stroke:#bce5df;stroke-linecap:round;stroke-width:1.5;"/>
    </g>
    <g id="line2d_47"/>
    <g id="text_20">
     <!-- 40 : 0.882 -->
     <g style="fill:#262626;" transform="translate(333.350937 286.93875)scale(0.08 -0.08)">
      <use xlink:href="#DejaVuSans-34"/>
      <use x="63.623047" xlink:href="#DejaVuSans-30"/>
      <use x="127.246094" xlink:href="#DejaVuSans-20"/>
      <use x="159.033203" xlink:href="#DejaVuSans-3a"/>
      <use x="192.724609" xlink:href="#DejaVuSans-20"/>
      <use x="224.511719" xlink:href="#DejaVuSans-30"/>
      <use x="288.134766" xlink:href="#DejaVuSans-2e"/>
      <use x="319.921875" xlink:href="#DejaVuSans-38"/>
      <use x="383.544922" xlink:href="#DejaVuSans-38"/>
      <use x="447.167969" xlink:href="#DejaVuSans-32"/>
     </g>
    </g>
    <g id="line2d_48">
     <path d="M 310.950938 295.88125 
L 326.950938 295.88125 
" style="fill:none;stroke:#e4f1ef;stroke-linecap:round;stroke-width:1.5;"/>
    </g>
    <g id="line2d_49"/>
    <g id="text_21">
     <!-- 45 : 0.883 -->
     <g style="fill:#262626;" transform="translate(333.350937 298.68125)scale(0.08 -0.08)">
      <use xlink:href="#DejaVuSans-34"/>
      <use x="63.623047" xlink:href="#DejaVuSans-35"/>
      <use x="127.246094" xlink:href="#DejaVuSans-20"/>
      <use x="159.033203" xlink:href="#DejaVuSans-3a"/>
      <use x="192.724609" xlink:href="#DejaVuSans-20"/>
      <use x="224.511719" xlink:href="#DejaVuSans-30"/>
      <use x="288.134766" xlink:href="#DejaVuSans-2e"/>
      <use x="319.921875" xlink:href="#DejaVuSans-38"/>
      <use x="383.544922" xlink:href="#DejaVuSans-38"/>
      <use x="447.167969" xlink:href="#DejaVuSans-33"/>
     </g>
    </g>
    <g id="line2d_50">
     <path d="M 310.950938 307.62375 
L 326.950938 307.62375 
" style="fill:none;stroke:#f5f0e2;stroke-linecap:round;stroke-width:1.5;"/>
    </g>
    <g id="line2d_51"/>
    <g id="text_22">
     <!-- 50 : 0.883 -->
     <g style="fill:#262626;" transform="translate(333.350937 310.42375)scale(0.08 -0.08)">
      <use xlink:href="#DejaVuSans-35"/>
      <use x="63.623047" xlink:href="#DejaVuSans-30"/>
      <use x="127.246094" xlink:href="#DejaVuSans-20"/>
      <use x="159.033203" xlink:href="#DejaVuSans-3a"/>
      <use x="192.724609" xlink:href="#DejaVuSans-20"/>
      <use x="224.511719" xlink:href="#DejaVuSans-30"/>
      <use x="288.134766" xlink:href="#DejaVuSans-2e"/>
      <use x="319.921875" xlink:href="#DejaVuSans-38"/>
      <use x="383.544922" xlink:href="#DejaVuSans-38"/>
      <use x="447.167969" xlink:href="#DejaVuSans-33"/>
     </g>
    </g>
    <g id="line2d_52">
     <path d="M 310.950938 319.36625 
L 326.950938 319.36625 
" style="fill:none;stroke:#f2e2b8;stroke-linecap:round;stroke-width:1.5;"/>
    </g>
    <g id="line2d_53"/>
    <g id="text_23">
     <!-- 55 : 0.882 -->
     <g style="fill:#262626;" transform="translate(333.350937 322.16625)scale(0.08 -0.08)">
      <use xlink:href="#DejaVuSans-35"/>
      <use x="63.623047" xlink:href="#DejaVuSans-35"/>
      <use x="127.246094" xlink:href="#DejaVuSans-20"/>
      <use x="159.033203" xlink:href="#DejaVuSans-3a"/>
      <use x="192.724609" xlink:href="#DejaVuSans-20"/>
      <use x="224.511719" xlink:href="#DejaVuSans-30"/>
      <use x="288.134766" xlink:href="#DejaVuSans-2e"/>
      <use x="319.921875" xlink:href="#DejaVuSans-38"/>
      <use x="383.544922" xlink:href="#DejaVuSans-38"/>
      <use x="447.167969" xlink:href="#DejaVuSans-32"/>
     </g>
    </g>
    <g id="line2d_54">
     <path d="M 310.950938 331.10875 
L 326.950938 331.10875 
" style="fill:none;stroke:#e0c481;stroke-linecap:round;stroke-width:1.5;"/>
    </g>
    <g id="line2d_55"/>
    <g id="text_24">
     <!-- 60 : 0.881 -->
     <g style="fill:#262626;" transform="translate(333.350937 333.90875)scale(0.08 -0.08)">
      <use xlink:href="#DejaVuSans-36"/>
      <use x="63.623047" xlink:href="#DejaVuSans-30"/>
      <use x="127.246094" xlink:href="#DejaVuSans-20"/>
      <use x="159.033203" xlink:href="#DejaVuSans-3a"/>
      <use x="192.724609" xlink:href="#DejaVuSans-20"/>
      <use x="224.511719" xlink:href="#DejaVuSans-30"/>
      <use x="288.134766" xlink:href="#DejaVuSans-2e"/>
      <use x="319.921875" xlink:href="#DejaVuSans-38"/>
      <use x="383.544922" xlink:href="#DejaVuSans-38"/>
      <use x="447.167969" xlink:href="#DejaVuSans-31"/>
     </g>
    </g>
    <g id="line2d_56">
     <path d="M 310.950938 342.85125 
L 326.950938 342.85125 
" style="fill:none;stroke:#c99546;stroke-linecap:round;stroke-width:1.5;"/>
    </g>
    <g id="line2d_57"/>
    <g id="text_25">
     <!-- 65 : 0.881 -->
     <g style="fill:#262626;" transform="translate(333.350937 345.65125)scale(0.08 -0.08)">
      <use xlink:href="#DejaVuSans-36"/>
      <use x="63.623047" xlink:href="#DejaVuSans-35"/>
      <use x="127.246094" xlink:href="#DejaVuSans-20"/>
      <use x="159.033203" xlink:href="#DejaVuSans-3a"/>
      <use x="192.724609" xlink:href="#DejaVuSans-20"/>
      <use x="224.511719" xlink:href="#DejaVuSans-30"/>
      <use x="288.134766" xlink:href="#DejaVuSans-2e"/>
      <use x="319.921875" xlink:href="#DejaVuSans-38"/>
      <use x="383.544922" xlink:href="#DejaVuSans-38"/>
      <use x="447.167969" xlink:href="#DejaVuSans-31"/>
     </g>
    </g>
    <g id="line2d_58">
     <path d="M 310.950938 354.59375 
L 326.950938 354.59375 
" style="fill:none;stroke:#a76a1d;stroke-linecap:round;stroke-width:1.5;"/>
    </g>
    <g id="line2d_59"/>
    <g id="text_26">
     <!-- 70 : 0.880 -->
     <g style="fill:#262626;" transform="translate(333.350937 357.39375)scale(0.08 -0.08)">
      <use xlink:href="#DejaVuSans-37"/>
      <use x="63.623047" xlink:href="#DejaVuSans-30"/>
      <use x="127.246094" xlink:href="#DejaVuSans-20"/>
      <use x="159.033203" xlink:href="#DejaVuSans-3a"/>
      <use x="192.724609" xlink:href="#DejaVuSans-20"/>
      <use x="224.511719" xlink:href="#DejaVuSans-30"/>
      <use x="288.134766" xlink:href="#DejaVuSans-2e"/>
      <use x="319.921875" xlink:href="#DejaVuSans-38"/>
      <use x="383.544922" xlink:href="#DejaVuSans-38"/>
      <use x="447.167969" xlink:href="#DejaVuSans-30"/>
     </g>
    </g>
    <g id="line2d_60">
     <path d="M 310.950938 366.33625 
L 326.950938 366.33625 
" style="fill:none;stroke:#7e4909;stroke-linecap:round;stroke-width:1.5;"/>
    </g>
    <g id="line2d_61"/>
    <g id="text_27">
     <!-- 75 : 0.880 -->
     <g style="fill:#262626;" transform="translate(333.350937 369.13625)scale(0.08 -0.08)">
      <use xlink:href="#DejaVuSans-37"/>
      <use x="63.623047" xlink:href="#DejaVuSans-35"/>
      <use x="127.246094" xlink:href="#DejaVuSans-20"/>
      <use x="159.033203" xlink:href="#DejaVuSans-3a"/>
      <use x="192.724609" xlink:href="#DejaVuSans-20"/>
      <use x="224.511719" xlink:href="#DejaVuSans-30"/>
      <use x="288.134766" xlink:href="#DejaVuSans-2e"/>
      <use x="319.921875" xlink:href="#DejaVuSans-38"/>
      <use x="383.544922" xlink:href="#DejaVuSans-38"/>
      <use x="447.167969" xlink:href="#DejaVuSans-30"/>
     </g>
    </g>
   </g>
  </g>
 </g>
 <defs>
  <clipPath id="p0a7408ed7a">
   <rect height="326.16" width="334.8" x="54" y="51.84"/>
  </clipPath>
 </defs>
</svg>
