<?xml version="1.0" encoding="utf-8" standalone="no"?>
<!DOCTYPE svg PUBLIC "-//W3C//DTD SVG 1.1//EN"
  "http://www.w3.org/Graphics/SVG/1.1/DTD/svg11.dtd">
<svg height="500.594959pt" version="1.1" viewBox="0 0 525.582676 500.594959" width="525.582676pt" xmlns="http://www.w3.org/2000/svg" xmlns:xlink="http://www.w3.org/1999/xlink">
 <metadata>
  <rdf:RDF xmlns:cc="http://creativecommons.org/ns#" xmlns:dc="http://purl.org/dc/elements/1.1/" xmlns:rdf="http://www.w3.org/1999/02/22-rdf-syntax-ns#">
   <cc:Work>
    <dc:type rdf:resource="http://purl.org/dc/dcmitype/StillImage"/>
    <dc:date>2022-01-12T09:06:55.560818</dc:date>
    <dc:format>image/svg+xml</dc:format>
    <dc:creator>
     <cc:Agent>
      <dc:title>Matplotlib v3.4.3, https://matplotlib.org/</dc:title>
     </cc:Agent>
    </dc:creator>
   </cc:Work>
  </rdf:RDF>
 </metadata>
 <defs>
  <style type="text/css">*{stroke-linecap:butt;stroke-linejoin:round;}</style>
 </defs>
 <g id="figure_1">
  <g id="patch_1">
   <path d="M 0 500.594959 
L 525.582676 500.594959 
L 525.582676 0 
L 0 0 
z
" style="fill:#ffffff;"/>
  </g>
  <g id="axes_1">
   <g id="patch_2">
    <path d="M 61.663138 447.010626 
L 508.063138 447.010626 
L 508.063138 12.130626 
L 61.663138 12.130626 
z
" style="fill:#ffffff;"/>
   </g>
   <g id="matplotlib.axis_1">
    <g id="xtick_1">
     <g id="line2d_1">
      <path clip-path="url(#p595df7bc4d)" d="M 61.663138 447.010626 
L 61.663138 12.130626 
" style="fill:none;stroke:#f2f2f2;stroke-linecap:round;"/>
     </g>
     <g id="line2d_2">
      <defs>
       <path d="M 0 0 
L 0 6 
" id="mf398251607" style="stroke:#262626;stroke-width:1.25;"/>
      </defs>
      <g>
       <use style="fill:#262626;stroke:#262626;stroke-width:1.25;" x="61.663138" xlink:href="#mf398251607" y="447.010626"/>
      </g>
     </g>
     <g id="text_1">
      <!-- 0.0 -->
      <g style="fill:#262626;" transform="translate(51.3436 466.371878)scale(0.12978 -0.12978)">
       <defs>
        <path d="M 2034 4250 
Q 1547 4250 1301 3770 
Q 1056 3291 1056 2328 
Q 1056 1369 1301 889 
Q 1547 409 2034 409 
Q 2525 409 2770 889 
Q 3016 1369 3016 2328 
Q 3016 3291 2770 3770 
Q 2525 4250 2034 4250 
z
M 2034 4750 
Q 2819 4750 3233 4129 
Q 3647 3509 3647 2328 
Q 3647 1150 3233 529 
Q 2819 -91 2034 -91 
Q 1250 -91 836 529 
Q 422 1150 422 2328 
Q 422 3509 836 4129 
Q 1250 4750 2034 4750 
z
" id="DejaVuSans-30" transform="scale(0.015625)"/>
        <path d="M 684 794 
L 1344 794 
L 1344 0 
L 684 0 
L 684 794 
z
" id="DejaVuSans-2e" transform="scale(0.015625)"/>
       </defs>
       <use xlink:href="#DejaVuSans-30"/>
       <use x="63.623047" xlink:href="#DejaVuSans-2e"/>
       <use x="95.410156" xlink:href="#DejaVuSans-30"/>
      </g>
     </g>
    </g>
    <g id="xtick_2">
     <g id="line2d_3">
      <path clip-path="url(#p595df7bc4d)" d="M 150.943138 447.010626 
L 150.943138 12.130626 
" style="fill:none;stroke:#f2f2f2;stroke-linecap:round;"/>
     </g>
     <g id="line2d_4">
      <g>
       <use style="fill:#262626;stroke:#262626;stroke-width:1.25;" x="150.943138" xlink:href="#mf398251607" y="447.010626"/>
      </g>
     </g>
     <g id="text_2">
      <!-- 0.2 -->
      <g style="fill:#262626;" transform="translate(140.6236 466.371878)scale(0.12978 -0.12978)">
       <defs>
        <path d="M 1228 531 
L 3431 531 
L 3431 0 
L 469 0 
L 469 531 
Q 828 903 1448 1529 
Q 2069 2156 2228 2338 
Q 2531 2678 2651 2914 
Q 2772 3150 2772 3378 
Q 2772 3750 2511 3984 
Q 2250 4219 1831 4219 
Q 1534 4219 1204 4116 
Q 875 4013 500 3803 
L 500 4441 
Q 881 4594 1212 4672 
Q 1544 4750 1819 4750 
Q 2544 4750 2975 4387 
Q 3406 4025 3406 3419 
Q 3406 3131 3298 2873 
Q 3191 2616 2906 2266 
Q 2828 2175 2409 1742 
Q 1991 1309 1228 531 
z
" id="DejaVuSans-32" transform="scale(0.015625)"/>
       </defs>
       <use xlink:href="#DejaVuSans-30"/>
       <use x="63.623047" xlink:href="#DejaVuSans-2e"/>
       <use x="95.410156" xlink:href="#DejaVuSans-32"/>
      </g>
     </g>
    </g>
    <g id="xtick_3">
     <g id="line2d_5">
      <path clip-path="url(#p595df7bc4d)" d="M 240.223138 447.010626 
L 240.223138 12.130626 
" style="fill:none;stroke:#f2f2f2;stroke-linecap:round;"/>
     </g>
     <g id="line2d_6">
      <g>
       <use style="fill:#262626;stroke:#262626;stroke-width:1.25;" x="240.223138" xlink:href="#mf398251607" y="447.010626"/>
      </g>
     </g>
     <g id="text_3">
      <!-- 0.4 -->
      <g style="fill:#262626;" transform="translate(229.9036 466.371878)scale(0.12978 -0.12978)">
       <defs>
        <path d="M 2419 4116 
L 825 1625 
L 2419 1625 
L 2419 4116 
z
M 2253 4666 
L 3047 4666 
L 3047 1625 
L 3713 1625 
L 3713 1100 
L 3047 1100 
L 3047 0 
L 2419 0 
L 2419 1100 
L 313 1100 
L 313 1709 
L 2253 4666 
z
" id="DejaVuSans-34" transform="scale(0.015625)"/>
       </defs>
       <use xlink:href="#DejaVuSans-30"/>
       <use x="63.623047" xlink:href="#DejaVuSans-2e"/>
       <use x="95.410156" xlink:href="#DejaVuSans-34"/>
      </g>
     </g>
    </g>
    <g id="xtick_4">
     <g id="line2d_7">
      <path clip-path="url(#p595df7bc4d)" d="M 329.503138 447.010626 
L 329.503138 12.130626 
" style="fill:none;stroke:#f2f2f2;stroke-linecap:round;"/>
     </g>
     <g id="line2d_8">
      <g>
       <use style="fill:#262626;stroke:#262626;stroke-width:1.25;" x="329.503138" xlink:href="#mf398251607" y="447.010626"/>
      </g>
     </g>
     <g id="text_4">
      <!-- 0.6 -->
      <g style="fill:#262626;" transform="translate(319.1836 466.371878)scale(0.12978 -0.12978)">
       <defs>
        <path d="M 2113 2584 
Q 1688 2584 1439 2293 
Q 1191 2003 1191 1497 
Q 1191 994 1439 701 
Q 1688 409 2113 409 
Q 2538 409 2786 701 
Q 3034 994 3034 1497 
Q 3034 2003 2786 2293 
Q 2538 2584 2113 2584 
z
M 3366 4563 
L 3366 3988 
Q 3128 4100 2886 4159 
Q 2644 4219 2406 4219 
Q 1781 4219 1451 3797 
Q 1122 3375 1075 2522 
Q 1259 2794 1537 2939 
Q 1816 3084 2150 3084 
Q 2853 3084 3261 2657 
Q 3669 2231 3669 1497 
Q 3669 778 3244 343 
Q 2819 -91 2113 -91 
Q 1303 -91 875 529 
Q 447 1150 447 2328 
Q 447 3434 972 4092 
Q 1497 4750 2381 4750 
Q 2619 4750 2861 4703 
Q 3103 4656 3366 4563 
z
" id="DejaVuSans-36" transform="scale(0.015625)"/>
       </defs>
       <use xlink:href="#DejaVuSans-30"/>
       <use x="63.623047" xlink:href="#DejaVuSans-2e"/>
       <use x="95.410156" xlink:href="#DejaVuSans-36"/>
      </g>
     </g>
    </g>
    <g id="xtick_5">
     <g id="line2d_9">
      <path clip-path="url(#p595df7bc4d)" d="M 418.783138 447.010626 
L 418.783138 12.130626 
" style="fill:none;stroke:#f2f2f2;stroke-linecap:round;"/>
     </g>
     <g id="line2d_10">
      <g>
       <use style="fill:#262626;stroke:#262626;stroke-width:1.25;" x="418.783138" xlink:href="#mf398251607" y="447.010626"/>
      </g>
     </g>
     <g id="text_5">
      <!-- 0.8 -->
      <g style="fill:#262626;" transform="translate(408.4636 466.371878)scale(0.12978 -0.12978)">
       <defs>
        <path d="M 2034 2216 
Q 1584 2216 1326 1975 
Q 1069 1734 1069 1313 
Q 1069 891 1326 650 
Q 1584 409 2034 409 
Q 2484 409 2743 651 
Q 3003 894 3003 1313 
Q 3003 1734 2745 1975 
Q 2488 2216 2034 2216 
z
M 1403 2484 
Q 997 2584 770 2862 
Q 544 3141 544 3541 
Q 544 4100 942 4425 
Q 1341 4750 2034 4750 
Q 2731 4750 3128 4425 
Q 3525 4100 3525 3541 
Q 3525 3141 3298 2862 
Q 3072 2584 2669 2484 
Q 3125 2378 3379 2068 
Q 3634 1759 3634 1313 
Q 3634 634 3220 271 
Q 2806 -91 2034 -91 
Q 1263 -91 848 271 
Q 434 634 434 1313 
Q 434 1759 690 2068 
Q 947 2378 1403 2484 
z
M 1172 3481 
Q 1172 3119 1398 2916 
Q 1625 2713 2034 2713 
Q 2441 2713 2670 2916 
Q 2900 3119 2900 3481 
Q 2900 3844 2670 4047 
Q 2441 4250 2034 4250 
Q 1625 4250 1398 4047 
Q 1172 3844 1172 3481 
z
" id="DejaVuSans-38" transform="scale(0.015625)"/>
       </defs>
       <use xlink:href="#DejaVuSans-30"/>
       <use x="63.623047" xlink:href="#DejaVuSans-2e"/>
       <use x="95.410156" xlink:href="#DejaVuSans-38"/>
      </g>
     </g>
    </g>
    <g id="xtick_6">
     <g id="line2d_11">
      <path clip-path="url(#p595df7bc4d)" d="M 508.063138 447.010626 
L 508.063138 12.130626 
" style="fill:none;stroke:#f2f2f2;stroke-linecap:round;"/>
     </g>
     <g id="line2d_12">
      <g>
       <use style="fill:#262626;stroke:#262626;stroke-width:1.25;" x="508.063138" xlink:href="#mf398251607" y="447.010626"/>
      </g>
     </g>
     <g id="text_6">
      <!-- 1.0 -->
      <g style="fill:#262626;" transform="translate(497.7436 466.371878)scale(0.12978 -0.12978)">
       <defs>
        <path d="M 794 531 
L 1825 531 
L 1825 4091 
L 703 3866 
L 703 4441 
L 1819 4666 
L 2450 4666 
L 2450 531 
L 3481 531 
L 3481 0 
L 794 0 
L 794 531 
z
" id="DejaVuSans-31" transform="scale(0.015625)"/>
       </defs>
       <use xlink:href="#DejaVuSans-31"/>
       <use x="63.623047" xlink:href="#DejaVuSans-2e"/>
       <use x="95.410156" xlink:href="#DejaVuSans-30"/>
      </g>
     </g>
    </g>
    <g id="text_7">
     <!-- Recall -->
     <g style="fill:#262626;" transform="translate(253.537044 489.027615)scale(0.21 -0.21)">
      <defs>
       <path d="M 2841 2188 
Q 3044 2119 3236 1894 
Q 3428 1669 3622 1275 
L 4263 0 
L 3584 0 
L 2988 1197 
Q 2756 1666 2539 1819 
Q 2322 1972 1947 1972 
L 1259 1972 
L 1259 0 
L 628 0 
L 628 4666 
L 2053 4666 
Q 2853 4666 3247 4331 
Q 3641 3997 3641 3322 
Q 3641 2881 3436 2590 
Q 3231 2300 2841 2188 
z
M 1259 4147 
L 1259 2491 
L 2053 2491 
Q 2509 2491 2742 2702 
Q 2975 2913 2975 3322 
Q 2975 3731 2742 3939 
Q 2509 4147 2053 4147 
L 1259 4147 
z
" id="DejaVuSans-52" transform="scale(0.015625)"/>
       <path d="M 3597 1894 
L 3597 1613 
L 953 1613 
Q 991 1019 1311 708 
Q 1631 397 2203 397 
Q 2534 397 2845 478 
Q 3156 559 3463 722 
L 3463 178 
Q 3153 47 2828 -22 
Q 2503 -91 2169 -91 
Q 1331 -91 842 396 
Q 353 884 353 1716 
Q 353 2575 817 3079 
Q 1281 3584 2069 3584 
Q 2775 3584 3186 3129 
Q 3597 2675 3597 1894 
z
M 3022 2063 
Q 3016 2534 2758 2815 
Q 2500 3097 2075 3097 
Q 1594 3097 1305 2825 
Q 1016 2553 972 2059 
L 3022 2063 
z
" id="DejaVuSans-65" transform="scale(0.015625)"/>
       <path d="M 3122 3366 
L 3122 2828 
Q 2878 2963 2633 3030 
Q 2388 3097 2138 3097 
Q 1578 3097 1268 2742 
Q 959 2388 959 1747 
Q 959 1106 1268 751 
Q 1578 397 2138 397 
Q 2388 397 2633 464 
Q 2878 531 3122 666 
L 3122 134 
Q 2881 22 2623 -34 
Q 2366 -91 2075 -91 
Q 1284 -91 818 406 
Q 353 903 353 1747 
Q 353 2603 823 3093 
Q 1294 3584 2113 3584 
Q 2378 3584 2631 3529 
Q 2884 3475 3122 3366 
z
" id="DejaVuSans-63" transform="scale(0.015625)"/>
       <path d="M 2194 1759 
Q 1497 1759 1228 1600 
Q 959 1441 959 1056 
Q 959 750 1161 570 
Q 1363 391 1709 391 
Q 2188 391 2477 730 
Q 2766 1069 2766 1631 
L 2766 1759 
L 2194 1759 
z
M 3341 1997 
L 3341 0 
L 2766 0 
L 2766 531 
Q 2569 213 2275 61 
Q 1981 -91 1556 -91 
Q 1019 -91 701 211 
Q 384 513 384 1019 
Q 384 1609 779 1909 
Q 1175 2209 1959 2209 
L 2766 2209 
L 2766 2266 
Q 2766 2663 2505 2880 
Q 2244 3097 1772 3097 
Q 1472 3097 1187 3025 
Q 903 2953 641 2809 
L 641 3341 
Q 956 3463 1253 3523 
Q 1550 3584 1831 3584 
Q 2591 3584 2966 3190 
Q 3341 2797 3341 1997 
z
" id="DejaVuSans-61" transform="scale(0.015625)"/>
       <path d="M 603 4863 
L 1178 4863 
L 1178 0 
L 603 0 
L 603 4863 
z
" id="DejaVuSans-6c" transform="scale(0.015625)"/>
      </defs>
      <use xlink:href="#DejaVuSans-52"/>
      <use x="64.982422" xlink:href="#DejaVuSans-65"/>
      <use x="126.505859" xlink:href="#DejaVuSans-63"/>
      <use x="181.486328" xlink:href="#DejaVuSans-61"/>
      <use x="242.765625" xlink:href="#DejaVuSans-6c"/>
      <use x="270.548828" xlink:href="#DejaVuSans-6c"/>
     </g>
    </g>
   </g>
   <g id="matplotlib.axis_2">
    <g id="ytick_1">
     <g id="line2d_13">
      <path clip-path="url(#p595df7bc4d)" d="M 61.663138 447.010626 
L 508.063138 447.010626 
" style="fill:none;stroke:#f2f2f2;stroke-linecap:round;"/>
     </g>
     <g id="line2d_14">
      <defs>
       <path d="M 0 0 
L -6 0 
" id="mbeab067ea6" style="stroke:#262626;stroke-width:1.25;"/>
      </defs>
      <g>
       <use style="fill:#262626;stroke:#262626;stroke-width:1.25;" x="61.663138" xlink:href="#mbeab067ea6" y="447.010626"/>
      </g>
     </g>
     <g id="text_8">
      <!-- 0.0 -->
      <g style="fill:#262626;" transform="translate(31.524063 451.941252)scale(0.12978 -0.12978)">
       <use xlink:href="#DejaVuSans-30"/>
       <use x="63.623047" xlink:href="#DejaVuSans-2e"/>
       <use x="95.410156" xlink:href="#DejaVuSans-30"/>
      </g>
     </g>
    </g>
    <g id="ytick_2">
     <g id="line2d_15">
      <path clip-path="url(#p595df7bc4d)" d="M 61.663138 360.034626 
L 508.063138 360.034626 
" style="fill:none;stroke:#f2f2f2;stroke-linecap:round;"/>
     </g>
     <g id="line2d_16">
      <g>
       <use style="fill:#262626;stroke:#262626;stroke-width:1.25;" x="61.663138" xlink:href="#mbeab067ea6" y="360.034626"/>
      </g>
     </g>
     <g id="text_9">
      <!-- 0.2 -->
      <g style="fill:#262626;" transform="translate(31.524063 364.965252)scale(0.12978 -0.12978)">
       <use xlink:href="#DejaVuSans-30"/>
       <use x="63.623047" xlink:href="#DejaVuSans-2e"/>
       <use x="95.410156" xlink:href="#DejaVuSans-32"/>
      </g>
     </g>
    </g>
    <g id="ytick_3">
     <g id="line2d_17">
      <path clip-path="url(#p595df7bc4d)" d="M 61.663138 273.058626 
L 508.063138 273.058626 
" style="fill:none;stroke:#f2f2f2;stroke-linecap:round;"/>
     </g>
     <g id="line2d_18">
      <g>
       <use style="fill:#262626;stroke:#262626;stroke-width:1.25;" x="61.663138" xlink:href="#mbeab067ea6" y="273.058626"/>
      </g>
     </g>
     <g id="text_10">
      <!-- 0.4 -->
      <g style="fill:#262626;" transform="translate(31.524063 277.989252)scale(0.12978 -0.12978)">
       <use xlink:href="#DejaVuSans-30"/>
       <use x="63.623047" xlink:href="#DejaVuSans-2e"/>
       <use x="95.410156" xlink:href="#DejaVuSans-34"/>
      </g>
     </g>
    </g>
    <g id="ytick_4">
     <g id="line2d_19">
      <path clip-path="url(#p595df7bc4d)" d="M 61.663138 186.082626 
L 508.063138 186.082626 
" style="fill:none;stroke:#f2f2f2;stroke-linecap:round;"/>
     </g>
     <g id="line2d_20">
      <g>
       <use style="fill:#262626;stroke:#262626;stroke-width:1.25;" x="61.663138" xlink:href="#mbeab067ea6" y="186.082626"/>
      </g>
     </g>
     <g id="text_11">
      <!-- 0.6 -->
      <g style="fill:#262626;" transform="translate(31.524063 191.013252)scale(0.12978 -0.12978)">
       <use xlink:href="#DejaVuSans-30"/>
       <use x="63.623047" xlink:href="#DejaVuSans-2e"/>
       <use x="95.410156" xlink:href="#DejaVuSans-36"/>
      </g>
     </g>
    </g>
    <g id="ytick_5">
     <g id="line2d_21">
      <path clip-path="url(#p595df7bc4d)" d="M 61.663138 99.106626 
L 508.063138 99.106626 
" style="fill:none;stroke:#f2f2f2;stroke-linecap:round;"/>
     </g>
     <g id="line2d_22">
      <g>
       <use style="fill:#262626;stroke:#262626;stroke-width:1.25;" x="61.663138" xlink:href="#mbeab067ea6" y="99.106626"/>
      </g>
     </g>
     <g id="text_12">
      <!-- 0.8 -->
      <g style="fill:#262626;" transform="translate(31.524063 104.037252)scale(0.12978 -0.12978)">
       <use xlink:href="#DejaVuSans-30"/>
       <use x="63.623047" xlink:href="#DejaVuSans-2e"/>
       <use x="95.410156" xlink:href="#DejaVuSans-38"/>
      </g>
     </g>
    </g>
    <g id="ytick_6">
     <g id="line2d_23">
      <path clip-path="url(#p595df7bc4d)" d="M 61.663138 12.130626 
L 508.063138 12.130626 
" style="fill:none;stroke:#f2f2f2;stroke-linecap:round;"/>
     </g>
     <g id="line2d_24">
      <g>
       <use style="fill:#262626;stroke:#262626;stroke-width:1.25;" x="61.663138" xlink:href="#mbeab067ea6" y="12.130626"/>
      </g>
     </g>
     <g id="text_13">
      <!-- 1.0 -->
      <g style="fill:#262626;" transform="translate(31.524063 17.061252)scale(0.12978 -0.12978)">
       <use xlink:href="#DejaVuSans-31"/>
       <use x="63.623047" xlink:href="#DejaVuSans-2e"/>
       <use x="95.410156" xlink:href="#DejaVuSans-30"/>
      </g>
     </g>
    </g>
    <g id="text_14">
     <!-- Precision -->
     <g style="fill:#262626;" transform="translate(23.156719 276.415392)rotate(-90)scale(0.21 -0.21)">
      <defs>
       <path d="M 1259 4147 
L 1259 2394 
L 2053 2394 
Q 2494 2394 2734 2622 
Q 2975 2850 2975 3272 
Q 2975 3691 2734 3919 
Q 2494 4147 2053 4147 
L 1259 4147 
z
M 628 4666 
L 2053 4666 
Q 2838 4666 3239 4311 
Q 3641 3956 3641 3272 
Q 3641 2581 3239 2228 
Q 2838 1875 2053 1875 
L 1259 1875 
L 1259 0 
L 628 0 
L 628 4666 
z
" id="DejaVuSans-50" transform="scale(0.015625)"/>
       <path d="M 2631 2963 
Q 2534 3019 2420 3045 
Q 2306 3072 2169 3072 
Q 1681 3072 1420 2755 
Q 1159 2438 1159 1844 
L 1159 0 
L 581 0 
L 581 3500 
L 1159 3500 
L 1159 2956 
Q 1341 3275 1631 3429 
Q 1922 3584 2338 3584 
Q 2397 3584 2469 3576 
Q 2541 3569 2628 3553 
L 2631 2963 
z
" id="DejaVuSans-72" transform="scale(0.015625)"/>
       <path d="M 603 3500 
L 1178 3500 
L 1178 0 
L 603 0 
L 603 3500 
z
M 603 4863 
L 1178 4863 
L 1178 4134 
L 603 4134 
L 603 4863 
z
" id="DejaVuSans-69" transform="scale(0.015625)"/>
       <path d="M 2834 3397 
L 2834 2853 
Q 2591 2978 2328 3040 
Q 2066 3103 1784 3103 
Q 1356 3103 1142 2972 
Q 928 2841 928 2578 
Q 928 2378 1081 2264 
Q 1234 2150 1697 2047 
L 1894 2003 
Q 2506 1872 2764 1633 
Q 3022 1394 3022 966 
Q 3022 478 2636 193 
Q 2250 -91 1575 -91 
Q 1294 -91 989 -36 
Q 684 19 347 128 
L 347 722 
Q 666 556 975 473 
Q 1284 391 1588 391 
Q 1994 391 2212 530 
Q 2431 669 2431 922 
Q 2431 1156 2273 1281 
Q 2116 1406 1581 1522 
L 1381 1569 
Q 847 1681 609 1914 
Q 372 2147 372 2553 
Q 372 3047 722 3315 
Q 1072 3584 1716 3584 
Q 2034 3584 2315 3537 
Q 2597 3491 2834 3397 
z
" id="DejaVuSans-73" transform="scale(0.015625)"/>
       <path d="M 1959 3097 
Q 1497 3097 1228 2736 
Q 959 2375 959 1747 
Q 959 1119 1226 758 
Q 1494 397 1959 397 
Q 2419 397 2687 759 
Q 2956 1122 2956 1747 
Q 2956 2369 2687 2733 
Q 2419 3097 1959 3097 
z
M 1959 3584 
Q 2709 3584 3137 3096 
Q 3566 2609 3566 1747 
Q 3566 888 3137 398 
Q 2709 -91 1959 -91 
Q 1206 -91 779 398 
Q 353 888 353 1747 
Q 353 2609 779 3096 
Q 1206 3584 1959 3584 
z
" id="DejaVuSans-6f" transform="scale(0.015625)"/>
       <path d="M 3513 2113 
L 3513 0 
L 2938 0 
L 2938 2094 
Q 2938 2591 2744 2837 
Q 2550 3084 2163 3084 
Q 1697 3084 1428 2787 
Q 1159 2491 1159 1978 
L 1159 0 
L 581 0 
L 581 3500 
L 1159 3500 
L 1159 2956 
Q 1366 3272 1645 3428 
Q 1925 3584 2291 3584 
Q 2894 3584 3203 3211 
Q 3513 2838 3513 2113 
z
" id="DejaVuSans-6e" transform="scale(0.015625)"/>
      </defs>
      <use xlink:href="#DejaVuSans-50"/>
      <use x="58.552734" xlink:href="#DejaVuSans-72"/>
      <use x="97.416016" xlink:href="#DejaVuSans-65"/>
      <use x="158.939453" xlink:href="#DejaVuSans-63"/>
      <use x="213.919922" xlink:href="#DejaVuSans-69"/>
      <use x="241.703125" xlink:href="#DejaVuSans-73"/>
      <use x="293.802734" xlink:href="#DejaVuSans-69"/>
      <use x="321.585938" xlink:href="#DejaVuSans-6f"/>
      <use x="382.767578" xlink:href="#DejaVuSans-6e"/>
     </g>
    </g>
   </g>
   <g id="line2d_25">
    <path clip-path="url(#p595df7bc4d)" d="M 508.063138 186.082626 
L 505.2016 186.082626 
L 505.2016 186.754255 
L 505.2016 178.459232 
L 502.340061 178.459232 
L 502.340061 179.124546 
L 502.340061 178.048698 
L 499.478523 178.048698 
L 499.478523 178.717723 
L 499.478523 125.577583 
L 496.616984 125.577583 
L 496.616984 126.128296 
L 496.616984 113.163353 
L 493.755446 113.163353 
L 493.755446 113.67621 
L 490.893907 113.67621 
L 490.893907 114.1943 
L 490.893907 110.763203 
L 488.032369 110.763203 
L 488.032369 111.274253 
L 488.032369 105.973152 
L 485.17083 105.973152 
L 485.17083 106.469674 
L 485.17083 104.658286 
L 482.309292 104.658286 
L 482.309292 105.153086 
L 482.309292 101.457329 
L 479.447754 101.457329 
L 479.447754 101.9428 
L 476.586215 101.9428 
L 476.586215 102.433577 
L 476.586215 96.690626 
L 473.724677 96.690626 
L 473.724677 97.163028 
L 470.863138 97.163028 
L 470.863138 97.640738 
L 470.863138 93.670626 
L 468.0016 93.670626 
L 468.0016 94.136569 
L 468.0016 92.108557 
L 465.140061 92.108557 
L 465.140061 92.570857 
L 465.140061 77.624602 
L 462.278523 77.624602 
L 462.278523 78.021535 
L 459.416984 78.021535 
L 459.416984 78.423309 
L 459.416984 69.208626 
L 456.555446 69.208626 
L 456.555446 69.567607 
L 453.693907 69.567607 
L 453.693907 69.931132 
L 453.693907 67.529352 
L 450.832369 67.529352 
L 450.832369 67.884472 
L 450.832369 60.450626 
L 447.97083 60.450626 
L 447.97083 60.768521 
L 447.97083 58.210626 
L 445.109292 58.210626 
L 445.109292 58.517826 
L 445.109292 55.910492 
L 442.247754 55.910492 
L 442.247754 56.206302 
L 442.247754 50.852818 
L 439.386215 50.852818 
L 439.386215 51.119867 
L 436.524677 51.119867 
L 436.524677 51.390626 
L 433.663138 51.390626 
L 433.663138 51.665172 
L 430.8016 51.665172 
L 430.8016 51.943584 
L 430.8016 46.299769 
L 427.940061 46.299769 
L 427.940061 46.54559 
L 427.940061 40.699385 
L 425.078523 40.699385 
L 425.078523 40.90945 
L 422.216984 40.90945 
L 422.216984 41.122626 
L 422.216984 31.897899 
L 419.355446 31.897899 
L 419.355446 32.048794 
L 416.493907 32.048794 
L 416.493907 32.202011 
L 413.632369 32.202011 
L 413.632369 32.357603 
L 413.632369 29.118126 
L 410.77083 29.118126 
L 410.77083 29.251886 
L 407.909292 29.251886 
L 407.909292 29.387769 
L 405.047754 29.387769 
L 405.047754 29.525826 
L 402.186215 29.525826 
L 402.186215 29.66611 
L 399.324677 29.66611 
L 399.324677 29.808675 
L 396.463138 29.808675 
L 396.463138 29.953577 
L 393.6016 29.953577 
L 393.6016 30.100874 
L 390.740061 30.100874 
L 390.740061 30.250626 
L 387.878523 30.250626 
L 387.878523 30.402895 
L 385.016984 30.402895 
L 385.016984 30.557745 
L 385.016984 26.998318 
L 382.155446 26.998318 
L 382.155446 27.126488 
L 379.293907 27.126488 
L 379.293907 27.256887 
L 379.293907 23.574837 
L 373.57083 23.676113 
L 373.57083 23.779198 
L 367.847754 23.88414 
L 367.847754 23.99099 
L 364.986215 23.99099 
L 364.986215 24.0998 
L 364.986215 20.183959 
L 359.263138 20.259224 
L 359.263138 20.335909 
L 356.4016 20.335909 
L 356.4016 20.414055 
L 356.4016 16.312165 
L 347.816984 16.394156 
L 347.816984 16.436369 
L 339.232369 16.523353 
L 339.232369 16.568177 
L 330.647754 16.660626 
L 330.647754 16.70831 
L 322.063138 16.806755 
L 322.063138 16.857583 
L 319.2016 16.857583 
L 319.2016 16.909527 
L 319.2016 12.130626 
L 61.663138 12.130626 
L 61.663138 12.130626 
" style="fill:none;stroke:#015b52;stroke-linecap:round;stroke-width:1.5;"/>
   </g>
   <g id="line2d_26">
    <path clip-path="url(#p595df7bc4d)" d="M 508.063138 186.082626 
L 505.2016 186.082626 
L 505.2016 186.754255 
L 505.2016 181.631099 
L 502.340061 181.631099 
L 502.340061 182.301061 
L 502.340061 171.407663 
L 499.478523 171.407663 
L 499.478523 172.065833 
L 499.478523 128.653497 
L 496.616984 128.653497 
L 496.616984 129.213703 
L 496.616984 114.840978 
L 493.755446 114.840978 
L 493.755446 115.359717 
L 490.893907 115.359717 
L 490.893907 115.883723 
L 490.893907 114.1943 
L 488.032369 114.1943 
L 488.032369 114.717703 
L 488.032369 105.973152 
L 485.17083 105.973152 
L 485.17083 106.469674 
L 482.309292 106.469674 
L 482.309292 106.971477 
L 482.309292 105.153086 
L 479.447754 105.153086 
L 479.447754 105.653207 
L 476.586215 105.653207 
L 476.586215 106.158734 
L 476.586215 98.626096 
L 473.724677 98.626096 
L 473.724677 99.106626 
L 473.724677 95.197592 
L 470.863138 95.197592 
L 470.863138 95.666897 
L 470.863138 93.670626 
L 468.0016 93.670626 
L 468.0016 94.136569 
L 468.0016 87.981789 
L 465.140061 87.981789 
L 465.140061 88.425363 
L 465.140061 75.385899 
L 462.278523 75.385899 
L 462.278523 75.771602 
L 459.416984 75.771602 
L 459.416984 76.162037 
L 459.416984 66.832513 
L 456.555446 66.832513 
L 456.555446 67.178727 
L 453.693907 67.178727 
L 453.693907 67.529352 
L 450.832369 67.529352 
L 450.832369 67.884472 
L 450.832369 62.960756 
L 447.97083 62.960756 
L 447.97083 63.292979 
L 447.97083 60.768521 
L 445.109292 60.768521 
L 445.109292 61.090626 
L 445.109292 58.517826 
L 442.247754 58.517826 
L 442.247754 58.82915 
L 439.386215 58.82915 
L 439.386215 59.14468 
L 439.386215 56.506136 
L 436.524677 56.506136 
L 436.524677 56.810078 
L 436.524677 54.11904 
L 433.663138 54.11904 
L 433.663138 54.410626 
L 433.663138 51.665172 
L 430.8016 51.665172 
L 430.8016 51.943584 
L 427.940061 51.943584 
L 427.940061 52.225945 
L 427.940061 49.406055 
L 425.078523 49.406055 
L 425.078523 49.674223 
L 422.216984 49.674223 
L 422.216984 49.946278 
L 422.216984 35.019047 
L 419.355446 35.019047 
L 419.355446 35.192444 
L 416.493907 35.192444 
L 416.493907 35.368489 
L 416.493907 32.202011 
L 413.632369 32.202011 
L 413.632369 32.357603 
L 410.77083 32.357603 
L 410.77083 32.515626 
L 407.909292 32.515626 
L 407.909292 32.676138 
L 405.047754 32.676138 
L 405.047754 32.839198 
L 402.186215 32.839198 
L 402.186215 33.004866 
L 399.324677 33.004866 
L 399.324677 33.173207 
L 399.324677 29.808675 
L 396.463138 29.808675 
L 396.463138 29.953577 
L 393.6016 29.953577 
L 393.6016 30.100874 
L 393.6016 23.093987 
L 390.740061 23.093987 
L 390.740061 23.186897 
L 390.740061 19.564472 
L 385.016984 19.628557 
L 385.016984 19.693757 
L 379.293907 19.7601 
L 379.293907 19.827617 
L 376.432369 19.827617 
L 376.432369 19.89634 
L 376.432369 16.048464 
L 364.986215 16.157293 
L 364.986215 16.194925 
L 356.4016 16.27234 
L 356.4016 16.312165 
L 347.816984 16.394156 
L 347.816984 16.436369 
L 339.232369 16.523353 
L 339.232369 16.568177 
L 330.647754 16.660626 
L 330.647754 16.70831 
L 322.063138 16.806755 
L 322.063138 16.857583 
L 313.478523 16.962626 
L 313.478523 17.016918 
L 310.616984 17.016918 
L 310.616984 17.072444 
L 310.616984 12.130626 
L 61.663138 12.130626 
L 61.663138 12.130626 
" style="fill:none;stroke:#1d8078;stroke-linecap:round;stroke-width:1.5;"/>
   </g>
   <g id="line2d_27">
    <path clip-path="url(#p595df7bc4d)" d="M 508.063138 185.075182 
L 505.2016 185.075182 
L 505.2016 185.74551 
L 502.340061 185.74551 
L 502.340061 186.421054 
L 502.340061 167.962626 
L 499.478523 167.962626 
L 499.478523 168.614643 
L 499.478523 131.6711 
L 496.616984 131.6711 
L 496.616984 132.24034 
L 493.755446 132.24034 
L 493.755446 132.815028 
L 493.755446 113.67621 
L 490.893907 113.67621 
L 490.893907 114.1943 
L 490.893907 112.487549 
L 488.032369 112.487549 
L 488.032369 113.004853 
L 485.17083 113.004853 
L 485.17083 113.527517 
L 485.17083 108.261995 
L 482.309292 108.261995 
L 482.309292 108.770626 
L 482.309292 95.761395 
L 479.447754 95.761395 
L 479.447754 96.223444 
L 476.586215 96.223444 
L 476.586215 96.690626 
L 473.724677 96.690626 
L 473.724677 97.163028 
L 473.724677 93.209948 
L 470.863138 93.209948 
L 470.863138 93.670626 
L 470.863138 91.65154 
L 468.0016 91.65154 
L 468.0016 92.108557 
L 468.0016 81.608496 
L 465.140061 81.608496 
L 465.140061 82.022055 
L 465.140061 73.119894 
L 462.278523 73.119894 
L 462.278523 73.494062 
L 459.416984 73.494062 
L 459.416984 73.872848 
L 459.416984 71.555222 
L 456.555446 71.555222 
L 456.555446 71.926626 
L 456.555446 69.567607 
L 453.693907 69.567607 
L 453.693907 69.931132 
L 450.832369 69.931132 
L 450.832369 70.299289 
L 450.832369 67.884472 
L 447.97083 67.884472 
L 447.97083 68.244174 
L 447.97083 58.210626 
L 445.109292 58.210626 
L 445.109292 58.517826 
L 442.247754 58.517826 
L 442.247754 58.82915 
L 439.386215 58.82915 
L 439.386215 59.14468 
L 439.386215 56.506136 
L 436.524677 56.506136 
L 436.524677 56.810078 
L 433.663138 56.810078 
L 433.663138 57.118212 
L 433.663138 48.881049 
L 430.8016 48.881049 
L 430.8016 49.14169 
L 427.940061 49.14169 
L 427.940061 49.406055 
L 425.078523 49.406055 
L 425.078523 49.674223 
L 425.078523 46.794974 
L 422.216984 46.794974 
L 422.216984 47.047998 
L 422.216984 38.093611 
L 419.355446 38.093611 
L 419.355446 38.288822 
L 416.493907 38.288822 
L 416.493907 38.48699 
L 413.632369 38.48699 
L 413.632369 38.688183 
L 413.632369 29.118126 
L 410.77083 29.118126 
L 410.77083 29.251886 
L 407.909292 29.251886 
L 407.909292 29.387769 
L 405.047754 29.387769 
L 405.047754 29.525826 
L 402.186215 29.525826 
L 402.186215 29.66611 
L 399.324677 29.66611 
L 399.324677 29.808675 
L 399.324677 26.388987 
L 396.463138 26.388987 
L 396.463138 26.506824 
L 393.6016 26.506824 
L 393.6016 26.626626 
L 393.6016 23.093987 
L 387.878523 23.186897 
L 387.878523 23.281395 
L 387.878523 19.628557 
L 382.155446 19.693757 
L 382.155446 19.7601 
L 379.293907 19.7601 
L 379.293907 19.827617 
L 379.293907 16.013483 
L 367.847754 16.120351 
L 367.847754 16.157293 
L 359.263138 16.233268 
L 359.263138 16.27234 
L 350.678523 16.352762 
L 350.678523 16.394156 
L 342.093907 16.479426 
L 342.093907 16.523353 
L 333.509292 16.613925 
L 333.509292 16.660626 
L 324.924677 16.757009 
L 324.924677 16.806755 
L 316.340061 16.909527 
L 316.340061 16.962626 
L 313.478523 16.962626 
L 313.478523 17.016918 
L 313.478523 12.130626 
L 61.663138 12.130626 
L 61.663138 12.130626 
" style="fill:none;stroke:#4da89f;stroke-linecap:round;stroke-width:1.5;"/>
   </g>
   <g id="line2d_28">
    <path clip-path="url(#p595df7bc4d)" d="M 508.063138 184.059928 
L 505.2016 184.059928 
L 505.2016 184.728914 
L 505.2016 181.631099 
L 502.340061 181.631099 
L 502.340061 182.301061 
L 502.340061 166.795061 
L 499.478523 166.795061 
L 499.478523 167.444912 
L 499.478523 145.939857 
L 496.616984 145.939857 
L 496.616984 146.548081 
L 496.616984 133.732143 
L 493.755446 133.732143 
L 493.755446 134.311198 
L 493.755446 115.359717 
L 490.893907 115.359717 
L 490.893907 115.883723 
L 488.032369 115.883723 
L 488.032369 116.413075 
L 488.032369 113.004853 
L 485.17083 113.004853 
L 485.17083 113.527517 
L 485.17083 108.261995 
L 482.309292 108.261995 
L 482.309292 108.770626 
L 482.309292 97.68079 
L 479.447754 97.68079 
L 479.447754 98.150846 
L 479.447754 92.304034 
L 476.586215 92.304034 
L 476.586215 92.754446 
L 476.586215 88.728808 
L 473.724677 88.728808 
L 473.724677 89.166512 
L 473.724677 87.109936 
L 470.863138 87.109936 
L 470.863138 87.543343 
L 470.863138 85.453417 
L 468.0016 85.453417 
L 468.0016 85.882205 
L 468.0016 72.750262 
L 465.140061 72.750262 
L 465.140061 73.119894 
L 462.278523 73.119894 
L 462.278523 73.494062 
L 459.416984 73.494062 
L 459.416984 73.872848 
L 456.555446 73.872848 
L 456.555446 74.25634 
L 453.693907 74.25634 
L 453.693907 74.644626 
L 453.693907 60.13686 
L 450.832369 60.13686 
L 450.832369 60.450626 
L 447.97083 60.450626 
L 447.97083 60.768521 
L 445.109292 60.768521 
L 445.109292 61.090626 
L 442.247754 61.090626 
L 442.247754 61.417026 
L 439.386215 61.417026 
L 439.386215 61.747807 
L 439.386215 59.14468 
L 436.524677 59.14468 
L 436.524677 59.464504 
L 436.524677 56.810078 
L 433.663138 56.810078 
L 433.663138 57.118212 
L 433.663138 48.881049 
L 430.8016 48.881049 
L 430.8016 49.14169 
L 430.8016 37.525079 
L 427.940061 37.525079 
L 427.940061 37.711803 
L 427.940061 34.679959 
L 425.078523 34.679959 
L 425.078523 34.848238 
L 425.078523 28.603353 
L 422.216984 28.603353 
L 422.216984 28.729099 
L 419.355446 28.729099 
L 419.355446 28.85678 
L 416.493907 28.85678 
L 416.493907 28.98644 
L 416.493907 25.720626 
L 410.77083 25.827634 
L 410.77083 25.93634 
L 405.047754 26.046786 
L 405.047754 26.159013 
L 402.186215 26.159013 
L 402.186215 26.273065 
L 399.324677 26.273065 
L 399.324677 26.388987 
L 396.463138 26.388987 
L 396.463138 26.506824 
L 393.6016 26.506824 
L 393.6016 26.626626 
L 390.740061 26.626626 
L 390.740061 26.748441 
L 387.878523 26.748441 
L 387.878523 26.872321 
L 385.016984 26.872321 
L 385.016984 26.998318 
L 382.155446 26.998318 
L 382.155446 27.126488 
L 382.155446 23.475322 
L 379.293907 23.475322 
L 379.293907 23.574837 
L 379.293907 19.827617 
L 373.57083 19.89634 
L 373.57083 19.966302 
L 373.57083 16.084081 
L 362.124677 16.194925 
L 362.124677 16.233268 
L 353.540061 16.312165 
L 353.540061 16.352762 
L 344.955446 16.436369 
L 344.955446 16.479426 
L 336.37083 16.568177 
L 336.37083 16.613925 
L 327.786215 16.70831 
L 327.786215 16.757009 
L 319.2016 16.857583 
L 319.2016 16.909527 
L 310.616984 17.016918 
L 310.616984 17.072444 
L 310.616984 12.130626 
L 61.663138 12.130626 
L 61.663138 12.130626 
" style="fill:none;stroke:#84cfc3;stroke-linecap:round;stroke-width:1.5;"/>
   </g>
   <g id="line2d_29">
    <path clip-path="url(#p595df7bc4d)" d="M 508.063138 182.005626 
L 505.2016 182.005626 
L 505.2016 182.671803 
L 505.2016 181.631099 
L 502.340061 181.631099 
L 502.340061 182.301061 
L 502.340061 165.617685 
L 499.478523 165.617685 
L 499.478523 166.26531 
L 499.478523 153.897675 
L 496.616984 153.897675 
L 496.616984 154.524962 
L 496.616984 135.209871 
L 493.755446 135.209871 
L 493.755446 135.793185 
L 493.755446 121.927062 
L 490.893907 121.927062 
L 490.893907 122.473313 
L 490.893907 115.883723 
L 488.032369 115.883723 
L 488.032369 116.413075 
L 488.032369 113.004853 
L 485.17083 113.004853 
L 485.17083 113.527517 
L 485.17083 104.658286 
L 482.309292 104.658286 
L 482.309292 105.153086 
L 482.309292 95.761395 
L 479.447754 95.761395 
L 479.447754 96.223444 
L 479.447754 84.196455 
L 476.586215 84.196455 
L 476.586215 84.610626 
L 473.724677 84.610626 
L 473.724677 85.029586 
L 473.724677 80.795889 
L 470.863138 80.795889 
L 470.863138 81.199803 
L 470.863138 79.035241 
L 468.0016 79.035241 
L 468.0016 79.433483 
L 465.140061 79.433483 
L 465.140061 79.836494 
L 465.140061 70.826086 
L 462.278523 70.826086 
L 462.278523 71.188404 
L 459.416984 71.188404 
L 459.416984 71.555222 
L 459.416984 61.98948 
L 456.555446 61.98948 
L 456.555446 62.309088 
L 453.693907 62.309088 
L 453.693907 62.63282 
L 450.832369 62.63282 
L 450.832369 62.960756 
L 450.832369 57.907468 
L 447.97083 57.907468 
L 447.97083 58.210626 
L 447.97083 55.618626 
L 445.109292 55.618626 
L 445.109292 55.910492 
L 445.109292 50.589402 
L 442.247754 50.589402 
L 442.247754 50.852818 
L 442.247754 48.120695 
L 439.386215 48.120695 
L 439.386215 48.370626 
L 436.524677 48.370626 
L 436.524677 48.624053 
L 436.524677 45.818513 
L 433.663138 45.818513 
L 433.663138 46.057435 
L 433.663138 40.288324 
L 430.8016 40.288324 
L 430.8016 40.492365 
L 427.940061 40.492365 
L 427.940061 40.699385 
L 425.078523 40.699385 
L 425.078523 40.90945 
L 425.078523 34.848238 
L 422.216984 34.848238 
L 422.216984 35.019047 
L 422.216984 31.897899 
L 419.355446 31.897899 
L 419.355446 32.048794 
L 416.493907 32.048794 
L 416.493907 32.202011 
L 416.493907 25.720626 
L 410.77083 25.827634 
L 410.77083 25.93634 
L 405.047754 26.046786 
L 405.047754 26.159013 
L 402.186215 26.159013 
L 402.186215 26.273065 
L 399.324677 26.273065 
L 399.324677 26.388987 
L 396.463138 26.388987 
L 396.463138 26.506824 
L 393.6016 26.506824 
L 393.6016 26.626626 
L 390.740061 26.626626 
L 390.740061 26.748441 
L 387.878523 26.748441 
L 387.878523 26.872321 
L 385.016984 26.872321 
L 385.016984 26.998318 
L 382.155446 26.998318 
L 382.155446 27.126488 
L 379.293907 27.126488 
L 379.293907 27.256887 
L 376.432369 27.256887 
L 376.432369 27.389573 
L 373.57083 27.389573 
L 373.57083 27.524608 
L 370.709292 27.524608 
L 370.709292 27.662055 
L 370.709292 23.88414 
L 367.847754 23.88414 
L 367.847754 23.99099 
L 367.847754 20.110076 
L 364.986215 20.110076 
L 364.986215 20.183959 
L 364.986215 16.194925 
L 356.4016 16.27234 
L 356.4016 16.312165 
L 347.816984 16.394156 
L 347.816984 16.436369 
L 339.232369 16.523353 
L 339.232369 16.568177 
L 330.647754 16.660626 
L 330.647754 16.70831 
L 322.063138 16.806755 
L 322.063138 16.857583 
L 313.478523 16.962626 
L 313.478523 17.016918 
L 310.616984 17.016918 
L 310.616984 17.072444 
L 310.616984 12.130626 
L 61.663138 12.130626 
L 61.663138 12.130626 
" style="fill:none;stroke:#bce5df;stroke-linecap:round;stroke-width:1.5;"/>
   </g>
   <g id="line2d_30">
    <path clip-path="url(#p595df7bc4d)" d="M 508.063138 180.966391 
L 505.2016 180.966391 
L 505.2016 181.631099 
L 505.2016 180.582168 
L 502.340061 180.582168 
L 502.340061 181.250626 
L 502.340061 162.025435 
L 499.478523 162.025435 
L 499.478523 162.666011 
L 499.478523 156.457613 
L 496.616984 156.457613 
L 496.616984 157.090626 
L 496.616984 133.732143 
L 493.755446 133.732143 
L 493.755446 134.311198 
L 493.755446 125.114156 
L 490.893907 125.114156 
L 490.893907 125.670725 
L 490.893907 110.763203 
L 488.032369 110.763203 
L 488.032369 111.274253 
L 488.032369 109.525626 
L 485.17083 109.525626 
L 485.17083 110.035548 
L 485.17083 108.261995 
L 482.309292 108.261995 
L 482.309292 108.770626 
L 482.309292 93.820792 
L 479.447754 93.820792 
L 479.447754 94.274626 
L 479.447754 80.002071 
L 476.586215 80.002071 
L 476.586215 80.396673 
L 473.724677 80.396673 
L 473.724677 80.795889 
L 470.863138 80.795889 
L 470.863138 81.199803 
L 470.863138 79.035241 
L 468.0016 79.035241 
L 468.0016 79.433483 
L 468.0016 70.468187 
L 465.140061 70.468187 
L 465.140061 70.826086 
L 465.140061 66.152986 
L 462.278523 66.152986 
L 462.278523 66.490626 
L 462.278523 64.097419 
L 459.416984 64.097419 
L 459.416984 64.426322 
L 459.416984 61.98948 
L 456.555446 61.98948 
L 456.555446 62.309088 
L 453.693907 62.309088 
L 453.693907 62.63282 
L 453.693907 60.13686 
L 450.832369 60.13686 
L 450.832369 60.450626 
L 450.832369 52.719426 
L 447.97083 52.719426 
L 447.97083 52.991834 
L 447.97083 50.329545 
L 445.109292 50.329545 
L 445.109292 50.589402 
L 442.247754 50.589402 
L 442.247754 50.852818 
L 439.386215 50.852818 
L 439.386215 51.119867 
L 436.524677 51.119867 
L 436.524677 51.390626 
L 433.663138 51.390626 
L 433.663138 51.665172 
L 433.663138 48.881049 
L 430.8016 48.881049 
L 430.8016 49.14169 
L 430.8016 40.492365 
L 427.940061 40.492365 
L 427.940061 40.699385 
L 427.940061 37.711803 
L 425.078523 37.711803 
L 425.078523 37.901293 
L 422.216984 37.901293 
L 422.216984 38.093611 
L 419.355446 38.093611 
L 419.355446 38.288822 
L 416.493907 38.288822 
L 416.493907 38.48699 
L 416.493907 35.368489 
L 413.632369 35.368489 
L 413.632369 35.547241 
L 410.77083 35.547241 
L 410.77083 35.728766 
L 407.909292 35.728766 
L 407.909292 35.913126 
L 407.909292 32.676138 
L 405.047754 32.676138 
L 405.047754 32.839198 
L 405.047754 29.525826 
L 402.186215 29.525826 
L 402.186215 29.66611 
L 399.324677 29.66611 
L 399.324677 29.808675 
L 396.463138 29.808675 
L 396.463138 29.953577 
L 393.6016 29.953577 
L 393.6016 30.100874 
L 393.6016 26.626626 
L 390.740061 26.626626 
L 390.740061 26.748441 
L 387.878523 26.748441 
L 387.878523 26.872321 
L 385.016984 26.872321 
L 385.016984 26.998318 
L 382.155446 26.998318 
L 382.155446 27.126488 
L 379.293907 27.126488 
L 379.293907 27.256887 
L 376.432369 27.256887 
L 376.432369 27.389573 
L 373.57083 27.389573 
L 373.57083 27.524608 
L 370.709292 27.524608 
L 370.709292 27.662055 
L 367.847754 27.662055 
L 367.847754 27.801977 
L 364.986215 27.801977 
L 364.986215 27.944444 
L 364.986215 20.183959 
L 359.263138 20.259224 
L 359.263138 20.335909 
L 353.540061 20.414055 
L 353.540061 20.493703 
L 350.678523 20.493703 
L 350.678523 20.574898 
L 350.678523 16.394156 
L 342.093907 16.479426 
L 342.093907 16.523353 
L 333.509292 16.613925 
L 333.509292 16.660626 
L 324.924677 16.757009 
L 324.924677 16.806755 
L 316.340061 16.909527 
L 316.340061 16.962626 
L 313.478523 16.962626 
L 313.478523 17.016918 
L 313.478523 12.130626 
L 61.663138 12.130626 
L 61.663138 12.130626 
" style="fill:none;stroke:#e4f1ef;stroke-linecap:round;stroke-width:1.5;"/>
   </g>
   <g id="line2d_31">
    <path clip-path="url(#p595df7bc4d)" d="M 508.063138 179.918973 
L 505.2016 179.918973 
L 505.2016 180.582168 
L 505.2016 179.524912 
L 502.340061 179.524912 
L 502.340061 180.191821 
L 502.340061 162.025435 
L 499.478523 162.025435 
L 499.478523 162.666011 
L 499.478523 156.457613 
L 496.616984 156.457613 
L 496.616984 157.090626 
L 496.616984 127.678452 
L 493.755446 127.678452 
L 493.755446 128.239364 
L 493.755446 121.927062 
L 490.893907 121.927062 
L 490.893907 122.473313 
L 490.893907 114.1943 
L 488.032369 114.1943 
L 488.032369 114.717703 
L 488.032369 102.345094 
L 485.17083 102.345094 
L 485.17083 102.827524 
L 482.309292 102.827524 
L 482.309292 103.315142 
L 482.309292 91.858626 
L 479.447754 91.858626 
L 479.447754 92.304034 
L 479.447754 88.29605 
L 476.586215 88.29605 
L 476.586215 88.728808 
L 476.586215 71.667769 
L 473.724677 71.667769 
L 473.724677 72.024279 
L 470.863138 72.024279 
L 470.863138 72.385084 
L 468.0016 72.385084 
L 468.0016 72.750262 
L 465.140061 72.750262 
L 465.140061 73.119894 
L 465.140061 70.826086 
L 462.278523 70.826086 
L 462.278523 71.188404 
L 462.278523 61.673917 
L 459.416984 61.673917 
L 459.416984 61.98948 
L 456.555446 61.98948 
L 456.555446 62.309088 
L 453.693907 62.309088 
L 453.693907 62.63282 
L 453.693907 60.13686 
L 450.832369 60.13686 
L 450.832369 60.450626 
L 450.832369 57.907468 
L 447.97083 57.907468 
L 447.97083 58.210626 
L 447.97083 55.618626 
L 445.109292 55.618626 
L 445.109292 55.910492 
L 445.109292 53.267923 
L 442.247754 53.267923 
L 442.247754 53.547769 
L 439.386215 53.547769 
L 439.386215 53.831448 
L 436.524677 53.831448 
L 436.524677 54.11904 
L 436.524677 48.624053 
L 433.663138 48.624053 
L 433.663138 48.881049 
L 430.8016 48.881049 
L 430.8016 49.14169 
L 430.8016 46.299769 
L 427.940061 46.299769 
L 427.940061 46.54559 
L 427.940061 43.64367 
L 425.078523 43.64367 
L 425.078523 43.873692 
L 425.078523 40.90945 
L 422.216984 40.90945 
L 422.216984 41.122626 
L 419.355446 41.122626 
L 419.355446 41.338984 
L 419.355446 38.288822 
L 416.493907 38.288822 
L 416.493907 38.48699 
L 413.632369 38.48699 
L 413.632369 38.688183 
L 410.77083 38.688183 
L 410.77083 38.892472 
L 407.909292 38.892472 
L 407.909292 39.099928 
L 407.909292 35.913126 
L 405.047754 35.913126 
L 405.047754 36.10039 
L 402.186215 36.10039 
L 402.186215 36.290626 
L 402.186215 29.66611 
L 399.324677 29.66611 
L 399.324677 29.808675 
L 396.463138 29.808675 
L 396.463138 29.953577 
L 393.6016 29.953577 
L 393.6016 30.100874 
L 390.740061 30.100874 
L 390.740061 30.250626 
L 387.878523 30.250626 
L 387.878523 30.402895 
L 385.016984 30.402895 
L 385.016984 30.557745 
L 382.155446 30.557745 
L 382.155446 30.715241 
L 382.155446 27.126488 
L 379.293907 27.126488 
L 379.293907 27.256887 
L 376.432369 27.256887 
L 376.432369 27.389573 
L 373.57083 27.389573 
L 373.57083 27.524608 
L 370.709292 27.524608 
L 370.709292 27.662055 
L 367.847754 27.662055 
L 367.847754 27.801977 
L 364.986215 27.801977 
L 364.986215 27.944444 
L 362.124677 27.944444 
L 362.124677 28.089525 
L 359.263138 28.089525 
L 359.263138 28.237293 
L 356.4016 28.237293 
L 356.4016 28.387822 
L 353.540061 28.387822 
L 353.540061 28.541192 
L 350.678523 28.541192 
L 350.678523 28.697483 
L 347.816984 28.697483 
L 347.816984 28.85678 
L 344.955446 28.85678 
L 344.955446 29.01917 
L 342.093907 29.01917 
L 342.093907 29.184744 
L 342.093907 25.047854 
L 339.232369 25.047854 
L 339.232369 25.177026 
L 339.232369 20.916081 
L 336.37083 20.916081 
L 336.37083 21.005728 
L 336.37083 16.613925 
L 327.786215 16.70831 
L 327.786215 16.757009 
L 319.2016 16.857583 
L 319.2016 16.909527 
L 313.478523 16.962626 
L 313.478523 17.016918 
L 313.478523 12.130626 
L 61.663138 12.130626 
L 61.663138 12.130626 
" style="fill:none;stroke:#f5f0e2;stroke-linecap:round;stroke-width:1.5;"/>
   </g>
   <g id="line2d_32">
    <path clip-path="url(#p595df7bc4d)" d="M 508.063138 179.918973 
L 505.2016 179.918973 
L 505.2016 180.582168 
L 505.2016 176.302192 
L 502.340061 176.302192 
L 502.340061 176.964174 
L 502.340061 159.57921 
L 499.478523 159.57921 
L 499.478523 160.214764 
L 499.478523 156.457613 
L 496.616984 156.457613 
L 496.616984 157.090626 
L 496.616984 124.563016 
L 493.755446 124.563016 
L 493.755446 125.114156 
L 490.893907 125.114156 
L 490.893907 125.670725 
L 490.893907 114.1943 
L 488.032369 114.1943 
L 488.032369 114.717703 
L 488.032369 100.501963 
L 485.17083 100.501963 
L 485.17083 100.977078 
L 482.309292 100.977078 
L 482.309292 101.457329 
L 482.309292 91.858626 
L 479.447754 91.858626 
L 479.447754 92.304034 
L 476.586215 92.304034 
L 476.586215 92.754446 
L 476.586215 86.681483 
L 473.724677 86.681483 
L 473.724677 87.109936 
L 473.724677 85.029586 
L 470.863138 85.029586 
L 470.863138 85.453417 
L 470.863138 72.385084 
L 468.0016 72.385084 
L 468.0016 72.750262 
L 468.0016 68.158111 
L 465.140061 68.158111 
L 465.140061 68.503959 
L 465.140061 66.152986 
L 462.278523 66.152986 
L 462.278523 66.490626 
L 459.416984 66.490626 
L 459.416984 66.832513 
L 456.555446 66.832513 
L 456.555446 67.178727 
L 456.555446 64.759416 
L 453.693907 64.759416 
L 453.693907 65.09678 
L 450.832369 65.09678 
L 450.832369 65.438497 
L 450.832369 62.960756 
L 447.97083 62.960756 
L 447.97083 63.292979 
L 447.97083 60.768521 
L 445.109292 60.768521 
L 445.109292 61.090626 
L 445.109292 58.517826 
L 442.247754 58.517826 
L 442.247754 58.82915 
L 442.247754 53.547769 
L 439.386215 53.547769 
L 439.386215 53.831448 
L 436.524677 53.831448 
L 436.524677 54.11904 
L 436.524677 51.390626 
L 433.663138 51.390626 
L 433.663138 51.665172 
L 433.663138 48.881049 
L 430.8016 48.881049 
L 430.8016 49.14169 
L 427.940061 49.14169 
L 427.940061 49.406055 
L 427.940061 46.54559 
L 425.078523 46.54559 
L 425.078523 46.794974 
L 425.078523 43.873692 
L 422.216984 43.873692 
L 422.216984 44.107097 
L 422.216984 41.122626 
L 419.355446 41.122626 
L 419.355446 41.338984 
L 416.493907 41.338984 
L 416.493907 41.558596 
L 413.632369 41.558596 
L 413.632369 41.781535 
L 410.77083 41.781535 
L 410.77083 42.007878 
L 407.909292 42.007878 
L 407.909292 42.237703 
L 405.047754 42.237703 
L 405.047754 42.471091 
L 405.047754 36.10039 
L 402.186215 36.10039 
L 402.186215 36.290626 
L 399.324677 36.290626 
L 399.324677 36.483906 
L 399.324677 33.173207 
L 396.463138 33.173207 
L 396.463138 33.344285 
L 396.463138 29.953577 
L 393.6016 29.953577 
L 393.6016 30.100874 
L 390.740061 30.100874 
L 390.740061 30.250626 
L 387.878523 30.250626 
L 387.878523 30.402895 
L 385.016984 30.402895 
L 385.016984 30.557745 
L 382.155446 30.557745 
L 382.155446 30.715241 
L 379.293907 30.715241 
L 379.293907 30.875454 
L 376.432369 30.875454 
L 376.432369 31.038452 
L 373.57083 31.038452 
L 373.57083 31.20431 
L 373.57083 27.524608 
L 370.709292 27.524608 
L 370.709292 27.662055 
L 367.847754 27.662055 
L 367.847754 27.801977 
L 364.986215 27.801977 
L 364.986215 27.944444 
L 362.124677 27.944444 
L 362.124677 28.089525 
L 359.263138 28.089525 
L 359.263138 28.237293 
L 356.4016 28.237293 
L 356.4016 28.387822 
L 353.540061 28.387822 
L 353.540061 28.541192 
L 350.678523 28.541192 
L 350.678523 28.697483 
L 347.816984 28.697483 
L 347.816984 28.85678 
L 344.955446 28.85678 
L 344.955446 29.01917 
L 342.093907 29.01917 
L 342.093907 29.184744 
L 339.232369 29.184744 
L 339.232369 29.353596 
L 336.37083 29.353596 
L 336.37083 29.525826 
L 333.509292 29.525826 
L 333.509292 29.701535 
L 333.509292 21.097224 
L 327.786215 21.190626 
L 327.786215 21.285995 
L 327.786215 16.757009 
L 322.063138 16.806755 
L 322.063138 16.857583 
L 322.063138 12.130626 
L 61.663138 12.130626 
L 61.663138 12.130626 
" style="fill:none;stroke:#f2e2b8;stroke-linecap:round;stroke-width:1.5;"/>
   </g>
   <g id="line2d_33">
    <path clip-path="url(#p595df7bc4d)" d="M 508.063138 179.918973 
L 505.2016 179.918973 
L 505.2016 180.582168 
L 505.2016 175.210626 
L 502.340061 175.210626 
L 502.340061 175.870869 
L 502.340061 157.090626 
L 499.478523 157.090626 
L 499.478523 157.720887 
L 499.478523 156.457613 
L 496.616984 156.457613 
L 496.616984 157.090626 
L 496.616984 130.734262 
L 493.755446 130.734262 
L 493.755446 131.304472 
L 493.755446 121.927062 
L 490.893907 121.927062 
L 490.893907 122.473313 
L 490.893907 110.763203 
L 488.032369 110.763203 
L 488.032369 111.274253 
L 488.032369 100.501963 
L 485.17083 100.501963 
L 485.17083 100.977078 
L 482.309292 100.977078 
L 482.309292 101.457329 
L 482.309292 97.68079 
L 479.447754 97.68079 
L 479.447754 98.150846 
L 479.447754 94.274626 
L 476.586215 94.274626 
L 476.586215 94.733531 
L 473.724677 94.733531 
L 473.724677 95.197592 
L 473.724677 93.209948 
L 470.863138 93.209948 
L 470.863138 93.670626 
L 470.863138 79.035241 
L 468.0016 79.035241 
L 468.0016 79.433483 
L 468.0016 77.232423 
L 465.140061 77.232423 
L 465.140061 77.624602 
L 465.140061 75.385899 
L 462.278523 75.385899 
L 462.278523 75.771602 
L 462.278523 71.188404 
L 459.416984 71.188404 
L 459.416984 71.555222 
L 459.416984 66.832513 
L 456.555446 66.832513 
L 456.555446 67.178727 
L 456.555446 64.759416 
L 453.693907 64.759416 
L 453.693907 65.09678 
L 450.832369 65.09678 
L 450.832369 65.438497 
L 447.97083 65.438497 
L 447.97083 65.784652 
L 445.109292 65.784652 
L 445.109292 66.135332 
L 445.109292 61.090626 
L 442.247754 61.090626 
L 442.247754 61.417026 
L 442.247754 53.547769 
L 439.386215 53.547769 
L 439.386215 53.831448 
L 436.524677 53.831448 
L 436.524677 54.11904 
L 436.524677 51.390626 
L 433.663138 51.390626 
L 433.663138 51.665172 
L 433.663138 48.881049 
L 430.8016 48.881049 
L 430.8016 49.14169 
L 427.940061 49.14169 
L 427.940061 49.406055 
L 425.078523 49.406055 
L 425.078523 49.674223 
L 425.078523 46.794974 
L 422.216984 46.794974 
L 422.216984 47.047998 
L 419.355446 47.047998 
L 419.355446 47.304744 
L 416.493907 47.304744 
L 416.493907 47.565293 
L 416.493907 41.558596 
L 413.632369 41.558596 
L 413.632369 41.781535 
L 410.77083 41.781535 
L 410.77083 42.007878 
L 407.909292 42.007878 
L 407.909292 42.237703 
L 405.047754 42.237703 
L 405.047754 42.471091 
L 402.186215 42.471091 
L 402.186215 42.708126 
L 402.186215 36.290626 
L 399.324677 36.290626 
L 399.324677 36.483906 
L 396.463138 36.483906 
L 396.463138 36.680304 
L 393.6016 36.680304 
L 393.6016 36.879894 
L 390.740061 36.879894 
L 390.740061 37.082757 
L 387.878523 37.082757 
L 387.878523 37.288973 
L 387.878523 30.402895 
L 385.016984 30.402895 
L 385.016984 30.557745 
L 382.155446 30.557745 
L 382.155446 30.715241 
L 379.293907 30.715241 
L 379.293907 30.875454 
L 376.432369 30.875454 
L 376.432369 31.038452 
L 373.57083 31.038452 
L 373.57083 31.20431 
L 370.709292 31.20431 
L 370.709292 31.373104 
L 367.847754 31.373104 
L 367.847754 31.544912 
L 364.986215 31.544912 
L 364.986215 31.719815 
L 364.986215 27.944444 
L 362.124677 27.944444 
L 362.124677 28.089525 
L 359.263138 28.089525 
L 359.263138 28.237293 
L 356.4016 28.237293 
L 356.4016 28.387822 
L 353.540061 28.387822 
L 353.540061 28.541192 
L 350.678523 28.541192 
L 350.678523 28.697483 
L 347.816984 28.697483 
L 347.816984 28.85678 
L 344.955446 28.85678 
L 344.955446 29.01917 
L 342.093907 29.01917 
L 342.093907 29.184744 
L 339.232369 29.184744 
L 339.232369 29.353596 
L 336.37083 29.353596 
L 336.37083 29.525826 
L 333.509292 29.525826 
L 333.509292 29.701535 
L 330.647754 29.701535 
L 330.647754 29.88083 
L 330.647754 25.580523 
L 327.786215 25.580523 
L 327.786215 25.720626 
L 324.924677 25.720626 
L 324.924677 25.863679 
L 324.924677 12.130626 
L 61.663138 12.130626 
L 61.663138 12.130626 
" style="fill:none;stroke:#e0c481;stroke-linecap:round;stroke-width:1.5;"/>
   </g>
   <g id="line2d_34">
    <path clip-path="url(#p595df7bc4d)" d="M 508.063138 175.645506 
L 505.2016 175.645506 
L 505.2016 176.302192 
L 505.2016 170.754888 
L 502.340061 170.754888 
L 502.340061 171.407663 
L 502.340061 159.57921 
L 499.478523 159.57921 
L 499.478523 160.214764 
L 499.478523 153.897675 
L 496.616984 153.897675 
L 496.616984 154.524962 
L 496.616984 132.24034 
L 493.755446 132.24034 
L 493.755446 132.815028 
L 493.755446 123.528459 
L 490.893907 123.528459 
L 490.893907 124.079933 
L 490.893907 115.883723 
L 488.032369 115.883723 
L 488.032369 116.413075 
L 488.032369 102.345094 
L 485.17083 102.345094 
L 485.17083 102.827524 
L 485.17083 99.106626 
L 482.309292 99.106626 
L 482.309292 99.579322 
L 482.309292 97.68079 
L 479.447754 97.68079 
L 479.447754 98.150846 
L 476.586215 98.150846 
L 476.586215 98.626096 
L 473.724677 98.626096 
L 473.724677 99.106626 
L 473.724677 91.199717 
L 470.863138 91.199717 
L 470.863138 91.65154 
L 468.0016 91.65154 
L 468.0016 92.108557 
L 468.0016 79.433483 
L 465.140061 79.433483 
L 465.140061 79.836494 
L 462.278523 79.836494 
L 462.278523 80.244361 
L 462.278523 78.021535 
L 459.416984 78.021535 
L 459.416984 78.423309 
L 459.416984 76.162037 
L 456.555446 76.162037 
L 456.555446 76.557293 
L 456.555446 74.25634 
L 453.693907 74.25634 
L 453.693907 74.644626 
L 450.832369 74.644626 
L 450.832369 75.037796 
L 450.832369 72.683537 
L 447.97083 72.683537 
L 447.97083 73.069225 
L 447.97083 65.784652 
L 445.109292 65.784652 
L 445.109292 66.135332 
L 445.109292 63.629573 
L 442.247754 63.629573 
L 442.247754 63.970626 
L 442.247754 58.82915 
L 439.386215 58.82915 
L 439.386215 59.14468 
L 439.386215 56.506136 
L 436.524677 56.506136 
L 436.524677 56.810078 
L 436.524677 54.11904 
L 433.663138 54.11904 
L 433.663138 54.410626 
L 433.663138 51.665172 
L 430.8016 51.665172 
L 430.8016 51.943584 
L 427.940061 51.943584 
L 427.940061 52.225945 
L 427.940061 49.406055 
L 425.078523 49.406055 
L 425.078523 49.674223 
L 422.216984 49.674223 
L 422.216984 49.946278 
L 422.216984 47.047998 
L 419.355446 47.047998 
L 419.355446 47.304744 
L 416.493907 47.304744 
L 416.493907 47.565293 
L 416.493907 44.584357 
L 413.632369 44.584357 
L 413.632369 44.82837 
L 413.632369 41.781535 
L 410.77083 41.781535 
L 410.77083 42.007878 
L 407.909292 42.007878 
L 407.909292 42.237703 
L 405.047754 42.237703 
L 405.047754 42.471091 
L 402.186215 42.471091 
L 402.186215 42.708126 
L 399.324677 42.708126 
L 399.324677 42.948894 
L 396.463138 42.948894 
L 396.463138 43.193483 
L 393.6016 43.193483 
L 393.6016 43.441986 
L 390.740061 43.441986 
L 390.740061 43.694497 
L 390.740061 40.415504 
L 387.878523 40.415504 
L 387.878523 40.647347 
L 387.878523 37.288973 
L 385.016984 37.288973 
L 385.016984 37.498626 
L 385.016984 30.557745 
L 382.155446 30.557745 
L 382.155446 30.715241 
L 379.293907 30.715241 
L 379.293907 30.875454 
L 376.432369 30.875454 
L 376.432369 31.038452 
L 373.57083 31.038452 
L 373.57083 31.20431 
L 370.709292 31.20431 
L 370.709292 31.373104 
L 367.847754 31.373104 
L 367.847754 31.544912 
L 364.986215 31.544912 
L 364.986215 31.719815 
L 362.124677 31.719815 
L 362.124677 31.897899 
L 362.124677 28.089525 
L 359.263138 28.089525 
L 359.263138 28.237293 
L 356.4016 28.237293 
L 356.4016 28.387822 
L 353.540061 28.387822 
L 353.540061 28.541192 
L 350.678523 28.541192 
L 350.678523 28.697483 
L 347.816984 28.697483 
L 347.816984 28.85678 
L 344.955446 28.85678 
L 344.955446 29.01917 
L 342.093907 29.01917 
L 342.093907 29.184744 
L 339.232369 29.184744 
L 339.232369 29.353596 
L 336.37083 29.353596 
L 336.37083 29.525826 
L 333.509292 29.525826 
L 333.509292 29.701535 
L 330.647754 29.701535 
L 330.647754 29.88083 
L 327.786215 29.88083 
L 327.786215 30.063822 
L 327.786215 25.720626 
L 324.924677 25.720626 
L 324.924677 25.863679 
L 324.924677 16.806755 
L 322.063138 16.806755 
L 322.063138 16.857583 
L 322.063138 12.130626 
L 61.663138 12.130626 
L 61.663138 12.130626 
" style="fill:none;stroke:#c99546;stroke-linecap:round;stroke-width:1.5;"/>
   </g>
   <g id="line2d_35">
    <path clip-path="url(#p595df7bc4d)" d="M 508.063138 173.457078 
L 505.2016 173.457078 
L 505.2016 174.110221 
L 505.2016 168.471783 
L 502.340061 168.471783 
L 502.340061 169.120502 
L 502.340061 159.57921 
L 499.478523 159.57921 
L 499.478523 160.214764 
L 499.478523 153.897675 
L 496.616984 153.897675 
L 496.616984 154.524962 
L 496.616984 133.732143 
L 493.755446 133.732143 
L 493.755446 134.311198 
L 493.755446 125.114156 
L 490.893907 125.114156 
L 490.893907 125.670725 
L 490.893907 114.1943 
L 488.032369 114.1943 
L 488.032369 114.717703 
L 488.032369 111.274253 
L 485.17083 111.274253 
L 485.17083 111.790626 
L 485.17083 106.469674 
L 482.309292 106.469674 
L 482.309292 106.971477 
L 482.309292 99.579322 
L 479.447754 99.579322 
L 479.447754 100.057183 
L 479.447754 98.150846 
L 476.586215 98.150846 
L 476.586215 98.626096 
L 476.586215 96.690626 
L 473.724677 96.690626 
L 473.724677 97.163028 
L 470.863138 97.163028 
L 470.863138 97.640738 
L 470.863138 85.453417 
L 468.0016 85.453417 
L 468.0016 85.882205 
L 468.0016 83.75792 
L 465.140061 83.75792 
L 465.140061 84.18175 
L 462.278523 84.18175 
L 462.278523 84.610626 
L 462.278523 82.440566 
L 459.416984 82.440566 
L 459.416984 82.86412 
L 459.416984 78.423309 
L 456.555446 78.423309 
L 456.555446 78.830013 
L 456.555446 76.557293 
L 453.693907 76.557293 
L 453.693907 76.957458 
L 450.832369 76.957458 
L 450.832369 77.362626 
L 450.832369 72.683537 
L 447.97083 72.683537 
L 447.97083 73.069225 
L 447.97083 70.672165 
L 445.109292 70.672165 
L 445.109292 71.049852 
L 445.109292 63.629573 
L 442.247754 63.629573 
L 442.247754 63.970626 
L 442.247754 58.82915 
L 439.386215 58.82915 
L 439.386215 59.14468 
L 436.524677 59.14468 
L 436.524677 59.464504 
L 433.663138 59.464504 
L 433.663138 59.788708 
L 430.8016 59.788708 
L 430.8016 60.117385 
L 427.940061 60.117385 
L 427.940061 60.450626 
L 427.940061 55.006119 
L 425.078523 55.006119 
L 425.078523 55.310201 
L 425.078523 52.51234 
L 422.216984 52.51234 
L 422.216984 52.802856 
L 419.355446 52.802856 
L 419.355446 53.097583 
L 419.355446 44.343959 
L 416.493907 44.343959 
L 416.493907 44.584357 
L 416.493907 41.558596 
L 413.632369 41.558596 
L 413.632369 41.781535 
L 410.77083 41.781535 
L 410.77083 42.007878 
L 407.909292 42.007878 
L 407.909292 42.237703 
L 405.047754 42.237703 
L 405.047754 42.471091 
L 402.186215 42.471091 
L 402.186215 42.708126 
L 399.324677 42.708126 
L 399.324677 42.948894 
L 396.463138 42.948894 
L 396.463138 43.193483 
L 393.6016 43.193483 
L 393.6016 43.441986 
L 390.740061 43.441986 
L 390.740061 43.694497 
L 387.878523 43.694497 
L 387.878523 43.951114 
L 387.878523 40.647347 
L 385.016984 40.647347 
L 385.016984 40.883023 
L 385.016984 37.498626 
L 382.155446 37.498626 
L 382.155446 37.711803 
L 382.155446 30.715241 
L 379.293907 30.715241 
L 379.293907 30.875454 
L 376.432369 30.875454 
L 376.432369 31.038452 
L 373.57083 31.038452 
L 373.57083 31.20431 
L 370.709292 31.20431 
L 370.709292 31.373104 
L 367.847754 31.373104 
L 367.847754 31.544912 
L 364.986215 31.544912 
L 364.986215 31.719815 
L 362.124677 31.719815 
L 362.124677 31.897899 
L 362.124677 28.089525 
L 359.263138 28.089525 
L 359.263138 28.237293 
L 356.4016 28.237293 
L 356.4016 28.387822 
L 353.540061 28.387822 
L 353.540061 28.541192 
L 350.678523 28.541192 
L 350.678523 28.697483 
L 347.816984 28.697483 
L 347.816984 28.85678 
L 344.955446 28.85678 
L 344.955446 29.01917 
L 342.093907 29.01917 
L 342.093907 29.184744 
L 339.232369 29.184744 
L 339.232369 29.353596 
L 339.232369 25.177026 
L 336.37083 25.177026 
L 336.37083 25.308808 
L 333.509292 25.308808 
L 333.509292 25.443279 
L 330.647754 25.443279 
L 330.647754 25.580523 
L 327.786215 25.580523 
L 327.786215 25.720626 
L 324.924677 25.720626 
L 324.924677 25.863679 
L 324.924677 21.383392 
L 319.2016 21.482884 
L 319.2016 21.584539 
L 319.2016 12.130626 
L 61.663138 12.130626 
L 61.663138 12.130626 
" style="fill:none;stroke:#a76a1d;stroke-linecap:round;stroke-width:1.5;"/>
   </g>
   <g id="line2d_36">
    <path clip-path="url(#p595df7bc4d)" d="M 508.063138 170.107442 
L 505.2016 170.107442 
L 505.2016 170.754888 
L 505.2016 164.97548 
L 502.340061 164.97548 
L 502.340061 165.617685 
L 502.340061 162.025435 
L 499.478523 162.025435 
L 499.478523 162.666011 
L 499.478523 152.600715 
L 496.616984 152.600715 
L 496.616984 153.225026 
L 496.616984 136.673725 
L 493.755446 136.673725 
L 493.755446 137.261192 
L 493.755446 125.114156 
L 490.893907 125.114156 
L 490.893907 125.670725 
L 490.893907 112.487549 
L 488.032369 112.487549 
L 488.032369 113.004853 
L 485.17083 113.004853 
L 485.17083 113.527517 
L 482.309292 113.527517 
L 482.309292 114.055626 
L 482.309292 105.153086 
L 479.447754 105.153086 
L 479.447754 105.653207 
L 479.447754 101.9428 
L 476.586215 101.9428 
L 476.586215 102.433577 
L 476.586215 98.626096 
L 473.724677 98.626096 
L 473.724677 99.106626 
L 470.863138 99.106626 
L 470.863138 99.592526 
L 470.863138 87.543343 
L 468.0016 87.543343 
L 468.0016 87.981789 
L 468.0016 83.75792 
L 465.140061 83.75792 
L 465.140061 84.18175 
L 462.278523 84.18175 
L 462.278523 84.610626 
L 459.416984 84.610626 
L 459.416984 85.044638 
L 459.416984 80.657172 
L 456.555446 80.657172 
L 456.555446 81.075016 
L 456.555446 76.557293 
L 453.693907 76.557293 
L 453.693907 76.957458 
L 450.832369 76.957458 
L 450.832369 77.362626 
L 450.832369 72.683537 
L 447.97083 72.683537 
L 447.97083 73.069225 
L 445.109292 73.069225 
L 445.109292 73.459857 
L 445.109292 63.629573 
L 442.247754 63.629573 
L 442.247754 63.970626 
L 442.247754 58.82915 
L 439.386215 58.82915 
L 439.386215 59.14468 
L 436.524677 59.14468 
L 436.524677 59.464504 
L 433.663138 59.464504 
L 433.663138 59.788708 
L 430.8016 59.788708 
L 430.8016 60.117385 
L 427.940061 60.117385 
L 427.940061 60.450626 
L 425.078523 60.450626 
L 425.078523 60.788528 
L 425.078523 58.068654 
L 422.216984 58.068654 
L 422.216984 58.394456 
L 422.216984 55.618626 
L 419.355446 55.618626 
L 419.355446 55.931489 
L 419.355446 50.222305 
L 416.493907 50.222305 
L 416.493907 50.502391 
L 416.493907 41.558596 
L 413.632369 41.558596 
L 413.632369 41.781535 
L 410.77083 41.781535 
L 410.77083 42.007878 
L 407.909292 42.007878 
L 407.909292 42.237703 
L 405.047754 42.237703 
L 405.047754 42.471091 
L 402.186215 42.471091 
L 402.186215 42.708126 
L 399.324677 42.708126 
L 399.324677 42.948894 
L 396.463138 42.948894 
L 396.463138 43.193483 
L 393.6016 43.193483 
L 393.6016 43.441986 
L 390.740061 43.441986 
L 390.740061 43.694497 
L 387.878523 43.694497 
L 387.878523 43.951114 
L 387.878523 40.647347 
L 385.016984 40.647347 
L 385.016984 40.883023 
L 382.155446 40.883023 
L 382.155446 41.122626 
L 379.293907 41.122626 
L 379.293907 41.366256 
L 379.293907 30.875454 
L 376.432369 30.875454 
L 376.432369 31.038452 
L 373.57083 31.038452 
L 373.57083 31.20431 
L 370.709292 31.20431 
L 370.709292 31.373104 
L 367.847754 31.373104 
L 367.847754 31.544912 
L 364.986215 31.544912 
L 364.986215 31.719815 
L 362.124677 31.719815 
L 362.124677 31.897899 
L 359.263138 31.897899 
L 359.263138 32.07925 
L 356.4016 32.07925 
L 356.4016 32.263959 
L 353.540061 32.263959 
L 353.540061 32.452121 
L 353.540061 28.541192 
L 350.678523 28.541192 
L 350.678523 28.697483 
L 347.816984 28.697483 
L 347.816984 28.85678 
L 344.955446 28.85678 
L 344.955446 29.01917 
L 344.955446 24.921214 
L 342.093907 24.921214 
L 342.093907 25.047854 
L 339.232369 25.047854 
L 339.232369 25.177026 
L 336.37083 25.177026 
L 336.37083 25.308808 
L 333.509292 25.308808 
L 333.509292 25.443279 
L 330.647754 25.443279 
L 330.647754 25.580523 
L 327.786215 25.580523 
L 327.786215 25.720626 
L 327.786215 21.285995 
L 322.063138 21.383392 
L 322.063138 21.482884 
L 316.340061 21.584539 
L 316.340061 21.688428 
L 316.340061 12.130626 
L 61.663138 12.130626 
L 61.663138 12.130626 
" style="fill:none;stroke:#7e4909;stroke-linecap:round;stroke-width:1.5;"/>
   </g>
   <g id="patch_3">
    <path d="M 61.663138 447.010626 
L 61.663138 12.130626 
" style="fill:none;stroke:#262626;stroke-linecap:square;stroke-linejoin:miter;stroke-width:1.25;"/>
   </g>
   <g id="patch_4">
    <path d="M 508.063138 447.010626 
L 508.063138 12.130626 
" style="fill:none;stroke:#262626;stroke-linecap:square;stroke-linejoin:miter;stroke-width:1.25;"/>
   </g>
   <g id="patch_5">
    <path d="M 61.663138 447.010626 
L 508.063138 447.010626 
" style="fill:none;stroke:#262626;stroke-linecap:square;stroke-linejoin:miter;stroke-width:1.25;"/>
   </g>
   <g id="patch_6">
    <path d="M 61.663138 12.130626 
L 508.063138 12.130626 
" style="fill:none;stroke:#262626;stroke-linecap:square;stroke-linejoin:miter;stroke-width:1.25;"/>
   </g>
   <g id="legend_1">
    <g id="patch_7">
     <path d="M 70.763138 440.510626 
L 178.764701 440.510626 
Q 181.364701 440.510626 181.364701 437.910626 
L 181.364701 189.795376 
Q 181.364701 187.195376 178.764701 187.195376 
L 70.763138 187.195376 
Q 68.163138 187.195376 68.163138 189.795376 
L 68.163138 437.910626 
Q 68.163138 440.510626 70.763138 440.510626 
z
" style="fill:#ffffff;opacity:0.8;stroke:#cccccc;stroke-linejoin:miter;"/>
    </g>
    <g id="text_15">
     <!-- Age : AUPRC -->
     <g style="fill:#262626;" transform="translate(79.628919 203.337126)scale(0.144 -0.144)">
      <defs>
       <path d="M 2188 4044 
L 1331 1722 
L 3047 1722 
L 2188 4044 
z
M 1831 4666 
L 2547 4666 
L 4325 0 
L 3669 0 
L 3244 1197 
L 1141 1197 
L 716 0 
L 50 0 
L 1831 4666 
z
" id="DejaVuSans-41" transform="scale(0.015625)"/>
       <path d="M 2906 1791 
Q 2906 2416 2648 2759 
Q 2391 3103 1925 3103 
Q 1463 3103 1205 2759 
Q 947 2416 947 1791 
Q 947 1169 1205 825 
Q 1463 481 1925 481 
Q 2391 481 2648 825 
Q 2906 1169 2906 1791 
z
M 3481 434 
Q 3481 -459 3084 -895 
Q 2688 -1331 1869 -1331 
Q 1566 -1331 1297 -1286 
Q 1028 -1241 775 -1147 
L 775 -588 
Q 1028 -725 1275 -790 
Q 1522 -856 1778 -856 
Q 2344 -856 2625 -561 
Q 2906 -266 2906 331 
L 2906 616 
Q 2728 306 2450 153 
Q 2172 0 1784 0 
Q 1141 0 747 490 
Q 353 981 353 1791 
Q 353 2603 747 3093 
Q 1141 3584 1784 3584 
Q 2172 3584 2450 3431 
Q 2728 3278 2906 2969 
L 2906 3500 
L 3481 3500 
L 3481 434 
z
" id="DejaVuSans-67" transform="scale(0.015625)"/>
       <path id="DejaVuSans-20" transform="scale(0.015625)"/>
       <path d="M 750 794 
L 1409 794 
L 1409 0 
L 750 0 
L 750 794 
z
M 750 3309 
L 1409 3309 
L 1409 2516 
L 750 2516 
L 750 3309 
z
" id="DejaVuSans-3a" transform="scale(0.015625)"/>
       <path d="M 556 4666 
L 1191 4666 
L 1191 1831 
Q 1191 1081 1462 751 
Q 1734 422 2344 422 
Q 2950 422 3222 751 
Q 3494 1081 3494 1831 
L 3494 4666 
L 4128 4666 
L 4128 1753 
Q 4128 841 3676 375 
Q 3225 -91 2344 -91 
Q 1459 -91 1007 375 
Q 556 841 556 1753 
L 556 4666 
z
" id="DejaVuSans-55" transform="scale(0.015625)"/>
       <path d="M 4122 4306 
L 4122 3641 
Q 3803 3938 3442 4084 
Q 3081 4231 2675 4231 
Q 1875 4231 1450 3742 
Q 1025 3253 1025 2328 
Q 1025 1406 1450 917 
Q 1875 428 2675 428 
Q 3081 428 3442 575 
Q 3803 722 4122 1019 
L 4122 359 
Q 3791 134 3420 21 
Q 3050 -91 2638 -91 
Q 1578 -91 968 557 
Q 359 1206 359 2328 
Q 359 3453 968 4101 
Q 1578 4750 2638 4750 
Q 3056 4750 3426 4639 
Q 3797 4528 4122 4306 
z
" id="DejaVuSans-43" transform="scale(0.015625)"/>
      </defs>
      <use xlink:href="#DejaVuSans-41"/>
      <use x="68.408203" xlink:href="#DejaVuSans-67"/>
      <use x="131.884766" xlink:href="#DejaVuSans-65"/>
      <use x="193.408203" xlink:href="#DejaVuSans-20"/>
      <use x="225.195312" xlink:href="#DejaVuSans-3a"/>
      <use x="258.886719" xlink:href="#DejaVuSans-20"/>
      <use x="290.673828" xlink:href="#DejaVuSans-41"/>
      <use x="359.082031" xlink:href="#DejaVuSans-55"/>
      <use x="432.275391" xlink:href="#DejaVuSans-50"/>
      <use x="492.578125" xlink:href="#DejaVuSans-52"/>
      <use x="557.060547" xlink:href="#DejaVuSans-43"/>
     </g>
    </g>
    <g id="line2d_37">
     <path d="M 73.363138 218.159845 
L 99.363138 218.159845 
" style="fill:none;stroke:#015b52;stroke-linecap:round;stroke-width:1.5;"/>
    </g>
    <g id="line2d_38"/>
    <g id="text_16">
     <!-- 20 : 0.960 -->
     <g style="fill:#262626;" transform="translate(109.763138 222.709845)scale(0.13 -0.13)">
      <defs>
       <path d="M 703 97 
L 703 672 
Q 941 559 1184 500 
Q 1428 441 1663 441 
Q 2288 441 2617 861 
Q 2947 1281 2994 2138 
Q 2813 1869 2534 1725 
Q 2256 1581 1919 1581 
Q 1219 1581 811 2004 
Q 403 2428 403 3163 
Q 403 3881 828 4315 
Q 1253 4750 1959 4750 
Q 2769 4750 3195 4129 
Q 3622 3509 3622 2328 
Q 3622 1225 3098 567 
Q 2575 -91 1691 -91 
Q 1453 -91 1209 -44 
Q 966 3 703 97 
z
M 1959 2075 
Q 2384 2075 2632 2365 
Q 2881 2656 2881 3163 
Q 2881 3666 2632 3958 
Q 2384 4250 1959 4250 
Q 1534 4250 1286 3958 
Q 1038 3666 1038 3163 
Q 1038 2656 1286 2365 
Q 1534 2075 1959 2075 
z
" id="DejaVuSans-39" transform="scale(0.015625)"/>
      </defs>
      <use xlink:href="#DejaVuSans-32"/>
      <use x="63.623047" xlink:href="#DejaVuSans-30"/>
      <use x="127.246094" xlink:href="#DejaVuSans-20"/>
      <use x="159.033203" xlink:href="#DejaVuSans-3a"/>
      <use x="192.724609" xlink:href="#DejaVuSans-20"/>
      <use x="224.511719" xlink:href="#DejaVuSans-30"/>
      <use x="288.134766" xlink:href="#DejaVuSans-2e"/>
      <use x="319.921875" xlink:href="#DejaVuSans-39"/>
      <use x="383.544922" xlink:href="#DejaVuSans-36"/>
      <use x="447.167969" xlink:href="#DejaVuSans-30"/>
     </g>
    </g>
    <g id="line2d_39">
     <path d="M 73.363138 237.241407 
L 99.363138 237.241407 
" style="fill:none;stroke:#1d8078;stroke-linecap:round;stroke-width:1.5;"/>
    </g>
    <g id="line2d_40"/>
    <g id="text_17">
     <!-- 25 : 0.960 -->
     <g style="fill:#262626;" transform="translate(109.763138 241.791407)scale(0.13 -0.13)">
      <defs>
       <path d="M 691 4666 
L 3169 4666 
L 3169 4134 
L 1269 4134 
L 1269 2991 
Q 1406 3038 1543 3061 
Q 1681 3084 1819 3084 
Q 2600 3084 3056 2656 
Q 3513 2228 3513 1497 
Q 3513 744 3044 326 
Q 2575 -91 1722 -91 
Q 1428 -91 1123 -41 
Q 819 9 494 109 
L 494 744 
Q 775 591 1075 516 
Q 1375 441 1709 441 
Q 2250 441 2565 725 
Q 2881 1009 2881 1497 
Q 2881 1984 2565 2268 
Q 2250 2553 1709 2553 
Q 1456 2553 1204 2497 
Q 953 2441 691 2322 
L 691 4666 
z
" id="DejaVuSans-35" transform="scale(0.015625)"/>
      </defs>
      <use xlink:href="#DejaVuSans-32"/>
      <use x="63.623047" xlink:href="#DejaVuSans-35"/>
      <use x="127.246094" xlink:href="#DejaVuSans-20"/>
      <use x="159.033203" xlink:href="#DejaVuSans-3a"/>
      <use x="192.724609" xlink:href="#DejaVuSans-20"/>
      <use x="224.511719" xlink:href="#DejaVuSans-30"/>
      <use x="288.134766" xlink:href="#DejaVuSans-2e"/>
      <use x="319.921875" xlink:href="#DejaVuSans-39"/>
      <use x="383.544922" xlink:href="#DejaVuSans-36"/>
      <use x="447.167969" xlink:href="#DejaVuSans-30"/>
     </g>
    </g>
    <g id="line2d_41">
     <path d="M 73.363138 256.32297 
L 99.363138 256.32297 
" style="fill:none;stroke:#4da89f;stroke-linecap:round;stroke-width:1.5;"/>
    </g>
    <g id="line2d_42"/>
    <g id="text_18">
     <!-- 30 : 0.960 -->
     <g style="fill:#262626;" transform="translate(109.763138 260.87297)scale(0.13 -0.13)">
      <defs>
       <path d="M 2597 2516 
Q 3050 2419 3304 2112 
Q 3559 1806 3559 1356 
Q 3559 666 3084 287 
Q 2609 -91 1734 -91 
Q 1441 -91 1130 -33 
Q 819 25 488 141 
L 488 750 
Q 750 597 1062 519 
Q 1375 441 1716 441 
Q 2309 441 2620 675 
Q 2931 909 2931 1356 
Q 2931 1769 2642 2001 
Q 2353 2234 1838 2234 
L 1294 2234 
L 1294 2753 
L 1863 2753 
Q 2328 2753 2575 2939 
Q 2822 3125 2822 3475 
Q 2822 3834 2567 4026 
Q 2313 4219 1838 4219 
Q 1578 4219 1281 4162 
Q 984 4106 628 3988 
L 628 4550 
Q 988 4650 1302 4700 
Q 1616 4750 1894 4750 
Q 2613 4750 3031 4423 
Q 3450 4097 3450 3541 
Q 3450 3153 3228 2886 
Q 3006 2619 2597 2516 
z
" id="DejaVuSans-33" transform="scale(0.015625)"/>
      </defs>
      <use xlink:href="#DejaVuSans-33"/>
      <use x="63.623047" xlink:href="#DejaVuSans-30"/>
      <use x="127.246094" xlink:href="#DejaVuSans-20"/>
      <use x="159.033203" xlink:href="#DejaVuSans-3a"/>
      <use x="192.724609" xlink:href="#DejaVuSans-20"/>
      <use x="224.511719" xlink:href="#DejaVuSans-30"/>
      <use x="288.134766" xlink:href="#DejaVuSans-2e"/>
      <use x="319.921875" xlink:href="#DejaVuSans-39"/>
      <use x="383.544922" xlink:href="#DejaVuSans-36"/>
      <use x="447.167969" xlink:href="#DejaVuSans-30"/>
     </g>
    </g>
    <g id="line2d_43">
     <path d="M 73.363138 275.404532 
L 99.363138 275.404532 
" style="fill:none;stroke:#84cfc3;stroke-linecap:round;stroke-width:1.5;"/>
    </g>
    <g id="line2d_44"/>
    <g id="text_19">
     <!-- 35 : 0.961 -->
     <g style="fill:#262626;" transform="translate(109.763138 279.954532)scale(0.13 -0.13)">
      <use xlink:href="#DejaVuSans-33"/>
      <use x="63.623047" xlink:href="#DejaVuSans-35"/>
      <use x="127.246094" xlink:href="#DejaVuSans-20"/>
      <use x="159.033203" xlink:href="#DejaVuSans-3a"/>
      <use x="192.724609" xlink:href="#DejaVuSans-20"/>
      <use x="224.511719" xlink:href="#DejaVuSans-30"/>
      <use x="288.134766" xlink:href="#DejaVuSans-2e"/>
      <use x="319.921875" xlink:href="#DejaVuSans-39"/>
      <use x="383.544922" xlink:href="#DejaVuSans-36"/>
      <use x="447.167969" xlink:href="#DejaVuSans-31"/>
     </g>
    </g>
    <g id="line2d_45">
     <path d="M 73.363138 294.486095 
L 99.363138 294.486095 
" style="fill:none;stroke:#bce5df;stroke-linecap:round;stroke-width:1.5;"/>
    </g>
    <g id="line2d_46"/>
    <g id="text_20">
     <!-- 40 : 0.962 -->
     <g style="fill:#262626;" transform="translate(109.763138 299.036095)scale(0.13 -0.13)">
      <use xlink:href="#DejaVuSans-34"/>
      <use x="63.623047" xlink:href="#DejaVuSans-30"/>
      <use x="127.246094" xlink:href="#DejaVuSans-20"/>
      <use x="159.033203" xlink:href="#DejaVuSans-3a"/>
      <use x="192.724609" xlink:href="#DejaVuSans-20"/>
      <use x="224.511719" xlink:href="#DejaVuSans-30"/>
      <use x="288.134766" xlink:href="#DejaVuSans-2e"/>
      <use x="319.921875" xlink:href="#DejaVuSans-39"/>
      <use x="383.544922" xlink:href="#DejaVuSans-36"/>
      <use x="447.167969" xlink:href="#DejaVuSans-32"/>
     </g>
    </g>
    <g id="line2d_47">
     <path d="M 73.363138 313.567657 
L 99.363138 313.567657 
" style="fill:none;stroke:#e4f1ef;stroke-linecap:round;stroke-width:1.5;"/>
    </g>
    <g id="line2d_48"/>
    <g id="text_21">
     <!-- 45 : 0.961 -->
     <g style="fill:#262626;" transform="translate(109.763138 318.117657)scale(0.13 -0.13)">
      <use xlink:href="#DejaVuSans-34"/>
      <use x="63.623047" xlink:href="#DejaVuSans-35"/>
      <use x="127.246094" xlink:href="#DejaVuSans-20"/>
      <use x="159.033203" xlink:href="#DejaVuSans-3a"/>
      <use x="192.724609" xlink:href="#DejaVuSans-20"/>
      <use x="224.511719" xlink:href="#DejaVuSans-30"/>
      <use x="288.134766" xlink:href="#DejaVuSans-2e"/>
      <use x="319.921875" xlink:href="#DejaVuSans-39"/>
      <use x="383.544922" xlink:href="#DejaVuSans-36"/>
      <use x="447.167969" xlink:href="#DejaVuSans-31"/>
     </g>
    </g>
    <g id="line2d_49">
     <path d="M 73.363138 332.64922 
L 99.363138 332.64922 
" style="fill:none;stroke:#f5f0e2;stroke-linecap:round;stroke-width:1.5;"/>
    </g>
    <g id="line2d_50"/>
    <g id="text_22">
     <!-- 50 : 0.959 -->
     <g style="fill:#262626;" transform="translate(109.763138 337.19922)scale(0.13 -0.13)">
      <use xlink:href="#DejaVuSans-35"/>
      <use x="63.623047" xlink:href="#DejaVuSans-30"/>
      <use x="127.246094" xlink:href="#DejaVuSans-20"/>
      <use x="159.033203" xlink:href="#DejaVuSans-3a"/>
      <use x="192.724609" xlink:href="#DejaVuSans-20"/>
      <use x="224.511719" xlink:href="#DejaVuSans-30"/>
      <use x="288.134766" xlink:href="#DejaVuSans-2e"/>
      <use x="319.921875" xlink:href="#DejaVuSans-39"/>
      <use x="383.544922" xlink:href="#DejaVuSans-35"/>
      <use x="447.167969" xlink:href="#DejaVuSans-39"/>
     </g>
    </g>
    <g id="line2d_51">
     <path d="M 73.363138 351.730782 
L 99.363138 351.730782 
" style="fill:none;stroke:#f2e2b8;stroke-linecap:round;stroke-width:1.5;"/>
    </g>
    <g id="line2d_52"/>
    <g id="text_23">
     <!-- 55 : 0.958 -->
     <g style="fill:#262626;" transform="translate(109.763138 356.280782)scale(0.13 -0.13)">
      <use xlink:href="#DejaVuSans-35"/>
      <use x="63.623047" xlink:href="#DejaVuSans-35"/>
      <use x="127.246094" xlink:href="#DejaVuSans-20"/>
      <use x="159.033203" xlink:href="#DejaVuSans-3a"/>
      <use x="192.724609" xlink:href="#DejaVuSans-20"/>
      <use x="224.511719" xlink:href="#DejaVuSans-30"/>
      <use x="288.134766" xlink:href="#DejaVuSans-2e"/>
      <use x="319.921875" xlink:href="#DejaVuSans-39"/>
      <use x="383.544922" xlink:href="#DejaVuSans-35"/>
      <use x="447.167969" xlink:href="#DejaVuSans-38"/>
     </g>
    </g>
    <g id="line2d_53">
     <path d="M 73.363138 370.812345 
L 99.363138 370.812345 
" style="fill:none;stroke:#e0c481;stroke-linecap:round;stroke-width:1.5;"/>
    </g>
    <g id="line2d_54"/>
    <g id="text_24">
     <!-- 60 : 0.956 -->
     <g style="fill:#262626;" transform="translate(109.763138 375.362345)scale(0.13 -0.13)">
      <use xlink:href="#DejaVuSans-36"/>
      <use x="63.623047" xlink:href="#DejaVuSans-30"/>
      <use x="127.246094" xlink:href="#DejaVuSans-20"/>
      <use x="159.033203" xlink:href="#DejaVuSans-3a"/>
      <use x="192.724609" xlink:href="#DejaVuSans-20"/>
      <use x="224.511719" xlink:href="#DejaVuSans-30"/>
      <use x="288.134766" xlink:href="#DejaVuSans-2e"/>
      <use x="319.921875" xlink:href="#DejaVuSans-39"/>
      <use x="383.544922" xlink:href="#DejaVuSans-35"/>
      <use x="447.167969" xlink:href="#DejaVuSans-36"/>
     </g>
    </g>
    <g id="line2d_55">
     <path d="M 73.363138 389.893907 
L 99.363138 389.893907 
" style="fill:none;stroke:#c99546;stroke-linecap:round;stroke-width:1.5;"/>
    </g>
    <g id="line2d_56"/>
    <g id="text_25">
     <!-- 65 : 0.953 -->
     <g style="fill:#262626;" transform="translate(109.763138 394.443907)scale(0.13 -0.13)">
      <use xlink:href="#DejaVuSans-36"/>
      <use x="63.623047" xlink:href="#DejaVuSans-35"/>
      <use x="127.246094" xlink:href="#DejaVuSans-20"/>
      <use x="159.033203" xlink:href="#DejaVuSans-3a"/>
      <use x="192.724609" xlink:href="#DejaVuSans-20"/>
      <use x="224.511719" xlink:href="#DejaVuSans-30"/>
      <use x="288.134766" xlink:href="#DejaVuSans-2e"/>
      <use x="319.921875" xlink:href="#DejaVuSans-39"/>
      <use x="383.544922" xlink:href="#DejaVuSans-35"/>
      <use x="447.167969" xlink:href="#DejaVuSans-33"/>
     </g>
    </g>
    <g id="line2d_57">
     <path d="M 73.363138 408.97547 
L 99.363138 408.97547 
" style="fill:none;stroke:#a76a1d;stroke-linecap:round;stroke-width:1.5;"/>
    </g>
    <g id="line2d_58"/>
    <g id="text_26">
     <!-- 70 : 0.952 -->
     <g style="fill:#262626;" transform="translate(109.763138 413.52547)scale(0.13 -0.13)">
      <defs>
       <path d="M 525 4666 
L 3525 4666 
L 3525 4397 
L 1831 0 
L 1172 0 
L 2766 4134 
L 525 4134 
L 525 4666 
z
" id="DejaVuSans-37" transform="scale(0.015625)"/>
      </defs>
      <use xlink:href="#DejaVuSans-37"/>
      <use x="63.623047" xlink:href="#DejaVuSans-30"/>
      <use x="127.246094" xlink:href="#DejaVuSans-20"/>
      <use x="159.033203" xlink:href="#DejaVuSans-3a"/>
      <use x="192.724609" xlink:href="#DejaVuSans-20"/>
      <use x="224.511719" xlink:href="#DejaVuSans-30"/>
      <use x="288.134766" xlink:href="#DejaVuSans-2e"/>
      <use x="319.921875" xlink:href="#DejaVuSans-39"/>
      <use x="383.544922" xlink:href="#DejaVuSans-35"/>
      <use x="447.167969" xlink:href="#DejaVuSans-32"/>
     </g>
    </g>
    <g id="line2d_59">
     <path d="M 73.363138 428.057032 
L 99.363138 428.057032 
" style="fill:none;stroke:#7e4909;stroke-linecap:round;stroke-width:1.5;"/>
    </g>
    <g id="line2d_60"/>
    <g id="text_27">
     <!-- 75 : 0.951 -->
     <g style="fill:#262626;" transform="translate(109.763138 432.607032)scale(0.13 -0.13)">
      <use xlink:href="#DejaVuSans-37"/>
      <use x="63.623047" xlink:href="#DejaVuSans-35"/>
      <use x="127.246094" xlink:href="#DejaVuSans-20"/>
      <use x="159.033203" xlink:href="#DejaVuSans-3a"/>
      <use x="192.724609" xlink:href="#DejaVuSans-20"/>
      <use x="224.511719" xlink:href="#DejaVuSans-30"/>
      <use x="288.134766" xlink:href="#DejaVuSans-2e"/>
      <use x="319.921875" xlink:href="#DejaVuSans-39"/>
      <use x="383.544922" xlink:href="#DejaVuSans-35"/>
      <use x="447.167969" xlink:href="#DejaVuSans-31"/>
     </g>
    </g>
   </g>
  </g>
 </g>
 <defs>
  <clipPath id="p595df7bc4d">
   <rect height="434.88" width="446.4" x="61.663138" y="12.130626"/>
  </clipPath>
 </defs>
</svg>
