<?xml version="1.0" encoding="utf-8" standalone="no"?>
<!DOCTYPE svg PUBLIC "-//W3C//DTD SVG 1.1//EN"
  "http://www.w3.org/Graphics/SVG/1.1/DTD/svg11.dtd">
<svg height="500.594959pt" version="1.1" viewBox="0 0 525.582676 500.594959" width="525.582676pt" xmlns="http://www.w3.org/2000/svg" xmlns:xlink="http://www.w3.org/1999/xlink">
 <metadata>
  <rdf:RDF xmlns:cc="http://creativecommons.org/ns#" xmlns:dc="http://purl.org/dc/elements/1.1/" xmlns:rdf="http://www.w3.org/1999/02/22-rdf-syntax-ns#">
   <cc:Work>
    <dc:type rdf:resource="http://purl.org/dc/dcmitype/StillImage"/>
    <dc:date>2022-01-12T09:06:54.503196</dc:date>
    <dc:format>image/svg+xml</dc:format>
    <dc:creator>
     <cc:Agent>
      <dc:title>Matplotlib v3.4.3, https://matplotlib.org/</dc:title>
     </cc:Agent>
    </dc:creator>
   </cc:Work>
  </rdf:RDF>
 </metadata>
 <defs>
  <style type="text/css">*{stroke-linecap:butt;stroke-linejoin:round;}</style>
 </defs>
 <g id="figure_1">
  <g id="patch_1">
   <path d="M 0 500.594959 
L 525.582676 500.594959 
L 525.582676 0 
L 0 0 
z
" style="fill:#ffffff;"/>
  </g>
  <g id="axes_1">
   <g id="patch_2">
    <path d="M 61.663138 447.010626 
L 508.063138 447.010626 
L 508.063138 12.130626 
L 61.663138 12.130626 
z
" style="fill:#ffffff;"/>
   </g>
   <g id="matplotlib.axis_1">
    <g id="xtick_1">
     <g id="line2d_1">
      <path clip-path="url(#pbdc50e8e5a)" d="M 61.663138 447.010626 
L 61.663138 12.130626 
" style="fill:none;stroke:#f2f2f2;stroke-linecap:round;"/>
     </g>
     <g id="line2d_2">
      <defs>
       <path d="M 0 0 
L 0 6 
" id="me97b87996f" style="stroke:#262626;stroke-width:1.25;"/>
      </defs>
      <g>
       <use style="fill:#262626;stroke:#262626;stroke-width:1.25;" x="61.663138" xlink:href="#me97b87996f" y="447.010626"/>
      </g>
     </g>
     <g id="text_1">
      <!-- 0.0 -->
      <g style="fill:#262626;" transform="translate(51.3436 466.371878)scale(0.12978 -0.12978)">
       <defs>
        <path d="M 2034 4250 
Q 1547 4250 1301 3770 
Q 1056 3291 1056 2328 
Q 1056 1369 1301 889 
Q 1547 409 2034 409 
Q 2525 409 2770 889 
Q 3016 1369 3016 2328 
Q 3016 3291 2770 3770 
Q 2525 4250 2034 4250 
z
M 2034 4750 
Q 2819 4750 3233 4129 
Q 3647 3509 3647 2328 
Q 3647 1150 3233 529 
Q 2819 -91 2034 -91 
Q 1250 -91 836 529 
Q 422 1150 422 2328 
Q 422 3509 836 4129 
Q 1250 4750 2034 4750 
z
" id="DejaVuSans-30" transform="scale(0.015625)"/>
        <path d="M 684 794 
L 1344 794 
L 1344 0 
L 684 0 
L 684 794 
z
" id="DejaVuSans-2e" transform="scale(0.015625)"/>
       </defs>
       <use xlink:href="#DejaVuSans-30"/>
       <use x="63.623047" xlink:href="#DejaVuSans-2e"/>
       <use x="95.410156" xlink:href="#DejaVuSans-30"/>
      </g>
     </g>
    </g>
    <g id="xtick_2">
     <g id="line2d_3">
      <path clip-path="url(#pbdc50e8e5a)" d="M 150.943138 447.010626 
L 150.943138 12.130626 
" style="fill:none;stroke:#f2f2f2;stroke-linecap:round;"/>
     </g>
     <g id="line2d_4">
      <g>
       <use style="fill:#262626;stroke:#262626;stroke-width:1.25;" x="150.943138" xlink:href="#me97b87996f" y="447.010626"/>
      </g>
     </g>
     <g id="text_2">
      <!-- 0.2 -->
      <g style="fill:#262626;" transform="translate(140.6236 466.371878)scale(0.12978 -0.12978)">
       <defs>
        <path d="M 1228 531 
L 3431 531 
L 3431 0 
L 469 0 
L 469 531 
Q 828 903 1448 1529 
Q 2069 2156 2228 2338 
Q 2531 2678 2651 2914 
Q 2772 3150 2772 3378 
Q 2772 3750 2511 3984 
Q 2250 4219 1831 4219 
Q 1534 4219 1204 4116 
Q 875 4013 500 3803 
L 500 4441 
Q 881 4594 1212 4672 
Q 1544 4750 1819 4750 
Q 2544 4750 2975 4387 
Q 3406 4025 3406 3419 
Q 3406 3131 3298 2873 
Q 3191 2616 2906 2266 
Q 2828 2175 2409 1742 
Q 1991 1309 1228 531 
z
" id="DejaVuSans-32" transform="scale(0.015625)"/>
       </defs>
       <use xlink:href="#DejaVuSans-30"/>
       <use x="63.623047" xlink:href="#DejaVuSans-2e"/>
       <use x="95.410156" xlink:href="#DejaVuSans-32"/>
      </g>
     </g>
    </g>
    <g id="xtick_3">
     <g id="line2d_5">
      <path clip-path="url(#pbdc50e8e5a)" d="M 240.223138 447.010626 
L 240.223138 12.130626 
" style="fill:none;stroke:#f2f2f2;stroke-linecap:round;"/>
     </g>
     <g id="line2d_6">
      <g>
       <use style="fill:#262626;stroke:#262626;stroke-width:1.25;" x="240.223138" xlink:href="#me97b87996f" y="447.010626"/>
      </g>
     </g>
     <g id="text_3">
      <!-- 0.4 -->
      <g style="fill:#262626;" transform="translate(229.9036 466.371878)scale(0.12978 -0.12978)">
       <defs>
        <path d="M 2419 4116 
L 825 1625 
L 2419 1625 
L 2419 4116 
z
M 2253 4666 
L 3047 4666 
L 3047 1625 
L 3713 1625 
L 3713 1100 
L 3047 1100 
L 3047 0 
L 2419 0 
L 2419 1100 
L 313 1100 
L 313 1709 
L 2253 4666 
z
" id="DejaVuSans-34" transform="scale(0.015625)"/>
       </defs>
       <use xlink:href="#DejaVuSans-30"/>
       <use x="63.623047" xlink:href="#DejaVuSans-2e"/>
       <use x="95.410156" xlink:href="#DejaVuSans-34"/>
      </g>
     </g>
    </g>
    <g id="xtick_4">
     <g id="line2d_7">
      <path clip-path="url(#pbdc50e8e5a)" d="M 329.503138 447.010626 
L 329.503138 12.130626 
" style="fill:none;stroke:#f2f2f2;stroke-linecap:round;"/>
     </g>
     <g id="line2d_8">
      <g>
       <use style="fill:#262626;stroke:#262626;stroke-width:1.25;" x="329.503138" xlink:href="#me97b87996f" y="447.010626"/>
      </g>
     </g>
     <g id="text_4">
      <!-- 0.6 -->
      <g style="fill:#262626;" transform="translate(319.1836 466.371878)scale(0.12978 -0.12978)">
       <defs>
        <path d="M 2113 2584 
Q 1688 2584 1439 2293 
Q 1191 2003 1191 1497 
Q 1191 994 1439 701 
Q 1688 409 2113 409 
Q 2538 409 2786 701 
Q 3034 994 3034 1497 
Q 3034 2003 2786 2293 
Q 2538 2584 2113 2584 
z
M 3366 4563 
L 3366 3988 
Q 3128 4100 2886 4159 
Q 2644 4219 2406 4219 
Q 1781 4219 1451 3797 
Q 1122 3375 1075 2522 
Q 1259 2794 1537 2939 
Q 1816 3084 2150 3084 
Q 2853 3084 3261 2657 
Q 3669 2231 3669 1497 
Q 3669 778 3244 343 
Q 2819 -91 2113 -91 
Q 1303 -91 875 529 
Q 447 1150 447 2328 
Q 447 3434 972 4092 
Q 1497 4750 2381 4750 
Q 2619 4750 2861 4703 
Q 3103 4656 3366 4563 
z
" id="DejaVuSans-36" transform="scale(0.015625)"/>
       </defs>
       <use xlink:href="#DejaVuSans-30"/>
       <use x="63.623047" xlink:href="#DejaVuSans-2e"/>
       <use x="95.410156" xlink:href="#DejaVuSans-36"/>
      </g>
     </g>
    </g>
    <g id="xtick_5">
     <g id="line2d_9">
      <path clip-path="url(#pbdc50e8e5a)" d="M 418.783138 447.010626 
L 418.783138 12.130626 
" style="fill:none;stroke:#f2f2f2;stroke-linecap:round;"/>
     </g>
     <g id="line2d_10">
      <g>
       <use style="fill:#262626;stroke:#262626;stroke-width:1.25;" x="418.783138" xlink:href="#me97b87996f" y="447.010626"/>
      </g>
     </g>
     <g id="text_5">
      <!-- 0.8 -->
      <g style="fill:#262626;" transform="translate(408.4636 466.371878)scale(0.12978 -0.12978)">
       <defs>
        <path d="M 2034 2216 
Q 1584 2216 1326 1975 
Q 1069 1734 1069 1313 
Q 1069 891 1326 650 
Q 1584 409 2034 409 
Q 2484 409 2743 651 
Q 3003 894 3003 1313 
Q 3003 1734 2745 1975 
Q 2488 2216 2034 2216 
z
M 1403 2484 
Q 997 2584 770 2862 
Q 544 3141 544 3541 
Q 544 4100 942 4425 
Q 1341 4750 2034 4750 
Q 2731 4750 3128 4425 
Q 3525 4100 3525 3541 
Q 3525 3141 3298 2862 
Q 3072 2584 2669 2484 
Q 3125 2378 3379 2068 
Q 3634 1759 3634 1313 
Q 3634 634 3220 271 
Q 2806 -91 2034 -91 
Q 1263 -91 848 271 
Q 434 634 434 1313 
Q 434 1759 690 2068 
Q 947 2378 1403 2484 
z
M 1172 3481 
Q 1172 3119 1398 2916 
Q 1625 2713 2034 2713 
Q 2441 2713 2670 2916 
Q 2900 3119 2900 3481 
Q 2900 3844 2670 4047 
Q 2441 4250 2034 4250 
Q 1625 4250 1398 4047 
Q 1172 3844 1172 3481 
z
" id="DejaVuSans-38" transform="scale(0.015625)"/>
       </defs>
       <use xlink:href="#DejaVuSans-30"/>
       <use x="63.623047" xlink:href="#DejaVuSans-2e"/>
       <use x="95.410156" xlink:href="#DejaVuSans-38"/>
      </g>
     </g>
    </g>
    <g id="xtick_6">
     <g id="line2d_11">
      <path clip-path="url(#pbdc50e8e5a)" d="M 508.063138 447.010626 
L 508.063138 12.130626 
" style="fill:none;stroke:#f2f2f2;stroke-linecap:round;"/>
     </g>
     <g id="line2d_12">
      <g>
       <use style="fill:#262626;stroke:#262626;stroke-width:1.25;" x="508.063138" xlink:href="#me97b87996f" y="447.010626"/>
      </g>
     </g>
     <g id="text_6">
      <!-- 1.0 -->
      <g style="fill:#262626;" transform="translate(497.7436 466.371878)scale(0.12978 -0.12978)">
       <defs>
        <path d="M 794 531 
L 1825 531 
L 1825 4091 
L 703 3866 
L 703 4441 
L 1819 4666 
L 2450 4666 
L 2450 531 
L 3481 531 
L 3481 0 
L 794 0 
L 794 531 
z
" id="DejaVuSans-31" transform="scale(0.015625)"/>
       </defs>
       <use xlink:href="#DejaVuSans-31"/>
       <use x="63.623047" xlink:href="#DejaVuSans-2e"/>
       <use x="95.410156" xlink:href="#DejaVuSans-30"/>
      </g>
     </g>
    </g>
    <g id="text_7">
     <!-- False Positive Rate -->
     <g style="fill:#262626;" transform="translate(187.283685 489.027615)scale(0.21 -0.21)">
      <defs>
       <path d="M 628 4666 
L 3309 4666 
L 3309 4134 
L 1259 4134 
L 1259 2759 
L 3109 2759 
L 3109 2228 
L 1259 2228 
L 1259 0 
L 628 0 
L 628 4666 
z
" id="DejaVuSans-46" transform="scale(0.015625)"/>
       <path d="M 2194 1759 
Q 1497 1759 1228 1600 
Q 959 1441 959 1056 
Q 959 750 1161 570 
Q 1363 391 1709 391 
Q 2188 391 2477 730 
Q 2766 1069 2766 1631 
L 2766 1759 
L 2194 1759 
z
M 3341 1997 
L 3341 0 
L 2766 0 
L 2766 531 
Q 2569 213 2275 61 
Q 1981 -91 1556 -91 
Q 1019 -91 701 211 
Q 384 513 384 1019 
Q 384 1609 779 1909 
Q 1175 2209 1959 2209 
L 2766 2209 
L 2766 2266 
Q 2766 2663 2505 2880 
Q 2244 3097 1772 3097 
Q 1472 3097 1187 3025 
Q 903 2953 641 2809 
L 641 3341 
Q 956 3463 1253 3523 
Q 1550 3584 1831 3584 
Q 2591 3584 2966 3190 
Q 3341 2797 3341 1997 
z
" id="DejaVuSans-61" transform="scale(0.015625)"/>
       <path d="M 603 4863 
L 1178 4863 
L 1178 0 
L 603 0 
L 603 4863 
z
" id="DejaVuSans-6c" transform="scale(0.015625)"/>
       <path d="M 2834 3397 
L 2834 2853 
Q 2591 2978 2328 3040 
Q 2066 3103 1784 3103 
Q 1356 3103 1142 2972 
Q 928 2841 928 2578 
Q 928 2378 1081 2264 
Q 1234 2150 1697 2047 
L 1894 2003 
Q 2506 1872 2764 1633 
Q 3022 1394 3022 966 
Q 3022 478 2636 193 
Q 2250 -91 1575 -91 
Q 1294 -91 989 -36 
Q 684 19 347 128 
L 347 722 
Q 666 556 975 473 
Q 1284 391 1588 391 
Q 1994 391 2212 530 
Q 2431 669 2431 922 
Q 2431 1156 2273 1281 
Q 2116 1406 1581 1522 
L 1381 1569 
Q 847 1681 609 1914 
Q 372 2147 372 2553 
Q 372 3047 722 3315 
Q 1072 3584 1716 3584 
Q 2034 3584 2315 3537 
Q 2597 3491 2834 3397 
z
" id="DejaVuSans-73" transform="scale(0.015625)"/>
       <path d="M 3597 1894 
L 3597 1613 
L 953 1613 
Q 991 1019 1311 708 
Q 1631 397 2203 397 
Q 2534 397 2845 478 
Q 3156 559 3463 722 
L 3463 178 
Q 3153 47 2828 -22 
Q 2503 -91 2169 -91 
Q 1331 -91 842 396 
Q 353 884 353 1716 
Q 353 2575 817 3079 
Q 1281 3584 2069 3584 
Q 2775 3584 3186 3129 
Q 3597 2675 3597 1894 
z
M 3022 2063 
Q 3016 2534 2758 2815 
Q 2500 3097 2075 3097 
Q 1594 3097 1305 2825 
Q 1016 2553 972 2059 
L 3022 2063 
z
" id="DejaVuSans-65" transform="scale(0.015625)"/>
       <path id="DejaVuSans-20" transform="scale(0.015625)"/>
       <path d="M 1259 4147 
L 1259 2394 
L 2053 2394 
Q 2494 2394 2734 2622 
Q 2975 2850 2975 3272 
Q 2975 3691 2734 3919 
Q 2494 4147 2053 4147 
L 1259 4147 
z
M 628 4666 
L 2053 4666 
Q 2838 4666 3239 4311 
Q 3641 3956 3641 3272 
Q 3641 2581 3239 2228 
Q 2838 1875 2053 1875 
L 1259 1875 
L 1259 0 
L 628 0 
L 628 4666 
z
" id="DejaVuSans-50" transform="scale(0.015625)"/>
       <path d="M 1959 3097 
Q 1497 3097 1228 2736 
Q 959 2375 959 1747 
Q 959 1119 1226 758 
Q 1494 397 1959 397 
Q 2419 397 2687 759 
Q 2956 1122 2956 1747 
Q 2956 2369 2687 2733 
Q 2419 3097 1959 3097 
z
M 1959 3584 
Q 2709 3584 3137 3096 
Q 3566 2609 3566 1747 
Q 3566 888 3137 398 
Q 2709 -91 1959 -91 
Q 1206 -91 779 398 
Q 353 888 353 1747 
Q 353 2609 779 3096 
Q 1206 3584 1959 3584 
z
" id="DejaVuSans-6f" transform="scale(0.015625)"/>
       <path d="M 603 3500 
L 1178 3500 
L 1178 0 
L 603 0 
L 603 3500 
z
M 603 4863 
L 1178 4863 
L 1178 4134 
L 603 4134 
L 603 4863 
z
" id="DejaVuSans-69" transform="scale(0.015625)"/>
       <path d="M 1172 4494 
L 1172 3500 
L 2356 3500 
L 2356 3053 
L 1172 3053 
L 1172 1153 
Q 1172 725 1289 603 
Q 1406 481 1766 481 
L 2356 481 
L 2356 0 
L 1766 0 
Q 1100 0 847 248 
Q 594 497 594 1153 
L 594 3053 
L 172 3053 
L 172 3500 
L 594 3500 
L 594 4494 
L 1172 4494 
z
" id="DejaVuSans-74" transform="scale(0.015625)"/>
       <path d="M 191 3500 
L 800 3500 
L 1894 563 
L 2988 3500 
L 3597 3500 
L 2284 0 
L 1503 0 
L 191 3500 
z
" id="DejaVuSans-76" transform="scale(0.015625)"/>
       <path d="M 2841 2188 
Q 3044 2119 3236 1894 
Q 3428 1669 3622 1275 
L 4263 0 
L 3584 0 
L 2988 1197 
Q 2756 1666 2539 1819 
Q 2322 1972 1947 1972 
L 1259 1972 
L 1259 0 
L 628 0 
L 628 4666 
L 2053 4666 
Q 2853 4666 3247 4331 
Q 3641 3997 3641 3322 
Q 3641 2881 3436 2590 
Q 3231 2300 2841 2188 
z
M 1259 4147 
L 1259 2491 
L 2053 2491 
Q 2509 2491 2742 2702 
Q 2975 2913 2975 3322 
Q 2975 3731 2742 3939 
Q 2509 4147 2053 4147 
L 1259 4147 
z
" id="DejaVuSans-52" transform="scale(0.015625)"/>
      </defs>
      <use xlink:href="#DejaVuSans-46"/>
      <use x="48.394531" xlink:href="#DejaVuSans-61"/>
      <use x="109.673828" xlink:href="#DejaVuSans-6c"/>
      <use x="137.457031" xlink:href="#DejaVuSans-73"/>
      <use x="189.556641" xlink:href="#DejaVuSans-65"/>
      <use x="251.080078" xlink:href="#DejaVuSans-20"/>
      <use x="282.867188" xlink:href="#DejaVuSans-50"/>
      <use x="339.544922" xlink:href="#DejaVuSans-6f"/>
      <use x="400.726562" xlink:href="#DejaVuSans-73"/>
      <use x="452.826172" xlink:href="#DejaVuSans-69"/>
      <use x="480.609375" xlink:href="#DejaVuSans-74"/>
      <use x="519.818359" xlink:href="#DejaVuSans-69"/>
      <use x="547.601562" xlink:href="#DejaVuSans-76"/>
      <use x="606.78125" xlink:href="#DejaVuSans-65"/>
      <use x="668.304688" xlink:href="#DejaVuSans-20"/>
      <use x="700.091797" xlink:href="#DejaVuSans-52"/>
      <use x="767.324219" xlink:href="#DejaVuSans-61"/>
      <use x="828.603516" xlink:href="#DejaVuSans-74"/>
      <use x="867.8125" xlink:href="#DejaVuSans-65"/>
     </g>
    </g>
   </g>
   <g id="matplotlib.axis_2">
    <g id="ytick_1">
     <g id="line2d_13">
      <path clip-path="url(#pbdc50e8e5a)" d="M 61.663138 447.010626 
L 508.063138 447.010626 
" style="fill:none;stroke:#f2f2f2;stroke-linecap:round;"/>
     </g>
     <g id="line2d_14">
      <defs>
       <path d="M 0 0 
L -6 0 
" id="m8308c694a6" style="stroke:#262626;stroke-width:1.25;"/>
      </defs>
      <g>
       <use style="fill:#262626;stroke:#262626;stroke-width:1.25;" x="61.663138" xlink:href="#m8308c694a6" y="447.010626"/>
      </g>
     </g>
     <g id="text_8">
      <!-- 0.0 -->
      <g style="fill:#262626;" transform="translate(31.524063 451.941252)scale(0.12978 -0.12978)">
       <use xlink:href="#DejaVuSans-30"/>
       <use x="63.623047" xlink:href="#DejaVuSans-2e"/>
       <use x="95.410156" xlink:href="#DejaVuSans-30"/>
      </g>
     </g>
    </g>
    <g id="ytick_2">
     <g id="line2d_15">
      <path clip-path="url(#pbdc50e8e5a)" d="M 61.663138 360.034626 
L 508.063138 360.034626 
" style="fill:none;stroke:#f2f2f2;stroke-linecap:round;"/>
     </g>
     <g id="line2d_16">
      <g>
       <use style="fill:#262626;stroke:#262626;stroke-width:1.25;" x="61.663138" xlink:href="#m8308c694a6" y="360.034626"/>
      </g>
     </g>
     <g id="text_9">
      <!-- 0.2 -->
      <g style="fill:#262626;" transform="translate(31.524063 364.965252)scale(0.12978 -0.12978)">
       <use xlink:href="#DejaVuSans-30"/>
       <use x="63.623047" xlink:href="#DejaVuSans-2e"/>
       <use x="95.410156" xlink:href="#DejaVuSans-32"/>
      </g>
     </g>
    </g>
    <g id="ytick_3">
     <g id="line2d_17">
      <path clip-path="url(#pbdc50e8e5a)" d="M 61.663138 273.058626 
L 508.063138 273.058626 
" style="fill:none;stroke:#f2f2f2;stroke-linecap:round;"/>
     </g>
     <g id="line2d_18">
      <g>
       <use style="fill:#262626;stroke:#262626;stroke-width:1.25;" x="61.663138" xlink:href="#m8308c694a6" y="273.058626"/>
      </g>
     </g>
     <g id="text_10">
      <!-- 0.4 -->
      <g style="fill:#262626;" transform="translate(31.524063 277.989252)scale(0.12978 -0.12978)">
       <use xlink:href="#DejaVuSans-30"/>
       <use x="63.623047" xlink:href="#DejaVuSans-2e"/>
       <use x="95.410156" xlink:href="#DejaVuSans-34"/>
      </g>
     </g>
    </g>
    <g id="ytick_4">
     <g id="line2d_19">
      <path clip-path="url(#pbdc50e8e5a)" d="M 61.663138 186.082626 
L 508.063138 186.082626 
" style="fill:none;stroke:#f2f2f2;stroke-linecap:round;"/>
     </g>
     <g id="line2d_20">
      <g>
       <use style="fill:#262626;stroke:#262626;stroke-width:1.25;" x="61.663138" xlink:href="#m8308c694a6" y="186.082626"/>
      </g>
     </g>
     <g id="text_11">
      <!-- 0.6 -->
      <g style="fill:#262626;" transform="translate(31.524063 191.013252)scale(0.12978 -0.12978)">
       <use xlink:href="#DejaVuSans-30"/>
       <use x="63.623047" xlink:href="#DejaVuSans-2e"/>
       <use x="95.410156" xlink:href="#DejaVuSans-36"/>
      </g>
     </g>
    </g>
    <g id="ytick_5">
     <g id="line2d_21">
      <path clip-path="url(#pbdc50e8e5a)" d="M 61.663138 99.106626 
L 508.063138 99.106626 
" style="fill:none;stroke:#f2f2f2;stroke-linecap:round;"/>
     </g>
     <g id="line2d_22">
      <g>
       <use style="fill:#262626;stroke:#262626;stroke-width:1.25;" x="61.663138" xlink:href="#m8308c694a6" y="99.106626"/>
      </g>
     </g>
     <g id="text_12">
      <!-- 0.8 -->
      <g style="fill:#262626;" transform="translate(31.524063 104.037252)scale(0.12978 -0.12978)">
       <use xlink:href="#DejaVuSans-30"/>
       <use x="63.623047" xlink:href="#DejaVuSans-2e"/>
       <use x="95.410156" xlink:href="#DejaVuSans-38"/>
      </g>
     </g>
    </g>
    <g id="ytick_6">
     <g id="line2d_23">
      <path clip-path="url(#pbdc50e8e5a)" d="M 61.663138 12.130626 
L 508.063138 12.130626 
" style="fill:none;stroke:#f2f2f2;stroke-linecap:round;"/>
     </g>
     <g id="line2d_24">
      <g>
       <use style="fill:#262626;stroke:#262626;stroke-width:1.25;" x="61.663138" xlink:href="#m8308c694a6" y="12.130626"/>
      </g>
     </g>
     <g id="text_13">
      <!-- 1.0 -->
      <g style="fill:#262626;" transform="translate(31.524063 17.061252)scale(0.12978 -0.12978)">
       <use xlink:href="#DejaVuSans-31"/>
       <use x="63.623047" xlink:href="#DejaVuSans-2e"/>
       <use x="95.410156" xlink:href="#DejaVuSans-30"/>
      </g>
     </g>
    </g>
    <g id="text_14">
     <!-- True Positive Rate -->
     <g style="fill:#262626;" transform="translate(23.156719 323.08297)rotate(-90)scale(0.21 -0.21)">
      <defs>
       <path d="M -19 4666 
L 3928 4666 
L 3928 4134 
L 2272 4134 
L 2272 0 
L 1638 0 
L 1638 4134 
L -19 4134 
L -19 4666 
z
" id="DejaVuSans-54" transform="scale(0.015625)"/>
       <path d="M 2631 2963 
Q 2534 3019 2420 3045 
Q 2306 3072 2169 3072 
Q 1681 3072 1420 2755 
Q 1159 2438 1159 1844 
L 1159 0 
L 581 0 
L 581 3500 
L 1159 3500 
L 1159 2956 
Q 1341 3275 1631 3429 
Q 1922 3584 2338 3584 
Q 2397 3584 2469 3576 
Q 2541 3569 2628 3553 
L 2631 2963 
z
" id="DejaVuSans-72" transform="scale(0.015625)"/>
       <path d="M 544 1381 
L 544 3500 
L 1119 3500 
L 1119 1403 
Q 1119 906 1312 657 
Q 1506 409 1894 409 
Q 2359 409 2629 706 
Q 2900 1003 2900 1516 
L 2900 3500 
L 3475 3500 
L 3475 0 
L 2900 0 
L 2900 538 
Q 2691 219 2414 64 
Q 2138 -91 1772 -91 
Q 1169 -91 856 284 
Q 544 659 544 1381 
z
M 1991 3584 
L 1991 3584 
z
" id="DejaVuSans-75" transform="scale(0.015625)"/>
      </defs>
      <use xlink:href="#DejaVuSans-54"/>
      <use x="46.333984" xlink:href="#DejaVuSans-72"/>
      <use x="87.447266" xlink:href="#DejaVuSans-75"/>
      <use x="150.826172" xlink:href="#DejaVuSans-65"/>
      <use x="212.349609" xlink:href="#DejaVuSans-20"/>
      <use x="244.136719" xlink:href="#DejaVuSans-50"/>
      <use x="300.814453" xlink:href="#DejaVuSans-6f"/>
      <use x="361.996094" xlink:href="#DejaVuSans-73"/>
      <use x="414.095703" xlink:href="#DejaVuSans-69"/>
      <use x="441.878906" xlink:href="#DejaVuSans-74"/>
      <use x="481.087891" xlink:href="#DejaVuSans-69"/>
      <use x="508.871094" xlink:href="#DejaVuSans-76"/>
      <use x="568.050781" xlink:href="#DejaVuSans-65"/>
      <use x="629.574219" xlink:href="#DejaVuSans-20"/>
      <use x="661.361328" xlink:href="#DejaVuSans-52"/>
      <use x="728.59375" xlink:href="#DejaVuSans-61"/>
      <use x="789.873047" xlink:href="#DejaVuSans-74"/>
      <use x="829.082031" xlink:href="#DejaVuSans-65"/>
     </g>
    </g>
   </g>
   <g id="line2d_25">
    <path clip-path="url(#pbdc50e8e5a)" d="M 61.663138 447.010626 
L 61.663138 444.222934 
L 61.663138 355.01678 
L 62.796133 355.01678 
L 62.796133 335.502934 
L 63.929128 335.502934 
L 63.929128 304.838318 
L 65.062123 304.838318 
L 65.062123 282.53678 
L 66.195118 282.53678 
L 66.195118 274.173703 
L 67.328113 274.173703 
L 67.328113 257.447549 
L 68.461108 257.447549 
L 68.461108 235.146011 
L 69.594103 235.146011 
L 69.594103 196.118318 
L 70.727098 196.118318 
L 70.727098 173.81678 
L 71.860092 173.81678 
L 71.860092 171.029088 
L 72.993087 171.029088 
L 72.993087 162.666011 
L 74.126082 162.666011 
L 74.126082 159.878318 
L 80.924052 159.878318 
L 80.924052 151.515241 
L 83.190042 151.515241 
L 83.190042 148.727549 
L 84.323037 148.727549 
L 84.323037 137.57678 
L 85.456032 137.57678 
L 85.456032 132.001395 
L 87.722021 132.001395 
L 87.722021 123.638318 
L 88.855016 123.638318 
L 88.855016 120.850626 
L 89.988011 120.850626 
L 89.988011 112.487549 
L 91.121006 112.487549 
L 91.121006 106.912165 
L 92.254001 106.912165 
L 92.254001 104.124472 
L 94.519991 104.124472 
L 94.519991 95.761395 
L 100.184966 95.761395 
L 100.184966 92.973703 
L 106.982935 92.973703 
L 106.982935 90.186011 
L 109.248925 90.186011 
L 109.248925 87.398318 
L 116.046894 87.398318 
L 116.046894 84.610626 
L 118.312884 84.610626 
L 118.312884 76.247549 
L 130.775828 76.247549 
L 130.775828 73.459857 
L 134.174813 73.459857 
L 134.174813 70.672165 
L 138.706793 70.672165 
L 138.706793 67.884472 
L 148.903747 67.884472 
L 148.903747 65.09678 
L 154.568722 65.09678 
L 154.568722 62.309088 
L 156.834712 62.309088 
L 156.834712 59.521395 
L 165.898671 59.521395 
L 165.898671 56.733703 
L 172.696641 56.733703 
L 172.696641 53.946011 
L 195.356539 53.946011 
L 195.356539 51.158318 
L 197.622529 51.158318 
L 197.622529 48.370626 
L 203.287504 48.370626 
L 203.287504 45.582934 
L 204.420499 45.582934 
L 204.420499 42.795241 
L 216.883443 42.795241 
L 216.883443 37.219857 
L 228.213392 37.219857 
L 228.213392 34.432165 
L 232.745372 34.432165 
L 232.745372 31.644472 
L 237.277351 31.644472 
L 237.277351 28.85678 
L 239.543341 28.85678 
L 239.543341 26.069088 
L 241.809331 26.069088 
L 241.809331 23.281395 
L 256.538265 23.281395 
L 256.538265 20.493703 
L 386.832681 20.493703 
L 386.832681 17.706011 
L 394.763646 17.706011 
L 394.763646 14.918318 
L 417.423544 14.918318 
L 417.423544 12.130626 
L 508.063138 12.130626 
" style="fill:none;stroke:#015b52;stroke-linecap:round;stroke-width:1.5;"/>
   </g>
   <g id="line2d_26">
    <path clip-path="url(#pbdc50e8e5a)" d="M 61.663138 447.010626 
L 61.663138 444.222934 
L 61.663138 355.01678 
L 62.796133 355.01678 
L 62.796133 329.927549 
L 63.929128 329.927549 
L 63.929128 315.989088 
L 65.062123 315.989088 
L 65.062123 299.262934 
L 66.195118 299.262934 
L 66.195118 296.475241 
L 67.328113 296.475241 
L 67.328113 263.022934 
L 68.461108 263.022934 
L 68.461108 254.659857 
L 69.594103 254.659857 
L 69.594103 204.481395 
L 70.727098 204.481395 
L 70.727098 198.906011 
L 71.860092 198.906011 
L 71.860092 157.090626 
L 72.993087 157.090626 
L 72.993087 143.152165 
L 79.791057 143.152165 
L 79.791057 140.364472 
L 80.924052 140.364472 
L 80.924052 137.57678 
L 83.190042 137.57678 
L 83.190042 126.426011 
L 86.589026 126.426011 
L 86.589026 123.638318 
L 91.121006 123.638318 
L 91.121006 118.062934 
L 93.386996 118.062934 
L 93.386996 101.33678 
L 96.785981 101.33678 
L 96.785981 95.761395 
L 110.38192 95.761395 
L 110.38192 92.973703 
L 117.179889 92.973703 
L 117.179889 90.186011 
L 118.312884 90.186011 
L 118.312884 87.398318 
L 120.578874 87.398318 
L 120.578874 84.610626 
L 125.110854 84.610626 
L 125.110854 81.822934 
L 127.376844 81.822934 
L 127.376844 79.035241 
L 128.509839 79.035241 
L 128.509839 76.247549 
L 129.642834 76.247549 
L 129.642834 73.459857 
L 135.307808 73.459857 
L 135.307808 70.672165 
L 140.972783 70.672165 
L 140.972783 67.884472 
L 148.903747 67.884472 
L 148.903747 65.09678 
L 151.169737 65.09678 
L 151.169737 59.521395 
L 161.366691 59.521395 
L 161.366691 56.733703 
L 162.499686 56.733703 
L 162.499686 53.946011 
L 181.7606 53.946011 
L 181.7606 51.158318 
L 199.888519 51.158318 
L 199.888519 48.370626 
L 205.553493 48.370626 
L 205.553493 45.582934 
L 211.218468 45.582934 
L 211.218468 42.795241 
L 223.681412 42.795241 
L 223.681412 40.007549 
L 224.814407 40.007549 
L 224.814407 37.219857 
L 228.213392 37.219857 
L 228.213392 34.432165 
L 232.745372 34.432165 
L 232.745372 31.644472 
L 240.676336 31.644472 
L 240.676336 28.85678 
L 244.075321 28.85678 
L 244.075321 23.281395 
L 266.735219 23.281395 
L 266.735219 20.493703 
L 375.502732 20.493703 
L 375.502732 17.706011 
L 401.561615 17.706011 
L 401.561615 14.918318 
L 416.290549 14.918318 
L 416.290549 12.130626 
L 508.063138 12.130626 
" style="fill:none;stroke:#1d8078;stroke-linecap:round;stroke-width:1.5;"/>
   </g>
   <g id="line2d_27">
    <path clip-path="url(#pbdc50e8e5a)" d="M 61.663138 447.010626 
L 61.663138 444.222934 
L 61.663138 349.441395 
L 62.796133 349.441395 
L 62.796133 327.139857 
L 63.929128 327.139857 
L 63.929128 324.352165 
L 65.062123 324.352165 
L 65.062123 307.626011 
L 66.195118 307.626011 
L 66.195118 290.899857 
L 68.461108 290.899857 
L 68.461108 276.961395 
L 69.594103 276.961395 
L 69.594103 215.632165 
L 70.727098 215.632165 
L 70.727098 201.693703 
L 71.860092 201.693703 
L 71.860092 162.666011 
L 72.993087 162.666011 
L 72.993087 143.152165 
L 74.126082 143.152165 
L 74.126082 140.364472 
L 75.259077 140.364472 
L 75.259077 137.57678 
L 77.525067 137.57678 
L 77.525067 132.001395 
L 84.323037 132.001395 
L 84.323037 129.213703 
L 87.722021 129.213703 
L 87.722021 123.638318 
L 88.855016 123.638318 
L 88.855016 120.850626 
L 89.988011 120.850626 
L 89.988011 118.062934 
L 91.121006 118.062934 
L 91.121006 106.912165 
L 93.386996 106.912165 
L 93.386996 104.124472 
L 100.184966 104.124472 
L 100.184966 101.33678 
L 103.58395 101.33678 
L 103.58395 98.549088 
L 106.982935 98.549088 
L 106.982935 95.761395 
L 113.780905 95.761395 
L 113.780905 92.973703 
L 117.179889 92.973703 
L 117.179889 84.610626 
L 123.977859 84.610626 
L 123.977859 81.822934 
L 126.243849 81.822934 
L 126.243849 79.035241 
L 134.174813 79.035241 
L 134.174813 70.672165 
L 143.238773 70.672165 
L 143.238773 67.884472 
L 150.036742 67.884472 
L 150.036742 65.09678 
L 151.169737 65.09678 
L 151.169737 62.309088 
L 153.435727 62.309088 
L 153.435727 59.521395 
L 154.568722 59.521395 
L 154.568722 56.733703 
L 156.834712 56.733703 
L 156.834712 53.946011 
L 174.962631 53.946011 
L 174.962631 51.158318 
L 196.489534 51.158318 
L 196.489534 48.370626 
L 198.755524 48.370626 
L 198.755524 45.582934 
L 205.553493 45.582934 
L 205.553493 42.795241 
L 208.952478 42.795241 
L 208.952478 40.007549 
L 210.085473 40.007549 
L 210.085473 37.219857 
L 231.612377 37.219857 
L 231.612377 34.432165 
L 237.277351 34.432165 
L 237.277351 28.85678 
L 245.208316 28.85678 
L 245.208316 26.069088 
L 281.464153 26.069088 
L 281.464153 20.493703 
L 367.571768 20.493703 
L 367.571768 17.706011 
L 416.290549 17.706011 
L 416.290549 12.130626 
L 508.063138 12.130626 
" style="fill:none;stroke:#4da89f;stroke-linecap:round;stroke-width:1.5;"/>
   </g>
   <g id="line2d_28">
    <path clip-path="url(#pbdc50e8e5a)" d="M 61.663138 447.010626 
L 61.663138 438.647549 
L 61.663138 341.078318 
L 63.929128 341.078318 
L 63.929128 318.77678 
L 66.195118 318.77678 
L 66.195118 296.475241 
L 67.328113 296.475241 
L 67.328113 290.899857 
L 68.461108 290.899857 
L 68.461108 288.112165 
L 69.594103 288.112165 
L 69.594103 226.782934 
L 70.727098 226.782934 
L 70.727098 204.481395 
L 71.860092 204.481395 
L 71.860092 173.81678 
L 72.993087 173.81678 
L 72.993087 148.727549 
L 75.259077 148.727549 
L 75.259077 143.152165 
L 77.525067 143.152165 
L 77.525067 137.57678 
L 79.791057 137.57678 
L 79.791057 134.789088 
L 85.456032 134.789088 
L 85.456032 129.213703 
L 86.589026 129.213703 
L 86.589026 126.426011 
L 87.722021 126.426011 
L 87.722021 123.638318 
L 88.855016 123.638318 
L 88.855016 109.699857 
L 91.121006 109.699857 
L 91.121006 101.33678 
L 94.519991 101.33678 
L 94.519991 98.549088 
L 99.051971 98.549088 
L 99.051971 95.761395 
L 101.31796 95.761395 
L 101.31796 92.973703 
L 106.982935 92.973703 
L 106.982935 90.186011 
L 112.64791 90.186011 
L 112.64791 87.398318 
L 123.977859 87.398318 
L 123.977859 84.610626 
L 127.376844 84.610626 
L 127.376844 81.822934 
L 129.642834 81.822934 
L 129.642834 79.035241 
L 134.174813 79.035241 
L 134.174813 73.459857 
L 135.307808 73.459857 
L 135.307808 70.672165 
L 136.440803 70.672165 
L 136.440803 65.09678 
L 150.036742 65.09678 
L 150.036742 62.309088 
L 153.435727 62.309088 
L 153.435727 56.733703 
L 163.632681 56.733703 
L 163.632681 53.946011 
L 164.765676 53.946011 
L 164.765676 51.158318 
L 182.893595 51.158318 
L 182.893595 48.370626 
L 195.356539 48.370626 
L 195.356539 45.582934 
L 197.622529 45.582934 
L 197.622529 42.795241 
L 202.154509 42.795241 
L 202.154509 40.007549 
L 212.351463 40.007549 
L 212.351463 37.219857 
L 225.947402 37.219857 
L 225.947402 34.432165 
L 236.144356 34.432165 
L 236.144356 31.644472 
L 241.809331 31.644472 
L 241.809331 28.85678 
L 242.942326 28.85678 
L 242.942326 26.069088 
L 283.730143 26.069088 
L 283.730143 23.281395 
L 297.326082 23.281395 
L 297.326082 20.493703 
L 363.039788 20.493703 
L 363.039788 17.706011 
L 408.359585 17.706011 
L 408.359585 14.918318 
L 419.689534 14.918318 
L 419.689534 12.130626 
L 508.063138 12.130626 
" style="fill:none;stroke:#84cfc3;stroke-linecap:round;stroke-width:1.5;"/>
   </g>
   <g id="line2d_29">
    <path clip-path="url(#pbdc50e8e5a)" d="M 61.663138 447.010626 
L 61.663138 433.072165 
L 61.663138 352.229088 
L 62.796133 352.229088 
L 62.796133 343.866011 
L 63.929128 343.866011 
L 63.929128 315.989088 
L 65.062123 315.989088 
L 65.062123 304.838318 
L 66.195118 304.838318 
L 66.195118 302.050626 
L 67.328113 302.050626 
L 67.328113 279.749088 
L 69.594103 279.749088 
L 69.594103 243.509088 
L 70.727098 243.509088 
L 70.727098 204.481395 
L 71.860092 204.481395 
L 71.860092 187.755241 
L 72.993087 187.755241 
L 72.993087 154.302934 
L 74.126082 154.302934 
L 74.126082 151.515241 
L 76.392072 151.515241 
L 76.392072 148.727549 
L 77.525067 148.727549 
L 77.525067 145.939857 
L 80.924052 145.939857 
L 80.924052 143.152165 
L 84.323037 143.152165 
L 84.323037 134.789088 
L 85.456032 134.789088 
L 85.456032 126.426011 
L 87.722021 126.426011 
L 87.722021 115.275241 
L 89.988011 115.275241 
L 89.988011 112.487549 
L 91.121006 112.487549 
L 91.121006 106.912165 
L 93.386996 106.912165 
L 93.386996 101.33678 
L 96.785981 101.33678 
L 96.785981 98.549088 
L 100.184966 98.549088 
L 100.184966 95.761395 
L 110.38192 95.761395 
L 110.38192 92.973703 
L 118.312884 92.973703 
L 118.312884 90.186011 
L 121.711869 90.186011 
L 121.711869 84.610626 
L 125.110854 84.610626 
L 125.110854 81.822934 
L 128.509839 81.822934 
L 128.509839 79.035241 
L 129.642834 79.035241 
L 129.642834 76.247549 
L 130.775828 76.247549 
L 130.775828 73.459857 
L 134.174813 73.459857 
L 134.174813 70.672165 
L 138.706793 70.672165 
L 138.706793 67.884472 
L 140.972783 67.884472 
L 140.972783 65.09678 
L 142.105778 65.09678 
L 142.105778 62.309088 
L 144.371768 62.309088 
L 144.371768 59.521395 
L 152.302732 59.521395 
L 152.302732 56.733703 
L 154.568722 56.733703 
L 154.568722 53.946011 
L 171.563646 53.946011 
L 171.563646 48.370626 
L 176.095625 48.370626 
L 176.095625 45.582934 
L 191.957554 45.582934 
L 191.957554 40.007549 
L 210.085473 40.007549 
L 210.085473 37.219857 
L 224.814407 37.219857 
L 224.814407 34.432165 
L 233.878367 34.432165 
L 233.878367 31.644472 
L 240.676336 31.644472 
L 240.676336 28.85678 
L 252.006285 28.85678 
L 252.006285 26.069088 
L 284.863138 26.069088 
L 284.863138 23.281395 
L 316.586996 23.281395 
L 316.586996 20.493703 
L 358.507808 20.493703 
L 358.507808 17.706011 
L 409.49258 17.706011 
L 409.49258 14.918318 
L 417.423544 14.918318 
L 417.423544 12.130626 
L 508.063138 12.130626 
" style="fill:none;stroke:#bce5df;stroke-linecap:round;stroke-width:1.5;"/>
   </g>
   <g id="line2d_30">
    <path clip-path="url(#pbdc50e8e5a)" d="M 61.663138 447.010626 
L 61.663138 430.284472 
L 61.663138 424.709088 
L 61.663138 419.133703 
L 61.663138 363.379857 
L 62.796133 363.379857 
L 62.796133 343.866011 
L 63.929128 343.866011 
L 63.929128 321.564472 
L 65.062123 321.564472 
L 65.062123 296.475241 
L 66.195118 296.475241 
L 66.195118 288.112165 
L 67.328113 288.112165 
L 67.328113 279.749088 
L 69.594103 279.749088 
L 69.594103 257.447549 
L 70.727098 257.447549 
L 70.727098 201.693703 
L 71.860092 201.693703 
L 71.860092 196.118318 
L 72.993087 196.118318 
L 72.993087 168.241395 
L 74.126082 168.241395 
L 74.126082 165.453703 
L 76.392072 165.453703 
L 76.392072 151.515241 
L 79.791057 151.515241 
L 79.791057 148.727549 
L 80.924052 148.727549 
L 80.924052 143.152165 
L 84.323037 143.152165 
L 84.323037 134.789088 
L 85.456032 134.789088 
L 85.456032 129.213703 
L 87.722021 129.213703 
L 87.722021 123.638318 
L 89.988011 123.638318 
L 89.988011 120.850626 
L 92.254001 120.850626 
L 92.254001 115.275241 
L 93.386996 115.275241 
L 93.386996 112.487549 
L 99.051971 112.487549 
L 99.051971 109.699857 
L 101.31796 109.699857 
L 101.31796 101.33678 
L 110.38192 101.33678 
L 110.38192 98.549088 
L 111.514915 98.549088 
L 111.514915 95.761395 
L 117.179889 95.761395 
L 117.179889 92.973703 
L 118.312884 92.973703 
L 118.312884 90.186011 
L 122.844864 90.186011 
L 122.844864 87.398318 
L 127.376844 87.398318 
L 127.376844 84.610626 
L 130.775828 84.610626 
L 130.775828 70.672165 
L 135.307808 70.672165 
L 135.307808 67.884472 
L 139.839788 67.884472 
L 139.839788 65.09678 
L 146.637757 65.09678 
L 146.637757 59.521395 
L 154.568722 59.521395 
L 154.568722 56.733703 
L 155.701717 56.733703 
L 155.701717 53.946011 
L 171.563646 53.946011 
L 171.563646 51.158318 
L 181.7606 51.158318 
L 181.7606 48.370626 
L 182.893595 48.370626 
L 182.893595 45.582934 
L 185.159585 45.582934 
L 185.159585 42.795241 
L 186.29258 42.795241 
L 186.29258 40.007549 
L 208.952478 40.007549 
L 208.952478 37.219857 
L 227.080397 37.219857 
L 227.080397 34.432165 
L 228.213392 34.432165 
L 228.213392 31.644472 
L 230.479382 31.644472 
L 230.479382 28.85678 
L 262.20324 28.85678 
L 262.20324 26.069088 
L 281.464153 26.069088 
L 281.464153 23.281395 
L 324.51796 23.281395 
L 324.51796 20.493703 
L 353.975828 20.493703 
L 353.975828 17.706011 
L 407.22659 17.706011 
L 407.22659 14.918318 
L 417.423544 14.918318 
L 417.423544 12.130626 
L 508.063138 12.130626 
" style="fill:none;stroke:#e4f1ef;stroke-linecap:round;stroke-width:1.5;"/>
   </g>
   <g id="line2d_31">
    <path clip-path="url(#pbdc50e8e5a)" d="M 61.663138 447.010626 
L 61.663138 430.284472 
L 61.663138 424.709088 
L 61.663138 419.133703 
L 61.663138 357.804472 
L 62.796133 357.804472 
L 62.796133 335.502934 
L 63.929128 335.502934 
L 63.929128 321.564472 
L 65.062123 321.564472 
L 65.062123 299.262934 
L 66.195118 299.262934 
L 66.195118 282.53678 
L 69.594103 282.53678 
L 69.594103 265.810626 
L 70.727098 265.810626 
L 70.727098 201.693703 
L 72.993087 201.693703 
L 72.993087 187.755241 
L 74.126082 187.755241 
L 74.126082 184.967549 
L 75.259077 184.967549 
L 75.259077 179.392165 
L 76.392072 179.392165 
L 76.392072 176.604472 
L 78.658062 176.604472 
L 78.658062 173.81678 
L 79.791057 173.81678 
L 79.791057 148.727549 
L 83.190042 148.727549 
L 83.190042 145.939857 
L 84.323037 145.939857 
L 84.323037 134.789088 
L 86.589026 134.789088 
L 86.589026 129.213703 
L 92.254001 129.213703 
L 92.254001 123.638318 
L 93.386996 123.638318 
L 93.386996 115.275241 
L 101.31796 115.275241 
L 101.31796 109.699857 
L 106.982935 109.699857 
L 106.982935 106.912165 
L 110.38192 106.912165 
L 110.38192 101.33678 
L 112.64791 101.33678 
L 112.64791 98.549088 
L 120.578874 98.549088 
L 120.578874 95.761395 
L 121.711869 95.761395 
L 121.711869 92.973703 
L 123.977859 92.973703 
L 123.977859 90.186011 
L 125.110854 90.186011 
L 125.110854 87.398318 
L 126.243849 87.398318 
L 126.243849 81.822934 
L 130.775828 81.822934 
L 130.775828 73.459857 
L 138.706793 73.459857 
L 138.706793 70.672165 
L 144.371768 70.672165 
L 144.371768 67.884472 
L 147.770752 67.884472 
L 147.770752 65.09678 
L 150.036742 65.09678 
L 150.036742 62.309088 
L 152.302732 62.309088 
L 152.302732 59.521395 
L 154.568722 59.521395 
L 154.568722 56.733703 
L 171.563646 56.733703 
L 171.563646 53.946011 
L 177.22862 53.946011 
L 177.22862 51.158318 
L 182.893595 51.158318 
L 182.893595 42.795241 
L 199.888519 42.795241 
L 199.888519 40.007549 
L 206.686488 40.007549 
L 206.686488 37.219857 
L 227.080397 37.219857 
L 227.080397 34.432165 
L 229.346387 34.432165 
L 229.346387 31.644472 
L 245.208316 31.644472 
L 245.208316 28.85678 
L 259.93725 28.85678 
L 259.93725 26.069088 
L 269.001209 26.069088 
L 269.001209 23.281395 
L 327.916945 23.281395 
L 327.916945 20.493703 
L 349.443849 20.493703 
L 349.443849 17.706011 
L 402.69461 17.706011 
L 402.69461 14.918318 
L 414.024559 14.918318 
L 414.024559 12.130626 
L 508.063138 12.130626 
" style="fill:none;stroke:#f5f0e2;stroke-linecap:round;stroke-width:1.5;"/>
   </g>
   <g id="line2d_32">
    <path clip-path="url(#pbdc50e8e5a)" d="M 61.663138 447.010626 
L 61.663138 430.284472 
L 61.663138 424.709088 
L 61.663138 419.133703 
L 61.663138 357.804472 
L 62.796133 357.804472 
L 62.796133 335.502934 
L 63.929128 335.502934 
L 63.929128 315.989088 
L 65.062123 315.989088 
L 65.062123 302.050626 
L 66.195118 302.050626 
L 66.195118 288.112165 
L 67.328113 288.112165 
L 67.328113 285.324472 
L 69.594103 285.324472 
L 69.594103 268.598318 
L 70.727098 268.598318 
L 70.727098 201.693703 
L 71.860092 201.693703 
L 71.860092 193.330626 
L 75.259077 193.330626 
L 75.259077 187.755241 
L 76.392072 187.755241 
L 76.392072 182.179857 
L 79.791057 182.179857 
L 79.791057 162.666011 
L 80.924052 162.666011 
L 80.924052 154.302934 
L 84.323037 154.302934 
L 84.323037 143.152165 
L 87.722021 143.152165 
L 87.722021 137.57678 
L 88.855016 137.57678 
L 88.855016 134.789088 
L 91.121006 134.789088 
L 91.121006 132.001395 
L 92.254001 132.001395 
L 92.254001 123.638318 
L 93.386996 123.638318 
L 93.386996 120.850626 
L 95.652986 120.850626 
L 95.652986 118.062934 
L 97.918976 118.062934 
L 97.918976 115.275241 
L 100.184966 115.275241 
L 100.184966 112.487549 
L 110.38192 112.487549 
L 110.38192 109.699857 
L 114.9139 109.699857 
L 114.9139 104.124472 
L 117.179889 104.124472 
L 117.179889 98.549088 
L 118.312884 98.549088 
L 118.312884 95.761395 
L 121.711869 95.761395 
L 121.711869 92.973703 
L 123.977859 92.973703 
L 123.977859 90.186011 
L 126.243849 90.186011 
L 126.243849 84.610626 
L 128.509839 84.610626 
L 128.509839 81.822934 
L 130.775828 81.822934 
L 130.775828 76.247549 
L 148.903747 76.247549 
L 148.903747 73.459857 
L 153.435727 73.459857 
L 153.435727 70.672165 
L 155.701717 70.672165 
L 155.701717 67.884472 
L 156.834712 67.884472 
L 156.834712 65.09678 
L 169.297656 65.09678 
L 169.297656 62.309088 
L 170.430651 62.309088 
L 170.430651 59.521395 
L 171.563646 59.521395 
L 171.563646 53.946011 
L 173.829636 53.946011 
L 173.829636 51.158318 
L 181.7606 51.158318 
L 181.7606 48.370626 
L 196.489534 48.370626 
L 196.489534 45.582934 
L 198.755524 45.582934 
L 198.755524 42.795241 
L 206.686488 42.795241 
L 206.686488 37.219857 
L 227.080397 37.219857 
L 227.080397 34.432165 
L 231.612377 34.432165 
L 231.612377 31.644472 
L 247.474306 31.644472 
L 247.474306 28.85678 
L 262.20324 28.85678 
L 262.20324 26.069088 
L 264.469229 26.069088 
L 264.469229 23.281395 
L 331.31593 23.281395 
L 331.31593 20.493703 
L 342.645879 20.493703 
L 342.645879 17.706011 
L 393.630651 17.706011 
L 393.630651 14.918318 
L 412.891565 14.918318 
L 412.891565 12.130626 
L 508.063138 12.130626 
" style="fill:none;stroke:#f2e2b8;stroke-linecap:round;stroke-width:1.5;"/>
   </g>
   <g id="line2d_33">
    <path clip-path="url(#pbdc50e8e5a)" d="M 61.663138 447.010626 
L 61.663138 430.284472 
L 61.663138 427.49678 
L 61.663138 421.921395 
L 61.663138 360.592165 
L 62.796133 360.592165 
L 62.796133 335.502934 
L 63.929128 335.502934 
L 63.929128 315.989088 
L 65.062123 315.989088 
L 65.062123 299.262934 
L 66.195118 299.262934 
L 66.195118 290.899857 
L 67.328113 290.899857 
L 67.328113 288.112165 
L 69.594103 288.112165 
L 69.594103 268.598318 
L 70.727098 268.598318 
L 70.727098 207.269088 
L 71.860092 207.269088 
L 71.860092 196.118318 
L 74.126082 196.118318 
L 74.126082 190.542934 
L 77.525067 190.542934 
L 77.525067 184.967549 
L 79.791057 184.967549 
L 79.791057 176.604472 
L 80.924052 176.604472 
L 80.924052 162.666011 
L 83.190042 162.666011 
L 83.190042 154.302934 
L 84.323037 154.302934 
L 84.323037 151.515241 
L 87.722021 151.515241 
L 87.722021 145.939857 
L 88.855016 145.939857 
L 88.855016 140.364472 
L 89.988011 140.364472 
L 89.988011 137.57678 
L 92.254001 137.57678 
L 92.254001 134.789088 
L 93.386996 134.789088 
L 93.386996 132.001395 
L 94.519991 132.001395 
L 94.519991 129.213703 
L 97.918976 129.213703 
L 97.918976 126.426011 
L 99.051971 126.426011 
L 99.051971 115.275241 
L 108.11593 115.275241 
L 108.11593 112.487549 
L 114.9139 112.487549 
L 114.9139 104.124472 
L 117.179889 104.124472 
L 117.179889 101.33678 
L 119.445879 101.33678 
L 119.445879 98.549088 
L 120.578874 98.549088 
L 120.578874 95.761395 
L 122.844864 95.761395 
L 122.844864 92.973703 
L 126.243849 92.973703 
L 126.243849 84.610626 
L 128.509839 84.610626 
L 128.509839 81.822934 
L 136.440803 81.822934 
L 136.440803 76.247549 
L 152.302732 76.247549 
L 152.302732 73.459857 
L 167.031666 73.459857 
L 167.031666 67.884472 
L 169.297656 67.884472 
L 169.297656 62.309088 
L 172.696641 62.309088 
L 172.696641 59.521395 
L 176.095625 59.521395 
L 176.095625 56.733703 
L 180.627605 56.733703 
L 180.627605 53.946011 
L 181.7606 53.946011 
L 181.7606 51.158318 
L 191.957554 51.158318 
L 191.957554 48.370626 
L 207.819483 48.370626 
L 207.819483 45.582934 
L 210.085473 45.582934 
L 210.085473 42.795241 
L 211.218468 42.795241 
L 211.218468 40.007549 
L 220.282427 40.007549 
L 220.282427 37.219857 
L 229.346387 37.219857 
L 229.346387 31.644472 
L 244.075321 31.644472 
L 244.075321 28.85678 
L 258.804255 28.85678 
L 258.804255 26.069088 
L 275.799179 26.069088 
L 275.799179 23.281395 
L 335.84791 23.281395 
L 335.84791 20.493703 
L 338.1139 20.493703 
L 338.1139 17.706011 
L 384.566691 17.706011 
L 384.566691 14.918318 
L 408.359585 14.918318 
L 408.359585 12.130626 
L 508.063138 12.130626 
" style="fill:none;stroke:#e0c481;stroke-linecap:round;stroke-width:1.5;"/>
   </g>
   <g id="line2d_34">
    <path clip-path="url(#pbdc50e8e5a)" d="M 61.663138 447.010626 
L 61.663138 430.284472 
L 61.663138 424.709088 
L 61.663138 416.346011 
L 61.663138 407.982934 
L 61.663138 399.619857 
L 61.663138 360.592165 
L 62.796133 360.592165 
L 62.796133 332.715241 
L 63.929128 332.715241 
L 63.929128 313.201395 
L 65.062123 313.201395 
L 65.062123 299.262934 
L 66.195118 299.262934 
L 66.195118 290.899857 
L 69.594103 290.899857 
L 69.594103 274.173703 
L 70.727098 274.173703 
L 70.727098 210.05678 
L 71.860092 210.05678 
L 71.860092 204.481395 
L 72.993087 204.481395 
L 72.993087 201.693703 
L 74.126082 201.693703 
L 74.126082 193.330626 
L 75.259077 193.330626 
L 75.259077 190.542934 
L 77.525067 190.542934 
L 77.525067 187.755241 
L 78.658062 187.755241 
L 78.658062 182.179857 
L 80.924052 182.179857 
L 80.924052 171.029088 
L 82.057047 171.029088 
L 82.057047 165.453703 
L 83.190042 165.453703 
L 83.190042 162.666011 
L 84.323037 162.666011 
L 84.323037 154.302934 
L 87.722021 154.302934 
L 87.722021 151.515241 
L 88.855016 151.515241 
L 88.855016 145.939857 
L 89.988011 145.939857 
L 89.988011 140.364472 
L 91.121006 140.364472 
L 91.121006 137.57678 
L 94.519991 137.57678 
L 94.519991 132.001395 
L 96.785981 132.001395 
L 96.785981 129.213703 
L 100.184966 129.213703 
L 100.184966 126.426011 
L 103.58395 126.426011 
L 103.58395 123.638318 
L 105.84994 123.638318 
L 105.84994 120.850626 
L 106.982935 120.850626 
L 106.982935 118.062934 
L 111.514915 118.062934 
L 111.514915 112.487549 
L 113.780905 112.487549 
L 113.780905 109.699857 
L 114.9139 109.699857 
L 114.9139 106.912165 
L 116.046894 106.912165 
L 116.046894 104.124472 
L 119.445879 104.124472 
L 119.445879 101.33678 
L 120.578874 101.33678 
L 120.578874 95.761395 
L 122.844864 95.761395 
L 122.844864 90.186011 
L 127.376844 90.186011 
L 127.376844 87.398318 
L 129.642834 87.398318 
L 129.642834 84.610626 
L 135.307808 84.610626 
L 135.307808 81.822934 
L 137.573798 81.822934 
L 137.573798 79.035241 
L 143.238773 79.035241 
L 143.238773 76.247549 
L 154.568722 76.247549 
L 154.568722 73.459857 
L 167.031666 73.459857 
L 167.031666 70.672165 
L 172.696641 70.672165 
L 172.696641 67.884472 
L 174.962631 67.884472 
L 174.962631 62.309088 
L 182.893595 62.309088 
L 182.893595 59.521395 
L 185.159585 59.521395 
L 185.159585 56.733703 
L 187.425575 56.733703 
L 187.425575 53.946011 
L 188.55857 53.946011 
L 188.55857 51.158318 
L 210.085473 51.158318 
L 210.085473 45.582934 
L 220.282427 45.582934 
L 220.282427 42.795241 
L 222.548417 42.795241 
L 222.548417 40.007549 
L 227.080397 40.007549 
L 227.080397 37.219857 
L 228.213392 37.219857 
L 228.213392 34.432165 
L 230.479382 34.432165 
L 230.479382 31.644472 
L 245.208316 31.644472 
L 245.208316 28.85678 
L 262.20324 28.85678 
L 262.20324 26.069088 
L 283.730143 26.069088 
L 283.730143 23.281395 
L 332.448925 23.281395 
L 332.448925 20.493703 
L 346.044864 20.493703 
L 346.044864 17.706011 
L 374.369737 17.706011 
L 374.369737 14.918318 
L 398.162631 14.918318 
L 398.162631 12.130626 
L 508.063138 12.130626 
" style="fill:none;stroke:#c99546;stroke-linecap:round;stroke-width:1.5;"/>
   </g>
   <g id="line2d_35">
    <path clip-path="url(#pbdc50e8e5a)" d="M 61.663138 447.010626 
L 61.663138 430.284472 
L 61.663138 424.709088 
L 61.663138 421.921395 
L 61.663138 416.346011 
L 61.663138 407.982934 
L 61.663138 402.407549 
L 61.663138 360.592165 
L 62.796133 360.592165 
L 62.796133 332.715241 
L 63.929128 332.715241 
L 63.929128 315.989088 
L 65.062123 315.989088 
L 65.062123 299.262934 
L 66.195118 299.262934 
L 66.195118 293.687549 
L 67.328113 293.687549 
L 67.328113 290.899857 
L 69.594103 290.899857 
L 69.594103 276.961395 
L 70.727098 276.961395 
L 70.727098 207.269088 
L 72.993087 207.269088 
L 72.993087 204.481395 
L 74.126082 204.481395 
L 74.126082 196.118318 
L 76.392072 196.118318 
L 76.392072 190.542934 
L 77.525067 190.542934 
L 77.525067 179.392165 
L 78.658062 179.392165 
L 78.658062 176.604472 
L 82.057047 176.604472 
L 82.057047 171.029088 
L 83.190042 171.029088 
L 83.190042 165.453703 
L 84.323037 165.453703 
L 84.323037 159.878318 
L 86.589026 159.878318 
L 86.589026 154.302934 
L 87.722021 154.302934 
L 87.722021 151.515241 
L 88.855016 151.515241 
L 88.855016 145.939857 
L 91.121006 145.939857 
L 91.121006 143.152165 
L 92.254001 143.152165 
L 92.254001 140.364472 
L 93.386996 140.364472 
L 93.386996 137.57678 
L 94.519991 137.57678 
L 94.519991 134.789088 
L 96.785981 134.789088 
L 96.785981 132.001395 
L 99.051971 132.001395 
L 99.051971 129.213703 
L 104.716945 129.213703 
L 104.716945 126.426011 
L 105.84994 126.426011 
L 105.84994 123.638318 
L 111.514915 123.638318 
L 111.514915 118.062934 
L 112.64791 118.062934 
L 112.64791 115.275241 
L 113.780905 115.275241 
L 113.780905 112.487549 
L 116.046894 112.487549 
L 116.046894 109.699857 
L 117.179889 109.699857 
L 117.179889 101.33678 
L 119.445879 101.33678 
L 119.445879 98.549088 
L 123.977859 98.549088 
L 123.977859 92.973703 
L 130.775828 92.973703 
L 130.775828 90.186011 
L 143.238773 90.186011 
L 143.238773 79.035241 
L 147.770752 79.035241 
L 147.770752 76.247549 
L 154.568722 76.247549 
L 154.568722 73.459857 
L 165.898671 73.459857 
L 165.898671 70.672165 
L 169.297656 70.672165 
L 169.297656 67.884472 
L 176.095625 67.884472 
L 176.095625 65.09678 
L 179.49461 65.09678 
L 179.49461 62.309088 
L 184.02659 62.309088 
L 184.02659 59.521395 
L 190.824559 59.521395 
L 190.824559 56.733703 
L 194.223544 56.733703 
L 194.223544 53.946011 
L 199.888519 53.946011 
L 199.888519 51.158318 
L 205.553493 51.158318 
L 205.553493 48.370626 
L 223.681412 48.370626 
L 223.681412 42.795241 
L 225.947402 42.795241 
L 225.947402 40.007549 
L 227.080397 40.007549 
L 227.080397 37.219857 
L 235.011361 37.219857 
L 235.011361 34.432165 
L 240.676336 34.432165 
L 240.676336 31.644472 
L 245.208316 31.644472 
L 245.208316 28.85678 
L 267.868214 28.85678 
L 267.868214 26.069088 
L 291.661108 26.069088 
L 291.661108 23.281395 
L 332.448925 23.281395 
L 332.448925 20.493703 
L 351.709839 20.493703 
L 351.709839 17.706011 
L 368.704762 17.706011 
L 368.704762 14.918318 
L 391.364661 14.918318 
L 391.364661 12.130626 
L 508.063138 12.130626 
" style="fill:none;stroke:#a76a1d;stroke-linecap:round;stroke-width:1.5;"/>
   </g>
   <g id="line2d_36">
    <path clip-path="url(#pbdc50e8e5a)" d="M 61.663138 447.010626 
L 61.663138 430.284472 
L 61.663138 424.709088 
L 61.663138 416.346011 
L 61.663138 410.770626 
L 61.663138 402.407549 
L 61.663138 360.592165 
L 62.796133 360.592165 
L 62.796133 332.715241 
L 63.929128 332.715241 
L 63.929128 315.989088 
L 65.062123 315.989088 
L 65.062123 299.262934 
L 66.195118 299.262934 
L 66.195118 293.687549 
L 67.328113 293.687549 
L 67.328113 290.899857 
L 69.594103 290.899857 
L 69.594103 276.961395 
L 70.727098 276.961395 
L 70.727098 207.269088 
L 72.993087 207.269088 
L 72.993087 204.481395 
L 74.126082 204.481395 
L 74.126082 198.906011 
L 76.392072 198.906011 
L 76.392072 187.755241 
L 78.658062 187.755241 
L 78.658062 184.967549 
L 79.791057 184.967549 
L 79.791057 179.392165 
L 80.924052 179.392165 
L 80.924052 171.029088 
L 83.190042 171.029088 
L 83.190042 168.241395 
L 86.589026 168.241395 
L 86.589026 162.666011 
L 87.722021 162.666011 
L 87.722021 151.515241 
L 88.855016 151.515241 
L 88.855016 148.727549 
L 91.121006 148.727549 
L 91.121006 145.939857 
L 92.254001 145.939857 
L 92.254001 137.57678 
L 97.918976 137.57678 
L 97.918976 132.001395 
L 99.051971 132.001395 
L 99.051971 129.213703 
L 111.514915 129.213703 
L 111.514915 115.275241 
L 116.046894 115.275241 
L 116.046894 109.699857 
L 117.179889 109.699857 
L 117.179889 101.33678 
L 122.844864 101.33678 
L 122.844864 98.549088 
L 127.376844 98.549088 
L 127.376844 95.761395 
L 130.775828 95.761395 
L 130.775828 92.973703 
L 140.972783 92.973703 
L 140.972783 90.186011 
L 144.371768 90.186011 
L 144.371768 87.398318 
L 146.637757 87.398318 
L 146.637757 84.610626 
L 147.770752 84.610626 
L 147.770752 76.247549 
L 153.435727 76.247549 
L 153.435727 73.459857 
L 163.632681 73.459857 
L 163.632681 70.672165 
L 164.765676 70.672165 
L 164.765676 67.884472 
L 176.095625 67.884472 
L 176.095625 65.09678 
L 181.7606 65.09678 
L 181.7606 62.309088 
L 187.425575 62.309088 
L 187.425575 59.521395 
L 194.223544 59.521395 
L 194.223544 56.733703 
L 199.888519 56.733703 
L 199.888519 53.946011 
L 202.154509 53.946011 
L 202.154509 51.158318 
L 212.351463 51.158318 
L 212.351463 48.370626 
L 224.814407 48.370626 
L 224.814407 42.795241 
L 231.612377 42.795241 
L 231.612377 40.007549 
L 233.878367 40.007549 
L 233.878367 37.219857 
L 244.075321 37.219857 
L 244.075321 28.85678 
L 270.134204 28.85678 
L 270.134204 26.069088 
L 299.592072 26.069088 
L 299.592072 23.281395 
L 331.31593 23.281395 
L 331.31593 20.493703 
L 353.975828 20.493703 
L 353.975828 17.706011 
L 363.039788 17.706011 
L 363.039788 14.918318 
L 389.098671 14.918318 
L 389.098671 12.130626 
L 508.063138 12.130626 
" style="fill:none;stroke:#7e4909;stroke-linecap:round;stroke-width:1.5;"/>
   </g>
   <g id="line2d_37">
    <path clip-path="url(#pbdc50e8e5a)" d="M 61.663138 447.010626 
L 508.063138 12.130626 
" style="fill:none;stroke:#949494;stroke-linecap:round;stroke-width:0.5;"/>
   </g>
   <g id="patch_3">
    <path d="M 61.663138 447.010626 
L 61.663138 12.130626 
" style="fill:none;stroke:#262626;stroke-linecap:square;stroke-linejoin:miter;stroke-width:1.25;"/>
   </g>
   <g id="patch_4">
    <path d="M 508.063138 447.010626 
L 508.063138 12.130626 
" style="fill:none;stroke:#262626;stroke-linecap:square;stroke-linejoin:miter;stroke-width:1.25;"/>
   </g>
   <g id="patch_5">
    <path d="M 61.663138 447.010626 
L 508.063138 447.010626 
" style="fill:none;stroke:#262626;stroke-linecap:square;stroke-linejoin:miter;stroke-width:1.25;"/>
   </g>
   <g id="patch_6">
    <path d="M 61.663138 12.130626 
L 508.063138 12.130626 
" style="fill:none;stroke:#262626;stroke-linecap:square;stroke-linejoin:miter;stroke-width:1.25;"/>
   </g>
   <g id="legend_1">
    <g id="patch_7">
     <path d="M 390.961576 440.510626 
L 498.963138 440.510626 
Q 501.563138 440.510626 501.563138 437.910626 
L 501.563138 189.795376 
Q 501.563138 187.195376 498.963138 187.195376 
L 390.961576 187.195376 
Q 388.361576 187.195376 388.361576 189.795376 
L 388.361576 437.910626 
Q 388.361576 440.510626 390.961576 440.510626 
z
" style="fill:#ffffff;opacity:0.8;stroke:#cccccc;stroke-linejoin:miter;"/>
    </g>
    <g id="text_15">
     <!-- Age : AUROC -->
     <g style="fill:#262626;" transform="translate(398.140982 203.337126)scale(0.144 -0.144)">
      <defs>
       <path d="M 2188 4044 
L 1331 1722 
L 3047 1722 
L 2188 4044 
z
M 1831 4666 
L 2547 4666 
L 4325 0 
L 3669 0 
L 3244 1197 
L 1141 1197 
L 716 0 
L 50 0 
L 1831 4666 
z
" id="DejaVuSans-41" transform="scale(0.015625)"/>
       <path d="M 2906 1791 
Q 2906 2416 2648 2759 
Q 2391 3103 1925 3103 
Q 1463 3103 1205 2759 
Q 947 2416 947 1791 
Q 947 1169 1205 825 
Q 1463 481 1925 481 
Q 2391 481 2648 825 
Q 2906 1169 2906 1791 
z
M 3481 434 
Q 3481 -459 3084 -895 
Q 2688 -1331 1869 -1331 
Q 1566 -1331 1297 -1286 
Q 1028 -1241 775 -1147 
L 775 -588 
Q 1028 -725 1275 -790 
Q 1522 -856 1778 -856 
Q 2344 -856 2625 -561 
Q 2906 -266 2906 331 
L 2906 616 
Q 2728 306 2450 153 
Q 2172 0 1784 0 
Q 1141 0 747 490 
Q 353 981 353 1791 
Q 353 2603 747 3093 
Q 1141 3584 1784 3584 
Q 2172 3584 2450 3431 
Q 2728 3278 2906 2969 
L 2906 3500 
L 3481 3500 
L 3481 434 
z
" id="DejaVuSans-67" transform="scale(0.015625)"/>
       <path d="M 750 794 
L 1409 794 
L 1409 0 
L 750 0 
L 750 794 
z
M 750 3309 
L 1409 3309 
L 1409 2516 
L 750 2516 
L 750 3309 
z
" id="DejaVuSans-3a" transform="scale(0.015625)"/>
       <path d="M 556 4666 
L 1191 4666 
L 1191 1831 
Q 1191 1081 1462 751 
Q 1734 422 2344 422 
Q 2950 422 3222 751 
Q 3494 1081 3494 1831 
L 3494 4666 
L 4128 4666 
L 4128 1753 
Q 4128 841 3676 375 
Q 3225 -91 2344 -91 
Q 1459 -91 1007 375 
Q 556 841 556 1753 
L 556 4666 
z
" id="DejaVuSans-55" transform="scale(0.015625)"/>
       <path d="M 2522 4238 
Q 1834 4238 1429 3725 
Q 1025 3213 1025 2328 
Q 1025 1447 1429 934 
Q 1834 422 2522 422 
Q 3209 422 3611 934 
Q 4013 1447 4013 2328 
Q 4013 3213 3611 3725 
Q 3209 4238 2522 4238 
z
M 2522 4750 
Q 3503 4750 4090 4092 
Q 4678 3434 4678 2328 
Q 4678 1225 4090 567 
Q 3503 -91 2522 -91 
Q 1538 -91 948 565 
Q 359 1222 359 2328 
Q 359 3434 948 4092 
Q 1538 4750 2522 4750 
z
" id="DejaVuSans-4f" transform="scale(0.015625)"/>
       <path d="M 4122 4306 
L 4122 3641 
Q 3803 3938 3442 4084 
Q 3081 4231 2675 4231 
Q 1875 4231 1450 3742 
Q 1025 3253 1025 2328 
Q 1025 1406 1450 917 
Q 1875 428 2675 428 
Q 3081 428 3442 575 
Q 3803 722 4122 1019 
L 4122 359 
Q 3791 134 3420 21 
Q 3050 -91 2638 -91 
Q 1578 -91 968 557 
Q 359 1206 359 2328 
Q 359 3453 968 4101 
Q 1578 4750 2638 4750 
Q 3056 4750 3426 4639 
Q 3797 4528 4122 4306 
z
" id="DejaVuSans-43" transform="scale(0.015625)"/>
      </defs>
      <use xlink:href="#DejaVuSans-41"/>
      <use x="68.408203" xlink:href="#DejaVuSans-67"/>
      <use x="131.884766" xlink:href="#DejaVuSans-65"/>
      <use x="193.408203" xlink:href="#DejaVuSans-20"/>
      <use x="225.195312" xlink:href="#DejaVuSans-3a"/>
      <use x="258.886719" xlink:href="#DejaVuSans-20"/>
      <use x="290.673828" xlink:href="#DejaVuSans-41"/>
      <use x="359.082031" xlink:href="#DejaVuSans-55"/>
      <use x="432.275391" xlink:href="#DejaVuSans-52"/>
      <use x="501.757812" xlink:href="#DejaVuSans-4f"/>
      <use x="580.46875" xlink:href="#DejaVuSans-43"/>
     </g>
    </g>
    <g id="line2d_38">
     <path d="M 393.561576 218.159845 
L 419.561576 218.159845 
" style="fill:none;stroke:#015b52;stroke-linecap:round;stroke-width:1.5;"/>
    </g>
    <g id="line2d_39"/>
    <g id="text_16">
     <!-- 20 : 0.928 -->
     <g style="fill:#262626;" transform="translate(429.961576 222.709845)scale(0.13 -0.13)">
      <defs>
       <path d="M 703 97 
L 703 672 
Q 941 559 1184 500 
Q 1428 441 1663 441 
Q 2288 441 2617 861 
Q 2947 1281 2994 2138 
Q 2813 1869 2534 1725 
Q 2256 1581 1919 1581 
Q 1219 1581 811 2004 
Q 403 2428 403 3163 
Q 403 3881 828 4315 
Q 1253 4750 1959 4750 
Q 2769 4750 3195 4129 
Q 3622 3509 3622 2328 
Q 3622 1225 3098 567 
Q 2575 -91 1691 -91 
Q 1453 -91 1209 -44 
Q 966 3 703 97 
z
M 1959 2075 
Q 2384 2075 2632 2365 
Q 2881 2656 2881 3163 
Q 2881 3666 2632 3958 
Q 2384 4250 1959 4250 
Q 1534 4250 1286 3958 
Q 1038 3666 1038 3163 
Q 1038 2656 1286 2365 
Q 1534 2075 1959 2075 
z
" id="DejaVuSans-39" transform="scale(0.015625)"/>
      </defs>
      <use xlink:href="#DejaVuSans-32"/>
      <use x="63.623047" xlink:href="#DejaVuSans-30"/>
      <use x="127.246094" xlink:href="#DejaVuSans-20"/>
      <use x="159.033203" xlink:href="#DejaVuSans-3a"/>
      <use x="192.724609" xlink:href="#DejaVuSans-20"/>
      <use x="224.511719" xlink:href="#DejaVuSans-30"/>
      <use x="288.134766" xlink:href="#DejaVuSans-2e"/>
      <use x="319.921875" xlink:href="#DejaVuSans-39"/>
      <use x="383.544922" xlink:href="#DejaVuSans-32"/>
      <use x="447.167969" xlink:href="#DejaVuSans-38"/>
     </g>
    </g>
    <g id="line2d_40">
     <path d="M 393.561576 237.241407 
L 419.561576 237.241407 
" style="fill:none;stroke:#1d8078;stroke-linecap:round;stroke-width:1.5;"/>
    </g>
    <g id="line2d_41"/>
    <g id="text_17">
     <!-- 25 : 0.928 -->
     <g style="fill:#262626;" transform="translate(429.961576 241.791407)scale(0.13 -0.13)">
      <defs>
       <path d="M 691 4666 
L 3169 4666 
L 3169 4134 
L 1269 4134 
L 1269 2991 
Q 1406 3038 1543 3061 
Q 1681 3084 1819 3084 
Q 2600 3084 3056 2656 
Q 3513 2228 3513 1497 
Q 3513 744 3044 326 
Q 2575 -91 1722 -91 
Q 1428 -91 1123 -41 
Q 819 9 494 109 
L 494 744 
Q 775 591 1075 516 
Q 1375 441 1709 441 
Q 2250 441 2565 725 
Q 2881 1009 2881 1497 
Q 2881 1984 2565 2268 
Q 2250 2553 1709 2553 
Q 1456 2553 1204 2497 
Q 953 2441 691 2322 
L 691 4666 
z
" id="DejaVuSans-35" transform="scale(0.015625)"/>
      </defs>
      <use xlink:href="#DejaVuSans-32"/>
      <use x="63.623047" xlink:href="#DejaVuSans-35"/>
      <use x="127.246094" xlink:href="#DejaVuSans-20"/>
      <use x="159.033203" xlink:href="#DejaVuSans-3a"/>
      <use x="192.724609" xlink:href="#DejaVuSans-20"/>
      <use x="224.511719" xlink:href="#DejaVuSans-30"/>
      <use x="288.134766" xlink:href="#DejaVuSans-2e"/>
      <use x="319.921875" xlink:href="#DejaVuSans-39"/>
      <use x="383.544922" xlink:href="#DejaVuSans-32"/>
      <use x="447.167969" xlink:href="#DejaVuSans-38"/>
     </g>
    </g>
    <g id="line2d_42">
     <path d="M 393.561576 256.32297 
L 419.561576 256.32297 
" style="fill:none;stroke:#4da89f;stroke-linecap:round;stroke-width:1.5;"/>
    </g>
    <g id="line2d_43"/>
    <g id="text_18">
     <!-- 30 : 0.927 -->
     <g style="fill:#262626;" transform="translate(429.961576 260.87297)scale(0.13 -0.13)">
      <defs>
       <path d="M 2597 2516 
Q 3050 2419 3304 2112 
Q 3559 1806 3559 1356 
Q 3559 666 3084 287 
Q 2609 -91 1734 -91 
Q 1441 -91 1130 -33 
Q 819 25 488 141 
L 488 750 
Q 750 597 1062 519 
Q 1375 441 1716 441 
Q 2309 441 2620 675 
Q 2931 909 2931 1356 
Q 2931 1769 2642 2001 
Q 2353 2234 1838 2234 
L 1294 2234 
L 1294 2753 
L 1863 2753 
Q 2328 2753 2575 2939 
Q 2822 3125 2822 3475 
Q 2822 3834 2567 4026 
Q 2313 4219 1838 4219 
Q 1578 4219 1281 4162 
Q 984 4106 628 3988 
L 628 4550 
Q 988 4650 1302 4700 
Q 1616 4750 1894 4750 
Q 2613 4750 3031 4423 
Q 3450 4097 3450 3541 
Q 3450 3153 3228 2886 
Q 3006 2619 2597 2516 
z
" id="DejaVuSans-33" transform="scale(0.015625)"/>
       <path d="M 525 4666 
L 3525 4666 
L 3525 4397 
L 1831 0 
L 1172 0 
L 2766 4134 
L 525 4134 
L 525 4666 
z
" id="DejaVuSans-37" transform="scale(0.015625)"/>
      </defs>
      <use xlink:href="#DejaVuSans-33"/>
      <use x="63.623047" xlink:href="#DejaVuSans-30"/>
      <use x="127.246094" xlink:href="#DejaVuSans-20"/>
      <use x="159.033203" xlink:href="#DejaVuSans-3a"/>
      <use x="192.724609" xlink:href="#DejaVuSans-20"/>
      <use x="224.511719" xlink:href="#DejaVuSans-30"/>
      <use x="288.134766" xlink:href="#DejaVuSans-2e"/>
      <use x="319.921875" xlink:href="#DejaVuSans-39"/>
      <use x="383.544922" xlink:href="#DejaVuSans-32"/>
      <use x="447.167969" xlink:href="#DejaVuSans-37"/>
     </g>
    </g>
    <g id="line2d_44">
     <path d="M 393.561576 275.404532 
L 419.561576 275.404532 
" style="fill:none;stroke:#84cfc3;stroke-linecap:round;stroke-width:1.5;"/>
    </g>
    <g id="line2d_45"/>
    <g id="text_19">
     <!-- 35 : 0.928 -->
     <g style="fill:#262626;" transform="translate(429.961576 279.954532)scale(0.13 -0.13)">
      <use xlink:href="#DejaVuSans-33"/>
      <use x="63.623047" xlink:href="#DejaVuSans-35"/>
      <use x="127.246094" xlink:href="#DejaVuSans-20"/>
      <use x="159.033203" xlink:href="#DejaVuSans-3a"/>
      <use x="192.724609" xlink:href="#DejaVuSans-20"/>
      <use x="224.511719" xlink:href="#DejaVuSans-30"/>
      <use x="288.134766" xlink:href="#DejaVuSans-2e"/>
      <use x="319.921875" xlink:href="#DejaVuSans-39"/>
      <use x="383.544922" xlink:href="#DejaVuSans-32"/>
      <use x="447.167969" xlink:href="#DejaVuSans-38"/>
     </g>
    </g>
    <g id="line2d_46">
     <path d="M 393.561576 294.486095 
L 419.561576 294.486095 
" style="fill:none;stroke:#bce5df;stroke-linecap:round;stroke-width:1.5;"/>
    </g>
    <g id="line2d_47"/>
    <g id="text_20">
     <!-- 40 : 0.928 -->
     <g style="fill:#262626;" transform="translate(429.961576 299.036095)scale(0.13 -0.13)">
      <use xlink:href="#DejaVuSans-34"/>
      <use x="63.623047" xlink:href="#DejaVuSans-30"/>
      <use x="127.246094" xlink:href="#DejaVuSans-20"/>
      <use x="159.033203" xlink:href="#DejaVuSans-3a"/>
      <use x="192.724609" xlink:href="#DejaVuSans-20"/>
      <use x="224.511719" xlink:href="#DejaVuSans-30"/>
      <use x="288.134766" xlink:href="#DejaVuSans-2e"/>
      <use x="319.921875" xlink:href="#DejaVuSans-39"/>
      <use x="383.544922" xlink:href="#DejaVuSans-32"/>
      <use x="447.167969" xlink:href="#DejaVuSans-38"/>
     </g>
    </g>
    <g id="line2d_48">
     <path d="M 393.561576 313.567657 
L 419.561576 313.567657 
" style="fill:none;stroke:#e4f1ef;stroke-linecap:round;stroke-width:1.5;"/>
    </g>
    <g id="line2d_49"/>
    <g id="text_21">
     <!-- 45 : 0.926 -->
     <g style="fill:#262626;" transform="translate(429.961576 318.117657)scale(0.13 -0.13)">
      <use xlink:href="#DejaVuSans-34"/>
      <use x="63.623047" xlink:href="#DejaVuSans-35"/>
      <use x="127.246094" xlink:href="#DejaVuSans-20"/>
      <use x="159.033203" xlink:href="#DejaVuSans-3a"/>
      <use x="192.724609" xlink:href="#DejaVuSans-20"/>
      <use x="224.511719" xlink:href="#DejaVuSans-30"/>
      <use x="288.134766" xlink:href="#DejaVuSans-2e"/>
      <use x="319.921875" xlink:href="#DejaVuSans-39"/>
      <use x="383.544922" xlink:href="#DejaVuSans-32"/>
      <use x="447.167969" xlink:href="#DejaVuSans-36"/>
     </g>
    </g>
    <g id="line2d_50">
     <path d="M 393.561576 332.64922 
L 419.561576 332.64922 
" style="fill:none;stroke:#f5f0e2;stroke-linecap:round;stroke-width:1.5;"/>
    </g>
    <g id="line2d_51"/>
    <g id="text_22">
     <!-- 50 : 0.923 -->
     <g style="fill:#262626;" transform="translate(429.961576 337.19922)scale(0.13 -0.13)">
      <use xlink:href="#DejaVuSans-35"/>
      <use x="63.623047" xlink:href="#DejaVuSans-30"/>
      <use x="127.246094" xlink:href="#DejaVuSans-20"/>
      <use x="159.033203" xlink:href="#DejaVuSans-3a"/>
      <use x="192.724609" xlink:href="#DejaVuSans-20"/>
      <use x="224.511719" xlink:href="#DejaVuSans-30"/>
      <use x="288.134766" xlink:href="#DejaVuSans-2e"/>
      <use x="319.921875" xlink:href="#DejaVuSans-39"/>
      <use x="383.544922" xlink:href="#DejaVuSans-32"/>
      <use x="447.167969" xlink:href="#DejaVuSans-33"/>
     </g>
    </g>
    <g id="line2d_52">
     <path d="M 393.561576 351.730782 
L 419.561576 351.730782 
" style="fill:none;stroke:#f2e2b8;stroke-linecap:round;stroke-width:1.5;"/>
    </g>
    <g id="line2d_53"/>
    <g id="text_23">
     <!-- 55 : 0.920 -->
     <g style="fill:#262626;" transform="translate(429.961576 356.280782)scale(0.13 -0.13)">
      <use xlink:href="#DejaVuSans-35"/>
      <use x="63.623047" xlink:href="#DejaVuSans-35"/>
      <use x="127.246094" xlink:href="#DejaVuSans-20"/>
      <use x="159.033203" xlink:href="#DejaVuSans-3a"/>
      <use x="192.724609" xlink:href="#DejaVuSans-20"/>
      <use x="224.511719" xlink:href="#DejaVuSans-30"/>
      <use x="288.134766" xlink:href="#DejaVuSans-2e"/>
      <use x="319.921875" xlink:href="#DejaVuSans-39"/>
      <use x="383.544922" xlink:href="#DejaVuSans-32"/>
      <use x="447.167969" xlink:href="#DejaVuSans-30"/>
     </g>
    </g>
    <g id="line2d_54">
     <path d="M 393.561576 370.812345 
L 419.561576 370.812345 
" style="fill:none;stroke:#e0c481;stroke-linecap:round;stroke-width:1.5;"/>
    </g>
    <g id="line2d_55"/>
    <g id="text_24">
     <!-- 60 : 0.917 -->
     <g style="fill:#262626;" transform="translate(429.961576 375.362345)scale(0.13 -0.13)">
      <use xlink:href="#DejaVuSans-36"/>
      <use x="63.623047" xlink:href="#DejaVuSans-30"/>
      <use x="127.246094" xlink:href="#DejaVuSans-20"/>
      <use x="159.033203" xlink:href="#DejaVuSans-3a"/>
      <use x="192.724609" xlink:href="#DejaVuSans-20"/>
      <use x="224.511719" xlink:href="#DejaVuSans-30"/>
      <use x="288.134766" xlink:href="#DejaVuSans-2e"/>
      <use x="319.921875" xlink:href="#DejaVuSans-39"/>
      <use x="383.544922" xlink:href="#DejaVuSans-31"/>
      <use x="447.167969" xlink:href="#DejaVuSans-37"/>
     </g>
    </g>
    <g id="line2d_56">
     <path d="M 393.561576 389.893907 
L 419.561576 389.893907 
" style="fill:none;stroke:#c99546;stroke-linecap:round;stroke-width:1.5;"/>
    </g>
    <g id="line2d_57"/>
    <g id="text_25">
     <!-- 65 : 0.914 -->
     <g style="fill:#262626;" transform="translate(429.961576 394.443907)scale(0.13 -0.13)">
      <use xlink:href="#DejaVuSans-36"/>
      <use x="63.623047" xlink:href="#DejaVuSans-35"/>
      <use x="127.246094" xlink:href="#DejaVuSans-20"/>
      <use x="159.033203" xlink:href="#DejaVuSans-3a"/>
      <use x="192.724609" xlink:href="#DejaVuSans-20"/>
      <use x="224.511719" xlink:href="#DejaVuSans-30"/>
      <use x="288.134766" xlink:href="#DejaVuSans-2e"/>
      <use x="319.921875" xlink:href="#DejaVuSans-39"/>
      <use x="383.544922" xlink:href="#DejaVuSans-31"/>
      <use x="447.167969" xlink:href="#DejaVuSans-34"/>
     </g>
    </g>
    <g id="line2d_58">
     <path d="M 393.561576 408.97547 
L 419.561576 408.97547 
" style="fill:none;stroke:#a76a1d;stroke-linecap:round;stroke-width:1.5;"/>
    </g>
    <g id="line2d_59"/>
    <g id="text_26">
     <!-- 70 : 0.912 -->
     <g style="fill:#262626;" transform="translate(429.961576 413.52547)scale(0.13 -0.13)">
      <use xlink:href="#DejaVuSans-37"/>
      <use x="63.623047" xlink:href="#DejaVuSans-30"/>
      <use x="127.246094" xlink:href="#DejaVuSans-20"/>
      <use x="159.033203" xlink:href="#DejaVuSans-3a"/>
      <use x="192.724609" xlink:href="#DejaVuSans-20"/>
      <use x="224.511719" xlink:href="#DejaVuSans-30"/>
      <use x="288.134766" xlink:href="#DejaVuSans-2e"/>
      <use x="319.921875" xlink:href="#DejaVuSans-39"/>
      <use x="383.544922" xlink:href="#DejaVuSans-31"/>
      <use x="447.167969" xlink:href="#DejaVuSans-32"/>
     </g>
    </g>
    <g id="line2d_60">
     <path d="M 393.561576 428.057032 
L 419.561576 428.057032 
" style="fill:none;stroke:#7e4909;stroke-linecap:round;stroke-width:1.5;"/>
    </g>
    <g id="line2d_61"/>
    <g id="text_27">
     <!-- 75 : 0.910 -->
     <g style="fill:#262626;" transform="translate(429.961576 432.607032)scale(0.13 -0.13)">
      <use xlink:href="#DejaVuSans-37"/>
      <use x="63.623047" xlink:href="#DejaVuSans-35"/>
      <use x="127.246094" xlink:href="#DejaVuSans-20"/>
      <use x="159.033203" xlink:href="#DejaVuSans-3a"/>
      <use x="192.724609" xlink:href="#DejaVuSans-20"/>
      <use x="224.511719" xlink:href="#DejaVuSans-30"/>
      <use x="288.134766" xlink:href="#DejaVuSans-2e"/>
      <use x="319.921875" xlink:href="#DejaVuSans-39"/>
      <use x="383.544922" xlink:href="#DejaVuSans-31"/>
      <use x="447.167969" xlink:href="#DejaVuSans-30"/>
     </g>
    </g>
   </g>
  </g>
 </g>
 <defs>
  <clipPath id="pbdc50e8e5a">
   <rect height="434.88" width="446.4" x="61.663138" y="12.130626"/>
  </clipPath>
 </defs>
</svg>
