<?xml version="1.0" encoding="utf-8" standalone="no"?>
<!DOCTYPE svg PUBLIC "-//W3C//DTD SVG 1.1//EN"
  "http://www.w3.org/Graphics/SVG/1.1/DTD/svg11.dtd">
<svg height="432pt" version="1.1" viewBox="0 0 432 432" width="432pt" xmlns="http://www.w3.org/2000/svg" xmlns:xlink="http://www.w3.org/1999/xlink">
 <metadata>
  <rdf:RDF xmlns:cc="http://creativecommons.org/ns#" xmlns:dc="http://purl.org/dc/elements/1.1/" xmlns:rdf="http://www.w3.org/1999/02/22-rdf-syntax-ns#">
   <cc:Work>
    <dc:type rdf:resource="http://purl.org/dc/dcmitype/StillImage"/>
    <dc:date>2021-12-14T15:05:10.098857</dc:date>
    <dc:format>image/svg+xml</dc:format>
    <dc:creator>
     <cc:Agent>
      <dc:title>Matplotlib v3.4.3, https://matplotlib.org/</dc:title>
     </cc:Agent>
    </dc:creator>
   </cc:Work>
  </rdf:RDF>
 </metadata>
 <defs>
  <style type="text/css">*{stroke-linecap:butt;stroke-linejoin:round;}</style>
 </defs>
 <g id="figure_1">
  <g id="patch_1">
   <path d="M 0 432 
L 432 432 
L 432 0 
L 0 0 
z
" style="fill:#ffffff;"/>
  </g>
  <g id="axes_1">
   <g id="patch_2">
    <path d="M 54 378 
L 388.8 378 
L 388.8 51.84 
L 54 51.84 
z
" style="fill:#ffffff;"/>
   </g>
   <g id="matplotlib.axis_1">
    <g id="xtick_1">
     <g id="line2d_1">
      <path clip-path="url(#p4a7f202f7c)" d="M 54 378 
L 54 51.84 
" style="fill:none;stroke:#f2f2f2;stroke-linecap:round;"/>
     </g>
     <g id="line2d_2">
      <defs>
       <path d="M 0 0 
L 0 6 
" id="m75470d2928" style="stroke:#262626;stroke-width:1.25;"/>
      </defs>
      <g>
       <use style="fill:#262626;stroke:#262626;stroke-width:1.25;" x="54" xlink:href="#m75470d2928" y="378"/>
      </g>
     </g>
     <g id="text_1">
      <!-- 0.0 -->
      <g style="fill:#262626;" transform="translate(45.253281 395.858281)scale(0.11 -0.11)">
       <defs>
        <path d="M 2034 4250 
Q 1547 4250 1301 3770 
Q 1056 3291 1056 2328 
Q 1056 1369 1301 889 
Q 1547 409 2034 409 
Q 2525 409 2770 889 
Q 3016 1369 3016 2328 
Q 3016 3291 2770 3770 
Q 2525 4250 2034 4250 
z
M 2034 4750 
Q 2819 4750 3233 4129 
Q 3647 3509 3647 2328 
Q 3647 1150 3233 529 
Q 2819 -91 2034 -91 
Q 1250 -91 836 529 
Q 422 1150 422 2328 
Q 422 3509 836 4129 
Q 1250 4750 2034 4750 
z
" id="DejaVuSans-30" transform="scale(0.015625)"/>
        <path d="M 684 794 
L 1344 794 
L 1344 0 
L 684 0 
L 684 794 
z
" id="DejaVuSans-2e" transform="scale(0.015625)"/>
       </defs>
       <use xlink:href="#DejaVuSans-30"/>
       <use x="63.623047" xlink:href="#DejaVuSans-2e"/>
       <use x="95.410156" xlink:href="#DejaVuSans-30"/>
      </g>
     </g>
    </g>
    <g id="xtick_2">
     <g id="line2d_3">
      <path clip-path="url(#p4a7f202f7c)" d="M 120.96 378 
L 120.96 51.84 
" style="fill:none;stroke:#f2f2f2;stroke-linecap:round;"/>
     </g>
     <g id="line2d_4">
      <g>
       <use style="fill:#262626;stroke:#262626;stroke-width:1.25;" x="120.96" xlink:href="#m75470d2928" y="378"/>
      </g>
     </g>
     <g id="text_2">
      <!-- 0.2 -->
      <g style="fill:#262626;" transform="translate(112.213281 395.858281)scale(0.11 -0.11)">
       <defs>
        <path d="M 1228 531 
L 3431 531 
L 3431 0 
L 469 0 
L 469 531 
Q 828 903 1448 1529 
Q 2069 2156 2228 2338 
Q 2531 2678 2651 2914 
Q 2772 3150 2772 3378 
Q 2772 3750 2511 3984 
Q 2250 4219 1831 4219 
Q 1534 4219 1204 4116 
Q 875 4013 500 3803 
L 500 4441 
Q 881 4594 1212 4672 
Q 1544 4750 1819 4750 
Q 2544 4750 2975 4387 
Q 3406 4025 3406 3419 
Q 3406 3131 3298 2873 
Q 3191 2616 2906 2266 
Q 2828 2175 2409 1742 
Q 1991 1309 1228 531 
z
" id="DejaVuSans-32" transform="scale(0.015625)"/>
       </defs>
       <use xlink:href="#DejaVuSans-30"/>
       <use x="63.623047" xlink:href="#DejaVuSans-2e"/>
       <use x="95.410156" xlink:href="#DejaVuSans-32"/>
      </g>
     </g>
    </g>
    <g id="xtick_3">
     <g id="line2d_5">
      <path clip-path="url(#p4a7f202f7c)" d="M 187.92 378 
L 187.92 51.84 
" style="fill:none;stroke:#f2f2f2;stroke-linecap:round;"/>
     </g>
     <g id="line2d_6">
      <g>
       <use style="fill:#262626;stroke:#262626;stroke-width:1.25;" x="187.92" xlink:href="#m75470d2928" y="378"/>
      </g>
     </g>
     <g id="text_3">
      <!-- 0.4 -->
      <g style="fill:#262626;" transform="translate(179.173281 395.858281)scale(0.11 -0.11)">
       <defs>
        <path d="M 2419 4116 
L 825 1625 
L 2419 1625 
L 2419 4116 
z
M 2253 4666 
L 3047 4666 
L 3047 1625 
L 3713 1625 
L 3713 1100 
L 3047 1100 
L 3047 0 
L 2419 0 
L 2419 1100 
L 313 1100 
L 313 1709 
L 2253 4666 
z
" id="DejaVuSans-34" transform="scale(0.015625)"/>
       </defs>
       <use xlink:href="#DejaVuSans-30"/>
       <use x="63.623047" xlink:href="#DejaVuSans-2e"/>
       <use x="95.410156" xlink:href="#DejaVuSans-34"/>
      </g>
     </g>
    </g>
    <g id="xtick_4">
     <g id="line2d_7">
      <path clip-path="url(#p4a7f202f7c)" d="M 254.88 378 
L 254.88 51.84 
" style="fill:none;stroke:#f2f2f2;stroke-linecap:round;"/>
     </g>
     <g id="line2d_8">
      <g>
       <use style="fill:#262626;stroke:#262626;stroke-width:1.25;" x="254.88" xlink:href="#m75470d2928" y="378"/>
      </g>
     </g>
     <g id="text_4">
      <!-- 0.6 -->
      <g style="fill:#262626;" transform="translate(246.133281 395.858281)scale(0.11 -0.11)">
       <defs>
        <path d="M 2113 2584 
Q 1688 2584 1439 2293 
Q 1191 2003 1191 1497 
Q 1191 994 1439 701 
Q 1688 409 2113 409 
Q 2538 409 2786 701 
Q 3034 994 3034 1497 
Q 3034 2003 2786 2293 
Q 2538 2584 2113 2584 
z
M 3366 4563 
L 3366 3988 
Q 3128 4100 2886 4159 
Q 2644 4219 2406 4219 
Q 1781 4219 1451 3797 
Q 1122 3375 1075 2522 
Q 1259 2794 1537 2939 
Q 1816 3084 2150 3084 
Q 2853 3084 3261 2657 
Q 3669 2231 3669 1497 
Q 3669 778 3244 343 
Q 2819 -91 2113 -91 
Q 1303 -91 875 529 
Q 447 1150 447 2328 
Q 447 3434 972 4092 
Q 1497 4750 2381 4750 
Q 2619 4750 2861 4703 
Q 3103 4656 3366 4563 
z
" id="DejaVuSans-36" transform="scale(0.015625)"/>
       </defs>
       <use xlink:href="#DejaVuSans-30"/>
       <use x="63.623047" xlink:href="#DejaVuSans-2e"/>
       <use x="95.410156" xlink:href="#DejaVuSans-36"/>
      </g>
     </g>
    </g>
    <g id="xtick_5">
     <g id="line2d_9">
      <path clip-path="url(#p4a7f202f7c)" d="M 321.84 378 
L 321.84 51.84 
" style="fill:none;stroke:#f2f2f2;stroke-linecap:round;"/>
     </g>
     <g id="line2d_10">
      <g>
       <use style="fill:#262626;stroke:#262626;stroke-width:1.25;" x="321.84" xlink:href="#m75470d2928" y="378"/>
      </g>
     </g>
     <g id="text_5">
      <!-- 0.8 -->
      <g style="fill:#262626;" transform="translate(313.093281 395.858281)scale(0.11 -0.11)">
       <defs>
        <path d="M 2034 2216 
Q 1584 2216 1326 1975 
Q 1069 1734 1069 1313 
Q 1069 891 1326 650 
Q 1584 409 2034 409 
Q 2484 409 2743 651 
Q 3003 894 3003 1313 
Q 3003 1734 2745 1975 
Q 2488 2216 2034 2216 
z
M 1403 2484 
Q 997 2584 770 2862 
Q 544 3141 544 3541 
Q 544 4100 942 4425 
Q 1341 4750 2034 4750 
Q 2731 4750 3128 4425 
Q 3525 4100 3525 3541 
Q 3525 3141 3298 2862 
Q 3072 2584 2669 2484 
Q 3125 2378 3379 2068 
Q 3634 1759 3634 1313 
Q 3634 634 3220 271 
Q 2806 -91 2034 -91 
Q 1263 -91 848 271 
Q 434 634 434 1313 
Q 434 1759 690 2068 
Q 947 2378 1403 2484 
z
M 1172 3481 
Q 1172 3119 1398 2916 
Q 1625 2713 2034 2713 
Q 2441 2713 2670 2916 
Q 2900 3119 2900 3481 
Q 2900 3844 2670 4047 
Q 2441 4250 2034 4250 
Q 1625 4250 1398 4047 
Q 1172 3844 1172 3481 
z
" id="DejaVuSans-38" transform="scale(0.015625)"/>
       </defs>
       <use xlink:href="#DejaVuSans-30"/>
       <use x="63.623047" xlink:href="#DejaVuSans-2e"/>
       <use x="95.410156" xlink:href="#DejaVuSans-38"/>
      </g>
     </g>
    </g>
    <g id="xtick_6">
     <g id="line2d_11">
      <path clip-path="url(#p4a7f202f7c)" d="M 388.8 378 
L 388.8 51.84 
" style="fill:none;stroke:#f2f2f2;stroke-linecap:round;"/>
     </g>
     <g id="line2d_12">
      <g>
       <use style="fill:#262626;stroke:#262626;stroke-width:1.25;" x="388.8" xlink:href="#m75470d2928" y="378"/>
      </g>
     </g>
     <g id="text_6">
      <!-- 1.0 -->
      <g style="fill:#262626;" transform="translate(380.053281 395.858281)scale(0.11 -0.11)">
       <defs>
        <path d="M 794 531 
L 1825 531 
L 1825 4091 
L 703 3866 
L 703 4441 
L 1819 4666 
L 2450 4666 
L 2450 531 
L 3481 531 
L 3481 0 
L 794 0 
L 794 531 
z
" id="DejaVuSans-31" transform="scale(0.015625)"/>
       </defs>
       <use xlink:href="#DejaVuSans-31"/>
       <use x="63.623047" xlink:href="#DejaVuSans-2e"/>
       <use x="95.410156" xlink:href="#DejaVuSans-30"/>
      </g>
     </g>
    </g>
    <g id="text_7">
     <!-- False Positive Rate -->
     <g style="fill:#262626;" transform="translate(165.640312 411.264063)scale(0.12 -0.12)">
      <defs>
       <path d="M 628 4666 
L 3309 4666 
L 3309 4134 
L 1259 4134 
L 1259 2759 
L 3109 2759 
L 3109 2228 
L 1259 2228 
L 1259 0 
L 628 0 
L 628 4666 
z
" id="DejaVuSans-46" transform="scale(0.015625)"/>
       <path d="M 2194 1759 
Q 1497 1759 1228 1600 
Q 959 1441 959 1056 
Q 959 750 1161 570 
Q 1363 391 1709 391 
Q 2188 391 2477 730 
Q 2766 1069 2766 1631 
L 2766 1759 
L 2194 1759 
z
M 3341 1997 
L 3341 0 
L 2766 0 
L 2766 531 
Q 2569 213 2275 61 
Q 1981 -91 1556 -91 
Q 1019 -91 701 211 
Q 384 513 384 1019 
Q 384 1609 779 1909 
Q 1175 2209 1959 2209 
L 2766 2209 
L 2766 2266 
Q 2766 2663 2505 2880 
Q 2244 3097 1772 3097 
Q 1472 3097 1187 3025 
Q 903 2953 641 2809 
L 641 3341 
Q 956 3463 1253 3523 
Q 1550 3584 1831 3584 
Q 2591 3584 2966 3190 
Q 3341 2797 3341 1997 
z
" id="DejaVuSans-61" transform="scale(0.015625)"/>
       <path d="M 603 4863 
L 1178 4863 
L 1178 0 
L 603 0 
L 603 4863 
z
" id="DejaVuSans-6c" transform="scale(0.015625)"/>
       <path d="M 2834 3397 
L 2834 2853 
Q 2591 2978 2328 3040 
Q 2066 3103 1784 3103 
Q 1356 3103 1142 2972 
Q 928 2841 928 2578 
Q 928 2378 1081 2264 
Q 1234 2150 1697 2047 
L 1894 2003 
Q 2506 1872 2764 1633 
Q 3022 1394 3022 966 
Q 3022 478 2636 193 
Q 2250 -91 1575 -91 
Q 1294 -91 989 -36 
Q 684 19 347 128 
L 347 722 
Q 666 556 975 473 
Q 1284 391 1588 391 
Q 1994 391 2212 530 
Q 2431 669 2431 922 
Q 2431 1156 2273 1281 
Q 2116 1406 1581 1522 
L 1381 1569 
Q 847 1681 609 1914 
Q 372 2147 372 2553 
Q 372 3047 722 3315 
Q 1072 3584 1716 3584 
Q 2034 3584 2315 3537 
Q 2597 3491 2834 3397 
z
" id="DejaVuSans-73" transform="scale(0.015625)"/>
       <path d="M 3597 1894 
L 3597 1613 
L 953 1613 
Q 991 1019 1311 708 
Q 1631 397 2203 397 
Q 2534 397 2845 478 
Q 3156 559 3463 722 
L 3463 178 
Q 3153 47 2828 -22 
Q 2503 -91 2169 -91 
Q 1331 -91 842 396 
Q 353 884 353 1716 
Q 353 2575 817 3079 
Q 1281 3584 2069 3584 
Q 2775 3584 3186 3129 
Q 3597 2675 3597 1894 
z
M 3022 2063 
Q 3016 2534 2758 2815 
Q 2500 3097 2075 3097 
Q 1594 3097 1305 2825 
Q 1016 2553 972 2059 
L 3022 2063 
z
" id="DejaVuSans-65" transform="scale(0.015625)"/>
       <path id="DejaVuSans-20" transform="scale(0.015625)"/>
       <path d="M 1259 4147 
L 1259 2394 
L 2053 2394 
Q 2494 2394 2734 2622 
Q 2975 2850 2975 3272 
Q 2975 3691 2734 3919 
Q 2494 4147 2053 4147 
L 1259 4147 
z
M 628 4666 
L 2053 4666 
Q 2838 4666 3239 4311 
Q 3641 3956 3641 3272 
Q 3641 2581 3239 2228 
Q 2838 1875 2053 1875 
L 1259 1875 
L 1259 0 
L 628 0 
L 628 4666 
z
" id="DejaVuSans-50" transform="scale(0.015625)"/>
       <path d="M 1959 3097 
Q 1497 3097 1228 2736 
Q 959 2375 959 1747 
Q 959 1119 1226 758 
Q 1494 397 1959 397 
Q 2419 397 2687 759 
Q 2956 1122 2956 1747 
Q 2956 2369 2687 2733 
Q 2419 3097 1959 3097 
z
M 1959 3584 
Q 2709 3584 3137 3096 
Q 3566 2609 3566 1747 
Q 3566 888 3137 398 
Q 2709 -91 1959 -91 
Q 1206 -91 779 398 
Q 353 888 353 1747 
Q 353 2609 779 3096 
Q 1206 3584 1959 3584 
z
" id="DejaVuSans-6f" transform="scale(0.015625)"/>
       <path d="M 603 3500 
L 1178 3500 
L 1178 0 
L 603 0 
L 603 3500 
z
M 603 4863 
L 1178 4863 
L 1178 4134 
L 603 4134 
L 603 4863 
z
" id="DejaVuSans-69" transform="scale(0.015625)"/>
       <path d="M 1172 4494 
L 1172 3500 
L 2356 3500 
L 2356 3053 
L 1172 3053 
L 1172 1153 
Q 1172 725 1289 603 
Q 1406 481 1766 481 
L 2356 481 
L 2356 0 
L 1766 0 
Q 1100 0 847 248 
Q 594 497 594 1153 
L 594 3053 
L 172 3053 
L 172 3500 
L 594 3500 
L 594 4494 
L 1172 4494 
z
" id="DejaVuSans-74" transform="scale(0.015625)"/>
       <path d="M 191 3500 
L 800 3500 
L 1894 563 
L 2988 3500 
L 3597 3500 
L 2284 0 
L 1503 0 
L 191 3500 
z
" id="DejaVuSans-76" transform="scale(0.015625)"/>
       <path d="M 2841 2188 
Q 3044 2119 3236 1894 
Q 3428 1669 3622 1275 
L 4263 0 
L 3584 0 
L 2988 1197 
Q 2756 1666 2539 1819 
Q 2322 1972 1947 1972 
L 1259 1972 
L 1259 0 
L 628 0 
L 628 4666 
L 2053 4666 
Q 2853 4666 3247 4331 
Q 3641 3997 3641 3322 
Q 3641 2881 3436 2590 
Q 3231 2300 2841 2188 
z
M 1259 4147 
L 1259 2491 
L 2053 2491 
Q 2509 2491 2742 2702 
Q 2975 2913 2975 3322 
Q 2975 3731 2742 3939 
Q 2509 4147 2053 4147 
L 1259 4147 
z
" id="DejaVuSans-52" transform="scale(0.015625)"/>
      </defs>
      <use xlink:href="#DejaVuSans-46"/>
      <use x="48.394531" xlink:href="#DejaVuSans-61"/>
      <use x="109.673828" xlink:href="#DejaVuSans-6c"/>
      <use x="137.457031" xlink:href="#DejaVuSans-73"/>
      <use x="189.556641" xlink:href="#DejaVuSans-65"/>
      <use x="251.080078" xlink:href="#DejaVuSans-20"/>
      <use x="282.867188" xlink:href="#DejaVuSans-50"/>
      <use x="339.544922" xlink:href="#DejaVuSans-6f"/>
      <use x="400.726562" xlink:href="#DejaVuSans-73"/>
      <use x="452.826172" xlink:href="#DejaVuSans-69"/>
      <use x="480.609375" xlink:href="#DejaVuSans-74"/>
      <use x="519.818359" xlink:href="#DejaVuSans-69"/>
      <use x="547.601562" xlink:href="#DejaVuSans-76"/>
      <use x="606.78125" xlink:href="#DejaVuSans-65"/>
      <use x="668.304688" xlink:href="#DejaVuSans-20"/>
      <use x="700.091797" xlink:href="#DejaVuSans-52"/>
      <use x="767.324219" xlink:href="#DejaVuSans-61"/>
      <use x="828.603516" xlink:href="#DejaVuSans-74"/>
      <use x="867.8125" xlink:href="#DejaVuSans-65"/>
     </g>
    </g>
   </g>
   <g id="matplotlib.axis_2">
    <g id="ytick_1">
     <g id="line2d_13">
      <path clip-path="url(#p4a7f202f7c)" d="M 54 378 
L 388.8 378 
" style="fill:none;stroke:#f2f2f2;stroke-linecap:round;"/>
     </g>
     <g id="line2d_14">
      <defs>
       <path d="M 0 0 
L -6 0 
" id="m42a1183fb2" style="stroke:#262626;stroke-width:1.25;"/>
      </defs>
      <g>
       <use style="fill:#262626;stroke:#262626;stroke-width:1.25;" x="54" xlink:href="#m42a1183fb2" y="378"/>
      </g>
     </g>
     <g id="text_8">
      <!-- 0.0 -->
      <g style="fill:#262626;" transform="translate(27.006563 382.179141)scale(0.11 -0.11)">
       <use xlink:href="#DejaVuSans-30"/>
       <use x="63.623047" xlink:href="#DejaVuSans-2e"/>
       <use x="95.410156" xlink:href="#DejaVuSans-30"/>
      </g>
     </g>
    </g>
    <g id="ytick_2">
     <g id="line2d_15">
      <path clip-path="url(#p4a7f202f7c)" d="M 54 312.768 
L 388.8 312.768 
" style="fill:none;stroke:#f2f2f2;stroke-linecap:round;"/>
     </g>
     <g id="line2d_16">
      <g>
       <use style="fill:#262626;stroke:#262626;stroke-width:1.25;" x="54" xlink:href="#m42a1183fb2" y="312.768"/>
      </g>
     </g>
     <g id="text_9">
      <!-- 0.2 -->
      <g style="fill:#262626;" transform="translate(27.006563 316.947141)scale(0.11 -0.11)">
       <use xlink:href="#DejaVuSans-30"/>
       <use x="63.623047" xlink:href="#DejaVuSans-2e"/>
       <use x="95.410156" xlink:href="#DejaVuSans-32"/>
      </g>
     </g>
    </g>
    <g id="ytick_3">
     <g id="line2d_17">
      <path clip-path="url(#p4a7f202f7c)" d="M 54 247.536 
L 388.8 247.536 
" style="fill:none;stroke:#f2f2f2;stroke-linecap:round;"/>
     </g>
     <g id="line2d_18">
      <g>
       <use style="fill:#262626;stroke:#262626;stroke-width:1.25;" x="54" xlink:href="#m42a1183fb2" y="247.536"/>
      </g>
     </g>
     <g id="text_10">
      <!-- 0.4 -->
      <g style="fill:#262626;" transform="translate(27.006563 251.715141)scale(0.11 -0.11)">
       <use xlink:href="#DejaVuSans-30"/>
       <use x="63.623047" xlink:href="#DejaVuSans-2e"/>
       <use x="95.410156" xlink:href="#DejaVuSans-34"/>
      </g>
     </g>
    </g>
    <g id="ytick_4">
     <g id="line2d_19">
      <path clip-path="url(#p4a7f202f7c)" d="M 54 182.304 
L 388.8 182.304 
" style="fill:none;stroke:#f2f2f2;stroke-linecap:round;"/>
     </g>
     <g id="line2d_20">
      <g>
       <use style="fill:#262626;stroke:#262626;stroke-width:1.25;" x="54" xlink:href="#m42a1183fb2" y="182.304"/>
      </g>
     </g>
     <g id="text_11">
      <!-- 0.6 -->
      <g style="fill:#262626;" transform="translate(27.006563 186.483141)scale(0.11 -0.11)">
       <use xlink:href="#DejaVuSans-30"/>
       <use x="63.623047" xlink:href="#DejaVuSans-2e"/>
       <use x="95.410156" xlink:href="#DejaVuSans-36"/>
      </g>
     </g>
    </g>
    <g id="ytick_5">
     <g id="line2d_21">
      <path clip-path="url(#p4a7f202f7c)" d="M 54 117.072 
L 388.8 117.072 
" style="fill:none;stroke:#f2f2f2;stroke-linecap:round;"/>
     </g>
     <g id="line2d_22">
      <g>
       <use style="fill:#262626;stroke:#262626;stroke-width:1.25;" x="54" xlink:href="#m42a1183fb2" y="117.072"/>
      </g>
     </g>
     <g id="text_12">
      <!-- 0.8 -->
      <g style="fill:#262626;" transform="translate(27.006563 121.251141)scale(0.11 -0.11)">
       <use xlink:href="#DejaVuSans-30"/>
       <use x="63.623047" xlink:href="#DejaVuSans-2e"/>
       <use x="95.410156" xlink:href="#DejaVuSans-38"/>
      </g>
     </g>
    </g>
    <g id="ytick_6">
     <g id="line2d_23">
      <path clip-path="url(#p4a7f202f7c)" d="M 54 51.84 
L 388.8 51.84 
" style="fill:none;stroke:#f2f2f2;stroke-linecap:round;"/>
     </g>
     <g id="line2d_24">
      <g>
       <use style="fill:#262626;stroke:#262626;stroke-width:1.25;" x="54" xlink:href="#m42a1183fb2" y="51.84"/>
      </g>
     </g>
     <g id="text_13">
      <!-- 1.0 -->
      <g style="fill:#262626;" transform="translate(27.006563 56.019141)scale(0.11 -0.11)">
       <use xlink:href="#DejaVuSans-31"/>
       <use x="63.623047" xlink:href="#DejaVuSans-2e"/>
       <use x="95.410156" xlink:href="#DejaVuSans-30"/>
      </g>
     </g>
    </g>
    <g id="text_14">
     <!-- True Positive Rate -->
     <g style="fill:#262626;" transform="translate(20.510937 268.355625)rotate(-90)scale(0.12 -0.12)">
      <defs>
       <path d="M -19 4666 
L 3928 4666 
L 3928 4134 
L 2272 4134 
L 2272 0 
L 1638 0 
L 1638 4134 
L -19 4134 
L -19 4666 
z
" id="DejaVuSans-54" transform="scale(0.015625)"/>
       <path d="M 2631 2963 
Q 2534 3019 2420 3045 
Q 2306 3072 2169 3072 
Q 1681 3072 1420 2755 
Q 1159 2438 1159 1844 
L 1159 0 
L 581 0 
L 581 3500 
L 1159 3500 
L 1159 2956 
Q 1341 3275 1631 3429 
Q 1922 3584 2338 3584 
Q 2397 3584 2469 3576 
Q 2541 3569 2628 3553 
L 2631 2963 
z
" id="DejaVuSans-72" transform="scale(0.015625)"/>
       <path d="M 544 1381 
L 544 3500 
L 1119 3500 
L 1119 1403 
Q 1119 906 1312 657 
Q 1506 409 1894 409 
Q 2359 409 2629 706 
Q 2900 1003 2900 1516 
L 2900 3500 
L 3475 3500 
L 3475 0 
L 2900 0 
L 2900 538 
Q 2691 219 2414 64 
Q 2138 -91 1772 -91 
Q 1169 -91 856 284 
Q 544 659 544 1381 
z
M 1991 3584 
L 1991 3584 
z
" id="DejaVuSans-75" transform="scale(0.015625)"/>
      </defs>
      <use xlink:href="#DejaVuSans-54"/>
      <use x="46.333984" xlink:href="#DejaVuSans-72"/>
      <use x="87.447266" xlink:href="#DejaVuSans-75"/>
      <use x="150.826172" xlink:href="#DejaVuSans-65"/>
      <use x="212.349609" xlink:href="#DejaVuSans-20"/>
      <use x="244.136719" xlink:href="#DejaVuSans-50"/>
      <use x="300.814453" xlink:href="#DejaVuSans-6f"/>
      <use x="361.996094" xlink:href="#DejaVuSans-73"/>
      <use x="414.095703" xlink:href="#DejaVuSans-69"/>
      <use x="441.878906" xlink:href="#DejaVuSans-74"/>
      <use x="481.087891" xlink:href="#DejaVuSans-69"/>
      <use x="508.871094" xlink:href="#DejaVuSans-76"/>
      <use x="568.050781" xlink:href="#DejaVuSans-65"/>
      <use x="629.574219" xlink:href="#DejaVuSans-20"/>
      <use x="661.361328" xlink:href="#DejaVuSans-52"/>
      <use x="728.59375" xlink:href="#DejaVuSans-61"/>
      <use x="789.873047" xlink:href="#DejaVuSans-74"/>
      <use x="829.082031" xlink:href="#DejaVuSans-65"/>
     </g>
    </g>
   </g>
   <g id="line2d_25">
    <path clip-path="url(#p4a7f202f7c)" d="M 54 378 
L 54 321.549231 
L 54.849746 321.549231 
L 54.849746 290.187692 
L 56.549239 290.187692 
L 56.549239 283.915385 
L 58.248731 283.915385 
L 58.248731 281.824615 
L 61.647716 281.824615 
L 61.647716 277.643077 
L 62.497462 277.643077 
L 62.497462 275.552308 
L 63.347208 275.552308 
L 63.347208 256.735385 
L 64.196954 256.735385 
L 64.196954 250.463077 
L 65.046701 250.463077 
L 65.046701 244.190769 
L 65.896447 244.190769 
L 65.896447 242.1 
L 66.746193 242.1 
L 66.746193 237.918462 
L 67.595939 237.918462 
L 67.595939 233.736923 
L 68.445685 233.736923 
L 68.445685 229.555385 
L 69.295431 229.555385 
L 69.295431 227.464615 
L 70.145178 227.464615 
L 70.145178 225.373846 
L 71.84467 225.373846 
L 71.84467 223.283077 
L 74.393909 223.283077 
L 74.393909 221.192308 
L 75.243655 221.192308 
L 75.243655 214.92 
L 77.792893 214.92 
L 77.792893 210.738462 
L 78.64264 210.738462 
L 78.64264 206.556923 
L 79.492386 206.556923 
L 79.492386 200.284615 
L 80.342132 200.284615 
L 80.342132 198.193846 
L 90.539086 198.193846 
L 90.539086 196.103077 
L 91.388832 196.103077 
L 91.388832 191.921538 
L 93.938071 191.921538 
L 93.938071 187.74 
L 94.787817 187.74 
L 94.787817 183.558462 
L 96.48731 183.558462 
L 96.48731 175.195385 
L 99.886294 175.195385 
L 99.886294 173.104615 
L 104.135025 173.104615 
L 104.135025 168.923077 
L 107.53401 168.923077 
L 107.53401 166.832308 
L 109.233503 166.832308 
L 109.233503 164.741538 
L 110.932995 164.741538 
L 110.932995 162.650769 
L 112.632487 162.650769 
L 112.632487 156.378462 
L 113.482234 156.378462 
L 113.482234 154.287692 
L 114.33198 154.287692 
L 114.33198 152.196923 
L 117.730964 152.196923 
L 117.730964 150.106154 
L 122.829442 150.106154 
L 122.829442 148.015385 
L 123.679188 148.015385 
L 123.679188 145.924615 
L 126.228426 145.924615 
L 126.228426 143.833846 
L 128.777665 143.833846 
L 128.777665 141.743077 
L 133.026396 141.743077 
L 133.026396 139.652308 
L 134.725888 139.652308 
L 134.725888 137.561538 
L 136.425381 137.561538 
L 136.425381 135.470769 
L 139.824365 135.470769 
L 139.824365 133.38 
L 140.674112 133.38 
L 140.674112 131.289231 
L 146.622335 131.289231 
L 146.622335 129.198462 
L 147.472081 129.198462 
L 147.472081 127.107692 
L 153.420305 127.107692 
L 153.420305 122.926154 
L 155.969543 122.926154 
L 155.969543 120.835385 
L 160.218274 120.835385 
L 160.218274 118.744615 
L 161.06802 118.744615 
L 161.06802 116.653846 
L 163.617259 116.653846 
L 163.617259 114.563077 
L 166.166497 114.563077 
L 166.166497 112.472308 
L 167.86599 112.472308 
L 167.86599 108.290769 
L 171.264975 108.290769 
L 171.264975 106.2 
L 191.658883 106.2 
L 191.658883 102.018462 
L 192.508629 102.018462 
L 192.508629 97.836923 
L 193.358376 97.836923 
L 193.358376 95.746154 
L 197.607107 95.746154 
L 197.607107 91.564615 
L 207.804061 91.564615 
L 207.804061 89.473846 
L 213.752284 89.473846 
L 213.752284 87.383077 
L 218.001015 87.383077 
L 218.001015 85.292308 
L 222.249746 85.292308 
L 222.249746 83.201538 
L 226.498477 83.201538 
L 226.498477 81.110769 
L 234.995939 81.110769 
L 234.995939 79.02 
L 238.394924 79.02 
L 238.394924 76.929231 
L 255.389848 76.929231 
L 255.389848 74.838462 
L 261.338071 74.838462 
L 261.338071 72.747692 
L 263.037563 72.747692 
L 263.037563 70.656923 
L 263.88731 70.656923 
L 263.88731 68.566154 
L 265.586802 68.566154 
L 265.586802 66.475385 
L 273.234518 66.475385 
L 273.234518 64.384615 
L 279.182741 64.384615 
L 279.182741 62.293846 
L 317.42132 62.293846 
L 317.42132 60.203077 
L 331.867005 60.203077 
L 331.867005 58.112308 
L 348.861929 58.112308 
L 348.861929 53.930769 
L 365.007107 53.930769 
L 365.007107 51.84 
L 388.8 51.84 
L 388.8 51.84 
" style="fill:none;stroke:#015b52;stroke-linecap:round;stroke-width:1.5;"/>
   </g>
   <g id="line2d_26">
    <path clip-path="url(#p4a7f202f7c)" d="M 54 378 
L 54 325.730769 
L 54.849746 325.730769 
L 54.849746 288.096923 
L 56.549239 288.096923 
L 56.549239 286.006154 
L 58.248731 286.006154 
L 58.248731 283.915385 
L 59.098477 283.915385 
L 59.098477 277.643077 
L 62.497462 277.643077 
L 62.497462 269.28 
L 63.347208 269.28 
L 63.347208 267.189231 
L 65.046701 267.189231 
L 65.046701 244.190769 
L 67.595939 244.190769 
L 67.595939 233.736923 
L 68.445685 233.736923 
L 68.445685 231.646154 
L 69.295431 231.646154 
L 69.295431 229.555385 
L 71.84467 229.555385 
L 71.84467 221.192308 
L 72.694416 221.192308 
L 72.694416 219.101538 
L 76.093401 219.101538 
L 76.093401 217.010769 
L 76.943147 217.010769 
L 76.943147 214.92 
L 78.64264 214.92 
L 78.64264 212.829231 
L 79.492386 212.829231 
L 79.492386 210.738462 
L 80.342132 210.738462 
L 80.342132 206.556923 
L 81.191878 206.556923 
L 81.191878 196.103077 
L 82.041624 196.103077 
L 82.041624 191.921538 
L 85.440609 191.921538 
L 85.440609 187.74 
L 87.989848 187.74 
L 87.989848 183.558462 
L 88.839594 183.558462 
L 88.839594 181.467692 
L 89.68934 181.467692 
L 89.68934 179.376923 
L 90.539086 179.376923 
L 90.539086 177.286154 
L 94.787817 177.286154 
L 94.787817 173.104615 
L 98.186802 173.104615 
L 98.186802 168.923077 
L 102.435533 168.923077 
L 102.435533 164.741538 
L 107.53401 164.741538 
L 107.53401 162.650769 
L 108.383756 162.650769 
L 108.383756 160.56 
L 111.782741 160.56 
L 111.782741 158.469231 
L 112.632487 158.469231 
L 112.632487 156.378462 
L 113.482234 156.378462 
L 113.482234 154.287692 
L 116.031472 154.287692 
L 116.031472 152.196923 
L 116.881218 152.196923 
L 116.881218 150.106154 
L 118.580711 150.106154 
L 118.580711 143.833846 
L 129.627411 143.833846 
L 129.627411 141.743077 
L 130.477157 141.743077 
L 130.477157 139.652308 
L 132.17665 139.652308 
L 132.17665 137.561538 
L 134.725888 137.561538 
L 134.725888 135.470769 
L 138.124873 135.470769 
L 138.124873 127.107692 
L 138.974619 127.107692 
L 138.974619 125.016923 
L 141.523858 125.016923 
L 141.523858 120.835385 
L 142.373604 120.835385 
L 142.373604 118.744615 
L 145.772589 118.744615 
L 145.772589 116.653846 
L 150.02132 116.653846 
L 150.02132 114.563077 
L 155.969543 114.563077 
L 155.969543 112.472308 
L 175.513706 112.472308 
L 175.513706 110.381538 
L 176.363452 110.381538 
L 176.363452 106.2 
L 182.311675 106.2 
L 182.311675 104.109231 
L 185.71066 104.109231 
L 185.71066 99.927692 
L 187.410152 99.927692 
L 187.410152 97.836923 
L 194.208122 97.836923 
L 194.208122 95.746154 
L 195.907614 95.746154 
L 195.907614 93.655385 
L 196.75736 93.655385 
L 196.75736 91.564615 
L 199.306599 91.564615 
L 199.306599 89.473846 
L 210.353299 89.473846 
L 210.353299 85.292308 
L 223.949239 85.292308 
L 223.949239 83.201538 
L 228.19797 83.201538 
L 228.19797 81.110769 
L 240.094416 81.110769 
L 240.094416 79.02 
L 242.643655 79.02 
L 242.643655 76.929231 
L 251.990863 76.929231 
L 251.990863 72.747692 
L 265.586802 72.747692 
L 265.586802 70.656923 
L 267.286294 70.656923 
L 267.286294 68.566154 
L 275.783756 68.566154 
L 275.783756 66.475385 
L 276.633503 66.475385 
L 276.633503 64.384615 
L 284.281218 64.384615 
L 284.281218 62.293846 
L 314.022335 62.293846 
L 314.022335 60.203077 
L 331.017259 60.203077 
L 331.017259 58.112308 
L 338.664975 58.112308 
L 338.664975 56.021538 
L 348.861929 56.021538 
L 348.861929 53.930769 
L 368.406091 53.930769 
L 368.406091 51.84 
L 388.8 51.84 
L 388.8 51.84 
" style="fill:none;stroke:#1d8078;stroke-linecap:round;stroke-width:1.5;"/>
   </g>
   <g id="line2d_27">
    <path clip-path="url(#p4a7f202f7c)" d="M 54 378 
L 54 334.093846 
L 54.849746 334.093846 
L 54.849746 290.187692 
L 55.699492 290.187692 
L 55.699492 288.096923 
L 57.398985 288.096923 
L 57.398985 283.915385 
L 59.098477 283.915385 
L 59.098477 281.824615 
L 59.948223 281.824615 
L 59.948223 279.733846 
L 60.79797 279.733846 
L 60.79797 273.461538 
L 61.647716 273.461538 
L 61.647716 271.370769 
L 64.196954 271.370769 
L 64.196954 265.098462 
L 65.046701 265.098462 
L 65.046701 246.281538 
L 66.746193 246.281538 
L 66.746193 240.009231 
L 67.595939 240.009231 
L 67.595939 237.918462 
L 68.445685 237.918462 
L 68.445685 235.827692 
L 70.145178 235.827692 
L 70.145178 231.646154 
L 70.994924 231.646154 
L 70.994924 225.373846 
L 72.694416 225.373846 
L 72.694416 223.283077 
L 76.093401 223.283077 
L 76.093401 219.101538 
L 77.792893 219.101538 
L 77.792893 214.92 
L 78.64264 214.92 
L 78.64264 208.647692 
L 79.492386 208.647692 
L 79.492386 206.556923 
L 81.191878 206.556923 
L 81.191878 202.375385 
L 82.041624 202.375385 
L 82.041624 196.103077 
L 83.741117 196.103077 
L 83.741117 185.649231 
L 84.590863 185.649231 
L 84.590863 181.467692 
L 86.290355 181.467692 
L 86.290355 179.376923 
L 87.140102 179.376923 
L 87.140102 177.286154 
L 92.238579 177.286154 
L 92.238579 175.195385 
L 93.938071 175.195385 
L 93.938071 171.013846 
L 97.337056 171.013846 
L 97.337056 168.923077 
L 99.886294 168.923077 
L 99.886294 166.832308 
L 100.736041 166.832308 
L 100.736041 164.741538 
L 102.435533 164.741538 
L 102.435533 162.650769 
L 103.285279 162.650769 
L 103.285279 160.56 
L 104.984772 160.56 
L 104.984772 158.469231 
L 105.834518 158.469231 
L 105.834518 156.378462 
L 113.482234 156.378462 
L 113.482234 152.196923 
L 115.181726 152.196923 
L 115.181726 148.015385 
L 122.829442 148.015385 
L 122.829442 145.924615 
L 125.37868 145.924615 
L 125.37868 143.833846 
L 127.927919 143.833846 
L 127.927919 141.743077 
L 129.627411 141.743077 
L 129.627411 137.561538 
L 132.17665 137.561538 
L 132.17665 135.470769 
L 133.026396 135.470769 
L 133.026396 133.38 
L 135.575635 133.38 
L 135.575635 131.289231 
L 136.425381 131.289231 
L 136.425381 129.198462 
L 139.824365 129.198462 
L 139.824365 122.926154 
L 140.674112 122.926154 
L 140.674112 120.835385 
L 153.420305 120.835385 
L 153.420305 118.744615 
L 155.969543 118.744615 
L 155.969543 116.653846 
L 157.669036 116.653846 
L 157.669036 114.563077 
L 158.518782 114.563077 
L 158.518782 112.472308 
L 160.218274 112.472308 
L 160.218274 110.381538 
L 163.617259 110.381538 
L 163.617259 108.290769 
L 164.467005 108.290769 
L 164.467005 106.2 
L 165.316751 106.2 
L 165.316751 104.109231 
L 168.715736 104.109231 
L 168.715736 102.018462 
L 170.415228 102.018462 
L 170.415228 99.927692 
L 171.264975 99.927692 
L 171.264975 97.836923 
L 172.114721 97.836923 
L 172.114721 95.746154 
L 175.513706 95.746154 
L 175.513706 93.655385 
L 185.71066 93.655385 
L 185.71066 91.564615 
L 192.508629 91.564615 
L 192.508629 89.473846 
L 194.208122 89.473846 
L 194.208122 87.383077 
L 204.405076 87.383077 
L 204.405076 85.292308 
L 218.001015 85.292308 
L 218.001015 83.201538 
L 223.949239 83.201538 
L 223.949239 81.110769 
L 244.343147 81.110769 
L 244.343147 79.02 
L 247.742132 79.02 
L 247.742132 76.929231 
L 250.291371 76.929231 
L 250.291371 74.838462 
L 254.540102 74.838462 
L 254.540102 72.747692 
L 264.737056 72.747692 
L 264.737056 70.656923 
L 272.384772 70.656923 
L 272.384772 68.566154 
L 282.581726 68.566154 
L 282.581726 66.475385 
L 285.980711 66.475385 
L 285.980711 62.293846 
L 311.473096 62.293846 
L 311.473096 60.203077 
L 330.167513 60.203077 
L 330.167513 58.112308 
L 335.26599 58.112308 
L 335.26599 56.021538 
L 347.162437 56.021538 
L 347.162437 53.930769 
L 370.95533 53.930769 
L 370.95533 51.84 
L 388.8 51.84 
L 388.8 51.84 
" style="fill:none;stroke:#4da89f;stroke-linecap:round;stroke-width:1.5;"/>
   </g>
   <g id="line2d_28">
    <path clip-path="url(#p4a7f202f7c)" d="M 54 378 
L 54 332.003077 
L 54.849746 332.003077 
L 54.849746 292.278462 
L 55.699492 292.278462 
L 55.699492 288.096923 
L 56.549239 288.096923 
L 56.549239 286.006154 
L 57.398985 286.006154 
L 57.398985 281.824615 
L 59.098477 281.824615 
L 59.098477 277.643077 
L 60.79797 277.643077 
L 60.79797 271.370769 
L 62.497462 271.370769 
L 62.497462 265.098462 
L 63.347208 265.098462 
L 63.347208 263.007692 
L 64.196954 263.007692 
L 64.196954 258.826154 
L 65.046701 258.826154 
L 65.046701 256.735385 
L 65.896447 256.735385 
L 65.896447 252.553846 
L 66.746193 252.553846 
L 66.746193 248.372308 
L 67.595939 248.372308 
L 67.595939 242.1 
L 68.445685 242.1 
L 68.445685 237.918462 
L 69.295431 237.918462 
L 69.295431 235.827692 
L 70.145178 235.827692 
L 70.145178 233.736923 
L 70.994924 233.736923 
L 70.994924 231.646154 
L 72.694416 231.646154 
L 72.694416 229.555385 
L 73.544162 229.555385 
L 73.544162 223.283077 
L 74.393909 223.283077 
L 74.393909 221.192308 
L 75.243655 221.192308 
L 75.243655 217.010769 
L 76.093401 217.010769 
L 76.093401 214.92 
L 76.943147 214.92 
L 76.943147 208.647692 
L 77.792893 208.647692 
L 77.792893 206.556923 
L 78.64264 206.556923 
L 78.64264 202.375385 
L 80.342132 202.375385 
L 80.342132 200.284615 
L 82.891371 200.284615 
L 82.891371 194.012308 
L 83.741117 194.012308 
L 83.741117 191.921538 
L 84.590863 191.921538 
L 84.590863 185.649231 
L 86.290355 185.649231 
L 86.290355 183.558462 
L 88.839594 183.558462 
L 88.839594 177.286154 
L 91.388832 177.286154 
L 91.388832 173.104615 
L 95.637563 173.104615 
L 95.637563 171.013846 
L 98.186802 171.013846 
L 98.186802 166.832308 
L 101.585787 166.832308 
L 101.585787 164.741538 
L 102.435533 164.741538 
L 102.435533 160.56 
L 105.834518 160.56 
L 105.834518 158.469231 
L 106.684264 158.469231 
L 106.684264 156.378462 
L 108.383756 156.378462 
L 108.383756 154.287692 
L 110.083249 154.287692 
L 110.083249 152.196923 
L 113.482234 152.196923 
L 113.482234 150.106154 
L 115.181726 150.106154 
L 115.181726 148.015385 
L 117.730964 148.015385 
L 117.730964 145.924615 
L 118.580711 145.924615 
L 118.580711 143.833846 
L 119.430457 143.833846 
L 119.430457 141.743077 
L 123.679188 141.743077 
L 123.679188 139.652308 
L 132.17665 139.652308 
L 132.17665 137.561538 
L 133.876142 137.561538 
L 133.876142 135.470769 
L 134.725888 135.470769 
L 134.725888 133.38 
L 138.124873 133.38 
L 138.124873 127.107692 
L 139.824365 127.107692 
L 139.824365 125.016923 
L 142.373604 125.016923 
L 142.373604 122.926154 
L 144.922843 122.926154 
L 144.922843 120.835385 
L 147.472081 120.835385 
L 147.472081 118.744615 
L 153.420305 118.744615 
L 153.420305 116.653846 
L 155.969543 116.653846 
L 155.969543 112.472308 
L 159.368528 112.472308 
L 159.368528 110.381538 
L 160.218274 110.381538 
L 160.218274 102.018462 
L 165.316751 102.018462 
L 165.316751 99.927692 
L 167.016244 99.927692 
L 167.016244 97.836923 
L 169.565482 97.836923 
L 169.565482 95.746154 
L 171.264975 95.746154 
L 171.264975 93.655385 
L 173.814213 93.655385 
L 173.814213 91.564615 
L 181.461929 91.564615 
L 181.461929 87.383077 
L 184.011168 87.383077 
L 184.011168 85.292308 
L 190.809137 85.292308 
L 190.809137 83.201538 
L 202.705584 83.201538 
L 202.705584 81.110769 
L 234.995939 81.110769 
L 234.995939 79.02 
L 236.695431 79.02 
L 236.695431 76.929231 
L 242.643655 76.929231 
L 242.643655 74.838462 
L 258.788832 74.838462 
L 258.788832 72.747692 
L 259.638579 72.747692 
L 259.638579 70.656923 
L 276.633503 70.656923 
L 276.633503 68.566154 
L 285.130964 68.566154 
L 285.130964 66.475385 
L 287.680203 66.475385 
L 287.680203 64.384615 
L 291.928934 64.384615 
L 291.928934 62.293846 
L 308.923858 62.293846 
L 308.923858 60.203077 
L 324.219289 60.203077 
L 324.219289 58.112308 
L 336.115736 58.112308 
L 336.115736 56.021538 
L 345.462944 56.021538 
L 345.462944 53.930769 
L 372.654822 53.930769 
L 372.654822 51.84 
L 388.8 51.84 
L 388.8 51.84 
" style="fill:none;stroke:#84cfc3;stroke-linecap:round;stroke-width:1.5;"/>
   </g>
   <g id="line2d_29">
    <path clip-path="url(#p4a7f202f7c)" d="M 54 378 
L 54 332.003077 
L 54.849746 332.003077 
L 54.849746 296.46 
L 55.699492 296.46 
L 55.699492 288.096923 
L 56.549239 288.096923 
L 56.549239 286.006154 
L 57.398985 286.006154 
L 57.398985 283.915385 
L 58.248731 283.915385 
L 58.248731 277.643077 
L 60.79797 277.643077 
L 60.79797 267.189231 
L 62.497462 267.189231 
L 62.497462 265.098462 
L 63.347208 265.098462 
L 63.347208 258.826154 
L 64.196954 258.826154 
L 64.196954 256.735385 
L 65.896447 256.735385 
L 65.896447 254.644615 
L 66.746193 254.644615 
L 66.746193 250.463077 
L 67.595939 250.463077 
L 67.595939 244.190769 
L 69.295431 244.190769 
L 69.295431 242.1 
L 70.994924 242.1 
L 70.994924 240.009231 
L 71.84467 240.009231 
L 71.84467 231.646154 
L 73.544162 231.646154 
L 73.544162 219.101538 
L 74.393909 219.101538 
L 74.393909 217.010769 
L 76.093401 217.010769 
L 76.093401 208.647692 
L 76.943147 208.647692 
L 76.943147 206.556923 
L 77.792893 206.556923 
L 77.792893 200.284615 
L 80.342132 200.284615 
L 80.342132 198.193846 
L 83.741117 198.193846 
L 83.741117 187.74 
L 86.290355 187.74 
L 86.290355 185.649231 
L 87.989848 185.649231 
L 87.989848 181.467692 
L 89.68934 181.467692 
L 89.68934 179.376923 
L 92.238579 179.376923 
L 92.238579 177.286154 
L 94.787817 177.286154 
L 94.787817 175.195385 
L 95.637563 175.195385 
L 95.637563 173.104615 
L 96.48731 173.104615 
L 96.48731 171.013846 
L 99.036548 171.013846 
L 99.036548 168.923077 
L 99.886294 168.923077 
L 99.886294 166.832308 
L 100.736041 166.832308 
L 100.736041 164.741538 
L 103.285279 164.741538 
L 103.285279 162.650769 
L 106.684264 162.650769 
L 106.684264 158.469231 
L 109.233503 158.469231 
L 109.233503 152.196923 
L 111.782741 152.196923 
L 111.782741 150.106154 
L 112.632487 150.106154 
L 112.632487 148.015385 
L 113.482234 148.015385 
L 113.482234 145.924615 
L 116.031472 145.924615 
L 116.031472 143.833846 
L 119.430457 143.833846 
L 119.430457 141.743077 
L 124.528934 141.743077 
L 124.528934 139.652308 
L 127.927919 139.652308 
L 127.927919 137.561538 
L 130.477157 137.561538 
L 130.477157 135.470769 
L 133.026396 135.470769 
L 133.026396 133.38 
L 134.725888 133.38 
L 134.725888 131.289231 
L 138.974619 131.289231 
L 138.974619 129.198462 
L 147.472081 129.198462 
L 147.472081 125.016923 
L 149.171574 125.016923 
L 149.171574 120.835385 
L 150.871066 120.835385 
L 150.871066 118.744615 
L 151.720812 118.744615 
L 151.720812 116.653846 
L 155.119797 116.653846 
L 155.119797 106.2 
L 156.819289 106.2 
L 156.819289 104.109231 
L 161.06802 104.109231 
L 161.06802 99.927692 
L 168.715736 99.927692 
L 168.715736 95.746154 
L 171.264975 95.746154 
L 171.264975 93.655385 
L 172.964467 93.655385 
L 172.964467 91.564615 
L 177.213198 91.564615 
L 177.213198 85.292308 
L 181.461929 85.292308 
L 181.461929 83.201538 
L 182.311675 83.201538 
L 182.311675 81.110769 
L 219.700508 81.110769 
L 219.700508 79.02 
L 227.348223 79.02 
L 227.348223 76.929231 
L 235.845685 76.929231 
L 235.845685 74.838462 
L 247.742132 74.838462 
L 247.742132 72.747692 
L 251.141117 72.747692 
L 251.141117 70.656923 
L 283.431472 70.656923 
L 283.431472 68.566154 
L 284.281218 68.566154 
L 284.281218 66.475385 
L 290.229442 66.475385 
L 290.229442 64.384615 
L 302.125888 64.384615 
L 302.125888 62.293846 
L 308.074112 62.293846 
L 308.074112 60.203077 
L 321.670051 60.203077 
L 321.670051 58.112308 
L 336.965482 58.112308 
L 336.965482 56.021538 
L 343.763452 56.021538 
L 343.763452 53.930769 
L 373.504569 53.930769 
L 373.504569 51.84 
L 388.8 51.84 
L 388.8 51.84 
" style="fill:none;stroke:#bce5df;stroke-linecap:round;stroke-width:1.5;"/>
   </g>
   <g id="line2d_30">
    <path clip-path="url(#p4a7f202f7c)" d="M 54 378 
L 54 332.003077 
L 54.849746 332.003077 
L 54.849746 294.369231 
L 55.699492 294.369231 
L 55.699492 288.096923 
L 56.549239 288.096923 
L 56.549239 283.915385 
L 58.248731 283.915385 
L 58.248731 275.552308 
L 59.098477 275.552308 
L 59.098477 273.461538 
L 59.948223 273.461538 
L 59.948223 271.370769 
L 60.79797 271.370769 
L 60.79797 269.28 
L 61.647716 269.28 
L 61.647716 263.007692 
L 64.196954 263.007692 
L 64.196954 258.826154 
L 65.046701 258.826154 
L 65.046701 256.735385 
L 65.896447 256.735385 
L 65.896447 252.553846 
L 67.595939 252.553846 
L 67.595939 250.463077 
L 68.445685 250.463077 
L 68.445685 248.372308 
L 70.145178 248.372308 
L 70.145178 242.1 
L 70.994924 242.1 
L 70.994924 233.736923 
L 71.84467 233.736923 
L 71.84467 231.646154 
L 72.694416 231.646154 
L 72.694416 223.283077 
L 74.393909 223.283077 
L 74.393909 217.010769 
L 75.243655 217.010769 
L 75.243655 210.738462 
L 79.492386 210.738462 
L 79.492386 200.284615 
L 80.342132 200.284615 
L 80.342132 196.103077 
L 82.041624 196.103077 
L 82.041624 191.921538 
L 84.590863 191.921538 
L 84.590863 189.830769 
L 87.989848 189.830769 
L 87.989848 179.376923 
L 90.539086 179.376923 
L 90.539086 177.286154 
L 95.637563 177.286154 
L 95.637563 173.104615 
L 96.48731 173.104615 
L 96.48731 171.013846 
L 98.186802 171.013846 
L 98.186802 168.923077 
L 99.036548 168.923077 
L 99.036548 166.832308 
L 99.886294 166.832308 
L 99.886294 164.741538 
L 104.984772 164.741538 
L 104.984772 162.650769 
L 106.684264 162.650769 
L 106.684264 160.56 
L 110.932995 160.56 
L 110.932995 154.287692 
L 111.782741 154.287692 
L 111.782741 152.196923 
L 112.632487 152.196923 
L 112.632487 150.106154 
L 113.482234 150.106154 
L 113.482234 148.015385 
L 114.33198 148.015385 
L 114.33198 145.924615 
L 115.181726 145.924615 
L 115.181726 141.743077 
L 123.679188 141.743077 
L 123.679188 139.652308 
L 127.078173 139.652308 
L 127.078173 137.561538 
L 133.026396 137.561538 
L 133.026396 131.289231 
L 140.674112 131.289231 
L 140.674112 129.198462 
L 148.321827 129.198462 
L 148.321827 125.016923 
L 149.171574 125.016923 
L 149.171574 120.835385 
L 151.720812 120.835385 
L 151.720812 114.563077 
L 155.119797 114.563077 
L 155.119797 110.381538 
L 157.669036 110.381538 
L 157.669036 108.290769 
L 158.518782 108.290769 
L 158.518782 104.109231 
L 159.368528 104.109231 
L 159.368528 95.746154 
L 161.917766 95.746154 
L 161.917766 91.564615 
L 175.513706 91.564615 
L 175.513706 89.473846 
L 177.213198 89.473846 
L 177.213198 85.292308 
L 182.311675 85.292308 
L 182.311675 83.201538 
L 185.71066 83.201538 
L 185.71066 81.110769 
L 209.503553 81.110769 
L 209.503553 79.02 
L 217.151269 79.02 
L 217.151269 76.929231 
L 221.4 76.929231 
L 221.4 74.838462 
L 254.540102 74.838462 
L 254.540102 72.747692 
L 256.239594 72.747692 
L 256.239594 70.656923 
L 280.882234 70.656923 
L 280.882234 68.566154 
L 290.229442 68.566154 
L 290.229442 66.475385 
L 291.928934 66.475385 
L 291.928934 64.384615 
L 306.374619 64.384615 
L 306.374619 62.293846 
L 309.773604 62.293846 
L 309.773604 60.203077 
L 316.571574 60.203077 
L 316.571574 58.112308 
L 335.26599 58.112308 
L 335.26599 56.021538 
L 343.763452 56.021538 
L 343.763452 53.930769 
L 374.354315 53.930769 
L 374.354315 51.84 
L 388.8 51.84 
L 388.8 51.84 
" style="fill:none;stroke:#e4f1ef;stroke-linecap:round;stroke-width:1.5;"/>
   </g>
   <g id="line2d_31">
    <path clip-path="url(#p4a7f202f7c)" d="M 54 378 
L 54 332.003077 
L 54.849746 332.003077 
L 54.849746 294.369231 
L 55.699492 294.369231 
L 55.699492 288.096923 
L 56.549239 288.096923 
L 56.549239 283.915385 
L 58.248731 283.915385 
L 58.248731 277.643077 
L 59.098477 277.643077 
L 59.098477 273.461538 
L 59.948223 273.461538 
L 59.948223 271.370769 
L 60.79797 271.370769 
L 60.79797 269.28 
L 61.647716 269.28 
L 61.647716 265.098462 
L 62.497462 265.098462 
L 62.497462 263.007692 
L 63.347208 263.007692 
L 63.347208 260.916923 
L 65.046701 260.916923 
L 65.046701 258.826154 
L 65.896447 258.826154 
L 65.896447 250.463077 
L 66.746193 250.463077 
L 66.746193 248.372308 
L 68.445685 248.372308 
L 68.445685 246.281538 
L 69.295431 246.281538 
L 69.295431 244.190769 
L 70.145178 244.190769 
L 70.145178 233.736923 
L 70.994924 233.736923 
L 70.994924 229.555385 
L 72.694416 229.555385 
L 72.694416 221.192308 
L 73.544162 221.192308 
L 73.544162 214.92 
L 75.243655 214.92 
L 75.243655 212.829231 
L 76.943147 212.829231 
L 76.943147 210.738462 
L 77.792893 210.738462 
L 77.792893 204.466154 
L 78.64264 204.466154 
L 78.64264 200.284615 
L 80.342132 200.284615 
L 80.342132 198.193846 
L 81.191878 198.193846 
L 81.191878 196.103077 
L 82.041624 196.103077 
L 82.041624 194.012308 
L 82.891371 194.012308 
L 82.891371 191.921538 
L 83.741117 191.921538 
L 83.741117 189.830769 
L 87.140102 189.830769 
L 87.140102 187.74 
L 88.839594 187.74 
L 88.839594 185.649231 
L 91.388832 185.649231 
L 91.388832 177.286154 
L 94.787817 177.286154 
L 94.787817 173.104615 
L 96.48731 173.104615 
L 96.48731 171.013846 
L 98.186802 171.013846 
L 98.186802 168.923077 
L 99.036548 168.923077 
L 99.036548 166.832308 
L 107.53401 166.832308 
L 107.53401 164.741538 
L 108.383756 164.741538 
L 108.383756 156.378462 
L 111.782741 156.378462 
L 111.782741 150.106154 
L 116.031472 150.106154 
L 116.031472 148.015385 
L 117.730964 148.015385 
L 117.730964 145.924615 
L 120.280203 145.924615 
L 120.280203 143.833846 
L 121.129949 143.833846 
L 121.129949 139.652308 
L 127.927919 139.652308 
L 127.927919 137.561538 
L 128.777665 137.561538 
L 128.777665 135.470769 
L 131.326904 135.470769 
L 131.326904 133.38 
L 139.824365 133.38 
L 139.824365 131.289231 
L 140.674112 131.289231 
L 140.674112 127.107692 
L 142.373604 127.107692 
L 142.373604 122.926154 
L 144.073096 122.926154 
L 144.073096 120.835385 
L 150.02132 120.835385 
L 150.02132 118.744615 
L 152.570558 118.744615 
L 152.570558 116.653846 
L 154.270051 116.653846 
L 154.270051 112.472308 
L 156.819289 112.472308 
L 156.819289 110.381538 
L 159.368528 110.381538 
L 159.368528 104.109231 
L 160.218274 104.109231 
L 160.218274 99.927692 
L 163.617259 99.927692 
L 163.617259 91.564615 
L 166.166497 91.564615 
L 166.166497 89.473846 
L 175.513706 89.473846 
L 175.513706 87.383077 
L 177.213198 87.383077 
L 177.213198 85.292308 
L 181.461929 85.292308 
L 181.461929 83.201538 
L 202.705584 83.201538 
L 202.705584 79.02 
L 206.954315 79.02 
L 206.954315 76.929231 
L 212.052792 76.929231 
L 212.052792 74.838462 
L 261.338071 74.838462 
L 261.338071 72.747692 
L 263.88731 72.747692 
L 263.88731 70.656923 
L 288.529949 70.656923 
L 288.529949 68.566154 
L 294.478173 68.566154 
L 294.478173 66.475385 
L 297.877157 66.475385 
L 297.877157 64.384615 
L 302.975635 64.384615 
L 302.975635 62.293846 
L 314.022335 62.293846 
L 314.022335 60.203077 
L 315.721827 60.203077 
L 315.721827 58.112308 
L 335.26599 58.112308 
L 335.26599 56.021538 
L 345.462944 56.021538 
L 345.462944 53.930769 
L 374.354315 53.930769 
L 374.354315 51.84 
L 388.8 51.84 
L 388.8 51.84 
" style="fill:none;stroke:#f5f0e2;stroke-linecap:round;stroke-width:1.5;"/>
   </g>
   <g id="line2d_32">
    <path clip-path="url(#p4a7f202f7c)" d="M 54 378 
L 54 329.912308 
L 54.849746 329.912308 
L 54.849746 294.369231 
L 55.699492 294.369231 
L 55.699492 288.096923 
L 56.549239 288.096923 
L 56.549239 286.006154 
L 57.398985 286.006154 
L 57.398985 283.915385 
L 58.248731 283.915385 
L 58.248731 275.552308 
L 59.098477 275.552308 
L 59.098477 271.370769 
L 60.79797 271.370769 
L 60.79797 269.28 
L 61.647716 269.28 
L 61.647716 267.189231 
L 62.497462 267.189231 
L 62.497462 265.098462 
L 63.347208 265.098462 
L 63.347208 263.007692 
L 64.196954 263.007692 
L 64.196954 258.826154 
L 65.046701 258.826154 
L 65.046701 252.553846 
L 65.896447 252.553846 
L 65.896447 248.372308 
L 66.746193 248.372308 
L 66.746193 244.190769 
L 69.295431 244.190769 
L 69.295431 231.646154 
L 72.694416 231.646154 
L 72.694416 227.464615 
L 73.544162 227.464615 
L 73.544162 214.92 
L 76.093401 214.92 
L 76.093401 212.829231 
L 76.943147 212.829231 
L 76.943147 206.556923 
L 77.792893 206.556923 
L 77.792893 200.284615 
L 82.891371 200.284615 
L 82.891371 198.193846 
L 83.741117 198.193846 
L 83.741117 194.012308 
L 84.590863 194.012308 
L 84.590863 191.921538 
L 85.440609 191.921538 
L 85.440609 187.74 
L 92.238579 187.74 
L 92.238579 181.467692 
L 93.938071 181.467692 
L 93.938071 175.195385 
L 95.637563 175.195385 
L 95.637563 168.923077 
L 103.285279 168.923077 
L 103.285279 164.741538 
L 107.53401 164.741538 
L 107.53401 162.650769 
L 108.383756 162.650769 
L 108.383756 160.56 
L 109.233503 160.56 
L 109.233503 158.469231 
L 110.932995 158.469231 
L 110.932995 156.378462 
L 111.782741 156.378462 
L 111.782741 152.196923 
L 113.482234 152.196923 
L 113.482234 145.924615 
L 117.730964 145.924615 
L 117.730964 143.833846 
L 120.280203 143.833846 
L 120.280203 141.743077 
L 124.528934 141.743077 
L 124.528934 137.561538 
L 125.37868 137.561538 
L 125.37868 135.470769 
L 133.026396 135.470769 
L 133.026396 133.38 
L 134.725888 133.38 
L 134.725888 131.289231 
L 139.824365 131.289231 
L 139.824365 129.198462 
L 140.674112 129.198462 
L 140.674112 127.107692 
L 141.523858 127.107692 
L 141.523858 125.016923 
L 143.22335 125.016923 
L 143.22335 122.926154 
L 144.073096 122.926154 
L 144.073096 120.835385 
L 144.922843 120.835385 
L 144.922843 116.653846 
L 146.622335 116.653846 
L 146.622335 114.563077 
L 158.518782 114.563077 
L 158.518782 110.381538 
L 159.368528 110.381538 
L 159.368528 104.109231 
L 161.06802 104.109231 
L 161.06802 102.018462 
L 161.917766 102.018462 
L 161.917766 99.927692 
L 162.767513 99.927692 
L 162.767513 97.836923 
L 163.617259 97.836923 
L 163.617259 95.746154 
L 167.016244 95.746154 
L 167.016244 91.564615 
L 168.715736 91.564615 
L 168.715736 89.473846 
L 176.363452 89.473846 
L 176.363452 87.383077 
L 180.612183 87.383077 
L 180.612183 85.292308 
L 181.461929 85.292308 
L 181.461929 83.201538 
L 190.809137 83.201538 
L 190.809137 81.110769 
L 198.456853 81.110769 
L 198.456853 79.02 
L 209.503553 79.02 
L 209.503553 76.929231 
L 212.902538 76.929231 
L 212.902538 74.838462 
L 266.436548 74.838462 
L 266.436548 72.747692 
L 268.985787 72.747692 
L 268.985787 70.656923 
L 296.177665 70.656923 
L 296.177665 68.566154 
L 298.726904 68.566154 
L 298.726904 66.475385 
L 301.276142 66.475385 
L 301.276142 64.384615 
L 303.825381 64.384615 
L 303.825381 62.293846 
L 309.773604 62.293846 
L 309.773604 60.203077 
L 328.46802 60.203077 
L 328.46802 58.112308 
L 332.716751 58.112308 
L 332.716751 56.021538 
L 345.462944 56.021538 
L 345.462944 53.930769 
L 374.354315 53.930769 
L 374.354315 51.84 
L 388.8 51.84 
L 388.8 51.84 
" style="fill:none;stroke:#f2e2b8;stroke-linecap:round;stroke-width:1.5;"/>
   </g>
   <g id="line2d_33">
    <path clip-path="url(#p4a7f202f7c)" d="M 54 378 
L 54 327.821538 
L 54.849746 327.821538 
L 54.849746 290.187692 
L 55.699492 290.187692 
L 55.699492 288.096923 
L 57.398985 288.096923 
L 57.398985 283.915385 
L 58.248731 283.915385 
L 58.248731 275.552308 
L 59.098477 275.552308 
L 59.098477 271.370769 
L 60.79797 271.370769 
L 60.79797 269.28 
L 61.647716 269.28 
L 61.647716 267.189231 
L 62.497462 267.189231 
L 62.497462 265.098462 
L 63.347208 265.098462 
L 63.347208 263.007692 
L 64.196954 263.007692 
L 64.196954 258.826154 
L 65.046701 258.826154 
L 65.046701 252.553846 
L 65.896447 252.553846 
L 65.896447 246.281538 
L 66.746193 246.281538 
L 66.746193 244.190769 
L 67.595939 244.190769 
L 67.595939 242.1 
L 69.295431 242.1 
L 69.295431 231.646154 
L 72.694416 231.646154 
L 72.694416 229.555385 
L 73.544162 229.555385 
L 73.544162 221.192308 
L 74.393909 221.192308 
L 74.393909 210.738462 
L 76.943147 210.738462 
L 76.943147 204.466154 
L 77.792893 204.466154 
L 77.792893 202.375385 
L 81.191878 202.375385 
L 81.191878 200.284615 
L 82.041624 200.284615 
L 82.041624 196.103077 
L 84.590863 196.103077 
L 84.590863 194.012308 
L 86.290355 194.012308 
L 86.290355 191.921538 
L 87.140102 191.921538 
L 87.140102 189.830769 
L 91.388832 189.830769 
L 91.388832 187.74 
L 92.238579 187.74 
L 92.238579 183.558462 
L 93.938071 183.558462 
L 93.938071 181.467692 
L 94.787817 181.467692 
L 94.787817 179.376923 
L 95.637563 179.376923 
L 95.637563 177.286154 
L 96.48731 177.286154 
L 96.48731 171.013846 
L 97.337056 171.013846 
L 97.337056 168.923077 
L 101.585787 168.923077 
L 101.585787 166.832308 
L 104.135025 166.832308 
L 104.135025 164.741538 
L 104.984772 164.741538 
L 104.984772 160.56 
L 110.932995 160.56 
L 110.932995 158.469231 
L 111.782741 158.469231 
L 111.782741 154.287692 
L 112.632487 154.287692 
L 112.632487 152.196923 
L 113.482234 152.196923 
L 113.482234 145.924615 
L 118.580711 145.924615 
L 118.580711 143.833846 
L 121.129949 143.833846 
L 121.129949 141.743077 
L 121.979695 141.743077 
L 121.979695 139.652308 
L 123.679188 139.652308 
L 123.679188 133.38 
L 127.927919 133.38 
L 127.927919 131.289231 
L 134.725888 131.289231 
L 134.725888 127.107692 
L 137.275127 127.107692 
L 137.275127 125.016923 
L 138.974619 125.016923 
L 138.974619 122.926154 
L 142.373604 122.926154 
L 142.373604 120.835385 
L 144.922843 120.835385 
L 144.922843 118.744615 
L 145.772589 118.744615 
L 145.772589 116.653846 
L 150.871066 116.653846 
L 150.871066 114.563077 
L 153.420305 114.563077 
L 153.420305 112.472308 
L 154.270051 112.472308 
L 154.270051 110.381538 
L 155.969543 110.381538 
L 155.969543 108.290769 
L 157.669036 108.290769 
L 157.669036 106.2 
L 159.368528 106.2 
L 159.368528 104.109231 
L 160.218274 104.109231 
L 160.218274 102.018462 
L 161.917766 102.018462 
L 161.917766 97.836923 
L 162.767513 97.836923 
L 162.767513 95.746154 
L 167.86599 95.746154 
L 167.86599 93.655385 
L 176.363452 93.655385 
L 176.363452 89.473846 
L 177.213198 89.473846 
L 177.213198 85.292308 
L 183.161421 85.292308 
L 183.161421 83.201538 
L 187.410152 83.201538 
L 187.410152 81.110769 
L 192.508629 81.110769 
L 192.508629 79.02 
L 205.254822 79.02 
L 205.254822 76.929231 
L 224.798985 76.929231 
L 224.798985 74.838462 
L 265.586802 74.838462 
L 265.586802 72.747692 
L 283.431472 72.747692 
L 283.431472 70.656923 
L 302.975635 70.656923 
L 302.975635 68.566154 
L 303.825381 68.566154 
L 303.825381 64.384615 
L 306.374619 64.384615 
L 306.374619 62.293846 
L 309.773604 62.293846 
L 309.773604 60.203077 
L 330.167513 60.203077 
L 330.167513 58.112308 
L 336.965482 58.112308 
L 336.965482 56.021538 
L 342.913706 56.021538 
L 342.913706 53.930769 
L 374.354315 53.930769 
L 374.354315 51.84 
L 388.8 51.84 
L 388.8 51.84 
" style="fill:none;stroke:#e0c481;stroke-linecap:round;stroke-width:1.5;"/>
   </g>
   <g id="line2d_34">
    <path clip-path="url(#p4a7f202f7c)" d="M 54 378 
L 54 327.821538 
L 54.849746 327.821538 
L 54.849746 290.187692 
L 55.699492 290.187692 
L 55.699492 288.096923 
L 57.398985 288.096923 
L 57.398985 283.915385 
L 58.248731 283.915385 
L 58.248731 277.643077 
L 59.098477 277.643077 
L 59.098477 271.370769 
L 60.79797 271.370769 
L 60.79797 269.28 
L 61.647716 269.28 
L 61.647716 267.189231 
L 62.497462 267.189231 
L 62.497462 263.007692 
L 65.046701 263.007692 
L 65.046701 252.553846 
L 65.896447 252.553846 
L 65.896447 246.281538 
L 67.595939 246.281538 
L 67.595939 242.1 
L 68.445685 242.1 
L 68.445685 240.009231 
L 69.295431 240.009231 
L 69.295431 231.646154 
L 72.694416 231.646154 
L 72.694416 229.555385 
L 73.544162 229.555385 
L 73.544162 221.192308 
L 74.393909 221.192308 
L 74.393909 212.829231 
L 75.243655 212.829231 
L 75.243655 210.738462 
L 76.093401 210.738462 
L 76.093401 208.647692 
L 77.792893 208.647692 
L 77.792893 204.466154 
L 78.64264 204.466154 
L 78.64264 202.375385 
L 81.191878 202.375385 
L 81.191878 200.284615 
L 82.041624 200.284615 
L 82.041624 198.193846 
L 85.440609 198.193846 
L 85.440609 194.012308 
L 87.140102 194.012308 
L 87.140102 191.921538 
L 90.539086 191.921538 
L 90.539086 189.830769 
L 92.238579 189.830769 
L 92.238579 185.649231 
L 93.938071 185.649231 
L 93.938071 183.558462 
L 95.637563 183.558462 
L 95.637563 181.467692 
L 96.48731 181.467692 
L 96.48731 173.104615 
L 98.186802 173.104615 
L 98.186802 168.923077 
L 99.036548 168.923077 
L 99.036548 166.832308 
L 104.135025 166.832308 
L 104.135025 164.741538 
L 107.53401 164.741538 
L 107.53401 160.56 
L 109.233503 160.56 
L 109.233503 156.378462 
L 112.632487 156.378462 
L 112.632487 148.015385 
L 115.181726 148.015385 
L 115.181726 145.924615 
L 118.580711 145.924615 
L 118.580711 143.833846 
L 119.430457 143.833846 
L 119.430457 141.743077 
L 121.129949 141.743077 
L 121.129949 139.652308 
L 123.679188 139.652308 
L 123.679188 137.561538 
L 125.37868 137.561538 
L 125.37868 131.289231 
L 130.477157 131.289231 
L 130.477157 125.016923 
L 135.575635 125.016923 
L 135.575635 120.835385 
L 138.974619 120.835385 
L 138.974619 118.744615 
L 143.22335 118.744615 
L 143.22335 116.653846 
L 147.472081 116.653846 
L 147.472081 114.563077 
L 151.720812 114.563077 
L 151.720812 112.472308 
L 152.570558 112.472308 
L 152.570558 108.290769 
L 157.669036 108.290769 
L 157.669036 104.109231 
L 158.518782 104.109231 
L 158.518782 102.018462 
L 161.917766 102.018462 
L 161.917766 99.927692 
L 162.767513 99.927692 
L 162.767513 97.836923 
L 163.617259 97.836923 
L 163.617259 95.746154 
L 170.415228 95.746154 
L 170.415228 93.655385 
L 172.964467 93.655385 
L 172.964467 91.564615 
L 173.814213 91.564615 
L 173.814213 89.473846 
L 178.062944 89.473846 
L 178.062944 87.383077 
L 183.161421 87.383077 
L 183.161421 85.292308 
L 188.259898 85.292308 
L 188.259898 83.201538 
L 189.109645 83.201538 
L 189.109645 81.110769 
L 189.959391 81.110769 
L 189.959391 79.02 
L 201.006091 79.02 
L 201.006091 76.929231 
L 234.146193 76.929231 
L 234.146193 74.838462 
L 268.985787 74.838462 
L 268.985787 72.747692 
L 285.980711 72.747692 
L 285.980711 70.656923 
L 302.125888 70.656923 
L 302.125888 68.566154 
L 302.975635 68.566154 
L 302.975635 66.475385 
L 313.172589 66.475385 
L 313.172589 64.384615 
L 314.022335 64.384615 
L 314.022335 62.293846 
L 316.571574 62.293846 
L 316.571574 60.203077 
L 336.965482 60.203077 
L 336.965482 58.112308 
L 339.514721 58.112308 
L 339.514721 56.021538 
L 342.913706 56.021538 
L 342.913706 53.930769 
L 373.504569 53.930769 
L 373.504569 51.84 
L 388.8 51.84 
L 388.8 51.84 
" style="fill:none;stroke:#c99546;stroke-linecap:round;stroke-width:1.5;"/>
   </g>
   <g id="line2d_35">
    <path clip-path="url(#p4a7f202f7c)" d="M 54 378 
L 54 327.821538 
L 54.849746 327.821538 
L 54.849746 288.096923 
L 57.398985 288.096923 
L 57.398985 283.915385 
L 58.248731 283.915385 
L 58.248731 279.733846 
L 59.098477 279.733846 
L 59.098477 271.370769 
L 60.79797 271.370769 
L 60.79797 267.189231 
L 62.497462 267.189231 
L 62.497462 263.007692 
L 65.046701 263.007692 
L 65.046701 252.553846 
L 65.896447 252.553846 
L 65.896447 248.372308 
L 67.595939 248.372308 
L 67.595939 246.281538 
L 68.445685 246.281538 
L 68.445685 233.736923 
L 69.295431 233.736923 
L 69.295431 231.646154 
L 72.694416 231.646154 
L 72.694416 229.555385 
L 73.544162 229.555385 
L 73.544162 221.192308 
L 74.393909 221.192308 
L 74.393909 212.829231 
L 75.243655 212.829231 
L 75.243655 210.738462 
L 76.093401 210.738462 
L 76.093401 206.556923 
L 76.943147 206.556923 
L 76.943147 202.375385 
L 81.191878 202.375385 
L 81.191878 200.284615 
L 82.041624 200.284615 
L 82.041624 198.193846 
L 85.440609 198.193846 
L 85.440609 196.103077 
L 87.140102 196.103077 
L 87.140102 194.012308 
L 87.989848 194.012308 
L 87.989848 191.921538 
L 92.238579 191.921538 
L 92.238579 187.74 
L 93.088325 187.74 
L 93.088325 185.649231 
L 96.48731 185.649231 
L 96.48731 181.467692 
L 97.337056 181.467692 
L 97.337056 175.195385 
L 98.186802 175.195385 
L 98.186802 173.104615 
L 99.036548 173.104615 
L 99.036548 166.832308 
L 104.135025 166.832308 
L 104.135025 162.650769 
L 105.834518 162.650769 
L 105.834518 160.56 
L 108.383756 160.56 
L 108.383756 158.469231 
L 109.233503 158.469231 
L 109.233503 154.287692 
L 110.932995 154.287692 
L 110.932995 152.196923 
L 111.782741 152.196923 
L 111.782741 150.106154 
L 112.632487 150.106154 
L 112.632487 148.015385 
L 116.881218 148.015385 
L 116.881218 145.924615 
L 117.730964 145.924615 
L 117.730964 141.743077 
L 118.580711 141.743077 
L 118.580711 139.652308 
L 122.829442 139.652308 
L 122.829442 137.561538 
L 125.37868 137.561538 
L 125.37868 131.289231 
L 126.228426 131.289231 
L 126.228426 129.198462 
L 127.078173 129.198462 
L 127.078173 127.107692 
L 134.725888 127.107692 
L 134.725888 125.016923 
L 135.575635 125.016923 
L 135.575635 122.926154 
L 136.425381 122.926154 
L 136.425381 118.744615 
L 138.974619 118.744615 
L 138.974619 116.653846 
L 144.073096 116.653846 
L 144.073096 114.563077 
L 147.472081 114.563077 
L 147.472081 110.381538 
L 148.321827 110.381538 
L 148.321827 108.290769 
L 152.570558 108.290769 
L 152.570558 106.2 
L 155.969543 106.2 
L 155.969543 104.109231 
L 162.767513 104.109231 
L 162.767513 102.018462 
L 166.166497 102.018462 
L 166.166497 99.927692 
L 167.86599 99.927692 
L 167.86599 95.746154 
L 169.565482 95.746154 
L 169.565482 93.655385 
L 170.415228 93.655385 
L 170.415228 91.564615 
L 173.814213 91.564615 
L 173.814213 89.473846 
L 177.213198 89.473846 
L 177.213198 87.383077 
L 183.161421 87.383077 
L 183.161421 85.292308 
L 184.860914 85.292308 
L 184.860914 83.201538 
L 193.358376 83.201538 
L 193.358376 79.02 
L 200.156345 79.02 
L 200.156345 76.929231 
L 238.394924 76.929231 
L 238.394924 74.838462 
L 271.535025 74.838462 
L 271.535025 72.747692 
L 285.130964 72.747692 
L 285.130964 70.656923 
L 296.177665 70.656923 
L 296.177665 68.566154 
L 301.276142 68.566154 
L 301.276142 66.475385 
L 319.120812 66.475385 
L 319.120812 64.384615 
L 319.970558 64.384615 
L 319.970558 62.293846 
L 320.820305 62.293846 
L 320.820305 60.203077 
L 340.364467 60.203077 
L 340.364467 56.021538 
L 345.462944 56.021538 
L 345.462944 53.930769 
L 372.654822 53.930769 
L 372.654822 51.84 
L 388.8 51.84 
L 388.8 51.84 
" style="fill:none;stroke:#a76a1d;stroke-linecap:round;stroke-width:1.5;"/>
   </g>
   <g id="line2d_36">
    <path clip-path="url(#p4a7f202f7c)" d="M 54 378 
L 54 327.821538 
L 54.849746 327.821538 
L 54.849746 288.096923 
L 57.398985 288.096923 
L 57.398985 286.006154 
L 58.248731 286.006154 
L 58.248731 279.733846 
L 59.098477 279.733846 
L 59.098477 273.461538 
L 59.948223 273.461538 
L 59.948223 271.370769 
L 60.79797 271.370769 
L 60.79797 267.189231 
L 61.647716 267.189231 
L 61.647716 265.098462 
L 62.497462 265.098462 
L 62.497462 263.007692 
L 65.046701 263.007692 
L 65.046701 254.644615 
L 65.896447 254.644615 
L 65.896447 252.553846 
L 67.595939 252.553846 
L 67.595939 246.281538 
L 68.445685 246.281538 
L 68.445685 233.736923 
L 70.145178 233.736923 
L 70.145178 231.646154 
L 71.84467 231.646154 
L 71.84467 227.464615 
L 73.544162 227.464615 
L 73.544162 221.192308 
L 74.393909 221.192308 
L 74.393909 217.010769 
L 75.243655 217.010769 
L 75.243655 204.466154 
L 78.64264 204.466154 
L 78.64264 202.375385 
L 80.342132 202.375385 
L 80.342132 200.284615 
L 82.041624 200.284615 
L 82.041624 198.193846 
L 83.741117 198.193846 
L 83.741117 196.103077 
L 87.140102 196.103077 
L 87.140102 191.921538 
L 92.238579 191.921538 
L 92.238579 187.74 
L 93.088325 187.74 
L 93.088325 185.649231 
L 96.48731 185.649231 
L 96.48731 183.558462 
L 97.337056 183.558462 
L 97.337056 175.195385 
L 98.186802 175.195385 
L 98.186802 173.104615 
L 99.036548 173.104615 
L 99.036548 168.923077 
L 102.435533 168.923077 
L 102.435533 166.832308 
L 104.135025 166.832308 
L 104.135025 162.650769 
L 105.834518 162.650769 
L 105.834518 160.56 
L 106.684264 160.56 
L 106.684264 158.469231 
L 108.383756 158.469231 
L 108.383756 156.378462 
L 109.233503 156.378462 
L 109.233503 154.287692 
L 110.083249 154.287692 
L 110.083249 152.196923 
L 110.932995 152.196923 
L 110.932995 150.106154 
L 113.482234 150.106154 
L 113.482234 148.015385 
L 115.181726 148.015385 
L 115.181726 143.833846 
L 118.580711 143.833846 
L 118.580711 139.652308 
L 119.430457 139.652308 
L 119.430457 137.561538 
L 123.679188 137.561538 
L 123.679188 129.198462 
L 128.777665 129.198462 
L 128.777665 127.107692 
L 135.575635 127.107692 
L 135.575635 125.016923 
L 138.124873 125.016923 
L 138.124873 116.653846 
L 144.922843 116.653846 
L 144.922843 112.472308 
L 146.622335 112.472308 
L 146.622335 108.290769 
L 150.871066 108.290769 
L 150.871066 106.2 
L 153.420305 106.2 
L 153.420305 104.109231 
L 161.917766 104.109231 
L 161.917766 102.018462 
L 163.617259 102.018462 
L 163.617259 99.927692 
L 165.316751 99.927692 
L 165.316751 97.836923 
L 167.016244 97.836923 
L 167.016244 95.746154 
L 170.415228 95.746154 
L 170.415228 93.655385 
L 174.663959 93.655385 
L 174.663959 91.564615 
L 175.513706 91.564615 
L 175.513706 89.473846 
L 180.612183 89.473846 
L 180.612183 85.292308 
L 187.410152 85.292308 
L 187.410152 83.201538 
L 200.156345 83.201538 
L 200.156345 76.929231 
L 240.094416 76.929231 
L 240.094416 74.838462 
L 271.535025 74.838462 
L 271.535025 72.747692 
L 290.229442 72.747692 
L 290.229442 70.656923 
L 293.628426 70.656923 
L 293.628426 68.566154 
L 302.125888 68.566154 
L 302.125888 66.475385 
L 320.820305 66.475385 
L 320.820305 62.293846 
L 325.069036 62.293846 
L 325.069036 60.203077 
L 341.214213 60.203077 
L 341.214213 58.112308 
L 345.462944 58.112308 
L 345.462944 53.930769 
L 370.95533 53.930769 
L 370.95533 51.84 
L 388.8 51.84 
L 388.8 51.84 
" style="fill:none;stroke:#7e4909;stroke-linecap:round;stroke-width:1.5;"/>
   </g>
   <g id="line2d_37">
    <path clip-path="url(#p4a7f202f7c)" d="M 54 378 
L 388.8 51.84 
" style="fill:none;stroke:#949494;stroke-linecap:round;stroke-width:0.5;"/>
   </g>
   <g id="patch_3">
    <path d="M 54 378 
L 54 51.84 
" style="fill:none;stroke:#262626;stroke-linecap:square;stroke-linejoin:miter;stroke-width:1.25;"/>
   </g>
   <g id="patch_4">
    <path d="M 388.8 378 
L 388.8 51.84 
" style="fill:none;stroke:#262626;stroke-linecap:square;stroke-linejoin:miter;stroke-width:1.25;"/>
   </g>
   <g id="patch_5">
    <path d="M 54 378 
L 388.8 378 
" style="fill:none;stroke:#262626;stroke-linecap:square;stroke-linejoin:miter;stroke-width:1.25;"/>
   </g>
   <g id="patch_6">
    <path d="M 54 51.84 
L 388.8 51.84 
" style="fill:none;stroke:#262626;stroke-linecap:square;stroke-linejoin:miter;stroke-width:1.25;"/>
   </g>
   <g id="legend_1">
    <g id="patch_7">
     <path d="M 301.964375 374 
L 383.2 374 
Q 384.8 374 384.8 372.4 
L 384.8 216.67625 
Q 384.8 215.07625 383.2 215.07625 
L 301.964375 215.07625 
Q 300.364375 215.07625 300.364375 216.67625 
L 300.364375 372.4 
Q 300.364375 374 301.964375 374 
z
" style="fill:#ffffff;opacity:0.8;stroke:#cccccc;stroke-linejoin:miter;"/>
    </g>
    <g id="text_15">
     <!-- Age : AUROC -->
     <g style="fill:#262626;" transform="translate(303.564375 227.394375)scale(0.12 -0.12)">
      <defs>
       <path d="M 2188 4044 
L 1331 1722 
L 3047 1722 
L 2188 4044 
z
M 1831 4666 
L 2547 4666 
L 4325 0 
L 3669 0 
L 3244 1197 
L 1141 1197 
L 716 0 
L 50 0 
L 1831 4666 
z
" id="DejaVuSans-41" transform="scale(0.015625)"/>
       <path d="M 2906 1791 
Q 2906 2416 2648 2759 
Q 2391 3103 1925 3103 
Q 1463 3103 1205 2759 
Q 947 2416 947 1791 
Q 947 1169 1205 825 
Q 1463 481 1925 481 
Q 2391 481 2648 825 
Q 2906 1169 2906 1791 
z
M 3481 434 
Q 3481 -459 3084 -895 
Q 2688 -1331 1869 -1331 
Q 1566 -1331 1297 -1286 
Q 1028 -1241 775 -1147 
L 775 -588 
Q 1028 -725 1275 -790 
Q 1522 -856 1778 -856 
Q 2344 -856 2625 -561 
Q 2906 -266 2906 331 
L 2906 616 
Q 2728 306 2450 153 
Q 2172 0 1784 0 
Q 1141 0 747 490 
Q 353 981 353 1791 
Q 353 2603 747 3093 
Q 1141 3584 1784 3584 
Q 2172 3584 2450 3431 
Q 2728 3278 2906 2969 
L 2906 3500 
L 3481 3500 
L 3481 434 
z
" id="DejaVuSans-67" transform="scale(0.015625)"/>
       <path d="M 750 794 
L 1409 794 
L 1409 0 
L 750 0 
L 750 794 
z
M 750 3309 
L 1409 3309 
L 1409 2516 
L 750 2516 
L 750 3309 
z
" id="DejaVuSans-3a" transform="scale(0.015625)"/>
       <path d="M 556 4666 
L 1191 4666 
L 1191 1831 
Q 1191 1081 1462 751 
Q 1734 422 2344 422 
Q 2950 422 3222 751 
Q 3494 1081 3494 1831 
L 3494 4666 
L 4128 4666 
L 4128 1753 
Q 4128 841 3676 375 
Q 3225 -91 2344 -91 
Q 1459 -91 1007 375 
Q 556 841 556 1753 
L 556 4666 
z
" id="DejaVuSans-55" transform="scale(0.015625)"/>
       <path d="M 2522 4238 
Q 1834 4238 1429 3725 
Q 1025 3213 1025 2328 
Q 1025 1447 1429 934 
Q 1834 422 2522 422 
Q 3209 422 3611 934 
Q 4013 1447 4013 2328 
Q 4013 3213 3611 3725 
Q 3209 4238 2522 4238 
z
M 2522 4750 
Q 3503 4750 4090 4092 
Q 4678 3434 4678 2328 
Q 4678 1225 4090 567 
Q 3503 -91 2522 -91 
Q 1538 -91 948 565 
Q 359 1222 359 2328 
Q 359 3434 948 4092 
Q 1538 4750 2522 4750 
z
" id="DejaVuSans-4f" transform="scale(0.015625)"/>
       <path d="M 4122 4306 
L 4122 3641 
Q 3803 3938 3442 4084 
Q 3081 4231 2675 4231 
Q 1875 4231 1450 3742 
Q 1025 3253 1025 2328 
Q 1025 1406 1450 917 
Q 1875 428 2675 428 
Q 3081 428 3442 575 
Q 3803 722 4122 1019 
L 4122 359 
Q 3791 134 3420 21 
Q 3050 -91 2638 -91 
Q 1578 -91 968 557 
Q 359 1206 359 2328 
Q 359 3453 968 4101 
Q 1578 4750 2638 4750 
Q 3056 4750 3426 4639 
Q 3797 4528 4122 4306 
z
" id="DejaVuSans-43" transform="scale(0.015625)"/>
      </defs>
      <use xlink:href="#DejaVuSans-41"/>
      <use x="68.408203" xlink:href="#DejaVuSans-67"/>
      <use x="131.884766" xlink:href="#DejaVuSans-65"/>
      <use x="193.408203" xlink:href="#DejaVuSans-20"/>
      <use x="225.195312" xlink:href="#DejaVuSans-3a"/>
      <use x="258.886719" xlink:href="#DejaVuSans-20"/>
      <use x="290.673828" xlink:href="#DejaVuSans-41"/>
      <use x="359.082031" xlink:href="#DejaVuSans-55"/>
      <use x="432.275391" xlink:href="#DejaVuSans-52"/>
      <use x="501.757812" xlink:href="#DejaVuSans-4f"/>
      <use x="580.46875" xlink:href="#DejaVuSans-43"/>
     </g>
    </g>
    <g id="line2d_38">
     <path d="M 310.950938 237.16875 
L 326.950938 237.16875 
" style="fill:none;stroke:#015b52;stroke-linecap:round;stroke-width:1.5;"/>
    </g>
    <g id="line2d_39"/>
    <g id="text_16">
     <!-- 20 : 0.832 -->
     <g style="fill:#262626;" transform="translate(333.350937 239.96875)scale(0.08 -0.08)">
      <defs>
       <path d="M 2597 2516 
Q 3050 2419 3304 2112 
Q 3559 1806 3559 1356 
Q 3559 666 3084 287 
Q 2609 -91 1734 -91 
Q 1441 -91 1130 -33 
Q 819 25 488 141 
L 488 750 
Q 750 597 1062 519 
Q 1375 441 1716 441 
Q 2309 441 2620 675 
Q 2931 909 2931 1356 
Q 2931 1769 2642 2001 
Q 2353 2234 1838 2234 
L 1294 2234 
L 1294 2753 
L 1863 2753 
Q 2328 2753 2575 2939 
Q 2822 3125 2822 3475 
Q 2822 3834 2567 4026 
Q 2313 4219 1838 4219 
Q 1578 4219 1281 4162 
Q 984 4106 628 3988 
L 628 4550 
Q 988 4650 1302 4700 
Q 1616 4750 1894 4750 
Q 2613 4750 3031 4423 
Q 3450 4097 3450 3541 
Q 3450 3153 3228 2886 
Q 3006 2619 2597 2516 
z
" id="DejaVuSans-33" transform="scale(0.015625)"/>
      </defs>
      <use xlink:href="#DejaVuSans-32"/>
      <use x="63.623047" xlink:href="#DejaVuSans-30"/>
      <use x="127.246094" xlink:href="#DejaVuSans-20"/>
      <use x="159.033203" xlink:href="#DejaVuSans-3a"/>
      <use x="192.724609" xlink:href="#DejaVuSans-20"/>
      <use x="224.511719" xlink:href="#DejaVuSans-30"/>
      <use x="288.134766" xlink:href="#DejaVuSans-2e"/>
      <use x="319.921875" xlink:href="#DejaVuSans-38"/>
      <use x="383.544922" xlink:href="#DejaVuSans-33"/>
      <use x="447.167969" xlink:href="#DejaVuSans-32"/>
     </g>
    </g>
    <g id="line2d_40">
     <path d="M 310.950938 248.91125 
L 326.950938 248.91125 
" style="fill:none;stroke:#1d8078;stroke-linecap:round;stroke-width:1.5;"/>
    </g>
    <g id="line2d_41"/>
    <g id="text_17">
     <!-- 25 : 0.836 -->
     <g style="fill:#262626;" transform="translate(333.350937 251.71125)scale(0.08 -0.08)">
      <defs>
       <path d="M 691 4666 
L 3169 4666 
L 3169 4134 
L 1269 4134 
L 1269 2991 
Q 1406 3038 1543 3061 
Q 1681 3084 1819 3084 
Q 2600 3084 3056 2656 
Q 3513 2228 3513 1497 
Q 3513 744 3044 326 
Q 2575 -91 1722 -91 
Q 1428 -91 1123 -41 
Q 819 9 494 109 
L 494 744 
Q 775 591 1075 516 
Q 1375 441 1709 441 
Q 2250 441 2565 725 
Q 2881 1009 2881 1497 
Q 2881 1984 2565 2268 
Q 2250 2553 1709 2553 
Q 1456 2553 1204 2497 
Q 953 2441 691 2322 
L 691 4666 
z
" id="DejaVuSans-35" transform="scale(0.015625)"/>
      </defs>
      <use xlink:href="#DejaVuSans-32"/>
      <use x="63.623047" xlink:href="#DejaVuSans-35"/>
      <use x="127.246094" xlink:href="#DejaVuSans-20"/>
      <use x="159.033203" xlink:href="#DejaVuSans-3a"/>
      <use x="192.724609" xlink:href="#DejaVuSans-20"/>
      <use x="224.511719" xlink:href="#DejaVuSans-30"/>
      <use x="288.134766" xlink:href="#DejaVuSans-2e"/>
      <use x="319.921875" xlink:href="#DejaVuSans-38"/>
      <use x="383.544922" xlink:href="#DejaVuSans-33"/>
      <use x="447.167969" xlink:href="#DejaVuSans-36"/>
     </g>
    </g>
    <g id="line2d_42">
     <path d="M 310.950938 260.65375 
L 326.950938 260.65375 
" style="fill:none;stroke:#4da89f;stroke-linecap:round;stroke-width:1.5;"/>
    </g>
    <g id="line2d_43"/>
    <g id="text_18">
     <!-- 30 : 0.840 -->
     <g style="fill:#262626;" transform="translate(333.350937 263.45375)scale(0.08 -0.08)">
      <use xlink:href="#DejaVuSans-33"/>
      <use x="63.623047" xlink:href="#DejaVuSans-30"/>
      <use x="127.246094" xlink:href="#DejaVuSans-20"/>
      <use x="159.033203" xlink:href="#DejaVuSans-3a"/>
      <use x="192.724609" xlink:href="#DejaVuSans-20"/>
      <use x="224.511719" xlink:href="#DejaVuSans-30"/>
      <use x="288.134766" xlink:href="#DejaVuSans-2e"/>
      <use x="319.921875" xlink:href="#DejaVuSans-38"/>
      <use x="383.544922" xlink:href="#DejaVuSans-34"/>
      <use x="447.167969" xlink:href="#DejaVuSans-30"/>
     </g>
    </g>
    <g id="line2d_44">
     <path d="M 310.950938 272.39625 
L 326.950938 272.39625 
" style="fill:none;stroke:#84cfc3;stroke-linecap:round;stroke-width:1.5;"/>
    </g>
    <g id="line2d_45"/>
    <g id="text_19">
     <!-- 35 : 0.844 -->
     <g style="fill:#262626;" transform="translate(333.350937 275.19625)scale(0.08 -0.08)">
      <use xlink:href="#DejaVuSans-33"/>
      <use x="63.623047" xlink:href="#DejaVuSans-35"/>
      <use x="127.246094" xlink:href="#DejaVuSans-20"/>
      <use x="159.033203" xlink:href="#DejaVuSans-3a"/>
      <use x="192.724609" xlink:href="#DejaVuSans-20"/>
      <use x="224.511719" xlink:href="#DejaVuSans-30"/>
      <use x="288.134766" xlink:href="#DejaVuSans-2e"/>
      <use x="319.921875" xlink:href="#DejaVuSans-38"/>
      <use x="383.544922" xlink:href="#DejaVuSans-34"/>
      <use x="447.167969" xlink:href="#DejaVuSans-34"/>
     </g>
    </g>
    <g id="line2d_46">
     <path d="M 310.950938 284.13875 
L 326.950938 284.13875 
" style="fill:none;stroke:#bce5df;stroke-linecap:round;stroke-width:1.5;"/>
    </g>
    <g id="line2d_47"/>
    <g id="text_20">
     <!-- 40 : 0.845 -->
     <g style="fill:#262626;" transform="translate(333.350937 286.93875)scale(0.08 -0.08)">
      <use xlink:href="#DejaVuSans-34"/>
      <use x="63.623047" xlink:href="#DejaVuSans-30"/>
      <use x="127.246094" xlink:href="#DejaVuSans-20"/>
      <use x="159.033203" xlink:href="#DejaVuSans-3a"/>
      <use x="192.724609" xlink:href="#DejaVuSans-20"/>
      <use x="224.511719" xlink:href="#DejaVuSans-30"/>
      <use x="288.134766" xlink:href="#DejaVuSans-2e"/>
      <use x="319.921875" xlink:href="#DejaVuSans-38"/>
      <use x="383.544922" xlink:href="#DejaVuSans-34"/>
      <use x="447.167969" xlink:href="#DejaVuSans-35"/>
     </g>
    </g>
    <g id="line2d_48">
     <path d="M 310.950938 295.88125 
L 326.950938 295.88125 
" style="fill:none;stroke:#e4f1ef;stroke-linecap:round;stroke-width:1.5;"/>
    </g>
    <g id="line2d_49"/>
    <g id="text_21">
     <!-- 45 : 0.846 -->
     <g style="fill:#262626;" transform="translate(333.350937 298.68125)scale(0.08 -0.08)">
      <use xlink:href="#DejaVuSans-34"/>
      <use x="63.623047" xlink:href="#DejaVuSans-35"/>
      <use x="127.246094" xlink:href="#DejaVuSans-20"/>
      <use x="159.033203" xlink:href="#DejaVuSans-3a"/>
      <use x="192.724609" xlink:href="#DejaVuSans-20"/>
      <use x="224.511719" xlink:href="#DejaVuSans-30"/>
      <use x="288.134766" xlink:href="#DejaVuSans-2e"/>
      <use x="319.921875" xlink:href="#DejaVuSans-38"/>
      <use x="383.544922" xlink:href="#DejaVuSans-34"/>
      <use x="447.167969" xlink:href="#DejaVuSans-36"/>
     </g>
    </g>
    <g id="line2d_50">
     <path d="M 310.950938 307.62375 
L 326.950938 307.62375 
" style="fill:none;stroke:#f5f0e2;stroke-linecap:round;stroke-width:1.5;"/>
    </g>
    <g id="line2d_51"/>
    <g id="text_22">
     <!-- 50 : 0.846 -->
     <g style="fill:#262626;" transform="translate(333.350937 310.42375)scale(0.08 -0.08)">
      <use xlink:href="#DejaVuSans-35"/>
      <use x="63.623047" xlink:href="#DejaVuSans-30"/>
      <use x="127.246094" xlink:href="#DejaVuSans-20"/>
      <use x="159.033203" xlink:href="#DejaVuSans-3a"/>
      <use x="192.724609" xlink:href="#DejaVuSans-20"/>
      <use x="224.511719" xlink:href="#DejaVuSans-30"/>
      <use x="288.134766" xlink:href="#DejaVuSans-2e"/>
      <use x="319.921875" xlink:href="#DejaVuSans-38"/>
      <use x="383.544922" xlink:href="#DejaVuSans-34"/>
      <use x="447.167969" xlink:href="#DejaVuSans-36"/>
     </g>
    </g>
    <g id="line2d_52">
     <path d="M 310.950938 319.36625 
L 326.950938 319.36625 
" style="fill:none;stroke:#f2e2b8;stroke-linecap:round;stroke-width:1.5;"/>
    </g>
    <g id="line2d_53"/>
    <g id="text_23">
     <!-- 55 : 0.845 -->
     <g style="fill:#262626;" transform="translate(333.350937 322.16625)scale(0.08 -0.08)">
      <use xlink:href="#DejaVuSans-35"/>
      <use x="63.623047" xlink:href="#DejaVuSans-35"/>
      <use x="127.246094" xlink:href="#DejaVuSans-20"/>
      <use x="159.033203" xlink:href="#DejaVuSans-3a"/>
      <use x="192.724609" xlink:href="#DejaVuSans-20"/>
      <use x="224.511719" xlink:href="#DejaVuSans-30"/>
      <use x="288.134766" xlink:href="#DejaVuSans-2e"/>
      <use x="319.921875" xlink:href="#DejaVuSans-38"/>
      <use x="383.544922" xlink:href="#DejaVuSans-34"/>
      <use x="447.167969" xlink:href="#DejaVuSans-35"/>
     </g>
    </g>
    <g id="line2d_54">
     <path d="M 310.950938 331.10875 
L 326.950938 331.10875 
" style="fill:none;stroke:#e0c481;stroke-linecap:round;stroke-width:1.5;"/>
    </g>
    <g id="line2d_55"/>
    <g id="text_24">
     <!-- 60 : 0.845 -->
     <g style="fill:#262626;" transform="translate(333.350937 333.90875)scale(0.08 -0.08)">
      <use xlink:href="#DejaVuSans-36"/>
      <use x="63.623047" xlink:href="#DejaVuSans-30"/>
      <use x="127.246094" xlink:href="#DejaVuSans-20"/>
      <use x="159.033203" xlink:href="#DejaVuSans-3a"/>
      <use x="192.724609" xlink:href="#DejaVuSans-20"/>
      <use x="224.511719" xlink:href="#DejaVuSans-30"/>
      <use x="288.134766" xlink:href="#DejaVuSans-2e"/>
      <use x="319.921875" xlink:href="#DejaVuSans-38"/>
      <use x="383.544922" xlink:href="#DejaVuSans-34"/>
      <use x="447.167969" xlink:href="#DejaVuSans-35"/>
     </g>
    </g>
    <g id="line2d_56">
     <path d="M 310.950938 342.85125 
L 326.950938 342.85125 
" style="fill:none;stroke:#c99546;stroke-linecap:round;stroke-width:1.5;"/>
    </g>
    <g id="line2d_57"/>
    <g id="text_25">
     <!-- 65 : 0.845 -->
     <g style="fill:#262626;" transform="translate(333.350937 345.65125)scale(0.08 -0.08)">
      <use xlink:href="#DejaVuSans-36"/>
      <use x="63.623047" xlink:href="#DejaVuSans-35"/>
      <use x="127.246094" xlink:href="#DejaVuSans-20"/>
      <use x="159.033203" xlink:href="#DejaVuSans-3a"/>
      <use x="192.724609" xlink:href="#DejaVuSans-20"/>
      <use x="224.511719" xlink:href="#DejaVuSans-30"/>
      <use x="288.134766" xlink:href="#DejaVuSans-2e"/>
      <use x="319.921875" xlink:href="#DejaVuSans-38"/>
      <use x="383.544922" xlink:href="#DejaVuSans-34"/>
      <use x="447.167969" xlink:href="#DejaVuSans-35"/>
     </g>
    </g>
    <g id="line2d_58">
     <path d="M 310.950938 354.59375 
L 326.950938 354.59375 
" style="fill:none;stroke:#a76a1d;stroke-linecap:round;stroke-width:1.5;"/>
    </g>
    <g id="line2d_59"/>
    <g id="text_26">
     <!-- 70 : 0.845 -->
     <g style="fill:#262626;" transform="translate(333.350937 357.39375)scale(0.08 -0.08)">
      <defs>
       <path d="M 525 4666 
L 3525 4666 
L 3525 4397 
L 1831 0 
L 1172 0 
L 2766 4134 
L 525 4134 
L 525 4666 
z
" id="DejaVuSans-37" transform="scale(0.015625)"/>
      </defs>
      <use xlink:href="#DejaVuSans-37"/>
      <use x="63.623047" xlink:href="#DejaVuSans-30"/>
      <use x="127.246094" xlink:href="#DejaVuSans-20"/>
      <use x="159.033203" xlink:href="#DejaVuSans-3a"/>
      <use x="192.724609" xlink:href="#DejaVuSans-20"/>
      <use x="224.511719" xlink:href="#DejaVuSans-30"/>
      <use x="288.134766" xlink:href="#DejaVuSans-2e"/>
      <use x="319.921875" xlink:href="#DejaVuSans-38"/>
      <use x="383.544922" xlink:href="#DejaVuSans-34"/>
      <use x="447.167969" xlink:href="#DejaVuSans-35"/>
     </g>
    </g>
    <g id="line2d_60">
     <path d="M 310.950938 366.33625 
L 326.950938 366.33625 
" style="fill:none;stroke:#7e4909;stroke-linecap:round;stroke-width:1.5;"/>
    </g>
    <g id="line2d_61"/>
    <g id="text_27">
     <!-- 75 : 0.845 -->
     <g style="fill:#262626;" transform="translate(333.350937 369.13625)scale(0.08 -0.08)">
      <use xlink:href="#DejaVuSans-37"/>
      <use x="63.623047" xlink:href="#DejaVuSans-35"/>
      <use x="127.246094" xlink:href="#DejaVuSans-20"/>
      <use x="159.033203" xlink:href="#DejaVuSans-3a"/>
      <use x="192.724609" xlink:href="#DejaVuSans-20"/>
      <use x="224.511719" xlink:href="#DejaVuSans-30"/>
      <use x="288.134766" xlink:href="#DejaVuSans-2e"/>
      <use x="319.921875" xlink:href="#DejaVuSans-38"/>
      <use x="383.544922" xlink:href="#DejaVuSans-34"/>
      <use x="447.167969" xlink:href="#DejaVuSans-35"/>
     </g>
    </g>
   </g>
  </g>
 </g>
 <defs>
  <clipPath id="p4a7f202f7c">
   <rect height="326.16" width="334.8" x="54" y="51.84"/>
  </clipPath>
 </defs>
</svg>
